%
M48
M72
T01C0.0197
T02C0.0236
T03C0.0400
%
T01
X13760Y14328
X15360Y14328
X16960Y14328
X18560Y14328
X20160Y14328
X21760Y14328
X23360Y14328
X12360Y14328
X6560Y18328
X2260Y17128
X10860Y19528
X15160Y20728
X19460Y20728
X23960Y19528
X28360Y18328
X32660Y17128
T02
X13960Y11528
T03
X13960Y1328
X14960Y1328
X21960Y2328
X12960Y2328
X15960Y1328
X16960Y1328
X17960Y1328
X18960Y1328
X20960Y1328
X19960Y1328
X12960Y1328
X21960Y1328
M30
