G75*
%MOIN*%
%OFA0B0*%
%FSLAX24Y24*%
%IPPOS*%
%LPD*%
%AMOC8*
5,1,8,0,0,1.08239X$1,22.5*
%
%ADD10C,0.0000*%
%ADD11OC8,0.0600*%
%ADD12C,0.0317*%
%ADD13C,0.0560*%
%ADD14C,0.0100*%
%ADD15C,0.0356*%
D10*
X012260Y000228D02*
X012260Y011128D01*
X010460Y012928D01*
X010460Y016628D01*
X009060Y016628D01*
X007560Y015128D01*
X000160Y015128D01*
X000160Y017528D01*
X014460Y007828D02*
X014460Y004828D01*
X014462Y004778D01*
X014468Y004727D01*
X014477Y004678D01*
X014490Y004629D01*
X014507Y004581D01*
X014527Y004535D01*
X014550Y004491D01*
X014577Y004448D01*
X014607Y004407D01*
X014640Y004369D01*
X014676Y004333D01*
X014714Y004300D01*
X014755Y004270D01*
X014798Y004243D01*
X014842Y004220D01*
X014888Y004200D01*
X014936Y004183D01*
X014985Y004170D01*
X015034Y004161D01*
X015085Y004155D01*
X015135Y004153D01*
X015185Y004155D01*
X015236Y004161D01*
X015285Y004170D01*
X015334Y004183D01*
X015382Y004200D01*
X015428Y004220D01*
X015473Y004243D01*
X015515Y004270D01*
X015556Y004300D01*
X015594Y004333D01*
X015630Y004369D01*
X015663Y004407D01*
X015693Y004448D01*
X015720Y004491D01*
X015743Y004535D01*
X015763Y004581D01*
X015780Y004629D01*
X015793Y004678D01*
X015802Y004727D01*
X015808Y004778D01*
X015810Y004828D01*
X015810Y007828D01*
X015808Y007878D01*
X015802Y007929D01*
X015793Y007978D01*
X015780Y008027D01*
X015763Y008075D01*
X015743Y008121D01*
X015720Y008166D01*
X015693Y008208D01*
X015663Y008249D01*
X015630Y008287D01*
X015594Y008323D01*
X015556Y008356D01*
X015515Y008386D01*
X015473Y008413D01*
X015428Y008436D01*
X015382Y008456D01*
X015334Y008473D01*
X015285Y008486D01*
X015236Y008495D01*
X015185Y008501D01*
X015135Y008503D01*
X015085Y008501D01*
X015034Y008495D01*
X014985Y008486D01*
X014936Y008473D01*
X014888Y008456D01*
X014842Y008436D01*
X014798Y008413D01*
X014755Y008386D01*
X014714Y008356D01*
X014676Y008323D01*
X014640Y008287D01*
X014607Y008249D01*
X014577Y008208D01*
X014550Y008166D01*
X014527Y008121D01*
X014507Y008075D01*
X014490Y008027D01*
X014477Y007978D01*
X014468Y007929D01*
X014462Y007878D01*
X014460Y007828D01*
X019110Y007828D02*
X019110Y004828D01*
X019112Y004778D01*
X019118Y004727D01*
X019127Y004678D01*
X019140Y004629D01*
X019157Y004581D01*
X019177Y004535D01*
X019200Y004491D01*
X019227Y004448D01*
X019257Y004407D01*
X019290Y004369D01*
X019326Y004333D01*
X019364Y004300D01*
X019405Y004270D01*
X019448Y004243D01*
X019492Y004220D01*
X019538Y004200D01*
X019586Y004183D01*
X019635Y004170D01*
X019684Y004161D01*
X019735Y004155D01*
X019785Y004153D01*
X019835Y004155D01*
X019886Y004161D01*
X019935Y004170D01*
X019984Y004183D01*
X020032Y004200D01*
X020078Y004220D01*
X020123Y004243D01*
X020165Y004270D01*
X020206Y004300D01*
X020244Y004333D01*
X020280Y004369D01*
X020313Y004407D01*
X020343Y004448D01*
X020370Y004491D01*
X020393Y004535D01*
X020413Y004581D01*
X020430Y004629D01*
X020443Y004678D01*
X020452Y004727D01*
X020458Y004778D01*
X020460Y004828D01*
X020460Y007828D01*
X020458Y007878D01*
X020452Y007929D01*
X020443Y007978D01*
X020430Y008027D01*
X020413Y008075D01*
X020393Y008121D01*
X020370Y008166D01*
X020343Y008208D01*
X020313Y008249D01*
X020280Y008287D01*
X020244Y008323D01*
X020206Y008356D01*
X020165Y008386D01*
X020123Y008413D01*
X020078Y008436D01*
X020032Y008456D01*
X019984Y008473D01*
X019935Y008486D01*
X019886Y008495D01*
X019835Y008501D01*
X019785Y008503D01*
X019735Y008501D01*
X019684Y008495D01*
X019635Y008486D01*
X019586Y008473D01*
X019538Y008456D01*
X019492Y008436D01*
X019448Y008413D01*
X019405Y008386D01*
X019364Y008356D01*
X019326Y008323D01*
X019290Y008287D01*
X019257Y008249D01*
X019227Y008208D01*
X019200Y008166D01*
X019177Y008121D01*
X019157Y008075D01*
X019140Y008027D01*
X019127Y007978D01*
X019118Y007929D01*
X019112Y007878D01*
X019110Y007828D01*
X022660Y011128D02*
X024460Y012928D01*
X024460Y016628D01*
X025860Y016628D01*
X027360Y015128D01*
X034760Y015128D01*
X034760Y017528D01*
X022660Y011128D02*
X022660Y000228D01*
X012260Y000228D01*
X000160Y017528D02*
X000686Y017940D01*
X001221Y018338D01*
X001766Y018724D01*
X002320Y019097D01*
X002883Y019456D01*
X003454Y019801D01*
X004034Y020132D01*
X004621Y020450D01*
X005216Y020753D01*
X005818Y021041D01*
X006427Y021315D01*
X007042Y021574D01*
X007663Y021818D01*
X008291Y022047D01*
X008923Y022261D01*
X009560Y022460D01*
X010202Y022643D01*
X010849Y022810D01*
X011499Y022962D01*
X012152Y023098D01*
X012809Y023219D01*
X013468Y023323D01*
X014130Y023412D01*
X014794Y023484D01*
X015459Y023540D01*
X016125Y023581D01*
X016792Y023605D01*
X017460Y023613D01*
X018128Y023605D01*
X018795Y023581D01*
X019461Y023540D01*
X020126Y023484D01*
X020790Y023412D01*
X021452Y023323D01*
X022111Y023219D01*
X022768Y023098D01*
X023421Y022962D01*
X024071Y022810D01*
X024718Y022643D01*
X025360Y022460D01*
X025997Y022261D01*
X026629Y022047D01*
X027257Y021818D01*
X027878Y021574D01*
X028493Y021315D01*
X029102Y021041D01*
X029704Y020753D01*
X030299Y020450D01*
X030886Y020132D01*
X031466Y019801D01*
X032037Y019456D01*
X032600Y019097D01*
X033154Y018724D01*
X033699Y018338D01*
X034234Y017940D01*
X034760Y017528D01*
D11*
X021960Y002328D03*
X021960Y001328D03*
X020960Y001328D03*
X019960Y001328D03*
X018960Y001328D03*
X017960Y001328D03*
X016960Y001328D03*
X015960Y001328D03*
X014960Y001328D03*
X013960Y001328D03*
X012960Y001328D03*
X012960Y002328D03*
D12*
X012360Y014328D03*
X013760Y014328D03*
X015360Y014328D03*
X016960Y014328D03*
X018560Y014328D03*
X020160Y014328D03*
X021760Y014328D03*
X023360Y014328D03*
X028360Y018328D03*
X032660Y017128D03*
X023960Y019528D03*
X019460Y020728D03*
X015160Y020728D03*
X010860Y019528D03*
X006560Y018328D03*
X002260Y017128D03*
D13*
X012360Y014328D02*
X013760Y014328D01*
X013960Y014328D02*
X013960Y011528D01*
X013960Y014328D02*
X015360Y014328D01*
X016960Y014328D01*
X018560Y014328D01*
X020160Y014328D01*
X021760Y014328D01*
X023360Y014328D01*
D14*
X023669Y014656D02*
X024290Y014656D01*
X024290Y014754D02*
X023507Y014754D01*
X023449Y014778D02*
X017049Y014778D01*
X013870Y014778D01*
X013860Y014774D01*
X013849Y014778D01*
X012270Y014778D01*
X012105Y014710D01*
X011978Y014583D01*
X011910Y014418D01*
X011910Y014239D01*
X011978Y014074D01*
X012105Y013947D01*
X012270Y013878D01*
X013510Y013878D01*
X013510Y011439D01*
X013578Y011274D01*
X013705Y011147D01*
X013870Y011078D01*
X014049Y011078D01*
X014215Y011147D01*
X014341Y011274D01*
X014410Y011439D01*
X014410Y013878D01*
X023449Y013878D01*
X023615Y013947D01*
X023741Y014074D01*
X023810Y014239D01*
X023810Y014418D01*
X023741Y014583D01*
X023615Y014710D01*
X023449Y014778D01*
X023752Y014557D02*
X024290Y014557D01*
X024290Y014459D02*
X023793Y014459D01*
X023810Y014360D02*
X024290Y014360D01*
X024290Y014262D02*
X023810Y014262D01*
X023778Y014163D02*
X024290Y014163D01*
X024290Y014065D02*
X023733Y014065D01*
X023634Y013966D02*
X024290Y013966D01*
X024290Y013868D02*
X014410Y013868D01*
X014410Y013769D02*
X024290Y013769D01*
X024290Y013671D02*
X014410Y013671D01*
X014410Y013572D02*
X024290Y013572D01*
X024290Y013474D02*
X014410Y013474D01*
X014410Y013375D02*
X024290Y013375D01*
X024290Y013277D02*
X014410Y013277D01*
X014410Y013178D02*
X024290Y013178D01*
X024290Y013080D02*
X014410Y013080D01*
X014410Y012981D02*
X024272Y012981D01*
X024290Y012999D02*
X022490Y011199D01*
X022490Y000398D01*
X012430Y000398D01*
X012430Y011199D01*
X010630Y012999D01*
X010630Y016558D01*
X010630Y016699D01*
X010530Y016798D01*
X008989Y016798D01*
X007489Y015298D01*
X000330Y015298D01*
X000330Y017445D01*
X001039Y017994D01*
X002647Y019107D01*
X004330Y020102D01*
X006080Y020975D01*
X007887Y021721D01*
X009743Y022337D01*
X011637Y022819D01*
X013562Y023165D01*
X015506Y023374D01*
X017460Y023443D01*
X019414Y023374D01*
X021358Y023165D01*
X023282Y022819D01*
X025177Y022337D01*
X027033Y021721D01*
X028840Y020975D01*
X030589Y020102D01*
X032272Y019107D01*
X033880Y017994D01*
X034590Y017445D01*
X034590Y015298D01*
X027430Y015298D01*
X025930Y016798D01*
X024389Y016798D01*
X024290Y016699D01*
X024290Y012999D01*
X024174Y012883D02*
X014410Y012883D01*
X014410Y012784D02*
X024075Y012784D01*
X023977Y012686D02*
X014410Y012686D01*
X014410Y012587D02*
X023878Y012587D01*
X023780Y012489D02*
X014410Y012489D01*
X014410Y012390D02*
X023681Y012390D01*
X023583Y012292D02*
X014410Y012292D01*
X014410Y012193D02*
X023484Y012193D01*
X023386Y012095D02*
X014410Y012095D01*
X014410Y011996D02*
X023287Y011996D01*
X023189Y011898D02*
X014410Y011898D01*
X014410Y011799D02*
X023090Y011799D01*
X022992Y011701D02*
X014410Y011701D01*
X014410Y011602D02*
X022893Y011602D01*
X022795Y011504D02*
X014410Y011504D01*
X014396Y011405D02*
X022696Y011405D01*
X022598Y011307D02*
X014355Y011307D01*
X014276Y011208D02*
X022499Y011208D01*
X022490Y011110D02*
X014125Y011110D01*
X013794Y011110D02*
X012430Y011110D01*
X012430Y011011D02*
X022490Y011011D01*
X022490Y010913D02*
X012430Y010913D01*
X012430Y010814D02*
X022490Y010814D01*
X022490Y010716D02*
X012430Y010716D01*
X012430Y010617D02*
X022490Y010617D01*
X022490Y010519D02*
X012430Y010519D01*
X012430Y010420D02*
X022490Y010420D01*
X022490Y010322D02*
X012430Y010322D01*
X012430Y010223D02*
X022490Y010223D01*
X022490Y010125D02*
X012430Y010125D01*
X012430Y010026D02*
X022490Y010026D01*
X022490Y009928D02*
X012430Y009928D01*
X012430Y009829D02*
X022490Y009829D01*
X022490Y009731D02*
X012430Y009731D01*
X012430Y009632D02*
X022490Y009632D01*
X022490Y009534D02*
X012430Y009534D01*
X012430Y009435D02*
X022490Y009435D01*
X022490Y009337D02*
X012430Y009337D01*
X012430Y009238D02*
X022490Y009238D01*
X022490Y009140D02*
X012430Y009140D01*
X012430Y009041D02*
X022490Y009041D01*
X022490Y008943D02*
X012430Y008943D01*
X012430Y008844D02*
X022490Y008844D01*
X022490Y008746D02*
X012430Y008746D01*
X012430Y008647D02*
X014904Y008647D01*
X014967Y008673D02*
X014656Y008545D01*
X014418Y008307D01*
X014290Y007997D01*
X014290Y004660D01*
X014418Y004350D01*
X014656Y004112D01*
X014656Y004112D01*
X014967Y003983D01*
X015303Y003983D01*
X015613Y004112D01*
X015851Y004350D01*
X015980Y004660D01*
X015980Y004899D01*
X015980Y007758D01*
X015980Y007997D01*
X015851Y008307D01*
X015851Y008307D01*
X015613Y008545D01*
X015303Y008673D01*
X014967Y008673D01*
X014666Y008549D02*
X012430Y008549D01*
X012430Y008450D02*
X014562Y008450D01*
X014656Y008545D02*
X014656Y008545D01*
X014463Y008352D02*
X012430Y008352D01*
X012430Y008253D02*
X014396Y008253D01*
X014418Y008307D02*
X014418Y008307D01*
X014355Y008155D02*
X012430Y008155D01*
X012430Y008056D02*
X014315Y008056D01*
X014290Y007958D02*
X012430Y007958D01*
X012430Y007859D02*
X014290Y007859D01*
X014290Y007761D02*
X012430Y007761D01*
X012430Y007662D02*
X014290Y007662D01*
X014290Y007564D02*
X012430Y007564D01*
X012430Y007465D02*
X014290Y007465D01*
X014290Y007367D02*
X012430Y007367D01*
X012430Y007268D02*
X014290Y007268D01*
X014290Y007170D02*
X012430Y007170D01*
X012430Y007071D02*
X014290Y007071D01*
X014290Y006973D02*
X012430Y006973D01*
X012430Y006874D02*
X014290Y006874D01*
X014290Y006776D02*
X012430Y006776D01*
X012430Y006677D02*
X014290Y006677D01*
X014290Y006579D02*
X012430Y006579D01*
X012430Y006480D02*
X014290Y006480D01*
X014290Y006382D02*
X012430Y006382D01*
X012430Y006283D02*
X014290Y006283D01*
X014290Y006185D02*
X012430Y006185D01*
X012430Y006086D02*
X014290Y006086D01*
X014290Y005988D02*
X012430Y005988D01*
X012430Y005889D02*
X014290Y005889D01*
X014290Y005791D02*
X012430Y005791D01*
X012430Y005692D02*
X014290Y005692D01*
X014290Y005594D02*
X012430Y005594D01*
X012430Y005495D02*
X014290Y005495D01*
X014290Y005397D02*
X012430Y005397D01*
X012430Y005298D02*
X014290Y005298D01*
X014290Y005200D02*
X012430Y005200D01*
X012430Y005101D02*
X014290Y005101D01*
X014290Y005003D02*
X012430Y005003D01*
X012430Y004904D02*
X014290Y004904D01*
X014290Y004806D02*
X012430Y004806D01*
X012430Y004707D02*
X014290Y004707D01*
X014311Y004609D02*
X012430Y004609D01*
X012430Y004510D02*
X014352Y004510D01*
X014393Y004412D02*
X012430Y004412D01*
X012430Y004313D02*
X014455Y004313D01*
X014418Y004350D02*
X014418Y004350D01*
X014553Y004215D02*
X012430Y004215D01*
X012430Y004116D02*
X014652Y004116D01*
X014883Y004018D02*
X012430Y004018D01*
X012430Y003919D02*
X022490Y003919D01*
X022490Y003821D02*
X012430Y003821D01*
X012430Y003722D02*
X022490Y003722D01*
X022490Y003624D02*
X012430Y003624D01*
X012430Y003525D02*
X022490Y003525D01*
X022490Y003427D02*
X012430Y003427D01*
X012430Y003328D02*
X022490Y003328D01*
X022490Y003230D02*
X012430Y003230D01*
X012430Y003131D02*
X022490Y003131D01*
X022490Y003033D02*
X012430Y003033D01*
X012430Y002934D02*
X022490Y002934D01*
X022490Y002836D02*
X012430Y002836D01*
X012430Y002737D02*
X012704Y002737D01*
X012765Y002798D02*
X012490Y002523D01*
X012490Y002134D01*
X012765Y001858D01*
X013154Y001858D01*
X013430Y002134D01*
X013430Y002523D01*
X013154Y002798D01*
X012765Y002798D01*
X012606Y002639D02*
X012430Y002639D01*
X012430Y002540D02*
X012507Y002540D01*
X012490Y002442D02*
X012430Y002442D01*
X012430Y002343D02*
X012490Y002343D01*
X012490Y002245D02*
X012430Y002245D01*
X012430Y002146D02*
X012490Y002146D01*
X012430Y002048D02*
X012576Y002048D01*
X012674Y001949D02*
X012430Y001949D01*
X012430Y001851D02*
X022490Y001851D01*
X022490Y001949D02*
X022217Y001949D01*
X022146Y001878D02*
X022010Y001878D01*
X022010Y002278D01*
X021910Y002278D01*
X021910Y001878D01*
X021773Y001878D01*
X021510Y002142D01*
X021510Y002278D01*
X021910Y002278D01*
X021910Y002378D01*
X021510Y002378D01*
X021510Y002515D01*
X021773Y002778D01*
X021910Y002778D01*
X021910Y002378D01*
X022010Y002378D01*
X022410Y002378D01*
X022410Y002515D01*
X022146Y002778D01*
X022010Y002778D01*
X022010Y002378D01*
X022010Y002278D01*
X022410Y002278D01*
X022410Y002142D01*
X022146Y001878D01*
X022146Y001778D02*
X022010Y001778D01*
X022010Y001378D01*
X022410Y001378D01*
X022410Y001515D01*
X022146Y001778D01*
X022172Y001752D02*
X022490Y001752D01*
X022490Y001654D02*
X022271Y001654D01*
X022369Y001555D02*
X022490Y001555D01*
X022490Y001457D02*
X022410Y001457D01*
X022490Y001358D02*
X022010Y001358D01*
X022010Y001378D02*
X022010Y001278D01*
X022010Y000878D01*
X022146Y000878D01*
X022410Y001142D01*
X022410Y001278D01*
X022010Y001278D01*
X021910Y001278D01*
X021910Y000878D01*
X021773Y000878D01*
X021510Y001142D01*
X021510Y001278D01*
X021910Y001278D01*
X021910Y001378D01*
X021510Y001378D01*
X021510Y001515D01*
X021773Y001778D01*
X021910Y001778D01*
X021910Y001378D01*
X022010Y001378D01*
X021960Y001328D02*
X021960Y002328D01*
X021960Y012528D01*
X023238Y013807D01*
X023768Y013807D01*
X024081Y014120D01*
X024081Y014689D01*
X023825Y014945D01*
X017764Y014945D01*
X017360Y015349D01*
X017360Y020828D01*
X019360Y020828D01*
X019460Y020728D01*
X020560Y019628D01*
X023860Y019628D01*
X023960Y019528D01*
X025060Y018428D01*
X028260Y018428D01*
X028360Y018328D01*
X029560Y017128D01*
X032660Y017128D01*
X032560Y017228D01*
X033865Y018005D02*
X001055Y018005D01*
X000926Y017906D02*
X033994Y017906D01*
X034121Y017808D02*
X000799Y017808D01*
X000671Y017709D02*
X034248Y017709D01*
X034375Y017611D02*
X000544Y017611D01*
X000417Y017512D02*
X034503Y017512D01*
X034590Y017414D02*
X000330Y017414D01*
X000330Y017315D02*
X034590Y017315D01*
X034590Y017217D02*
X000330Y017217D01*
X000330Y017118D02*
X034590Y017118D01*
X034590Y017020D02*
X000330Y017020D01*
X000330Y016921D02*
X034590Y016921D01*
X034590Y016823D02*
X000330Y016823D01*
X000330Y016724D02*
X008915Y016724D01*
X008817Y016626D02*
X000330Y016626D01*
X000330Y016527D02*
X008718Y016527D01*
X008620Y016429D02*
X000330Y016429D01*
X000330Y016330D02*
X008521Y016330D01*
X008423Y016232D02*
X000330Y016232D01*
X000330Y016133D02*
X008324Y016133D01*
X008226Y016035D02*
X000330Y016035D01*
X000330Y015936D02*
X008127Y015936D01*
X008029Y015838D02*
X000330Y015838D01*
X000330Y015739D02*
X007930Y015739D01*
X007832Y015641D02*
X000330Y015641D01*
X000330Y015542D02*
X007733Y015542D01*
X007635Y015444D02*
X000330Y015444D01*
X000330Y015345D02*
X007536Y015345D01*
X005360Y017128D02*
X006560Y018328D01*
X006660Y018428D01*
X009760Y018428D01*
X010860Y019528D01*
X010960Y019628D01*
X014060Y019628D01*
X015160Y020728D01*
X015260Y020828D01*
X017360Y020828D01*
X014122Y023225D02*
X020797Y023225D01*
X021571Y023127D02*
X013348Y023127D01*
X012801Y023028D02*
X022119Y023028D01*
X022666Y022930D02*
X012253Y022930D01*
X011706Y022831D02*
X023214Y022831D01*
X023621Y022733D02*
X011299Y022733D01*
X010912Y022634D02*
X024008Y022634D01*
X024395Y022536D02*
X010525Y022536D01*
X010138Y022437D02*
X024782Y022437D01*
X025169Y022339D02*
X009751Y022339D01*
X009452Y022240D02*
X025468Y022240D01*
X025764Y022142D02*
X009155Y022142D01*
X008858Y022043D02*
X026061Y022043D01*
X026358Y021945D02*
X008561Y021945D01*
X008265Y021846D02*
X026655Y021846D01*
X026952Y021748D02*
X007968Y021748D01*
X007713Y021649D02*
X027206Y021649D01*
X027445Y021551D02*
X007475Y021551D01*
X007236Y021452D02*
X027683Y021452D01*
X027922Y021354D02*
X006998Y021354D01*
X006759Y021255D02*
X028160Y021255D01*
X028399Y021157D02*
X006521Y021157D01*
X006282Y021058D02*
X028637Y021058D01*
X028870Y020960D02*
X006050Y020960D01*
X005852Y020861D02*
X029067Y020861D01*
X029264Y020763D02*
X005655Y020763D01*
X005458Y020664D02*
X029462Y020664D01*
X029659Y020566D02*
X005260Y020566D01*
X005063Y020467D02*
X029857Y020467D01*
X030054Y020369D02*
X004865Y020369D01*
X004668Y020270D02*
X030251Y020270D01*
X030449Y020172D02*
X004471Y020172D01*
X004282Y020073D02*
X030637Y020073D01*
X030804Y019975D02*
X004116Y019975D01*
X003949Y019876D02*
X030970Y019876D01*
X031137Y019778D02*
X003782Y019778D01*
X003616Y019679D02*
X031304Y019679D01*
X031470Y019581D02*
X003449Y019581D01*
X003283Y019482D02*
X031637Y019482D01*
X031803Y019384D02*
X003116Y019384D01*
X002950Y019285D02*
X031970Y019285D01*
X032136Y019187D02*
X002783Y019187D01*
X002621Y019088D02*
X032299Y019088D01*
X032441Y018990D02*
X002479Y018990D01*
X002336Y018891D02*
X032583Y018891D01*
X032726Y018793D02*
X002194Y018793D01*
X002051Y018694D02*
X032868Y018694D01*
X033010Y018596D02*
X001909Y018596D01*
X001767Y018497D02*
X033153Y018497D01*
X033295Y018399D02*
X001624Y018399D01*
X001482Y018300D02*
X033438Y018300D01*
X033580Y018202D02*
X001340Y018202D01*
X001197Y018103D02*
X033722Y018103D01*
X034590Y016724D02*
X026004Y016724D01*
X026103Y016626D02*
X034590Y016626D01*
X034590Y016527D02*
X026201Y016527D01*
X026300Y016429D02*
X034590Y016429D01*
X034590Y016330D02*
X026398Y016330D01*
X026497Y016232D02*
X034590Y016232D01*
X034590Y016133D02*
X026595Y016133D01*
X026694Y016035D02*
X034590Y016035D01*
X034590Y015936D02*
X026792Y015936D01*
X026891Y015838D02*
X034590Y015838D01*
X034590Y015739D02*
X026989Y015739D01*
X027088Y015641D02*
X034590Y015641D01*
X034590Y015542D02*
X027186Y015542D01*
X027285Y015444D02*
X034590Y015444D01*
X034590Y015345D02*
X027383Y015345D01*
X024290Y015345D02*
X010630Y015345D01*
X010630Y015247D02*
X024290Y015247D01*
X024290Y015148D02*
X010630Y015148D01*
X010630Y015050D02*
X024290Y015050D01*
X024290Y014951D02*
X010630Y014951D01*
X010630Y014853D02*
X024290Y014853D01*
X024290Y015444D02*
X010630Y015444D01*
X010630Y015542D02*
X024290Y015542D01*
X024290Y015641D02*
X010630Y015641D01*
X010630Y015739D02*
X024290Y015739D01*
X024290Y015838D02*
X010630Y015838D01*
X010630Y015936D02*
X024290Y015936D01*
X024290Y016035D02*
X010630Y016035D01*
X010630Y016133D02*
X024290Y016133D01*
X024290Y016232D02*
X010630Y016232D01*
X010630Y016330D02*
X024290Y016330D01*
X024290Y016429D02*
X010630Y016429D01*
X010630Y016527D02*
X024290Y016527D01*
X024290Y016626D02*
X010630Y016626D01*
X010604Y016724D02*
X024315Y016724D01*
X019879Y023324D02*
X015041Y023324D01*
X016872Y023422D02*
X018048Y023422D01*
X012212Y014754D02*
X010630Y014754D01*
X010630Y014656D02*
X012051Y014656D01*
X011968Y014557D02*
X010630Y014557D01*
X010630Y014459D02*
X011927Y014459D01*
X011910Y014360D02*
X010630Y014360D01*
X010630Y014262D02*
X011910Y014262D01*
X011941Y014163D02*
X010630Y014163D01*
X010630Y014065D02*
X011987Y014065D01*
X012085Y013966D02*
X010630Y013966D01*
X010630Y013868D02*
X013510Y013868D01*
X013510Y013769D02*
X010630Y013769D01*
X010630Y013671D02*
X013510Y013671D01*
X013510Y013572D02*
X010630Y013572D01*
X010630Y013474D02*
X013510Y013474D01*
X013510Y013375D02*
X010630Y013375D01*
X010630Y013277D02*
X013510Y013277D01*
X013510Y013178D02*
X010630Y013178D01*
X010630Y013080D02*
X013510Y013080D01*
X013510Y012981D02*
X010647Y012981D01*
X010746Y012883D02*
X013510Y012883D01*
X013510Y012784D02*
X010844Y012784D01*
X010943Y012686D02*
X013510Y012686D01*
X013510Y012587D02*
X011041Y012587D01*
X011140Y012489D02*
X013510Y012489D01*
X013510Y012390D02*
X011238Y012390D01*
X011337Y012292D02*
X013510Y012292D01*
X013510Y012193D02*
X011435Y012193D01*
X011534Y012095D02*
X013510Y012095D01*
X013510Y011996D02*
X011632Y011996D01*
X011731Y011898D02*
X013510Y011898D01*
X013510Y011799D02*
X011829Y011799D01*
X011928Y011701D02*
X013510Y011701D01*
X013510Y011602D02*
X012026Y011602D01*
X012125Y011504D02*
X013510Y011504D01*
X013524Y011405D02*
X012223Y011405D01*
X012322Y011307D02*
X013564Y011307D01*
X013643Y011208D02*
X012420Y011208D01*
X015366Y008647D02*
X019554Y008647D01*
X019617Y008673D02*
X019306Y008545D01*
X019068Y008307D01*
X018940Y007997D01*
X018940Y004660D01*
X019068Y004350D01*
X019306Y004112D01*
X019306Y004112D01*
X019306Y004112D01*
X019617Y003983D01*
X019953Y003983D01*
X020263Y004112D01*
X020501Y004350D01*
X020630Y004660D01*
X020630Y004758D01*
X020630Y007997D01*
X020501Y008307D01*
X020501Y008307D01*
X020263Y008545D01*
X019953Y008673D01*
X019617Y008673D01*
X019316Y008549D02*
X015603Y008549D01*
X015613Y008545D02*
X015613Y008545D01*
X015708Y008450D02*
X019212Y008450D01*
X019306Y008545D02*
X019306Y008545D01*
X019113Y008352D02*
X015806Y008352D01*
X015873Y008253D02*
X019046Y008253D01*
X019068Y008307D02*
X019068Y008307D01*
X019005Y008155D02*
X015914Y008155D01*
X015955Y008056D02*
X018965Y008056D01*
X018940Y007958D02*
X015980Y007958D01*
X015980Y007859D02*
X018940Y007859D01*
X018940Y007761D02*
X015980Y007761D01*
X015980Y007662D02*
X018940Y007662D01*
X018940Y007564D02*
X015980Y007564D01*
X015980Y007465D02*
X018940Y007465D01*
X018940Y007367D02*
X015980Y007367D01*
X015980Y007268D02*
X018940Y007268D01*
X018940Y007170D02*
X015980Y007170D01*
X015980Y007071D02*
X018940Y007071D01*
X018940Y006973D02*
X015980Y006973D01*
X015980Y006874D02*
X018940Y006874D01*
X018940Y006776D02*
X015980Y006776D01*
X015980Y006677D02*
X018940Y006677D01*
X018940Y006579D02*
X015980Y006579D01*
X015980Y006480D02*
X018940Y006480D01*
X018940Y006382D02*
X015980Y006382D01*
X015980Y006283D02*
X018940Y006283D01*
X018940Y006185D02*
X015980Y006185D01*
X015980Y006086D02*
X018940Y006086D01*
X018940Y005988D02*
X015980Y005988D01*
X015980Y005889D02*
X018940Y005889D01*
X018940Y005791D02*
X015980Y005791D01*
X015980Y005692D02*
X018940Y005692D01*
X018940Y005594D02*
X015980Y005594D01*
X015980Y005495D02*
X018940Y005495D01*
X018940Y005397D02*
X015980Y005397D01*
X015980Y005298D02*
X018940Y005298D01*
X018940Y005200D02*
X015980Y005200D01*
X015980Y005101D02*
X018940Y005101D01*
X018940Y005003D02*
X015980Y005003D01*
X015980Y004904D02*
X018940Y004904D01*
X018940Y004806D02*
X015980Y004806D01*
X015980Y004707D02*
X018940Y004707D01*
X018961Y004609D02*
X015958Y004609D01*
X015918Y004510D02*
X019002Y004510D01*
X019043Y004412D02*
X015877Y004412D01*
X015851Y004350D02*
X015851Y004350D01*
X015815Y004313D02*
X019105Y004313D01*
X019068Y004350D02*
X019068Y004350D01*
X019203Y004215D02*
X015716Y004215D01*
X015618Y004116D02*
X019302Y004116D01*
X019533Y004018D02*
X015386Y004018D01*
X015613Y004112D02*
X015613Y004112D01*
X013314Y002639D02*
X021634Y002639D01*
X021732Y002737D02*
X013215Y002737D01*
X013412Y002540D02*
X021535Y002540D01*
X021510Y002442D02*
X013430Y002442D01*
X013430Y002343D02*
X021910Y002343D01*
X021910Y002245D02*
X022010Y002245D01*
X022010Y002343D02*
X022490Y002343D01*
X022490Y002245D02*
X022410Y002245D01*
X022410Y002146D02*
X022490Y002146D01*
X022490Y002048D02*
X022316Y002048D01*
X022010Y002048D02*
X021910Y002048D01*
X021910Y002146D02*
X022010Y002146D01*
X022010Y001949D02*
X021910Y001949D01*
X021910Y001752D02*
X022010Y001752D01*
X022010Y001654D02*
X021910Y001654D01*
X021910Y001555D02*
X022010Y001555D01*
X022010Y001457D02*
X021910Y001457D01*
X021910Y001358D02*
X021430Y001358D01*
X021430Y001260D02*
X021510Y001260D01*
X021510Y001161D02*
X021430Y001161D01*
X021430Y001134D02*
X021154Y000858D01*
X020765Y000858D01*
X020490Y001134D01*
X020490Y001523D01*
X020765Y001798D01*
X021154Y001798D01*
X021430Y001523D01*
X021430Y001134D01*
X021359Y001063D02*
X021589Y001063D01*
X021687Y000964D02*
X021260Y000964D01*
X021162Y000866D02*
X022490Y000866D01*
X022490Y000964D02*
X022232Y000964D01*
X022331Y001063D02*
X022490Y001063D01*
X022490Y001161D02*
X022410Y001161D01*
X022410Y001260D02*
X022490Y001260D01*
X022010Y001260D02*
X021910Y001260D01*
X021910Y001161D02*
X022010Y001161D01*
X022010Y001063D02*
X021910Y001063D01*
X021910Y000964D02*
X022010Y000964D01*
X022490Y000767D02*
X012430Y000767D01*
X012430Y000669D02*
X022490Y000669D01*
X022490Y000570D02*
X012430Y000570D01*
X012430Y000472D02*
X022490Y000472D01*
X021510Y001457D02*
X021430Y001457D01*
X021397Y001555D02*
X021550Y001555D01*
X021649Y001654D02*
X021299Y001654D01*
X021200Y001752D02*
X021747Y001752D01*
X021702Y001949D02*
X013245Y001949D01*
X013344Y002048D02*
X021604Y002048D01*
X021510Y002146D02*
X013430Y002146D01*
X013430Y002245D02*
X021510Y002245D01*
X021910Y002442D02*
X022010Y002442D01*
X022010Y002540D02*
X021910Y002540D01*
X021910Y002639D02*
X022010Y002639D01*
X022010Y002737D02*
X021910Y002737D01*
X022187Y002737D02*
X022490Y002737D01*
X022490Y002639D02*
X022286Y002639D01*
X022384Y002540D02*
X022490Y002540D01*
X022490Y002442D02*
X022410Y002442D01*
X020719Y001752D02*
X020200Y001752D01*
X020154Y001798D02*
X019765Y001798D01*
X019490Y001523D01*
X019490Y001134D01*
X019765Y000858D01*
X020154Y000858D01*
X020430Y001134D01*
X020430Y001523D01*
X020154Y001798D01*
X020299Y001654D02*
X020621Y001654D01*
X020522Y001555D02*
X020397Y001555D01*
X020430Y001457D02*
X020490Y001457D01*
X020490Y001358D02*
X020430Y001358D01*
X020430Y001260D02*
X020490Y001260D01*
X020490Y001161D02*
X020430Y001161D01*
X020359Y001063D02*
X020561Y001063D01*
X020659Y000964D02*
X020260Y000964D01*
X020162Y000866D02*
X020758Y000866D01*
X019758Y000866D02*
X019162Y000866D01*
X019154Y000858D02*
X019430Y001134D01*
X019430Y001523D01*
X019154Y001798D01*
X018765Y001798D01*
X018490Y001523D01*
X018490Y001134D01*
X018765Y000858D01*
X019154Y000858D01*
X019260Y000964D02*
X019659Y000964D01*
X019561Y001063D02*
X019359Y001063D01*
X019430Y001161D02*
X019490Y001161D01*
X019490Y001260D02*
X019430Y001260D01*
X019430Y001358D02*
X019490Y001358D01*
X019490Y001457D02*
X019430Y001457D01*
X019397Y001555D02*
X019522Y001555D01*
X019621Y001654D02*
X019299Y001654D01*
X019200Y001752D02*
X019719Y001752D01*
X018719Y001752D02*
X018200Y001752D01*
X018154Y001798D02*
X018430Y001523D01*
X018430Y001134D01*
X018154Y000858D01*
X017765Y000858D01*
X017490Y001134D01*
X017490Y001523D01*
X017765Y001798D01*
X018154Y001798D01*
X018299Y001654D02*
X018621Y001654D01*
X018522Y001555D02*
X018397Y001555D01*
X018430Y001457D02*
X018490Y001457D01*
X018490Y001358D02*
X018430Y001358D01*
X018430Y001260D02*
X018490Y001260D01*
X018490Y001161D02*
X018430Y001161D01*
X018359Y001063D02*
X018561Y001063D01*
X018659Y000964D02*
X018260Y000964D01*
X018162Y000866D02*
X018758Y000866D01*
X017758Y000866D02*
X017162Y000866D01*
X017154Y000858D02*
X017430Y001134D01*
X017430Y001523D01*
X017154Y001798D01*
X016765Y001798D01*
X016490Y001523D01*
X016490Y001134D01*
X016765Y000858D01*
X017154Y000858D01*
X017260Y000964D02*
X017659Y000964D01*
X017561Y001063D02*
X017359Y001063D01*
X017430Y001161D02*
X017490Y001161D01*
X017490Y001260D02*
X017430Y001260D01*
X017430Y001358D02*
X017490Y001358D01*
X017490Y001457D02*
X017430Y001457D01*
X017397Y001555D02*
X017522Y001555D01*
X017621Y001654D02*
X017299Y001654D01*
X017200Y001752D02*
X017719Y001752D01*
X016719Y001752D02*
X016200Y001752D01*
X016154Y001798D02*
X015765Y001798D01*
X015490Y001523D01*
X015490Y001134D01*
X015765Y000858D01*
X016154Y000858D01*
X016430Y001134D01*
X016430Y001523D01*
X016154Y001798D01*
X016299Y001654D02*
X016621Y001654D01*
X016522Y001555D02*
X016397Y001555D01*
X016430Y001457D02*
X016490Y001457D01*
X016490Y001358D02*
X016430Y001358D01*
X016430Y001260D02*
X016490Y001260D01*
X016490Y001161D02*
X016430Y001161D01*
X016359Y001063D02*
X016561Y001063D01*
X016659Y000964D02*
X016260Y000964D01*
X016162Y000866D02*
X016758Y000866D01*
X015758Y000866D02*
X015162Y000866D01*
X015154Y000858D02*
X015430Y001134D01*
X015430Y001523D01*
X015154Y001798D01*
X014765Y001798D01*
X014490Y001523D01*
X014490Y001134D01*
X014765Y000858D01*
X015154Y000858D01*
X015260Y000964D02*
X015659Y000964D01*
X015561Y001063D02*
X015359Y001063D01*
X015430Y001161D02*
X015490Y001161D01*
X015490Y001260D02*
X015430Y001260D01*
X015430Y001358D02*
X015490Y001358D01*
X015490Y001457D02*
X015430Y001457D01*
X015397Y001555D02*
X015522Y001555D01*
X015621Y001654D02*
X015299Y001654D01*
X015200Y001752D02*
X015719Y001752D01*
X014719Y001752D02*
X014200Y001752D01*
X014154Y001798D02*
X013765Y001798D01*
X013490Y001523D01*
X013490Y001134D01*
X013765Y000858D01*
X014154Y000858D01*
X014430Y001134D01*
X014430Y001523D01*
X014154Y001798D01*
X014299Y001654D02*
X014621Y001654D01*
X014522Y001555D02*
X014397Y001555D01*
X014430Y001457D02*
X014490Y001457D01*
X014490Y001358D02*
X014430Y001358D01*
X014430Y001260D02*
X014490Y001260D01*
X014490Y001161D02*
X014430Y001161D01*
X014359Y001063D02*
X014561Y001063D01*
X014659Y000964D02*
X014260Y000964D01*
X014162Y000866D02*
X014758Y000866D01*
X013758Y000866D02*
X013162Y000866D01*
X013154Y000858D02*
X013430Y001134D01*
X013430Y001523D01*
X013154Y001798D01*
X012765Y001798D01*
X012490Y001523D01*
X012490Y001134D01*
X012765Y000858D01*
X013154Y000858D01*
X013260Y000964D02*
X013659Y000964D01*
X013561Y001063D02*
X013359Y001063D01*
X013430Y001161D02*
X013490Y001161D01*
X013490Y001260D02*
X013430Y001260D01*
X013430Y001358D02*
X013490Y001358D01*
X013490Y001457D02*
X013430Y001457D01*
X013397Y001555D02*
X013522Y001555D01*
X013621Y001654D02*
X013299Y001654D01*
X013200Y001752D02*
X013719Y001752D01*
X012719Y001752D02*
X012430Y001752D01*
X012430Y001654D02*
X012621Y001654D01*
X012522Y001555D02*
X012430Y001555D01*
X012430Y001457D02*
X012490Y001457D01*
X012490Y001358D02*
X012430Y001358D01*
X012430Y001260D02*
X012490Y001260D01*
X012490Y001161D02*
X012430Y001161D01*
X012430Y001063D02*
X012561Y001063D01*
X012659Y000964D02*
X012430Y000964D01*
X012430Y000866D02*
X012758Y000866D01*
X020036Y004018D02*
X022490Y004018D01*
X022490Y004116D02*
X020268Y004116D01*
X020263Y004112D02*
X020263Y004112D01*
X020366Y004215D02*
X022490Y004215D01*
X022490Y004313D02*
X020465Y004313D01*
X020501Y004350D02*
X020501Y004350D01*
X020527Y004412D02*
X022490Y004412D01*
X022490Y004510D02*
X020568Y004510D01*
X020608Y004609D02*
X022490Y004609D01*
X022490Y004707D02*
X020630Y004707D01*
X020630Y004806D02*
X022490Y004806D01*
X022490Y004904D02*
X020630Y004904D01*
X020630Y005003D02*
X022490Y005003D01*
X022490Y005101D02*
X020630Y005101D01*
X020630Y005200D02*
X022490Y005200D01*
X022490Y005298D02*
X020630Y005298D01*
X020630Y005397D02*
X022490Y005397D01*
X022490Y005495D02*
X020630Y005495D01*
X020630Y005594D02*
X022490Y005594D01*
X022490Y005692D02*
X020630Y005692D01*
X020630Y005791D02*
X022490Y005791D01*
X022490Y005889D02*
X020630Y005889D01*
X020630Y005988D02*
X022490Y005988D01*
X022490Y006086D02*
X020630Y006086D01*
X020630Y006185D02*
X022490Y006185D01*
X022490Y006283D02*
X020630Y006283D01*
X020630Y006382D02*
X022490Y006382D01*
X022490Y006480D02*
X020630Y006480D01*
X020630Y006579D02*
X022490Y006579D01*
X022490Y006677D02*
X020630Y006677D01*
X020630Y006776D02*
X022490Y006776D01*
X022490Y006874D02*
X020630Y006874D01*
X020630Y006973D02*
X022490Y006973D01*
X022490Y007071D02*
X020630Y007071D01*
X020630Y007170D02*
X022490Y007170D01*
X022490Y007268D02*
X020630Y007268D01*
X020630Y007367D02*
X022490Y007367D01*
X022490Y007465D02*
X020630Y007465D01*
X020630Y007564D02*
X022490Y007564D01*
X022490Y007662D02*
X020630Y007662D01*
X020630Y007761D02*
X022490Y007761D01*
X022490Y007859D02*
X020630Y007859D01*
X020630Y007958D02*
X022490Y007958D01*
X022490Y008056D02*
X020605Y008056D01*
X020564Y008155D02*
X022490Y008155D01*
X022490Y008253D02*
X020523Y008253D01*
X020456Y008352D02*
X022490Y008352D01*
X022490Y008450D02*
X020358Y008450D01*
X020263Y008545D02*
X020263Y008545D01*
X020253Y008549D02*
X022490Y008549D01*
X022490Y008647D02*
X020016Y008647D01*
X013960Y014328D02*
X013760Y014328D01*
X005360Y017128D02*
X002260Y017128D01*
D15*
X013960Y011528D03*
M02*
