G75*
%MOIN*%
%OFA0B0*%
%FSLAX24Y24*%
%IPPOS*%
%LPD*%
%AMOC8*
5,1,8,0,0,1.08239X$1,22.5*
%
%ADD10C,0.0000*%
%ADD11R,0.0433X0.0394*%
D10*
X012260Y000228D02*
X012260Y011128D01*
X010460Y012928D01*
X010460Y016628D01*
X009060Y016628D01*
X007560Y015128D01*
X000160Y015128D01*
X000160Y017528D01*
X014460Y007828D02*
X014460Y004828D01*
X014462Y004778D01*
X014468Y004727D01*
X014477Y004678D01*
X014490Y004629D01*
X014507Y004581D01*
X014527Y004535D01*
X014550Y004491D01*
X014577Y004448D01*
X014607Y004407D01*
X014640Y004369D01*
X014676Y004333D01*
X014714Y004300D01*
X014755Y004270D01*
X014798Y004243D01*
X014842Y004220D01*
X014888Y004200D01*
X014936Y004183D01*
X014985Y004170D01*
X015034Y004161D01*
X015085Y004155D01*
X015135Y004153D01*
X015185Y004155D01*
X015236Y004161D01*
X015285Y004170D01*
X015334Y004183D01*
X015382Y004200D01*
X015428Y004220D01*
X015473Y004243D01*
X015515Y004270D01*
X015556Y004300D01*
X015594Y004333D01*
X015630Y004369D01*
X015663Y004407D01*
X015693Y004448D01*
X015720Y004491D01*
X015743Y004535D01*
X015763Y004581D01*
X015780Y004629D01*
X015793Y004678D01*
X015802Y004727D01*
X015808Y004778D01*
X015810Y004828D01*
X015810Y007828D01*
X015808Y007878D01*
X015802Y007929D01*
X015793Y007978D01*
X015780Y008027D01*
X015763Y008075D01*
X015743Y008121D01*
X015720Y008166D01*
X015693Y008208D01*
X015663Y008249D01*
X015630Y008287D01*
X015594Y008323D01*
X015556Y008356D01*
X015515Y008386D01*
X015473Y008413D01*
X015428Y008436D01*
X015382Y008456D01*
X015334Y008473D01*
X015285Y008486D01*
X015236Y008495D01*
X015185Y008501D01*
X015135Y008503D01*
X015085Y008501D01*
X015034Y008495D01*
X014985Y008486D01*
X014936Y008473D01*
X014888Y008456D01*
X014842Y008436D01*
X014798Y008413D01*
X014755Y008386D01*
X014714Y008356D01*
X014676Y008323D01*
X014640Y008287D01*
X014607Y008249D01*
X014577Y008208D01*
X014550Y008166D01*
X014527Y008121D01*
X014507Y008075D01*
X014490Y008027D01*
X014477Y007978D01*
X014468Y007929D01*
X014462Y007878D01*
X014460Y007828D01*
X019110Y007828D02*
X019110Y004828D01*
X019112Y004778D01*
X019118Y004727D01*
X019127Y004678D01*
X019140Y004629D01*
X019157Y004581D01*
X019177Y004535D01*
X019200Y004491D01*
X019227Y004448D01*
X019257Y004407D01*
X019290Y004369D01*
X019326Y004333D01*
X019364Y004300D01*
X019405Y004270D01*
X019448Y004243D01*
X019492Y004220D01*
X019538Y004200D01*
X019586Y004183D01*
X019635Y004170D01*
X019684Y004161D01*
X019735Y004155D01*
X019785Y004153D01*
X019835Y004155D01*
X019886Y004161D01*
X019935Y004170D01*
X019984Y004183D01*
X020032Y004200D01*
X020078Y004220D01*
X020123Y004243D01*
X020165Y004270D01*
X020206Y004300D01*
X020244Y004333D01*
X020280Y004369D01*
X020313Y004407D01*
X020343Y004448D01*
X020370Y004491D01*
X020393Y004535D01*
X020413Y004581D01*
X020430Y004629D01*
X020443Y004678D01*
X020452Y004727D01*
X020458Y004778D01*
X020460Y004828D01*
X020460Y007828D01*
X020458Y007878D01*
X020452Y007929D01*
X020443Y007978D01*
X020430Y008027D01*
X020413Y008075D01*
X020393Y008121D01*
X020370Y008166D01*
X020343Y008208D01*
X020313Y008249D01*
X020280Y008287D01*
X020244Y008323D01*
X020206Y008356D01*
X020165Y008386D01*
X020123Y008413D01*
X020078Y008436D01*
X020032Y008456D01*
X019984Y008473D01*
X019935Y008486D01*
X019886Y008495D01*
X019835Y008501D01*
X019785Y008503D01*
X019735Y008501D01*
X019684Y008495D01*
X019635Y008486D01*
X019586Y008473D01*
X019538Y008456D01*
X019492Y008436D01*
X019448Y008413D01*
X019405Y008386D01*
X019364Y008356D01*
X019326Y008323D01*
X019290Y008287D01*
X019257Y008249D01*
X019227Y008208D01*
X019200Y008166D01*
X019177Y008121D01*
X019157Y008075D01*
X019140Y008027D01*
X019127Y007978D01*
X019118Y007929D01*
X019112Y007878D01*
X019110Y007828D01*
X022660Y011128D02*
X024460Y012928D01*
X024460Y016628D01*
X025860Y016628D01*
X027360Y015128D01*
X034760Y015128D01*
X034760Y017528D01*
X022660Y011128D02*
X022660Y000228D01*
X012260Y000228D01*
X000160Y017528D02*
X000686Y017940D01*
X001221Y018338D01*
X001766Y018724D01*
X002320Y019097D01*
X002883Y019456D01*
X003454Y019801D01*
X004034Y020132D01*
X004621Y020450D01*
X005216Y020753D01*
X005818Y021041D01*
X006427Y021315D01*
X007042Y021574D01*
X007663Y021818D01*
X008291Y022047D01*
X008923Y022261D01*
X009560Y022460D01*
X010202Y022643D01*
X010849Y022810D01*
X011499Y022962D01*
X012152Y023098D01*
X012809Y023219D01*
X013468Y023323D01*
X014130Y023412D01*
X014794Y023484D01*
X015459Y023540D01*
X016125Y023581D01*
X016792Y023605D01*
X017460Y023613D01*
X018128Y023605D01*
X018795Y023581D01*
X019461Y023540D01*
X020126Y023484D01*
X020790Y023412D01*
X021452Y023323D01*
X022111Y023219D01*
X022768Y023098D01*
X023421Y022962D01*
X024071Y022810D01*
X024718Y022643D01*
X025360Y022460D01*
X025997Y022261D01*
X026629Y022047D01*
X027257Y021818D01*
X027878Y021574D01*
X028493Y021315D01*
X029102Y021041D01*
X029704Y020753D01*
X030299Y020450D01*
X030886Y020132D01*
X031466Y019801D01*
X032037Y019456D01*
X032600Y019097D01*
X033154Y018724D01*
X033699Y018338D01*
X034234Y017940D01*
X034760Y017528D01*
D11*
X033427Y017483D03*
X033427Y016774D03*
X031892Y016774D03*
X031892Y017483D03*
X029127Y017974D03*
X029127Y018683D03*
X027592Y018683D03*
X027592Y017974D03*
X024727Y019174D03*
X024727Y019883D03*
X023192Y019883D03*
X023192Y019174D03*
X020227Y020374D03*
X020227Y021083D03*
X018692Y021083D03*
X018692Y020374D03*
X015927Y020374D03*
X015927Y021083D03*
X014392Y021083D03*
X014392Y020374D03*
X011627Y019883D03*
X011627Y019174D03*
X010092Y019174D03*
X010092Y019883D03*
X007327Y018683D03*
X007327Y017974D03*
X005792Y017974D03*
X005792Y018683D03*
X003027Y017483D03*
X003027Y016774D03*
X001492Y016774D03*
X001492Y017483D03*
X011660Y014663D03*
X011660Y013994D03*
X011660Y013263D03*
X011660Y012594D03*
X013260Y012594D03*
X013260Y013263D03*
X013260Y013994D03*
X013260Y014663D03*
X014860Y014663D03*
X014860Y013994D03*
X014860Y013263D03*
X014860Y012594D03*
X016460Y012594D03*
X016460Y013263D03*
X016460Y013994D03*
X016460Y014663D03*
X018060Y014663D03*
X018060Y013994D03*
X018060Y013263D03*
X018060Y012594D03*
X019660Y012594D03*
X019660Y013263D03*
X019660Y013994D03*
X019660Y014663D03*
X021260Y014663D03*
X021260Y013994D03*
X021260Y013263D03*
X021260Y012594D03*
X022860Y012594D03*
X022860Y013263D03*
X022860Y013994D03*
X022860Y014663D03*
M02*
