G75*
%MOIN*%
%OFA0B0*%
%FSLAX24Y24*%
%IPPOS*%
%LPD*%
%AMOC8*
5,1,8,0,0,1.08239X$1,22.5*
%
%ADD10C,0.0000*%
%ADD11C,0.0040*%
%ADD12C,0.0030*%
%ADD13R,0.0433X0.0394*%
%ADD14OC8,0.0600*%
%ADD15C,0.0100*%
%ADD16C,0.0317*%
%ADD17C,0.0356*%
D10*
X012260Y000228D02*
X012260Y011128D01*
X010460Y012928D01*
X010460Y016628D01*
X009060Y016628D01*
X007560Y015128D01*
X000160Y015128D01*
X000160Y017528D01*
X014460Y007828D02*
X014460Y004828D01*
X014462Y004778D01*
X014468Y004727D01*
X014477Y004678D01*
X014490Y004629D01*
X014507Y004581D01*
X014527Y004535D01*
X014550Y004491D01*
X014577Y004448D01*
X014607Y004407D01*
X014640Y004369D01*
X014676Y004333D01*
X014714Y004300D01*
X014755Y004270D01*
X014798Y004243D01*
X014842Y004220D01*
X014888Y004200D01*
X014936Y004183D01*
X014985Y004170D01*
X015034Y004161D01*
X015085Y004155D01*
X015135Y004153D01*
X015185Y004155D01*
X015236Y004161D01*
X015285Y004170D01*
X015334Y004183D01*
X015382Y004200D01*
X015428Y004220D01*
X015473Y004243D01*
X015515Y004270D01*
X015556Y004300D01*
X015594Y004333D01*
X015630Y004369D01*
X015663Y004407D01*
X015693Y004448D01*
X015720Y004491D01*
X015743Y004535D01*
X015763Y004581D01*
X015780Y004629D01*
X015793Y004678D01*
X015802Y004727D01*
X015808Y004778D01*
X015810Y004828D01*
X015810Y007828D01*
X015808Y007878D01*
X015802Y007929D01*
X015793Y007978D01*
X015780Y008027D01*
X015763Y008075D01*
X015743Y008121D01*
X015720Y008166D01*
X015693Y008208D01*
X015663Y008249D01*
X015630Y008287D01*
X015594Y008323D01*
X015556Y008356D01*
X015515Y008386D01*
X015473Y008413D01*
X015428Y008436D01*
X015382Y008456D01*
X015334Y008473D01*
X015285Y008486D01*
X015236Y008495D01*
X015185Y008501D01*
X015135Y008503D01*
X015085Y008501D01*
X015034Y008495D01*
X014985Y008486D01*
X014936Y008473D01*
X014888Y008456D01*
X014842Y008436D01*
X014798Y008413D01*
X014755Y008386D01*
X014714Y008356D01*
X014676Y008323D01*
X014640Y008287D01*
X014607Y008249D01*
X014577Y008208D01*
X014550Y008166D01*
X014527Y008121D01*
X014507Y008075D01*
X014490Y008027D01*
X014477Y007978D01*
X014468Y007929D01*
X014462Y007878D01*
X014460Y007828D01*
X019110Y007828D02*
X019110Y004828D01*
X019112Y004778D01*
X019118Y004727D01*
X019127Y004678D01*
X019140Y004629D01*
X019157Y004581D01*
X019177Y004535D01*
X019200Y004491D01*
X019227Y004448D01*
X019257Y004407D01*
X019290Y004369D01*
X019326Y004333D01*
X019364Y004300D01*
X019405Y004270D01*
X019448Y004243D01*
X019492Y004220D01*
X019538Y004200D01*
X019586Y004183D01*
X019635Y004170D01*
X019684Y004161D01*
X019735Y004155D01*
X019785Y004153D01*
X019835Y004155D01*
X019886Y004161D01*
X019935Y004170D01*
X019984Y004183D01*
X020032Y004200D01*
X020078Y004220D01*
X020123Y004243D01*
X020165Y004270D01*
X020206Y004300D01*
X020244Y004333D01*
X020280Y004369D01*
X020313Y004407D01*
X020343Y004448D01*
X020370Y004491D01*
X020393Y004535D01*
X020413Y004581D01*
X020430Y004629D01*
X020443Y004678D01*
X020452Y004727D01*
X020458Y004778D01*
X020460Y004828D01*
X020460Y007828D01*
X020458Y007878D01*
X020452Y007929D01*
X020443Y007978D01*
X020430Y008027D01*
X020413Y008075D01*
X020393Y008121D01*
X020370Y008166D01*
X020343Y008208D01*
X020313Y008249D01*
X020280Y008287D01*
X020244Y008323D01*
X020206Y008356D01*
X020165Y008386D01*
X020123Y008413D01*
X020078Y008436D01*
X020032Y008456D01*
X019984Y008473D01*
X019935Y008486D01*
X019886Y008495D01*
X019835Y008501D01*
X019785Y008503D01*
X019735Y008501D01*
X019684Y008495D01*
X019635Y008486D01*
X019586Y008473D01*
X019538Y008456D01*
X019492Y008436D01*
X019448Y008413D01*
X019405Y008386D01*
X019364Y008356D01*
X019326Y008323D01*
X019290Y008287D01*
X019257Y008249D01*
X019227Y008208D01*
X019200Y008166D01*
X019177Y008121D01*
X019157Y008075D01*
X019140Y008027D01*
X019127Y007978D01*
X019118Y007929D01*
X019112Y007878D01*
X019110Y007828D01*
X022660Y011128D02*
X024460Y012928D01*
X024460Y016628D01*
X025860Y016628D01*
X027360Y015128D01*
X034760Y015128D01*
X034760Y017528D01*
X022660Y011128D02*
X022660Y000228D01*
X012260Y000228D01*
X000160Y017528D02*
X000686Y017940D01*
X001221Y018338D01*
X001766Y018724D01*
X002320Y019097D01*
X002883Y019456D01*
X003454Y019801D01*
X004034Y020132D01*
X004621Y020450D01*
X005216Y020753D01*
X005818Y021041D01*
X006427Y021315D01*
X007042Y021574D01*
X007663Y021818D01*
X008291Y022047D01*
X008923Y022261D01*
X009560Y022460D01*
X010202Y022643D01*
X010849Y022810D01*
X011499Y022962D01*
X012152Y023098D01*
X012809Y023219D01*
X013468Y023323D01*
X014130Y023412D01*
X014794Y023484D01*
X015459Y023540D01*
X016125Y023581D01*
X016792Y023605D01*
X017460Y023613D01*
X018128Y023605D01*
X018795Y023581D01*
X019461Y023540D01*
X020126Y023484D01*
X020790Y023412D01*
X021452Y023323D01*
X022111Y023219D01*
X022768Y023098D01*
X023421Y022962D01*
X024071Y022810D01*
X024718Y022643D01*
X025360Y022460D01*
X025997Y022261D01*
X026629Y022047D01*
X027257Y021818D01*
X027878Y021574D01*
X028493Y021315D01*
X029102Y021041D01*
X029704Y020753D01*
X030299Y020450D01*
X030886Y020132D01*
X031466Y019801D01*
X032037Y019456D01*
X032600Y019097D01*
X033154Y018724D01*
X033699Y018338D01*
X034234Y017940D01*
X034760Y017528D01*
D11*
X006668Y015832D02*
X006668Y015755D01*
X006591Y015679D01*
X006361Y015679D01*
X006361Y015909D02*
X006361Y015448D01*
X006591Y015448D01*
X006668Y015525D01*
X006668Y015602D01*
X006591Y015679D01*
X006668Y015832D02*
X006591Y015909D01*
X006361Y015909D01*
X006207Y015909D02*
X006207Y015448D01*
X005901Y015448D02*
X005901Y015909D01*
X006054Y015755D01*
X006207Y015909D01*
X005747Y015832D02*
X005747Y015679D01*
X005670Y015602D01*
X005440Y015602D01*
X005440Y015448D02*
X005440Y015909D01*
X005670Y015909D01*
X005747Y015832D01*
X005594Y015602D02*
X005747Y015448D01*
X005287Y015525D02*
X005210Y015448D01*
X005056Y015448D01*
X004980Y015525D01*
X004980Y015832D01*
X005056Y015909D01*
X005210Y015909D01*
X005287Y015832D01*
D12*
X027875Y015914D02*
X027875Y015543D01*
X027875Y015667D02*
X028060Y015667D01*
X028122Y015729D01*
X028122Y015852D01*
X028060Y015914D01*
X027875Y015914D01*
X027998Y015667D02*
X028122Y015543D01*
X028243Y015543D02*
X028490Y015543D01*
X028611Y015667D02*
X028735Y015543D01*
X028858Y015667D01*
X028858Y015914D01*
X028611Y015914D02*
X028611Y015667D01*
X028367Y015729D02*
X028243Y015729D01*
X028243Y015914D02*
X028243Y015543D01*
X028243Y015914D02*
X028490Y015914D01*
X028980Y015482D02*
X029227Y015482D01*
X029348Y015543D02*
X029595Y015543D01*
X029716Y015543D02*
X029778Y015543D01*
X029778Y015605D01*
X029716Y015605D01*
X029716Y015543D01*
X029900Y015605D02*
X029962Y015543D01*
X030086Y015543D01*
X030147Y015605D01*
X030147Y015729D01*
X030086Y015790D01*
X030024Y015790D01*
X029900Y015729D01*
X029900Y015914D01*
X030147Y015914D01*
X029471Y015914D02*
X029471Y015543D01*
X029348Y015790D02*
X029471Y015914D01*
D13*
X031892Y016774D03*
X031892Y017483D03*
X033427Y017483D03*
X033427Y016774D03*
X029127Y017974D03*
X029127Y018683D03*
X027592Y018683D03*
X027592Y017974D03*
X024727Y019174D03*
X024727Y019883D03*
X023192Y019883D03*
X023192Y019174D03*
X020227Y020374D03*
X020227Y021083D03*
X018692Y021083D03*
X018692Y020374D03*
X015927Y020374D03*
X015927Y021083D03*
X014392Y021083D03*
X014392Y020374D03*
X011627Y019883D03*
X011627Y019174D03*
X010092Y019174D03*
X010092Y019883D03*
X007327Y018683D03*
X007327Y017974D03*
X005792Y017974D03*
X005792Y018683D03*
X003027Y017483D03*
X003027Y016774D03*
X001492Y016774D03*
X001492Y017483D03*
X011660Y014663D03*
X011660Y013994D03*
X011660Y013263D03*
X011660Y012594D03*
X013260Y012594D03*
X013260Y013263D03*
X013260Y013994D03*
X013260Y014663D03*
X014860Y014663D03*
X014860Y013994D03*
X014860Y013263D03*
X014860Y012594D03*
X016460Y012594D03*
X016460Y013263D03*
X016460Y013994D03*
X016460Y014663D03*
X018060Y014663D03*
X018060Y013994D03*
X018060Y013263D03*
X018060Y012594D03*
X019660Y012594D03*
X019660Y013263D03*
X019660Y013994D03*
X019660Y014663D03*
X021260Y014663D03*
X021260Y013994D03*
X021260Y013263D03*
X021260Y012594D03*
X022860Y012594D03*
X022860Y013263D03*
X022860Y013994D03*
X022860Y014663D03*
D14*
X021960Y002328D03*
X021960Y001328D03*
X020960Y001328D03*
X019960Y001328D03*
X018960Y001328D03*
X017960Y001328D03*
X016960Y001328D03*
X015960Y001328D03*
X014960Y001328D03*
X013960Y001328D03*
X012960Y001328D03*
X012960Y002328D03*
D15*
X012960Y002628D01*
X013160Y002828D01*
X013360Y002828D01*
X013860Y003328D01*
X013460Y003728D01*
X013460Y009728D01*
X013960Y010228D01*
X013960Y011528D01*
X014485Y011848D02*
X013185Y011848D01*
X013080Y011954D01*
X012985Y012048D01*
X011685Y012048D01*
X011480Y012254D01*
X011480Y012267D01*
X011389Y012267D01*
X011313Y012343D01*
X011313Y012686D01*
X010914Y012686D01*
X010816Y012784D02*
X011215Y012784D01*
X011313Y012686D02*
X011080Y012919D01*
X011080Y014828D01*
X010610Y014828D01*
X010610Y012991D01*
X012410Y011191D01*
X012410Y000378D01*
X016760Y000378D01*
X016760Y000920D01*
X016530Y001150D01*
X016530Y001507D01*
X016678Y001655D01*
X016580Y001754D01*
X016280Y002054D01*
X016280Y002603D01*
X016325Y002648D01*
X015734Y002648D01*
X015640Y002554D01*
X015640Y002203D01*
X015834Y002008D01*
X015934Y002008D01*
X016034Y001908D01*
X016140Y001803D01*
X016140Y001757D01*
X016390Y001507D01*
X016390Y001150D01*
X016138Y000898D01*
X015782Y000898D01*
X015530Y001150D01*
X015530Y001507D01*
X015678Y001655D01*
X015580Y001754D01*
X015280Y002054D01*
X015280Y002648D01*
X014734Y002648D01*
X014640Y002554D01*
X014640Y002103D01*
X014734Y002008D01*
X014934Y002008D01*
X015034Y001908D01*
X015140Y001803D01*
X015140Y001757D01*
X015390Y001507D01*
X015390Y001150D01*
X015138Y000898D01*
X014782Y000898D01*
X014530Y001150D01*
X014530Y001507D01*
X014672Y001648D01*
X014585Y001648D01*
X014480Y001754D01*
X014280Y001954D01*
X014280Y002703D01*
X014385Y002808D01*
X014425Y002848D01*
X014334Y002848D01*
X014240Y002754D01*
X014134Y002648D01*
X013734Y002648D01*
X013640Y002554D01*
X013640Y002203D01*
X013834Y002008D01*
X013934Y002008D01*
X014034Y001908D01*
X014140Y001803D01*
X014140Y001757D01*
X014390Y001507D01*
X014390Y001150D01*
X014138Y000898D01*
X013782Y000898D01*
X013530Y001150D01*
X013530Y001507D01*
X013678Y001655D01*
X013580Y001754D01*
X013301Y002033D01*
X013146Y001878D01*
X013010Y001878D01*
X013010Y002278D01*
X012910Y002278D01*
X012910Y001878D01*
X012773Y001878D01*
X012510Y002142D01*
X012510Y002278D01*
X012910Y002278D01*
X012910Y002378D01*
X012510Y002378D01*
X012510Y002515D01*
X012773Y002778D01*
X012910Y002778D01*
X012910Y002378D01*
X013010Y002378D01*
X013010Y002778D01*
X013146Y002778D01*
X013280Y002645D01*
X013280Y002703D01*
X013385Y002808D01*
X013585Y003008D01*
X013985Y003008D01*
X014185Y003208D01*
X015185Y003208D01*
X015385Y003408D01*
X016085Y003408D01*
X016580Y003903D01*
X016580Y011254D01*
X016385Y011448D01*
X016185Y011448D01*
X016080Y011554D01*
X015985Y011648D01*
X014685Y011648D01*
X014580Y011754D01*
X014485Y011848D01*
X014534Y011799D02*
X011801Y011799D01*
X011899Y011701D02*
X014633Y011701D01*
X014760Y011828D02*
X014560Y012028D01*
X013260Y012028D01*
X013060Y012228D01*
X011760Y012228D01*
X011660Y012328D01*
X011660Y012594D01*
X011260Y012994D01*
X011260Y014928D01*
X011760Y015428D01*
X012760Y015428D01*
X013060Y015728D01*
X013960Y015728D01*
X014360Y016128D01*
X015360Y016128D01*
X015460Y016228D01*
X015460Y017428D01*
X015260Y017628D01*
X008460Y017628D01*
X007860Y017028D01*
X003960Y017028D01*
X003260Y016328D01*
X001938Y016328D01*
X001492Y016774D01*
X001548Y016407D02*
X001205Y016407D01*
X001106Y016507D01*
X001106Y017041D01*
X001205Y017141D01*
X001237Y017141D01*
X001218Y017146D01*
X001183Y017166D01*
X001155Y017194D01*
X001136Y017228D01*
X001126Y017266D01*
X001126Y017434D01*
X001444Y017434D01*
X001444Y017531D01*
X001444Y017830D01*
X001256Y017830D01*
X001218Y017819D01*
X001183Y017800D01*
X001155Y017772D01*
X001136Y017738D01*
X001126Y017699D01*
X001126Y017531D01*
X001444Y017531D01*
X001540Y017531D01*
X001540Y017830D01*
X001728Y017830D01*
X001766Y017819D01*
X001801Y017800D01*
X001829Y017772D01*
X001848Y017738D01*
X001859Y017699D01*
X001859Y017531D01*
X001540Y017531D01*
X001540Y017434D01*
X001859Y017434D01*
X001859Y017266D01*
X001848Y017228D01*
X001829Y017194D01*
X001801Y017166D01*
X001766Y017146D01*
X001747Y017141D01*
X001779Y017141D01*
X001879Y017041D01*
X001879Y016699D01*
X002029Y016548D01*
X002663Y016548D01*
X002661Y016558D01*
X002661Y016726D01*
X002979Y016726D01*
X002979Y016823D01*
X002661Y016823D01*
X001879Y016823D01*
X001879Y016921D02*
X002661Y016921D01*
X002661Y016991D02*
X002661Y016823D01*
X002614Y016774D02*
X003027Y016774D01*
X003076Y016726D02*
X003076Y016823D01*
X003394Y016823D01*
X003443Y016823D01*
X003394Y016823D02*
X003394Y016991D01*
X003384Y017029D01*
X003364Y017063D01*
X003336Y017091D01*
X003302Y017111D01*
X003283Y017116D01*
X003314Y017116D01*
X003338Y017139D01*
X003340Y017137D01*
X003469Y017008D01*
X003629Y017008D01*
X003346Y016726D01*
X003076Y016726D01*
X003394Y016921D02*
X003542Y016921D01*
X003457Y017020D02*
X003386Y017020D01*
X003359Y017118D02*
X003317Y017118D01*
X003560Y017228D02*
X007760Y017228D01*
X008360Y017828D01*
X015360Y017828D01*
X015660Y017528D01*
X015660Y016028D01*
X015560Y015928D01*
X014460Y015928D01*
X014060Y015528D01*
X013160Y015528D01*
X012860Y015228D01*
X011860Y015228D01*
X011660Y015028D01*
X011660Y014663D01*
X012006Y014656D02*
X012680Y014656D01*
X012680Y014754D02*
X012006Y014754D01*
X012006Y014828D02*
X012680Y014828D01*
X012680Y012919D01*
X012913Y012686D01*
X012006Y012686D01*
X012006Y012784D02*
X012815Y012784D01*
X012913Y012686D02*
X012913Y012408D01*
X012006Y012408D01*
X012006Y012845D01*
X011930Y012921D01*
X011912Y012921D01*
X011934Y012926D01*
X011968Y012946D01*
X011996Y012974D01*
X012016Y013008D01*
X012026Y013047D01*
X012026Y013215D01*
X011708Y013215D01*
X011708Y013312D01*
X011611Y013312D01*
X011611Y013610D01*
X011440Y013610D01*
X011440Y013647D01*
X011611Y013647D01*
X011611Y013945D01*
X011708Y013945D01*
X011708Y013647D01*
X011896Y013647D01*
X011934Y013657D01*
X011968Y013677D01*
X011996Y013705D01*
X012016Y013739D01*
X012026Y013777D01*
X012026Y013945D01*
X011708Y013945D01*
X011708Y014042D01*
X012026Y014042D01*
X012026Y014210D01*
X012016Y014249D01*
X011996Y014283D01*
X011968Y014311D01*
X011934Y014330D01*
X011912Y014336D01*
X011930Y014336D01*
X012006Y014412D01*
X012006Y014828D01*
X012006Y014557D02*
X012680Y014557D01*
X012680Y014459D02*
X012006Y014459D01*
X011954Y014360D02*
X012680Y014360D01*
X012680Y014262D02*
X012008Y014262D01*
X012026Y014163D02*
X012680Y014163D01*
X012680Y014065D02*
X012026Y014065D01*
X012060Y014028D02*
X011694Y014028D01*
X011660Y013994D01*
X011660Y013263D01*
X011708Y013277D02*
X012680Y013277D01*
X012680Y013375D02*
X012026Y013375D01*
X012026Y013312D02*
X012026Y013480D01*
X012016Y013518D01*
X011996Y013552D01*
X011968Y013580D01*
X011934Y013600D01*
X011896Y013610D01*
X011708Y013610D01*
X011708Y013312D01*
X012026Y013312D01*
X012026Y013178D02*
X012680Y013178D01*
X012680Y013080D02*
X012026Y013080D01*
X012001Y012981D02*
X012680Y012981D01*
X012716Y012883D02*
X011968Y012883D01*
X012006Y012587D02*
X012913Y012587D01*
X012913Y012489D02*
X012006Y012489D01*
X011540Y012193D02*
X011407Y012193D01*
X011364Y012292D02*
X011308Y012292D01*
X011313Y012390D02*
X011210Y012390D01*
X011111Y012489D02*
X011313Y012489D01*
X011313Y012587D02*
X011013Y012587D01*
X011116Y012883D02*
X010717Y012883D01*
X010619Y012981D02*
X011080Y012981D01*
X011080Y013080D02*
X010610Y013080D01*
X010610Y013178D02*
X011080Y013178D01*
X011080Y013277D02*
X010610Y013277D01*
X010610Y013375D02*
X011080Y013375D01*
X011080Y013474D02*
X010610Y013474D01*
X010610Y013572D02*
X011080Y013572D01*
X011080Y013671D02*
X010610Y013671D01*
X010610Y013769D02*
X011080Y013769D01*
X011080Y013868D02*
X010610Y013868D01*
X010610Y013966D02*
X011080Y013966D01*
X011080Y014065D02*
X010610Y014065D01*
X010610Y014163D02*
X011080Y014163D01*
X011080Y014262D02*
X010610Y014262D01*
X010610Y014360D02*
X011080Y014360D01*
X011080Y014459D02*
X010610Y014459D01*
X010610Y014557D02*
X011080Y014557D01*
X011080Y014656D02*
X010610Y014656D01*
X010610Y014754D02*
X011080Y014754D01*
X011049Y015028D02*
X010630Y015028D01*
X010630Y016699D01*
X010530Y016798D01*
X008989Y016798D01*
X007489Y015298D01*
X007405Y015298D01*
X007405Y016106D01*
X007402Y016128D01*
X007396Y016150D01*
X007388Y016170D01*
X007377Y016190D01*
X007363Y016207D01*
X007347Y016223D01*
X007330Y016237D01*
X007310Y016248D01*
X007290Y016256D01*
X007268Y016262D01*
X007246Y016265D01*
X004782Y016265D01*
X004760Y016262D01*
X004738Y016256D01*
X004718Y016248D01*
X004698Y016237D01*
X004681Y016223D01*
X004665Y016207D01*
X004651Y016190D01*
X004640Y016170D01*
X004632Y016150D01*
X004626Y016128D01*
X004623Y016106D01*
X004623Y015298D01*
X000330Y015298D01*
X000330Y017445D01*
X001039Y017994D01*
X002647Y019107D01*
X004330Y020102D01*
X006080Y020975D01*
X007887Y021721D01*
X009743Y022337D01*
X011637Y022819D01*
X013562Y023165D01*
X015506Y023374D01*
X017460Y023443D01*
X019414Y023374D01*
X021358Y023165D01*
X023282Y022819D01*
X025177Y022337D01*
X027033Y021721D01*
X028840Y020975D01*
X030589Y020102D01*
X032272Y019107D01*
X033440Y018298D01*
X032869Y018298D01*
X032740Y018170D01*
X032669Y018098D01*
X031519Y018098D01*
X031390Y017970D01*
X031290Y017870D01*
X031290Y017065D01*
X031419Y016936D01*
X031506Y016850D01*
X031506Y016548D01*
X031080Y016548D01*
X031080Y017120D01*
X030951Y017248D01*
X030751Y017448D01*
X029591Y017448D01*
X029647Y017505D01*
X029730Y017587D01*
X029730Y017937D01*
X029980Y018187D01*
X029980Y019120D01*
X029851Y019248D01*
X029730Y019370D01*
X029601Y019498D01*
X028619Y019498D01*
X028490Y019370D01*
X028419Y019298D01*
X027219Y019298D01*
X027090Y019170D01*
X026990Y019070D01*
X026990Y018265D01*
X027119Y018136D01*
X027206Y018050D01*
X027206Y017848D01*
X024891Y017848D01*
X024980Y017937D01*
X024980Y018437D01*
X025330Y018787D01*
X025330Y019187D01*
X027107Y019187D01*
X027009Y019088D02*
X025330Y019088D01*
X025330Y018990D02*
X026990Y018990D01*
X026990Y018891D02*
X025330Y018891D01*
X025330Y018793D02*
X026990Y018793D01*
X026990Y018694D02*
X025237Y018694D01*
X025138Y018596D02*
X026990Y018596D01*
X026990Y018497D02*
X025040Y018497D01*
X024980Y018399D02*
X026990Y018399D01*
X026990Y018300D02*
X024980Y018300D01*
X024980Y018202D02*
X027053Y018202D01*
X027152Y018103D02*
X024980Y018103D01*
X024980Y018005D02*
X027206Y018005D01*
X027206Y017906D02*
X024949Y017906D01*
X024760Y018028D02*
X024560Y017828D01*
X023860Y017828D01*
X023160Y018528D01*
X018360Y018528D01*
X017660Y017828D01*
X017660Y015728D01*
X017760Y015628D01*
X018360Y015628D01*
X018960Y015028D01*
X019960Y015028D01*
X020360Y014628D01*
X020460Y014628D01*
X020560Y014528D01*
X020560Y014128D01*
X020360Y013928D01*
X020160Y013928D01*
X020060Y013828D01*
X020060Y012728D01*
X019925Y012594D01*
X019660Y012594D01*
X019660Y012328D01*
X019460Y012128D01*
X018160Y012128D01*
X017760Y011728D01*
X017760Y002928D01*
X017860Y002828D01*
X018260Y002828D01*
X018460Y002628D01*
X018460Y002028D01*
X018660Y001828D01*
X018860Y001828D01*
X018960Y001728D01*
X018960Y001328D01*
X019299Y001654D02*
X019523Y001654D01*
X019569Y001608D02*
X019575Y001608D01*
X019490Y001523D01*
X019490Y001134D01*
X019765Y000858D01*
X020154Y000858D01*
X020430Y001134D01*
X020430Y001523D01*
X020180Y001773D01*
X020180Y001820D01*
X020051Y001948D01*
X019951Y002048D01*
X020240Y002048D01*
X020240Y002146D02*
X019680Y002146D01*
X019680Y002120D02*
X019680Y002608D01*
X020169Y002608D01*
X020240Y002537D01*
X020240Y001937D01*
X020440Y001737D01*
X020569Y001608D01*
X020575Y001608D01*
X020490Y001523D01*
X020490Y001134D01*
X020765Y000858D01*
X021154Y000858D01*
X021430Y001134D01*
X021430Y001523D01*
X021180Y001773D01*
X021180Y001820D01*
X021051Y001948D01*
X020951Y002048D01*
X021604Y002048D01*
X021510Y002142D02*
X021773Y001878D01*
X021910Y001878D01*
X021910Y002278D01*
X022010Y002278D01*
X022010Y001878D01*
X022146Y001878D01*
X022410Y002142D01*
X022410Y002278D01*
X022010Y002278D01*
X022010Y002378D01*
X022410Y002378D01*
X022410Y002515D01*
X022146Y002778D01*
X022010Y002778D01*
X022010Y002378D01*
X021910Y002378D01*
X021910Y002278D01*
X021510Y002278D01*
X021510Y002142D01*
X021510Y002146D02*
X020680Y002146D01*
X020680Y002120D02*
X020680Y002720D01*
X020551Y002848D01*
X020351Y003048D01*
X019751Y003048D01*
X019551Y003248D01*
X019151Y003248D01*
X018951Y003448D01*
X018380Y003448D01*
X018380Y011437D01*
X018451Y011508D01*
X019751Y011508D01*
X020051Y011808D01*
X021351Y011808D01*
X021551Y012008D01*
X022851Y012008D01*
X023069Y012227D01*
X023147Y012227D01*
X023246Y012327D01*
X023246Y012404D01*
X023345Y012503D01*
X023480Y012637D01*
X023480Y013708D01*
X023651Y013708D01*
X023980Y014037D01*
X023980Y014620D01*
X023851Y014748D01*
X023651Y014948D01*
X023480Y014948D01*
X023480Y015020D01*
X023251Y015248D01*
X022351Y015248D01*
X021951Y015648D01*
X020951Y015648D01*
X020551Y016048D01*
X019451Y016048D01*
X018851Y016648D01*
X018680Y016648D01*
X018680Y017337D01*
X018851Y017508D01*
X022669Y017508D01*
X023369Y016808D01*
X030440Y016808D01*
X030440Y016145D01*
X030433Y016156D01*
X030419Y016174D01*
X030404Y016190D01*
X030386Y016203D01*
X030367Y016215D01*
X030346Y016223D01*
X030325Y016229D01*
X030302Y016232D01*
X027715Y016232D01*
X027693Y016229D01*
X027672Y016223D01*
X027651Y016215D01*
X027632Y016203D01*
X027614Y016190D01*
X027598Y016174D01*
X027585Y016156D01*
X027574Y016137D01*
X027565Y016117D01*
X027559Y016095D01*
X027556Y016073D01*
X027556Y015384D01*
X027559Y015362D01*
X027565Y015340D01*
X027574Y015320D01*
X027585Y015300D01*
X027586Y015298D01*
X027430Y015298D01*
X025930Y016798D01*
X024389Y016798D01*
X024290Y016699D01*
X024290Y012999D01*
X022490Y011199D01*
X022490Y000398D01*
X016960Y000398D01*
X016960Y000858D01*
X017154Y000858D01*
X017430Y001134D01*
X017430Y001523D01*
X017180Y001773D01*
X017180Y001820D01*
X017051Y001948D01*
X016960Y002040D01*
X016960Y002717D01*
X017340Y003097D01*
X017340Y002820D01*
X017240Y002720D01*
X017240Y001937D01*
X017440Y001737D01*
X017569Y001608D01*
X017575Y001608D01*
X017490Y001523D01*
X017490Y001134D01*
X017765Y000858D01*
X018154Y000858D01*
X018430Y001134D01*
X018430Y001523D01*
X018180Y001773D01*
X018180Y001820D01*
X018051Y001948D01*
X017951Y002048D01*
X018240Y002048D01*
X018240Y002146D02*
X017680Y002146D01*
X017680Y002120D02*
X017680Y002537D01*
X017760Y002617D01*
X017769Y002608D01*
X018169Y002608D01*
X018240Y002537D01*
X018240Y001937D01*
X018440Y001737D01*
X018569Y001608D01*
X018575Y001608D01*
X018490Y001523D01*
X018490Y001134D01*
X018765Y000858D01*
X019154Y000858D01*
X019430Y001134D01*
X019430Y001523D01*
X019180Y001773D01*
X019180Y001820D01*
X019051Y001948D01*
X018951Y002048D01*
X019240Y002048D01*
X019240Y002146D02*
X018680Y002146D01*
X018680Y002120D02*
X018680Y002720D01*
X018591Y002808D01*
X018669Y002808D01*
X018740Y002737D01*
X018869Y002608D01*
X019169Y002608D01*
X019240Y002537D01*
X019240Y001937D01*
X019440Y001737D01*
X019569Y001608D01*
X019522Y001555D02*
X019397Y001555D01*
X019430Y001457D02*
X019490Y001457D01*
X019490Y001358D02*
X019430Y001358D01*
X019430Y001260D02*
X019490Y001260D01*
X019490Y001161D02*
X019430Y001161D01*
X019359Y001063D02*
X019561Y001063D01*
X019659Y000964D02*
X019260Y000964D01*
X019162Y000866D02*
X019758Y000866D01*
X020162Y000866D02*
X020758Y000866D01*
X020659Y000964D02*
X020260Y000964D01*
X020359Y001063D02*
X020561Y001063D01*
X020490Y001161D02*
X020430Y001161D01*
X020430Y001260D02*
X020490Y001260D01*
X020490Y001358D02*
X020430Y001358D01*
X020430Y001457D02*
X020490Y001457D01*
X020522Y001555D02*
X020397Y001555D01*
X020299Y001654D02*
X020523Y001654D01*
X020425Y001752D02*
X020200Y001752D01*
X020148Y001851D02*
X020326Y001851D01*
X020240Y001949D02*
X020050Y001949D01*
X019951Y002048D02*
X019751Y002048D01*
X019680Y002120D01*
X019680Y002245D02*
X020240Y002245D01*
X020240Y002343D02*
X019680Y002343D01*
X019680Y002442D02*
X020240Y002442D01*
X020237Y002540D02*
X019680Y002540D01*
X019460Y002628D02*
X019460Y002028D01*
X019660Y001828D01*
X019860Y001828D01*
X019960Y001728D01*
X019960Y001328D01*
X019425Y001752D02*
X019200Y001752D01*
X019148Y001851D02*
X019326Y001851D01*
X019240Y001949D02*
X019050Y001949D01*
X018951Y002048D02*
X018751Y002048D01*
X018680Y002120D01*
X018680Y002245D02*
X019240Y002245D01*
X019240Y002343D02*
X018680Y002343D01*
X018680Y002442D02*
X019240Y002442D01*
X019237Y002540D02*
X018680Y002540D01*
X018680Y002639D02*
X018838Y002639D01*
X018740Y002737D02*
X018662Y002737D01*
X018760Y003028D02*
X018960Y002828D01*
X019260Y002828D01*
X019460Y002628D01*
X019660Y002828D02*
X019460Y003028D01*
X019060Y003028D01*
X018860Y003228D01*
X018260Y003228D01*
X018160Y003328D01*
X018160Y011528D01*
X018360Y011728D01*
X019660Y011728D01*
X019960Y012028D01*
X021260Y012028D01*
X021460Y012228D01*
X022760Y012228D01*
X022860Y012328D01*
X022860Y012594D01*
X023125Y012594D01*
X023260Y012728D01*
X023260Y013828D01*
X023360Y013928D01*
X023560Y013928D01*
X023760Y014128D01*
X023760Y014528D01*
X023560Y014728D01*
X023360Y014728D01*
X023260Y014828D01*
X023260Y014928D01*
X023160Y015028D01*
X022260Y015028D01*
X021860Y015428D01*
X020860Y015428D01*
X020460Y015828D01*
X019360Y015828D01*
X018760Y016428D01*
X018560Y016428D01*
X018460Y016528D01*
X018460Y017428D01*
X018760Y017728D01*
X022760Y017728D01*
X023460Y017028D01*
X030560Y017028D01*
X030660Y016928D01*
X030660Y016228D01*
X030760Y016128D01*
X033560Y016128D01*
X033810Y016378D01*
X033810Y016878D01*
X034010Y017078D01*
X034010Y017828D01*
X033760Y018078D01*
X032960Y018078D01*
X032760Y017878D01*
X031610Y017878D01*
X031510Y017778D01*
X031510Y017156D01*
X031892Y016774D01*
X031506Y016823D02*
X031080Y016823D01*
X031080Y016921D02*
X031434Y016921D01*
X031335Y017020D02*
X031080Y017020D01*
X031080Y017118D02*
X031290Y017118D01*
X031290Y017217D02*
X030982Y017217D01*
X030884Y017315D02*
X031290Y017315D01*
X031290Y017414D02*
X030785Y017414D01*
X030660Y017228D02*
X030860Y017028D01*
X030860Y016428D01*
X030960Y016328D01*
X032960Y016328D01*
X033060Y016428D01*
X033060Y017328D01*
X033160Y017428D01*
X033373Y017428D01*
X033427Y017483D01*
X033041Y017621D02*
X032840Y017420D01*
X032840Y016548D01*
X032279Y016548D01*
X032279Y017041D01*
X032179Y017141D01*
X032147Y017141D01*
X032166Y017146D01*
X032201Y017166D01*
X032229Y017194D01*
X032248Y017228D01*
X032259Y017266D01*
X032259Y017434D01*
X031940Y017434D01*
X031940Y017531D01*
X032259Y017531D01*
X032259Y017658D01*
X032851Y017658D01*
X033051Y017858D01*
X033669Y017858D01*
X033677Y017850D01*
X033141Y017850D01*
X033041Y017750D01*
X033041Y017621D01*
X033031Y017611D02*
X032259Y017611D01*
X032259Y017414D02*
X032840Y017414D01*
X032840Y017315D02*
X032259Y017315D01*
X032242Y017217D02*
X032840Y017217D01*
X032840Y017118D02*
X032202Y017118D01*
X032246Y017128D02*
X032660Y017128D01*
X032660Y017478D01*
X033060Y017878D01*
X033660Y017878D01*
X033810Y017728D01*
X033810Y017156D01*
X033427Y016774D01*
X033379Y016726D02*
X033476Y016726D01*
X033476Y016427D01*
X033547Y016427D01*
X033469Y016348D01*
X033280Y016348D01*
X033280Y016427D01*
X033379Y016427D01*
X033379Y016726D01*
X033379Y016724D02*
X033476Y016724D01*
X033476Y016626D02*
X033379Y016626D01*
X033379Y016527D02*
X033476Y016527D01*
X033476Y016429D02*
X033379Y016429D01*
X032840Y016626D02*
X032279Y016626D01*
X032279Y016724D02*
X032840Y016724D01*
X032840Y016823D02*
X032279Y016823D01*
X032279Y016921D02*
X032840Y016921D01*
X032840Y017020D02*
X032279Y017020D01*
X032246Y017128D02*
X031892Y017483D01*
X031940Y017512D02*
X032933Y017512D01*
X032902Y017709D02*
X033041Y017709D01*
X033000Y017808D02*
X033099Y017808D01*
X032772Y018202D02*
X029980Y018202D01*
X029980Y018300D02*
X033438Y018300D01*
X033295Y018399D02*
X029980Y018399D01*
X029980Y018497D02*
X033153Y018497D01*
X033010Y018596D02*
X029980Y018596D01*
X029980Y018694D02*
X032868Y018694D01*
X032726Y018793D02*
X029980Y018793D01*
X029980Y018891D02*
X032583Y018891D01*
X032441Y018990D02*
X029980Y018990D01*
X029980Y019088D02*
X032299Y019088D01*
X032136Y019187D02*
X029912Y019187D01*
X029851Y019248D02*
X029851Y019248D01*
X029814Y019285D02*
X031970Y019285D01*
X031803Y019384D02*
X029715Y019384D01*
X029730Y019370D02*
X029730Y019370D01*
X029617Y019482D02*
X031637Y019482D01*
X031470Y019581D02*
X025530Y019581D01*
X025530Y019679D02*
X031304Y019679D01*
X031137Y019778D02*
X025530Y019778D01*
X025530Y019876D02*
X030970Y019876D01*
X030804Y019975D02*
X025530Y019975D01*
X025530Y020073D02*
X030637Y020073D01*
X030449Y020172D02*
X025530Y020172D01*
X025530Y020270D02*
X030251Y020270D01*
X030054Y020369D02*
X025530Y020369D01*
X025530Y020370D02*
X025401Y020498D01*
X025201Y020698D01*
X024019Y020698D01*
X023890Y020570D01*
X023890Y020570D01*
X023819Y020498D01*
X022819Y020498D01*
X022690Y020370D01*
X022590Y020270D01*
X022590Y019465D01*
X022719Y019336D01*
X022806Y019250D01*
X022806Y018948D01*
X020391Y018948D01*
X020480Y019037D01*
X020480Y019587D01*
X020830Y019937D01*
X020830Y020187D01*
X021030Y020387D01*
X021030Y021570D01*
X020901Y021698D01*
X020701Y021898D01*
X018869Y021898D01*
X018740Y021770D01*
X018669Y021698D01*
X018319Y021698D01*
X018190Y021570D01*
X018090Y021470D01*
X018090Y020665D01*
X018219Y020536D01*
X018306Y020450D01*
X018306Y020107D01*
X018405Y020007D01*
X018979Y020007D01*
X019079Y020107D01*
X019079Y020641D01*
X018979Y020741D01*
X018947Y020741D01*
X018966Y020746D01*
X019001Y020766D01*
X019029Y020794D01*
X019048Y020828D01*
X019059Y020866D01*
X019059Y021034D01*
X018740Y021034D01*
X018740Y021131D01*
X019059Y021131D01*
X019059Y021299D01*
X019048Y021338D01*
X019029Y021372D01*
X019001Y021400D01*
X018995Y021403D01*
X019051Y021458D01*
X020519Y021458D01*
X020590Y021387D01*
X020590Y021374D01*
X020514Y021450D01*
X019941Y021450D01*
X019841Y021350D01*
X019841Y021221D01*
X019740Y021120D01*
X019640Y021020D01*
X019640Y019937D01*
X019769Y019808D01*
X019840Y019737D01*
X019840Y019348D01*
X017969Y019348D01*
X017840Y019220D01*
X016969Y018348D01*
X016960Y018340D01*
X015980Y019320D01*
X015980Y019637D01*
X016101Y019758D01*
X016301Y019758D01*
X016601Y020058D01*
X016730Y020187D01*
X016730Y021520D01*
X016480Y021770D01*
X016351Y021898D01*
X015319Y021898D01*
X015119Y021698D01*
X014069Y021698D01*
X013919Y021548D01*
X013790Y021420D01*
X013790Y020387D01*
X013894Y020283D01*
X014006Y020172D01*
X014006Y020107D01*
X014105Y020007D01*
X014679Y020007D01*
X014779Y020107D01*
X014779Y020641D01*
X014679Y020741D01*
X014647Y020741D01*
X014666Y020746D01*
X014701Y020766D01*
X014729Y020794D01*
X014748Y020828D01*
X014759Y020866D01*
X014759Y021034D01*
X014440Y021034D01*
X014440Y021131D01*
X014759Y021131D01*
X014759Y021258D01*
X015301Y021258D01*
X015430Y021387D01*
X015501Y021458D01*
X016169Y021458D01*
X016177Y021450D01*
X015641Y021450D01*
X015541Y021350D01*
X015541Y021321D01*
X015469Y021248D01*
X015340Y021120D01*
X015340Y019037D01*
X015469Y018908D01*
X015529Y018848D01*
X012951Y018848D01*
X012280Y019520D01*
X012280Y019820D01*
X012151Y019948D01*
X012051Y020048D01*
X012014Y020048D01*
X012014Y020150D01*
X011914Y020250D01*
X011341Y020250D01*
X011241Y020150D01*
X011241Y019616D01*
X011341Y019516D01*
X011372Y019516D01*
X011353Y019511D01*
X011319Y019491D01*
X011291Y019463D01*
X011271Y019429D01*
X011261Y019391D01*
X011261Y019223D01*
X011579Y019223D01*
X011579Y019126D01*
X011261Y019126D01*
X011261Y019006D01*
X010571Y019006D01*
X010479Y019099D01*
X010479Y019441D01*
X010379Y019541D01*
X010347Y019541D01*
X010366Y019546D01*
X010401Y019566D01*
X010429Y019594D01*
X010448Y019628D01*
X010459Y019666D01*
X010459Y019834D01*
X010140Y019834D01*
X010140Y019931D01*
X010044Y019931D01*
X010044Y020230D01*
X009856Y020230D01*
X009818Y020219D01*
X009783Y020200D01*
X009755Y020172D01*
X009736Y020138D01*
X009726Y020099D01*
X009726Y019931D01*
X010044Y019931D01*
X010044Y019834D01*
X009726Y019834D01*
X009726Y019666D01*
X009736Y019628D01*
X009755Y019594D01*
X009783Y019566D01*
X009818Y019546D01*
X009837Y019541D01*
X009805Y019541D01*
X009706Y019441D01*
X009706Y018907D01*
X009805Y018807D01*
X010148Y018807D01*
X010260Y018695D01*
X010389Y018566D01*
X012295Y018566D01*
X012412Y018448D01*
X007873Y018448D01*
X007714Y018607D01*
X007714Y018950D01*
X007614Y019050D01*
X007041Y019050D01*
X006941Y018950D01*
X006941Y018416D01*
X007041Y018316D01*
X007072Y018316D01*
X007053Y018311D01*
X007019Y018291D01*
X006991Y018263D01*
X006971Y018229D01*
X006961Y018191D01*
X006961Y018023D01*
X007279Y018023D01*
X007279Y017926D01*
X006961Y017926D01*
X006961Y017758D01*
X006971Y017719D01*
X006991Y017685D01*
X007019Y017657D01*
X007034Y017648D01*
X006201Y017648D01*
X006161Y017689D01*
X006179Y017707D01*
X006179Y018241D01*
X006079Y018341D01*
X006047Y018341D01*
X006066Y018346D01*
X006101Y018366D01*
X006129Y018394D01*
X006148Y018428D01*
X006159Y018466D01*
X006159Y018634D01*
X005840Y018634D01*
X005840Y018731D01*
X005744Y018731D01*
X005744Y019030D01*
X005556Y019030D01*
X005518Y019019D01*
X005483Y019000D01*
X005455Y018972D01*
X005436Y018938D01*
X005426Y018899D01*
X005426Y018731D01*
X005744Y018731D01*
X005744Y018634D01*
X005426Y018634D01*
X005426Y018466D01*
X005436Y018428D01*
X005455Y018394D01*
X005483Y018366D01*
X005518Y018346D01*
X005537Y018341D01*
X005505Y018341D01*
X005406Y018241D01*
X005406Y017707D01*
X005505Y017607D01*
X005620Y017607D01*
X005701Y017526D01*
X005779Y017448D01*
X003651Y017448D01*
X003414Y017685D01*
X003414Y017750D01*
X003314Y017850D01*
X002741Y017850D01*
X002641Y017750D01*
X002641Y017216D01*
X002741Y017116D01*
X002772Y017116D01*
X002753Y017111D01*
X002719Y017091D01*
X002691Y017063D01*
X002671Y017029D01*
X002661Y016991D01*
X002669Y017020D02*
X001879Y017020D01*
X001802Y017118D02*
X002738Y017118D01*
X002641Y017217D02*
X001842Y017217D01*
X001859Y017315D02*
X002641Y017315D01*
X002641Y017414D02*
X001859Y017414D01*
X001905Y017483D02*
X002260Y017128D01*
X002614Y016774D01*
X002661Y016724D02*
X001879Y016724D01*
X001951Y016626D02*
X002661Y016626D01*
X003351Y016108D02*
X001847Y016108D01*
X001718Y016237D01*
X001548Y016407D01*
X001625Y016330D02*
X000330Y016330D01*
X000330Y016232D02*
X001723Y016232D01*
X001822Y016133D02*
X000330Y016133D01*
X000330Y016035D02*
X004623Y016035D01*
X004623Y015936D02*
X000330Y015936D01*
X000330Y015838D02*
X004623Y015838D01*
X004623Y015739D02*
X000330Y015739D01*
X000330Y015641D02*
X004623Y015641D01*
X004623Y015542D02*
X000330Y015542D01*
X000330Y015444D02*
X004623Y015444D01*
X004623Y015345D02*
X000330Y015345D01*
X000330Y016429D02*
X001183Y016429D01*
X001106Y016527D02*
X000330Y016527D01*
X000330Y016626D02*
X001106Y016626D01*
X001106Y016724D02*
X000330Y016724D01*
X000330Y016823D02*
X001106Y016823D01*
X001106Y016921D02*
X000330Y016921D01*
X000330Y017020D02*
X001106Y017020D01*
X001183Y017118D02*
X000330Y017118D01*
X000330Y017217D02*
X001142Y017217D01*
X001126Y017315D02*
X000330Y017315D01*
X000330Y017414D02*
X001126Y017414D01*
X001126Y017611D02*
X000544Y017611D01*
X000417Y017512D02*
X001444Y017512D01*
X001446Y017528D02*
X001492Y017483D01*
X001905Y017483D01*
X001859Y017611D02*
X002641Y017611D01*
X002641Y017709D02*
X001856Y017709D01*
X001786Y017808D02*
X002699Y017808D01*
X002641Y017512D02*
X001540Y017512D01*
X001540Y017611D02*
X001444Y017611D01*
X001444Y017709D02*
X001540Y017709D01*
X001540Y017808D02*
X001444Y017808D01*
X001198Y017808D02*
X000799Y017808D01*
X000926Y017906D02*
X005406Y017906D01*
X005406Y017808D02*
X003356Y017808D01*
X003414Y017709D02*
X005406Y017709D01*
X005501Y017611D02*
X003488Y017611D01*
X003587Y017512D02*
X005715Y017512D01*
X005792Y017746D02*
X005792Y017974D01*
X005792Y017746D02*
X006110Y017428D01*
X007660Y017428D01*
X008260Y018028D01*
X015460Y018028D01*
X015860Y017628D01*
X015860Y015828D01*
X015760Y015728D01*
X014560Y015728D01*
X014160Y015328D01*
X013260Y015328D01*
X012860Y014928D01*
X012860Y012994D01*
X013260Y012594D01*
X013260Y012328D01*
X013360Y012228D01*
X014660Y012228D01*
X014860Y012028D01*
X016160Y012028D01*
X016360Y011828D01*
X016560Y011828D01*
X016960Y011428D01*
X016960Y003728D01*
X016260Y003028D01*
X015560Y003028D01*
X015360Y002828D01*
X014660Y002828D01*
X014460Y002628D01*
X014460Y002028D01*
X014660Y001828D01*
X014860Y001828D01*
X014960Y001728D01*
X014960Y001328D01*
X015242Y001654D02*
X015677Y001654D01*
X015581Y001752D02*
X015144Y001752D01*
X015092Y001851D02*
X015483Y001851D01*
X015384Y001949D02*
X014993Y001949D01*
X015286Y002048D02*
X014695Y002048D01*
X014640Y002146D02*
X015280Y002146D01*
X015280Y002245D02*
X014640Y002245D01*
X014640Y002343D02*
X015280Y002343D01*
X015280Y002442D02*
X014640Y002442D01*
X014640Y002540D02*
X015280Y002540D01*
X015280Y002639D02*
X014725Y002639D01*
X014413Y002836D02*
X014322Y002836D01*
X014314Y002737D02*
X014223Y002737D01*
X014280Y002639D02*
X013725Y002639D01*
X013640Y002540D02*
X014280Y002540D01*
X014280Y002442D02*
X013640Y002442D01*
X013640Y002343D02*
X014280Y002343D01*
X014280Y002245D02*
X013640Y002245D01*
X013696Y002146D02*
X014280Y002146D01*
X014280Y002048D02*
X013795Y002048D01*
X013993Y001949D02*
X014284Y001949D01*
X014383Y001851D02*
X014092Y001851D01*
X014144Y001752D02*
X014481Y001752D01*
X014580Y001654D02*
X014242Y001654D01*
X014341Y001555D02*
X014579Y001555D01*
X014530Y001457D02*
X014390Y001457D01*
X014390Y001358D02*
X014530Y001358D01*
X014530Y001260D02*
X014390Y001260D01*
X014390Y001161D02*
X014530Y001161D01*
X014617Y001063D02*
X014302Y001063D01*
X014204Y000964D02*
X014716Y000964D01*
X015204Y000964D02*
X015716Y000964D01*
X015617Y001063D02*
X015302Y001063D01*
X015390Y001161D02*
X015530Y001161D01*
X015530Y001260D02*
X015390Y001260D01*
X015390Y001358D02*
X015530Y001358D01*
X015530Y001457D02*
X015390Y001457D01*
X015341Y001555D02*
X015579Y001555D01*
X015760Y001828D02*
X015860Y001828D01*
X015960Y001728D01*
X015960Y001328D01*
X016390Y001358D02*
X016530Y001358D01*
X016530Y001260D02*
X016390Y001260D01*
X016390Y001161D02*
X016530Y001161D01*
X016617Y001063D02*
X016302Y001063D01*
X016204Y000964D02*
X016716Y000964D01*
X016760Y000866D02*
X012410Y000866D01*
X012410Y000964D02*
X012687Y000964D01*
X012773Y000878D02*
X012910Y000878D01*
X012910Y001278D01*
X013010Y001278D01*
X013010Y000878D01*
X013146Y000878D01*
X013410Y001142D01*
X013410Y001278D01*
X013010Y001278D01*
X013010Y001378D01*
X013410Y001378D01*
X013410Y001515D01*
X013146Y001778D01*
X013010Y001778D01*
X013010Y001378D01*
X012910Y001378D01*
X012910Y001278D01*
X012510Y001278D01*
X012510Y001142D01*
X012773Y000878D01*
X012910Y000964D02*
X013010Y000964D01*
X013010Y001063D02*
X012910Y001063D01*
X012910Y001161D02*
X013010Y001161D01*
X013010Y001260D02*
X012910Y001260D01*
X012960Y001328D02*
X012960Y002328D01*
X012910Y002343D02*
X012410Y002343D01*
X012410Y002245D02*
X012510Y002245D01*
X012510Y002146D02*
X012410Y002146D01*
X012410Y002048D02*
X012604Y002048D01*
X012702Y001949D02*
X012410Y001949D01*
X012410Y001851D02*
X013483Y001851D01*
X013581Y001752D02*
X013172Y001752D01*
X013271Y001654D02*
X013677Y001654D01*
X013579Y001555D02*
X013369Y001555D01*
X013410Y001457D02*
X013530Y001457D01*
X013530Y001358D02*
X013010Y001358D01*
X013010Y001457D02*
X012910Y001457D01*
X012910Y001378D02*
X012910Y001778D01*
X012773Y001778D01*
X012510Y001515D01*
X012510Y001378D01*
X012910Y001378D01*
X012910Y001358D02*
X012410Y001358D01*
X012410Y001260D02*
X012510Y001260D01*
X012510Y001161D02*
X012410Y001161D01*
X012410Y001063D02*
X012589Y001063D01*
X012410Y000767D02*
X016760Y000767D01*
X016760Y000669D02*
X012410Y000669D01*
X012410Y000570D02*
X016760Y000570D01*
X016760Y000472D02*
X012410Y000472D01*
X013232Y000964D02*
X013716Y000964D01*
X013617Y001063D02*
X013331Y001063D01*
X013410Y001161D02*
X013530Y001161D01*
X013530Y001260D02*
X013410Y001260D01*
X013010Y001555D02*
X012910Y001555D01*
X012910Y001654D02*
X013010Y001654D01*
X013010Y001752D02*
X012910Y001752D01*
X012747Y001752D02*
X012410Y001752D01*
X012410Y001654D02*
X012649Y001654D01*
X012550Y001555D02*
X012410Y001555D01*
X012410Y001457D02*
X012510Y001457D01*
X012910Y001949D02*
X013010Y001949D01*
X013010Y002048D02*
X012910Y002048D01*
X012910Y002146D02*
X013010Y002146D01*
X013010Y002245D02*
X012910Y002245D01*
X012910Y002442D02*
X013010Y002442D01*
X013010Y002540D02*
X012910Y002540D01*
X012910Y002639D02*
X013010Y002639D01*
X013010Y002737D02*
X012910Y002737D01*
X012732Y002737D02*
X012410Y002737D01*
X012410Y002639D02*
X012634Y002639D01*
X012535Y002540D02*
X012410Y002540D01*
X012410Y002442D02*
X012510Y002442D01*
X012410Y002836D02*
X013413Y002836D01*
X013511Y002934D02*
X012410Y002934D01*
X012410Y003033D02*
X014010Y003033D01*
X014108Y003131D02*
X012410Y003131D01*
X012410Y003230D02*
X015207Y003230D01*
X015305Y003328D02*
X012410Y003328D01*
X012410Y003427D02*
X016104Y003427D01*
X016202Y003525D02*
X012410Y003525D01*
X012410Y003624D02*
X016301Y003624D01*
X016399Y003722D02*
X012410Y003722D01*
X012410Y003821D02*
X016498Y003821D01*
X016580Y003919D02*
X012410Y003919D01*
X012410Y004018D02*
X014936Y004018D01*
X014971Y004003D02*
X015299Y004003D01*
X015602Y004129D01*
X015602Y004129D01*
X015834Y004361D01*
X015834Y004361D01*
X015960Y004664D01*
X015960Y004891D01*
X015960Y007766D01*
X015960Y007993D01*
X015834Y008296D01*
X015602Y008528D01*
X015299Y008653D01*
X014971Y008653D01*
X014667Y008528D01*
X014435Y008296D01*
X014310Y007993D01*
X014310Y004664D01*
X014435Y004361D01*
X014667Y004129D01*
X014667Y004129D01*
X014971Y004003D01*
X014698Y004116D02*
X012410Y004116D01*
X012410Y004215D02*
X014582Y004215D01*
X014483Y004313D02*
X012410Y004313D01*
X012410Y004412D02*
X014414Y004412D01*
X014435Y004361D02*
X014435Y004361D01*
X014374Y004510D02*
X012410Y004510D01*
X012410Y004609D02*
X014333Y004609D01*
X014310Y004707D02*
X012410Y004707D01*
X012410Y004806D02*
X014310Y004806D01*
X014310Y004904D02*
X012410Y004904D01*
X012410Y005003D02*
X014310Y005003D01*
X014310Y005101D02*
X012410Y005101D01*
X012410Y005200D02*
X014310Y005200D01*
X014310Y005298D02*
X012410Y005298D01*
X012410Y005397D02*
X014310Y005397D01*
X014310Y005495D02*
X012410Y005495D01*
X012410Y005594D02*
X014310Y005594D01*
X014310Y005692D02*
X012410Y005692D01*
X012410Y005791D02*
X014310Y005791D01*
X014310Y005889D02*
X012410Y005889D01*
X012410Y005988D02*
X014310Y005988D01*
X014310Y006086D02*
X012410Y006086D01*
X012410Y006185D02*
X014310Y006185D01*
X014310Y006283D02*
X012410Y006283D01*
X012410Y006382D02*
X014310Y006382D01*
X014310Y006480D02*
X012410Y006480D01*
X012410Y006579D02*
X014310Y006579D01*
X014310Y006677D02*
X012410Y006677D01*
X012410Y006776D02*
X014310Y006776D01*
X014310Y006874D02*
X012410Y006874D01*
X012410Y006973D02*
X014310Y006973D01*
X014310Y007071D02*
X012410Y007071D01*
X012410Y007170D02*
X014310Y007170D01*
X014310Y007268D02*
X012410Y007268D01*
X012410Y007367D02*
X014310Y007367D01*
X014310Y007465D02*
X012410Y007465D01*
X012410Y007564D02*
X014310Y007564D01*
X014310Y007662D02*
X012410Y007662D01*
X012410Y007761D02*
X014310Y007761D01*
X014310Y007859D02*
X012410Y007859D01*
X012410Y007958D02*
X014310Y007958D01*
X014336Y008056D02*
X012410Y008056D01*
X012410Y008155D02*
X014377Y008155D01*
X014418Y008253D02*
X012410Y008253D01*
X012410Y008352D02*
X014492Y008352D01*
X014435Y008296D02*
X014435Y008296D01*
X014590Y008450D02*
X012410Y008450D01*
X012410Y008549D02*
X014718Y008549D01*
X014667Y008528D02*
X014667Y008528D01*
X014956Y008647D02*
X012410Y008647D01*
X012410Y008746D02*
X016580Y008746D01*
X016580Y008844D02*
X012410Y008844D01*
X012410Y008943D02*
X016580Y008943D01*
X016580Y009041D02*
X012410Y009041D01*
X012410Y009140D02*
X016580Y009140D01*
X016580Y009238D02*
X012410Y009238D01*
X012410Y009337D02*
X016580Y009337D01*
X016580Y009435D02*
X012410Y009435D01*
X012410Y009534D02*
X016580Y009534D01*
X016580Y009632D02*
X012410Y009632D01*
X012410Y009731D02*
X016580Y009731D01*
X016580Y009829D02*
X012410Y009829D01*
X012410Y009928D02*
X016580Y009928D01*
X016580Y010026D02*
X012410Y010026D01*
X012410Y010125D02*
X016580Y010125D01*
X016580Y010223D02*
X012410Y010223D01*
X012410Y010322D02*
X016580Y010322D01*
X016580Y010420D02*
X012410Y010420D01*
X012410Y010519D02*
X016580Y010519D01*
X016580Y010617D02*
X012410Y010617D01*
X012410Y010716D02*
X016580Y010716D01*
X016580Y010814D02*
X012410Y010814D01*
X012410Y010913D02*
X016580Y010913D01*
X016580Y011011D02*
X012410Y011011D01*
X012410Y011110D02*
X016580Y011110D01*
X016580Y011208D02*
X012392Y011208D01*
X012293Y011307D02*
X016527Y011307D01*
X016428Y011405D02*
X012195Y011405D01*
X012096Y011504D02*
X016130Y011504D01*
X016031Y011602D02*
X011998Y011602D01*
X011702Y011898D02*
X013136Y011898D01*
X013037Y011996D02*
X011604Y011996D01*
X011639Y012095D02*
X011505Y012095D01*
X013211Y013312D02*
X013211Y013610D01*
X013040Y013610D01*
X013040Y013647D01*
X013211Y013647D01*
X013211Y013945D01*
X013308Y013945D01*
X013308Y013647D01*
X013496Y013647D01*
X013534Y013657D01*
X013568Y013677D01*
X013596Y013705D01*
X013616Y013739D01*
X013626Y013777D01*
X013626Y013945D01*
X013308Y013945D01*
X013308Y014042D01*
X013626Y014042D01*
X013626Y014210D01*
X013616Y014249D01*
X013596Y014283D01*
X013568Y014311D01*
X013534Y014330D01*
X013512Y014336D01*
X013530Y014336D01*
X013606Y014412D01*
X013606Y014828D01*
X014255Y014828D01*
X014255Y012679D01*
X014414Y012519D01*
X014513Y012420D01*
X014513Y012408D01*
X013606Y012408D01*
X013606Y012845D01*
X013530Y012921D01*
X013512Y012921D01*
X013534Y012926D01*
X013568Y012946D01*
X013596Y012974D01*
X013616Y013008D01*
X013626Y013047D01*
X013626Y013215D01*
X013308Y013215D01*
X013308Y013312D01*
X013211Y013312D01*
X013211Y013375D02*
X013308Y013375D01*
X013308Y013312D02*
X013308Y013610D01*
X013496Y013610D01*
X013534Y013600D01*
X013568Y013580D01*
X013596Y013552D01*
X013616Y013518D01*
X013626Y013480D01*
X013626Y013312D01*
X013308Y013312D01*
X013308Y013277D02*
X014255Y013277D01*
X014255Y013375D02*
X013626Y013375D01*
X013626Y013474D02*
X014255Y013474D01*
X014255Y013572D02*
X013576Y013572D01*
X013558Y013671D02*
X014255Y013671D01*
X014255Y013769D02*
X013624Y013769D01*
X013626Y013868D02*
X014255Y013868D01*
X014255Y013966D02*
X013308Y013966D01*
X013260Y013994D02*
X013260Y014128D01*
X013460Y014328D01*
X013760Y014328D01*
X013594Y014328D01*
X013554Y014360D02*
X014255Y014360D01*
X014255Y014262D02*
X013608Y014262D01*
X013626Y014163D02*
X014255Y014163D01*
X014255Y014065D02*
X013626Y014065D01*
X013308Y014065D02*
X013211Y014065D01*
X013211Y014042D02*
X013211Y014336D01*
X013308Y014336D01*
X013308Y014042D01*
X013211Y014042D01*
X013260Y013994D02*
X013260Y013263D01*
X013211Y013474D02*
X013308Y013474D01*
X013308Y013572D02*
X013211Y013572D01*
X013211Y013671D02*
X013308Y013671D01*
X013308Y013769D02*
X013211Y013769D01*
X013211Y013868D02*
X013308Y013868D01*
X013308Y014163D02*
X013211Y014163D01*
X013211Y014262D02*
X013308Y014262D01*
X013606Y014459D02*
X014255Y014459D01*
X014255Y014557D02*
X013606Y014557D01*
X013606Y014656D02*
X014255Y014656D01*
X014255Y014754D02*
X013606Y014754D01*
X013260Y014663D02*
X013260Y015028D01*
X013360Y015128D01*
X014260Y015128D01*
X014660Y015528D01*
X015960Y015528D01*
X016060Y015628D01*
X016060Y017728D01*
X015560Y018228D01*
X007782Y018228D01*
X007327Y018683D01*
X006941Y018694D02*
X005840Y018694D01*
X005840Y018731D02*
X006159Y018731D01*
X006159Y018899D01*
X006148Y018938D01*
X006129Y018972D01*
X006101Y019000D01*
X006066Y019019D01*
X006028Y019030D01*
X005840Y019030D01*
X005840Y018731D01*
X005840Y018793D02*
X005744Y018793D01*
X005744Y018891D02*
X005840Y018891D01*
X005840Y018990D02*
X005744Y018990D01*
X005474Y018990D02*
X002479Y018990D01*
X002621Y019088D02*
X009706Y019088D01*
X009706Y018990D02*
X007674Y018990D01*
X007714Y018891D02*
X009721Y018891D01*
X009706Y019187D02*
X002783Y019187D01*
X002950Y019285D02*
X009706Y019285D01*
X009706Y019384D02*
X003116Y019384D01*
X003283Y019482D02*
X009747Y019482D01*
X009768Y019581D02*
X003449Y019581D01*
X003616Y019679D02*
X009726Y019679D01*
X009726Y019778D02*
X003782Y019778D01*
X003949Y019876D02*
X010044Y019876D01*
X010092Y019883D02*
X010446Y019528D01*
X010860Y019528D01*
X011273Y019528D01*
X011627Y019174D01*
X011579Y019187D02*
X010479Y019187D01*
X010479Y019285D02*
X011261Y019285D01*
X011261Y019384D02*
X010479Y019384D01*
X010437Y019482D02*
X011310Y019482D01*
X011275Y019581D02*
X010416Y019581D01*
X010459Y019679D02*
X011241Y019679D01*
X011241Y019778D02*
X010459Y019778D01*
X010459Y019931D02*
X010459Y020099D01*
X010448Y020138D01*
X010429Y020172D01*
X010401Y020200D01*
X010366Y020219D01*
X010328Y020230D01*
X010140Y020230D01*
X010140Y019931D01*
X010459Y019931D01*
X010459Y019975D02*
X011241Y019975D01*
X011241Y020073D02*
X010459Y020073D01*
X010428Y020172D02*
X011263Y020172D01*
X011241Y019876D02*
X010140Y019876D01*
X010140Y019975D02*
X010044Y019975D01*
X010044Y020073D02*
X010140Y020073D01*
X010140Y020172D02*
X010044Y020172D01*
X009756Y020172D02*
X004471Y020172D01*
X004282Y020073D02*
X009726Y020073D01*
X009726Y019975D02*
X004116Y019975D01*
X004668Y020270D02*
X013907Y020270D01*
X014005Y020172D02*
X011992Y020172D01*
X012014Y020073D02*
X014039Y020073D01*
X014114Y020374D02*
X014392Y020374D01*
X014114Y020374D02*
X014010Y020478D01*
X014010Y021328D01*
X014160Y021478D01*
X015210Y021478D01*
X015410Y021678D01*
X016260Y021678D01*
X016510Y021428D01*
X016510Y020278D01*
X016210Y019978D01*
X016010Y019978D01*
X015760Y019728D01*
X015760Y019228D01*
X016860Y018128D01*
X016860Y014828D01*
X016960Y014728D01*
X017160Y014728D01*
X017360Y014528D01*
X017360Y014028D01*
X017260Y013928D01*
X016960Y013928D01*
X016860Y013828D01*
X016860Y012728D01*
X016725Y012594D01*
X016460Y012594D01*
X016460Y012328D01*
X016560Y012228D01*
X016760Y012228D01*
X017360Y011628D01*
X017360Y003428D01*
X016460Y002528D01*
X016460Y002128D01*
X016760Y001828D01*
X016860Y001828D01*
X016960Y001728D01*
X016960Y001328D01*
X016677Y001654D02*
X016242Y001654D01*
X016144Y001752D02*
X016581Y001752D01*
X016483Y001851D02*
X016092Y001851D01*
X015993Y001949D02*
X016384Y001949D01*
X016286Y002048D02*
X015795Y002048D01*
X015696Y002146D02*
X016280Y002146D01*
X016280Y002245D02*
X015640Y002245D01*
X015640Y002343D02*
X016280Y002343D01*
X016280Y002442D02*
X015640Y002442D01*
X015640Y002540D02*
X016280Y002540D01*
X016316Y002639D02*
X015725Y002639D01*
X015660Y002828D02*
X015460Y002628D01*
X015460Y002128D01*
X015760Y001828D01*
X016341Y001555D02*
X016579Y001555D01*
X016530Y001457D02*
X016390Y001457D01*
X016960Y002048D02*
X017240Y002048D01*
X017240Y002146D02*
X016960Y002146D01*
X016960Y002245D02*
X017240Y002245D01*
X017240Y002343D02*
X016960Y002343D01*
X016960Y002442D02*
X017240Y002442D01*
X017240Y002540D02*
X016960Y002540D01*
X016960Y002639D02*
X017240Y002639D01*
X017258Y002737D02*
X016980Y002737D01*
X017078Y002836D02*
X017340Y002836D01*
X017340Y002934D02*
X017177Y002934D01*
X017275Y003033D02*
X017340Y003033D01*
X017560Y002728D02*
X017460Y002628D01*
X017460Y002028D01*
X017660Y001828D01*
X017860Y001828D01*
X017960Y001728D01*
X017960Y001328D01*
X018299Y001654D02*
X018523Y001654D01*
X018522Y001555D02*
X018397Y001555D01*
X018430Y001457D02*
X018490Y001457D01*
X018490Y001358D02*
X018430Y001358D01*
X018430Y001260D02*
X018490Y001260D01*
X018490Y001161D02*
X018430Y001161D01*
X018359Y001063D02*
X018561Y001063D01*
X018659Y000964D02*
X018260Y000964D01*
X018162Y000866D02*
X018758Y000866D01*
X017758Y000866D02*
X017162Y000866D01*
X017260Y000964D02*
X017659Y000964D01*
X017561Y001063D02*
X017359Y001063D01*
X017430Y001161D02*
X017490Y001161D01*
X017490Y001260D02*
X017430Y001260D01*
X017430Y001358D02*
X017490Y001358D01*
X017490Y001457D02*
X017430Y001457D01*
X017397Y001555D02*
X017522Y001555D01*
X017523Y001654D02*
X017299Y001654D01*
X017200Y001752D02*
X017425Y001752D01*
X017326Y001851D02*
X017148Y001851D01*
X017240Y001949D02*
X017050Y001949D01*
X017680Y002120D02*
X017751Y002048D01*
X017951Y002048D01*
X018050Y001949D02*
X018240Y001949D01*
X018326Y001851D02*
X018148Y001851D01*
X018200Y001752D02*
X018425Y001752D01*
X018240Y002245D02*
X017680Y002245D01*
X017680Y002343D02*
X018240Y002343D01*
X018240Y002442D02*
X017680Y002442D01*
X017683Y002540D02*
X018237Y002540D01*
X018060Y003028D02*
X018760Y003028D01*
X019071Y003328D02*
X022490Y003328D01*
X022490Y003230D02*
X019569Y003230D01*
X019668Y003131D02*
X022490Y003131D01*
X022490Y003033D02*
X020366Y003033D01*
X020465Y002934D02*
X022490Y002934D01*
X022490Y002836D02*
X020563Y002836D01*
X020662Y002737D02*
X021732Y002737D01*
X021773Y002778D02*
X021510Y002515D01*
X021510Y002378D01*
X021910Y002378D01*
X021910Y002778D01*
X021773Y002778D01*
X021910Y002737D02*
X022010Y002737D01*
X022010Y002639D02*
X021910Y002639D01*
X021910Y002540D02*
X022010Y002540D01*
X022010Y002442D02*
X021910Y002442D01*
X021910Y002343D02*
X020680Y002343D01*
X020680Y002245D02*
X021510Y002245D01*
X021510Y002442D02*
X020680Y002442D01*
X020680Y002540D02*
X021535Y002540D01*
X021634Y002639D02*
X020680Y002639D01*
X020460Y002628D02*
X020460Y002028D01*
X020660Y001828D01*
X020860Y001828D01*
X020960Y001728D01*
X020960Y001328D01*
X021299Y001654D02*
X021649Y001654D01*
X021747Y001752D02*
X021200Y001752D01*
X021148Y001851D02*
X022490Y001851D01*
X022490Y001949D02*
X022217Y001949D01*
X022316Y002048D02*
X022490Y002048D01*
X022490Y002146D02*
X022410Y002146D01*
X022410Y002245D02*
X022490Y002245D01*
X022490Y002343D02*
X022010Y002343D01*
X022010Y002245D02*
X021910Y002245D01*
X021910Y002146D02*
X022010Y002146D01*
X022010Y002048D02*
X021910Y002048D01*
X021910Y001949D02*
X022010Y001949D01*
X022010Y001778D02*
X022146Y001778D01*
X022410Y001515D01*
X022410Y001378D01*
X022010Y001378D01*
X022010Y001278D01*
X022010Y000878D01*
X022146Y000878D01*
X022410Y001142D01*
X022410Y001278D01*
X022010Y001278D01*
X021910Y001278D01*
X021910Y000878D01*
X021773Y000878D01*
X021510Y001142D01*
X021510Y001278D01*
X021910Y001278D01*
X021910Y001378D01*
X021510Y001378D01*
X021510Y001515D01*
X021773Y001778D01*
X021910Y001778D01*
X021910Y001378D01*
X022010Y001378D01*
X022010Y001778D01*
X022010Y001752D02*
X021910Y001752D01*
X021910Y001654D02*
X022010Y001654D01*
X022010Y001555D02*
X021910Y001555D01*
X021910Y001457D02*
X022010Y001457D01*
X022010Y001358D02*
X022490Y001358D01*
X022490Y001260D02*
X022410Y001260D01*
X022410Y001161D02*
X022490Y001161D01*
X022490Y001063D02*
X022331Y001063D01*
X022232Y000964D02*
X022490Y000964D01*
X022490Y000866D02*
X021162Y000866D01*
X021260Y000964D02*
X021687Y000964D01*
X021589Y001063D02*
X021359Y001063D01*
X021430Y001161D02*
X021510Y001161D01*
X021510Y001260D02*
X021430Y001260D01*
X021430Y001358D02*
X021910Y001358D01*
X021910Y001260D02*
X022010Y001260D01*
X022010Y001161D02*
X021910Y001161D01*
X021910Y001063D02*
X022010Y001063D01*
X022010Y000964D02*
X021910Y000964D01*
X022490Y000767D02*
X016960Y000767D01*
X016960Y000669D02*
X022490Y000669D01*
X022490Y000570D02*
X016960Y000570D01*
X016960Y000472D02*
X022490Y000472D01*
X022490Y001457D02*
X022410Y001457D01*
X022369Y001555D02*
X022490Y001555D01*
X022490Y001654D02*
X022271Y001654D01*
X022172Y001752D02*
X022490Y001752D01*
X021702Y001949D02*
X021050Y001949D01*
X020951Y002048D02*
X020751Y002048D01*
X020680Y002120D01*
X021397Y001555D02*
X021550Y001555D01*
X021510Y001457D02*
X021430Y001457D01*
X022410Y002442D02*
X022490Y002442D01*
X022490Y002540D02*
X022384Y002540D01*
X022286Y002639D02*
X022490Y002639D01*
X022490Y002737D02*
X022187Y002737D01*
X022490Y003427D02*
X018972Y003427D01*
X018380Y003525D02*
X022490Y003525D01*
X022490Y003624D02*
X018380Y003624D01*
X018380Y003722D02*
X022490Y003722D01*
X022490Y003821D02*
X018380Y003821D01*
X018380Y003919D02*
X022490Y003919D01*
X022490Y004018D02*
X020036Y004018D01*
X019953Y003983D02*
X020263Y004112D01*
X020501Y004350D01*
X020630Y004660D01*
X020630Y004758D01*
X020630Y007997D01*
X020501Y008307D01*
X020501Y008307D01*
X020263Y008545D01*
X019953Y008673D01*
X019617Y008673D01*
X019306Y008545D01*
X019068Y008307D01*
X018940Y007997D01*
X018940Y004660D01*
X019068Y004350D01*
X019306Y004112D01*
X019306Y004112D01*
X019617Y003983D01*
X019953Y003983D01*
X020263Y004112D02*
X020263Y004112D01*
X020268Y004116D02*
X022490Y004116D01*
X022490Y004215D02*
X020366Y004215D01*
X020465Y004313D02*
X022490Y004313D01*
X022490Y004412D02*
X020527Y004412D01*
X020501Y004350D02*
X020501Y004350D01*
X020568Y004510D02*
X022490Y004510D01*
X022490Y004609D02*
X020608Y004609D01*
X020630Y004707D02*
X022490Y004707D01*
X022490Y004806D02*
X020630Y004806D01*
X020630Y004904D02*
X022490Y004904D01*
X022490Y005003D02*
X020630Y005003D01*
X020630Y005101D02*
X022490Y005101D01*
X022490Y005200D02*
X020630Y005200D01*
X020630Y005298D02*
X022490Y005298D01*
X022490Y005397D02*
X020630Y005397D01*
X020630Y005495D02*
X022490Y005495D01*
X022490Y005594D02*
X020630Y005594D01*
X020630Y005692D02*
X022490Y005692D01*
X022490Y005791D02*
X020630Y005791D01*
X020630Y005889D02*
X022490Y005889D01*
X022490Y005988D02*
X020630Y005988D01*
X020630Y006086D02*
X022490Y006086D01*
X022490Y006185D02*
X020630Y006185D01*
X020630Y006283D02*
X022490Y006283D01*
X022490Y006382D02*
X020630Y006382D01*
X020630Y006480D02*
X022490Y006480D01*
X022490Y006579D02*
X020630Y006579D01*
X020630Y006677D02*
X022490Y006677D01*
X022490Y006776D02*
X020630Y006776D01*
X020630Y006874D02*
X022490Y006874D01*
X022490Y006973D02*
X020630Y006973D01*
X020630Y007071D02*
X022490Y007071D01*
X022490Y007170D02*
X020630Y007170D01*
X020630Y007268D02*
X022490Y007268D01*
X022490Y007367D02*
X020630Y007367D01*
X020630Y007465D02*
X022490Y007465D01*
X022490Y007564D02*
X020630Y007564D01*
X020630Y007662D02*
X022490Y007662D01*
X022490Y007761D02*
X020630Y007761D01*
X020630Y007859D02*
X022490Y007859D01*
X022490Y007958D02*
X020630Y007958D01*
X020605Y008056D02*
X022490Y008056D01*
X022490Y008155D02*
X020564Y008155D01*
X020523Y008253D02*
X022490Y008253D01*
X022490Y008352D02*
X020456Y008352D01*
X020358Y008450D02*
X022490Y008450D01*
X022490Y008549D02*
X020253Y008549D01*
X020263Y008545D02*
X020263Y008545D01*
X020016Y008647D02*
X022490Y008647D01*
X022490Y008746D02*
X018380Y008746D01*
X018380Y008844D02*
X022490Y008844D01*
X022490Y008943D02*
X018380Y008943D01*
X018380Y009041D02*
X022490Y009041D01*
X022490Y009140D02*
X018380Y009140D01*
X018380Y009238D02*
X022490Y009238D01*
X022490Y009337D02*
X018380Y009337D01*
X018380Y009435D02*
X022490Y009435D01*
X022490Y009534D02*
X018380Y009534D01*
X018380Y009632D02*
X022490Y009632D01*
X022490Y009731D02*
X018380Y009731D01*
X018380Y009829D02*
X022490Y009829D01*
X022490Y009928D02*
X018380Y009928D01*
X018380Y010026D02*
X022490Y010026D01*
X022490Y010125D02*
X018380Y010125D01*
X018380Y010223D02*
X022490Y010223D01*
X022490Y010322D02*
X018380Y010322D01*
X018380Y010420D02*
X022490Y010420D01*
X022490Y010519D02*
X018380Y010519D01*
X018380Y010617D02*
X022490Y010617D01*
X022490Y010716D02*
X018380Y010716D01*
X018380Y010814D02*
X022490Y010814D01*
X022490Y010913D02*
X018380Y010913D01*
X018380Y011011D02*
X022490Y011011D01*
X022490Y011110D02*
X018380Y011110D01*
X018380Y011208D02*
X022499Y011208D01*
X022598Y011307D02*
X018380Y011307D01*
X018380Y011405D02*
X022696Y011405D01*
X022795Y011504D02*
X018446Y011504D01*
X018260Y011928D02*
X017960Y011628D01*
X017960Y003128D01*
X018060Y003028D01*
X017560Y002728D02*
X017560Y011828D01*
X018060Y012328D01*
X018060Y012594D01*
X018325Y012594D01*
X018460Y012728D01*
X018460Y013828D01*
X018560Y013928D01*
X018760Y013928D01*
X018960Y014128D01*
X018960Y014528D01*
X018860Y014628D01*
X018760Y014628D01*
X018160Y015228D01*
X017360Y015228D01*
X017260Y015328D01*
X017260Y018028D01*
X018160Y018928D01*
X020060Y018928D01*
X020260Y019128D01*
X020260Y019678D01*
X020610Y020028D01*
X020610Y020278D01*
X020810Y020478D01*
X020810Y021478D01*
X020610Y021678D01*
X018960Y021678D01*
X018760Y021478D01*
X018410Y021478D01*
X018310Y021378D01*
X018310Y020756D01*
X018692Y020374D01*
X018306Y020369D02*
X016730Y020369D01*
X016730Y020467D02*
X018288Y020467D01*
X018189Y020566D02*
X016730Y020566D01*
X016730Y020664D02*
X018091Y020664D01*
X018090Y020763D02*
X016730Y020763D01*
X016730Y020861D02*
X018090Y020861D01*
X018090Y020960D02*
X016730Y020960D01*
X016730Y021058D02*
X018090Y021058D01*
X018090Y021157D02*
X016730Y021157D01*
X016730Y021255D02*
X018090Y021255D01*
X018090Y021354D02*
X016730Y021354D01*
X016730Y021452D02*
X018090Y021452D01*
X018171Y021551D02*
X016698Y021551D01*
X016600Y021649D02*
X018270Y021649D01*
X018718Y021748D02*
X016501Y021748D01*
X016403Y021846D02*
X018817Y021846D01*
X019045Y021452D02*
X020525Y021452D01*
X020510Y021478D02*
X020610Y021378D01*
X020610Y020578D01*
X020405Y020374D01*
X020227Y020374D01*
X020179Y020326D02*
X020276Y020326D01*
X020276Y020027D01*
X020297Y020027D01*
X020235Y019965D01*
X020172Y020027D01*
X020179Y020027D01*
X020179Y020326D01*
X020179Y020270D02*
X020276Y020270D01*
X020276Y020172D02*
X020179Y020172D01*
X020179Y020073D02*
X020276Y020073D01*
X020245Y019975D02*
X020224Y019975D01*
X020060Y019828D02*
X019860Y020028D01*
X019860Y020928D01*
X019960Y021028D01*
X020173Y021028D01*
X020227Y021083D01*
X019841Y021255D02*
X019059Y021255D01*
X019059Y021157D02*
X019777Y021157D01*
X019679Y021058D02*
X018740Y021058D01*
X018692Y021083D02*
X019088Y021478D01*
X019460Y021106D01*
X019460Y020728D01*
X019640Y020763D02*
X018996Y020763D01*
X019055Y020664D02*
X019640Y020664D01*
X019640Y020566D02*
X019079Y020566D01*
X019079Y020467D02*
X019640Y020467D01*
X019640Y020369D02*
X019079Y020369D01*
X019079Y020270D02*
X019640Y020270D01*
X019640Y020172D02*
X019079Y020172D01*
X019045Y020073D02*
X019640Y020073D01*
X019640Y019975D02*
X016517Y019975D01*
X016419Y019876D02*
X019701Y019876D01*
X019769Y019808D02*
X019769Y019808D01*
X019799Y019778D02*
X016320Y019778D01*
X016022Y019679D02*
X019840Y019679D01*
X019840Y019581D02*
X015980Y019581D01*
X015980Y019482D02*
X019840Y019482D01*
X019840Y019384D02*
X015980Y019384D01*
X016014Y019285D02*
X017906Y019285D01*
X017807Y019187D02*
X016112Y019187D01*
X016211Y019088D02*
X017709Y019088D01*
X017610Y018990D02*
X016309Y018990D01*
X016408Y018891D02*
X017512Y018891D01*
X017413Y018793D02*
X016506Y018793D01*
X016605Y018694D02*
X017315Y018694D01*
X017216Y018596D02*
X016703Y018596D01*
X016802Y018497D02*
X017118Y018497D01*
X017019Y018399D02*
X016900Y018399D01*
X017060Y018128D02*
X017060Y015128D01*
X017160Y015028D01*
X017960Y015028D01*
X018060Y014928D01*
X018060Y014663D01*
X018406Y014656D02*
X018478Y014656D01*
X018406Y014727D02*
X018580Y014554D01*
X018685Y014448D01*
X018780Y014448D01*
X018780Y014203D01*
X018685Y014108D01*
X018485Y014108D01*
X018426Y014050D01*
X018426Y014210D01*
X018416Y014249D01*
X018396Y014283D01*
X018368Y014311D01*
X018334Y014330D01*
X018312Y014336D01*
X018330Y014336D01*
X018406Y014412D01*
X018406Y014727D01*
X018406Y014557D02*
X018576Y014557D01*
X018675Y014459D02*
X018406Y014459D01*
X018354Y014360D02*
X018780Y014360D01*
X018780Y014262D02*
X018408Y014262D01*
X018426Y014163D02*
X018740Y014163D01*
X018560Y014328D02*
X018225Y013994D01*
X018060Y013994D01*
X018060Y013263D01*
X018011Y013277D02*
X017040Y013277D01*
X017040Y013375D02*
X017693Y013375D01*
X017693Y013312D02*
X017693Y013480D01*
X017703Y013518D01*
X017723Y013552D01*
X017751Y013580D01*
X017785Y013600D01*
X017823Y013610D01*
X018011Y013610D01*
X018011Y013312D01*
X018108Y013312D01*
X018108Y013610D01*
X018280Y013610D01*
X018280Y013647D01*
X018108Y013647D01*
X018108Y013945D01*
X018011Y013945D01*
X018011Y013647D01*
X017823Y013647D01*
X017785Y013657D01*
X017751Y013677D01*
X017723Y013705D01*
X017703Y013739D01*
X017693Y013777D01*
X017693Y013945D01*
X018011Y013945D01*
X018011Y014042D01*
X017693Y014042D01*
X017693Y014210D01*
X017703Y014249D01*
X017723Y014283D01*
X017751Y014311D01*
X017785Y014330D01*
X017807Y014336D01*
X017789Y014336D01*
X017713Y014412D01*
X017713Y014828D01*
X017314Y014828D01*
X017434Y014708D01*
X017540Y014603D01*
X017540Y013954D01*
X017434Y013848D01*
X017334Y013748D01*
X017040Y013748D01*
X017040Y012928D01*
X017782Y012928D01*
X017751Y012946D01*
X017723Y012974D01*
X017703Y013008D01*
X017693Y013047D01*
X017693Y013215D01*
X018011Y013215D01*
X018011Y013312D01*
X017693Y013312D01*
X017693Y013178D02*
X017040Y013178D01*
X017040Y013080D02*
X017693Y013080D01*
X017719Y012981D02*
X017040Y012981D01*
X016508Y013312D02*
X016411Y013312D01*
X016411Y013610D01*
X016223Y013610D01*
X016185Y013600D01*
X016151Y013580D01*
X016123Y013552D01*
X016103Y013518D01*
X016093Y013480D01*
X016093Y013312D01*
X016411Y013312D01*
X016411Y013215D01*
X016093Y013215D01*
X016093Y013047D01*
X016103Y013008D01*
X016123Y012974D01*
X016151Y012946D01*
X016185Y012926D01*
X016207Y012921D01*
X016189Y012921D01*
X016113Y012845D01*
X016113Y012408D01*
X015206Y012408D01*
X015206Y012845D01*
X015130Y012921D01*
X015112Y012921D01*
X015134Y012926D01*
X015168Y012946D01*
X015196Y012974D01*
X015216Y013008D01*
X015226Y013047D01*
X015226Y013215D01*
X014908Y013215D01*
X014908Y013312D01*
X014811Y013312D01*
X014811Y013610D01*
X014623Y013610D01*
X014615Y013608D01*
X014615Y013649D01*
X014623Y013647D01*
X014811Y013647D01*
X014811Y013945D01*
X014908Y013945D01*
X014908Y013647D01*
X015096Y013647D01*
X015134Y013657D01*
X015168Y013677D01*
X015196Y013705D01*
X015216Y013739D01*
X015226Y013777D01*
X015226Y013945D01*
X014908Y013945D01*
X014908Y014042D01*
X015226Y014042D01*
X015226Y014210D01*
X015216Y014249D01*
X015196Y014283D01*
X015168Y014311D01*
X015134Y014330D01*
X015112Y014336D01*
X015130Y014336D01*
X015206Y014412D01*
X015206Y014828D01*
X016113Y014828D01*
X016113Y014412D01*
X016189Y014336D01*
X016207Y014336D01*
X016185Y014330D01*
X016151Y014311D01*
X016123Y014283D01*
X016103Y014249D01*
X016093Y014210D01*
X016093Y014042D01*
X016411Y014042D01*
X016411Y013945D01*
X016508Y013945D01*
X016508Y013647D01*
X016680Y013647D01*
X016680Y013610D01*
X016508Y013610D01*
X016508Y013312D01*
X016508Y013375D02*
X016411Y013375D01*
X016411Y013277D02*
X014908Y013277D01*
X014908Y013312D02*
X015226Y013312D01*
X015226Y013480D01*
X015216Y013518D01*
X015196Y013552D01*
X015168Y013580D01*
X015134Y013600D01*
X015096Y013610D01*
X014908Y013610D01*
X014908Y013312D01*
X014908Y013375D02*
X014811Y013375D01*
X014811Y013474D02*
X014908Y013474D01*
X014908Y013572D02*
X014811Y013572D01*
X014811Y013671D02*
X014908Y013671D01*
X014908Y013769D02*
X014811Y013769D01*
X014811Y013868D02*
X014908Y013868D01*
X014908Y013966D02*
X016411Y013966D01*
X016411Y013945D02*
X016093Y013945D01*
X016093Y013777D01*
X016103Y013739D01*
X016123Y013705D01*
X016151Y013677D01*
X016185Y013657D01*
X016223Y013647D01*
X016411Y013647D01*
X016411Y013945D01*
X016460Y013994D02*
X016625Y013994D01*
X016960Y014328D01*
X016816Y014249D02*
X016796Y014283D01*
X016768Y014311D01*
X016734Y014330D01*
X016712Y014336D01*
X016730Y014336D01*
X016806Y014412D01*
X016806Y014627D01*
X016885Y014548D01*
X017085Y014548D01*
X017180Y014454D01*
X017180Y014108D01*
X016885Y014108D01*
X016826Y014050D01*
X016826Y014210D01*
X016816Y014249D01*
X016808Y014262D02*
X017180Y014262D01*
X017180Y014360D02*
X016754Y014360D01*
X016806Y014459D02*
X017175Y014459D01*
X017180Y014163D02*
X016826Y014163D01*
X016826Y014065D02*
X016842Y014065D01*
X016819Y014042D02*
X016780Y014003D01*
X016722Y013945D01*
X016508Y013945D01*
X016508Y014042D01*
X016819Y014042D01*
X016743Y013966D02*
X016508Y013966D01*
X016460Y013994D02*
X016460Y013263D01*
X016411Y013474D02*
X016508Y013474D01*
X016508Y013572D02*
X016411Y013572D01*
X016411Y013671D02*
X016508Y013671D01*
X016508Y013769D02*
X016411Y013769D01*
X016411Y013868D02*
X016508Y013868D01*
X016161Y013671D02*
X015158Y013671D01*
X015176Y013572D02*
X016144Y013572D01*
X016093Y013474D02*
X015226Y013474D01*
X015226Y013375D02*
X016093Y013375D01*
X016093Y013178D02*
X015226Y013178D01*
X015226Y013080D02*
X016093Y013080D01*
X016119Y012981D02*
X015201Y012981D01*
X015168Y012883D02*
X016152Y012883D01*
X016113Y012784D02*
X015206Y012784D01*
X015206Y012686D02*
X016113Y012686D01*
X016113Y012587D02*
X015206Y012587D01*
X015206Y012489D02*
X016113Y012489D01*
X016260Y012228D02*
X014960Y012228D01*
X014860Y012328D01*
X014860Y012594D01*
X014594Y012594D01*
X014435Y012754D01*
X014435Y014916D01*
X014861Y015343D01*
X016142Y015343D01*
X016256Y015457D01*
X016256Y017819D01*
X015630Y018445D01*
X012727Y018445D01*
X012386Y018786D01*
X010480Y018786D01*
X010092Y019174D01*
X010162Y018793D02*
X007714Y018793D01*
X007714Y018694D02*
X010261Y018694D01*
X010359Y018596D02*
X007725Y018596D01*
X007824Y018497D02*
X012363Y018497D01*
X012860Y018628D02*
X015760Y018628D01*
X016460Y017928D01*
X016460Y015228D01*
X016360Y015128D01*
X014960Y015128D01*
X014860Y015028D01*
X014860Y014663D01*
X015206Y014656D02*
X016113Y014656D01*
X016113Y014754D02*
X015206Y014754D01*
X015206Y014557D02*
X016113Y014557D01*
X016113Y014459D02*
X015206Y014459D01*
X015154Y014360D02*
X016165Y014360D01*
X016111Y014262D02*
X015208Y014262D01*
X015226Y014163D02*
X016093Y014163D01*
X016093Y014065D02*
X015226Y014065D01*
X015226Y013868D02*
X016093Y013868D01*
X016095Y013769D02*
X015224Y013769D01*
X015025Y013994D02*
X014860Y013994D01*
X014860Y013263D01*
X014255Y013178D02*
X013626Y013178D01*
X013626Y013080D02*
X014255Y013080D01*
X014255Y012981D02*
X013601Y012981D01*
X013568Y012883D02*
X014255Y012883D01*
X014255Y012784D02*
X013606Y012784D01*
X013606Y012686D02*
X014255Y012686D01*
X014346Y012587D02*
X013606Y012587D01*
X013606Y012489D02*
X014445Y012489D01*
X014760Y011828D02*
X016060Y011828D01*
X016260Y011628D01*
X016460Y011628D01*
X016760Y011328D01*
X016760Y003828D01*
X016160Y003228D01*
X015460Y003228D01*
X015260Y003028D01*
X014260Y003028D01*
X014060Y002828D01*
X013660Y002828D01*
X013460Y002628D01*
X013460Y002128D01*
X013760Y001828D01*
X013860Y001828D01*
X013960Y001728D01*
X013960Y001328D01*
X013384Y001949D02*
X013217Y001949D01*
X013187Y002737D02*
X013314Y002737D01*
X015334Y004018D02*
X016580Y004018D01*
X016580Y004116D02*
X015572Y004116D01*
X015688Y004215D02*
X016580Y004215D01*
X016580Y004313D02*
X015786Y004313D01*
X015855Y004412D02*
X016580Y004412D01*
X016580Y004510D02*
X015896Y004510D01*
X015937Y004609D02*
X016580Y004609D01*
X016580Y004707D02*
X015960Y004707D01*
X015960Y004806D02*
X016580Y004806D01*
X016580Y004904D02*
X015960Y004904D01*
X015960Y005003D02*
X016580Y005003D01*
X016580Y005101D02*
X015960Y005101D01*
X015960Y005200D02*
X016580Y005200D01*
X016580Y005298D02*
X015960Y005298D01*
X015960Y005397D02*
X016580Y005397D01*
X016580Y005495D02*
X015960Y005495D01*
X015960Y005594D02*
X016580Y005594D01*
X016580Y005692D02*
X015960Y005692D01*
X015960Y005791D02*
X016580Y005791D01*
X016580Y005889D02*
X015960Y005889D01*
X015960Y005988D02*
X016580Y005988D01*
X016580Y006086D02*
X015960Y006086D01*
X015960Y006185D02*
X016580Y006185D01*
X016580Y006283D02*
X015960Y006283D01*
X015960Y006382D02*
X016580Y006382D01*
X016580Y006480D02*
X015960Y006480D01*
X015960Y006579D02*
X016580Y006579D01*
X016580Y006677D02*
X015960Y006677D01*
X015960Y006776D02*
X016580Y006776D01*
X016580Y006874D02*
X015960Y006874D01*
X015960Y006973D02*
X016580Y006973D01*
X016580Y007071D02*
X015960Y007071D01*
X015960Y007170D02*
X016580Y007170D01*
X016580Y007268D02*
X015960Y007268D01*
X015960Y007367D02*
X016580Y007367D01*
X016580Y007465D02*
X015960Y007465D01*
X015960Y007564D02*
X016580Y007564D01*
X016580Y007662D02*
X015960Y007662D01*
X015960Y007761D02*
X016580Y007761D01*
X016580Y007859D02*
X015960Y007859D01*
X015960Y007958D02*
X016580Y007958D01*
X016580Y008056D02*
X015933Y008056D01*
X015892Y008155D02*
X016580Y008155D01*
X016580Y008253D02*
X015852Y008253D01*
X015834Y008296D02*
X015834Y008296D01*
X015778Y008352D02*
X016580Y008352D01*
X016580Y008450D02*
X015679Y008450D01*
X015602Y008528D02*
X015602Y008528D01*
X015551Y008549D02*
X016580Y008549D01*
X016580Y008647D02*
X015313Y008647D01*
X018380Y008647D02*
X019554Y008647D01*
X019316Y008549D02*
X018380Y008549D01*
X018380Y008450D02*
X019212Y008450D01*
X019306Y008545D02*
X019306Y008545D01*
X019113Y008352D02*
X018380Y008352D01*
X018380Y008253D02*
X019046Y008253D01*
X019068Y008307D02*
X019068Y008307D01*
X019005Y008155D02*
X018380Y008155D01*
X018380Y008056D02*
X018965Y008056D01*
X018940Y007958D02*
X018380Y007958D01*
X018380Y007859D02*
X018940Y007859D01*
X018940Y007761D02*
X018380Y007761D01*
X018380Y007662D02*
X018940Y007662D01*
X018940Y007564D02*
X018380Y007564D01*
X018380Y007465D02*
X018940Y007465D01*
X018940Y007367D02*
X018380Y007367D01*
X018380Y007268D02*
X018940Y007268D01*
X018940Y007170D02*
X018380Y007170D01*
X018380Y007071D02*
X018940Y007071D01*
X018940Y006973D02*
X018380Y006973D01*
X018380Y006874D02*
X018940Y006874D01*
X018940Y006776D02*
X018380Y006776D01*
X018380Y006677D02*
X018940Y006677D01*
X018940Y006579D02*
X018380Y006579D01*
X018380Y006480D02*
X018940Y006480D01*
X018940Y006382D02*
X018380Y006382D01*
X018380Y006283D02*
X018940Y006283D01*
X018940Y006185D02*
X018380Y006185D01*
X018380Y006086D02*
X018940Y006086D01*
X018940Y005988D02*
X018380Y005988D01*
X018380Y005889D02*
X018940Y005889D01*
X018940Y005791D02*
X018380Y005791D01*
X018380Y005692D02*
X018940Y005692D01*
X018940Y005594D02*
X018380Y005594D01*
X018380Y005495D02*
X018940Y005495D01*
X018940Y005397D02*
X018380Y005397D01*
X018380Y005298D02*
X018940Y005298D01*
X018940Y005200D02*
X018380Y005200D01*
X018380Y005101D02*
X018940Y005101D01*
X018940Y005003D02*
X018380Y005003D01*
X018380Y004904D02*
X018940Y004904D01*
X018940Y004806D02*
X018380Y004806D01*
X018380Y004707D02*
X018940Y004707D01*
X018961Y004609D02*
X018380Y004609D01*
X018380Y004510D02*
X019002Y004510D01*
X019043Y004412D02*
X018380Y004412D01*
X018380Y004313D02*
X019105Y004313D01*
X019068Y004350D02*
X019068Y004350D01*
X019203Y004215D02*
X018380Y004215D01*
X018380Y004116D02*
X019302Y004116D01*
X019533Y004018D02*
X018380Y004018D01*
X017160Y003628D02*
X016360Y002828D01*
X015660Y002828D01*
X017160Y003628D02*
X017160Y011528D01*
X016660Y012028D01*
X016460Y012028D01*
X016260Y012228D01*
X017040Y013474D02*
X017693Y013474D01*
X017744Y013572D02*
X017040Y013572D01*
X017040Y013671D02*
X017761Y013671D01*
X017695Y013769D02*
X017355Y013769D01*
X017454Y013868D02*
X017693Y013868D01*
X017540Y013966D02*
X018011Y013966D01*
X018108Y013966D02*
X018343Y013966D01*
X018322Y013945D02*
X018108Y013945D01*
X018108Y014042D01*
X018419Y014042D01*
X018322Y013945D01*
X018426Y014065D02*
X018442Y014065D01*
X018108Y013868D02*
X018011Y013868D01*
X018011Y013769D02*
X018108Y013769D01*
X018108Y013671D02*
X018011Y013671D01*
X018011Y013572D02*
X018108Y013572D01*
X018108Y013474D02*
X018011Y013474D01*
X018011Y013375D02*
X018108Y013375D01*
X018640Y013375D02*
X019293Y013375D01*
X019293Y013312D02*
X019293Y013480D01*
X019303Y013518D01*
X019323Y013552D01*
X019351Y013580D01*
X019385Y013600D01*
X019423Y013610D01*
X019611Y013610D01*
X019611Y013312D01*
X019708Y013312D01*
X019708Y013610D01*
X019880Y013610D01*
X019880Y013647D01*
X019708Y013647D01*
X019708Y013945D01*
X019611Y013945D01*
X019611Y013647D01*
X019423Y013647D01*
X019385Y013657D01*
X019351Y013677D01*
X019323Y013705D01*
X019303Y013739D01*
X019293Y013777D01*
X019293Y013945D01*
X019611Y013945D01*
X019611Y014042D01*
X019293Y014042D01*
X019293Y014210D01*
X019303Y014249D01*
X019323Y014283D01*
X019351Y014311D01*
X019385Y014330D01*
X019407Y014336D01*
X019389Y014336D01*
X019313Y014412D01*
X019313Y014548D01*
X019285Y014548D01*
X019185Y014648D01*
X019094Y014648D01*
X019140Y014603D01*
X019140Y014054D01*
X018940Y013854D01*
X018834Y013748D01*
X018640Y013748D01*
X018640Y012928D01*
X019382Y012928D01*
X019351Y012946D01*
X019323Y012974D01*
X019303Y013008D01*
X019293Y013047D01*
X019293Y013215D01*
X019611Y013215D01*
X019611Y013312D01*
X019293Y013312D01*
X019293Y013178D02*
X018640Y013178D01*
X018640Y013080D02*
X019293Y013080D01*
X019319Y012981D02*
X018640Y012981D01*
X018640Y013277D02*
X019611Y013277D01*
X019660Y013263D02*
X019660Y013994D01*
X019825Y013994D01*
X020160Y014328D01*
X020016Y014249D02*
X019996Y014283D01*
X019968Y014311D01*
X019934Y014330D01*
X019912Y014336D01*
X019930Y014336D01*
X020006Y014412D01*
X020006Y014727D01*
X020180Y014554D01*
X020285Y014448D01*
X020380Y014448D01*
X020380Y014203D01*
X020285Y014108D01*
X020085Y014108D01*
X020026Y014050D01*
X020026Y014210D01*
X020016Y014249D01*
X020008Y014262D02*
X020380Y014262D01*
X020380Y014360D02*
X019954Y014360D01*
X020006Y014459D02*
X020275Y014459D01*
X020176Y014557D02*
X020006Y014557D01*
X020006Y014656D02*
X020078Y014656D01*
X019660Y014663D02*
X019594Y014728D01*
X019360Y014728D01*
X019260Y014828D01*
X018860Y014828D01*
X018260Y015428D01*
X017560Y015428D01*
X017460Y015528D01*
X017460Y017928D01*
X018260Y018728D01*
X023260Y018728D01*
X023960Y018028D01*
X024460Y018028D01*
X024560Y018128D01*
X024560Y018728D01*
X024360Y018928D01*
X024360Y019728D01*
X024460Y019828D01*
X024673Y019828D01*
X024727Y019883D01*
X024341Y020021D02*
X024240Y019920D01*
X024140Y019820D01*
X024140Y018837D01*
X024269Y018708D01*
X024340Y018637D01*
X024340Y018248D01*
X024051Y018248D01*
X023486Y018814D01*
X023579Y018907D01*
X023579Y019441D01*
X023479Y019541D01*
X023447Y019541D01*
X023466Y019546D01*
X023501Y019566D01*
X023529Y019594D01*
X023548Y019628D01*
X023559Y019666D01*
X023559Y019834D01*
X023240Y019834D01*
X023240Y019931D01*
X023559Y019931D01*
X023559Y020058D01*
X024001Y020058D01*
X024130Y020187D01*
X024130Y020187D01*
X024201Y020258D01*
X025019Y020258D01*
X025090Y020187D01*
X025090Y020174D01*
X025014Y020250D01*
X024441Y020250D01*
X024341Y020150D01*
X024341Y020021D01*
X024341Y020073D02*
X024016Y020073D01*
X023960Y020028D02*
X023960Y019528D01*
X023546Y019528D01*
X023192Y019883D01*
X023240Y019876D02*
X024197Y019876D01*
X024140Y019778D02*
X023559Y019778D01*
X023559Y019679D02*
X024140Y019679D01*
X024140Y019581D02*
X023516Y019581D01*
X023537Y019482D02*
X024140Y019482D01*
X024140Y019384D02*
X023579Y019384D01*
X023579Y019285D02*
X024140Y019285D01*
X024140Y019187D02*
X023579Y019187D01*
X023579Y019088D02*
X024140Y019088D01*
X024140Y018990D02*
X023579Y018990D01*
X023563Y018891D02*
X024140Y018891D01*
X024184Y018793D02*
X023506Y018793D01*
X023605Y018694D02*
X024283Y018694D01*
X024340Y018596D02*
X023703Y018596D01*
X023802Y018497D02*
X024340Y018497D01*
X024340Y018399D02*
X023900Y018399D01*
X023999Y018300D02*
X024340Y018300D01*
X024760Y018528D02*
X024760Y018028D01*
X024760Y018528D02*
X025110Y018878D01*
X025110Y019278D01*
X025310Y019478D01*
X025310Y020278D01*
X025110Y020478D01*
X024110Y020478D01*
X023910Y020278D01*
X022910Y020278D01*
X022810Y020178D01*
X022810Y019556D01*
X023192Y019174D01*
X022806Y019187D02*
X020480Y019187D01*
X020480Y019285D02*
X022770Y019285D01*
X022671Y019384D02*
X020480Y019384D01*
X020480Y019482D02*
X022590Y019482D01*
X022590Y019581D02*
X020480Y019581D01*
X020572Y019679D02*
X022590Y019679D01*
X022590Y019778D02*
X020670Y019778D01*
X020769Y019876D02*
X022590Y019876D01*
X022590Y019975D02*
X020830Y019975D01*
X020830Y020073D02*
X022590Y020073D01*
X022590Y020172D02*
X020830Y020172D01*
X020913Y020270D02*
X022591Y020270D01*
X022689Y020369D02*
X021011Y020369D01*
X021030Y020467D02*
X022788Y020467D01*
X023559Y019975D02*
X024295Y019975D01*
X024363Y020172D02*
X024114Y020172D01*
X024210Y020278D02*
X023960Y020028D01*
X024210Y020278D02*
X025010Y020278D01*
X025110Y020178D01*
X025110Y019556D01*
X024727Y019174D01*
X025330Y019187D02*
X025530Y019387D01*
X025530Y020370D01*
X025432Y020467D02*
X029857Y020467D01*
X029659Y020566D02*
X025333Y020566D01*
X025235Y020664D02*
X029462Y020664D01*
X029264Y020763D02*
X021030Y020763D01*
X021030Y020861D02*
X029067Y020861D01*
X028870Y020960D02*
X021030Y020960D01*
X021030Y021058D02*
X028637Y021058D01*
X028399Y021157D02*
X021030Y021157D01*
X021030Y021255D02*
X028160Y021255D01*
X027922Y021354D02*
X021030Y021354D01*
X021030Y021452D02*
X027683Y021452D01*
X027445Y021551D02*
X021030Y021551D01*
X020950Y021649D02*
X027206Y021649D01*
X026952Y021748D02*
X020851Y021748D01*
X020753Y021846D02*
X026655Y021846D01*
X026358Y021945D02*
X008561Y021945D01*
X008265Y021846D02*
X015267Y021846D01*
X015168Y021748D02*
X007968Y021748D01*
X007713Y021649D02*
X014020Y021649D01*
X013921Y021551D02*
X007475Y021551D01*
X007236Y021452D02*
X013823Y021452D01*
X013790Y021354D02*
X006998Y021354D01*
X006759Y021255D02*
X013790Y021255D01*
X013790Y021157D02*
X006521Y021157D01*
X006282Y021058D02*
X013790Y021058D01*
X013790Y020960D02*
X006050Y020960D01*
X005852Y020861D02*
X013790Y020861D01*
X013790Y020763D02*
X005655Y020763D01*
X005458Y020664D02*
X013790Y020664D01*
X013790Y020566D02*
X005260Y020566D01*
X005063Y020467D02*
X013790Y020467D01*
X013808Y020369D02*
X004865Y020369D01*
X005426Y018891D02*
X002336Y018891D01*
X002194Y018793D02*
X005426Y018793D01*
X005426Y018596D02*
X001909Y018596D01*
X001767Y018497D02*
X005426Y018497D01*
X005453Y018399D02*
X001624Y018399D01*
X001482Y018300D02*
X005465Y018300D01*
X005406Y018202D02*
X001340Y018202D01*
X001197Y018103D02*
X005406Y018103D01*
X005406Y018005D02*
X001055Y018005D01*
X001128Y017709D02*
X000671Y017709D01*
X002051Y018694D02*
X005744Y018694D01*
X005792Y018683D02*
X006146Y018328D01*
X006560Y018328D01*
X006973Y018328D01*
X007327Y017974D01*
X007279Y018005D02*
X006179Y018005D01*
X006179Y018103D02*
X006961Y018103D01*
X006964Y018202D02*
X006179Y018202D01*
X006119Y018300D02*
X007035Y018300D01*
X006957Y018399D02*
X006132Y018399D01*
X006159Y018497D02*
X006941Y018497D01*
X006941Y018596D02*
X006159Y018596D01*
X006159Y018793D02*
X006941Y018793D01*
X006941Y018891D02*
X006159Y018891D01*
X006110Y018990D02*
X006981Y018990D01*
X007376Y018023D02*
X007677Y018023D01*
X007691Y018008D01*
X007929Y018008D01*
X007694Y017774D01*
X007694Y017926D01*
X007376Y017926D01*
X007376Y018023D01*
X007376Y018005D02*
X007925Y018005D01*
X007827Y017906D02*
X007694Y017906D01*
X007694Y017808D02*
X007728Y017808D01*
X008359Y017217D02*
X015240Y017217D01*
X015240Y017315D02*
X008458Y017315D01*
X008551Y017408D02*
X015169Y017408D01*
X015240Y017337D01*
X015240Y016348D01*
X014269Y016348D01*
X013869Y015948D01*
X012969Y015948D01*
X012669Y015648D01*
X011669Y015648D01*
X011169Y015148D01*
X011049Y015028D01*
X011070Y015050D02*
X010630Y015050D01*
X010630Y015148D02*
X011169Y015148D01*
X011267Y015247D02*
X010630Y015247D01*
X010630Y015345D02*
X011366Y015345D01*
X011464Y015444D02*
X010630Y015444D01*
X010630Y015542D02*
X011563Y015542D01*
X011661Y015641D02*
X010630Y015641D01*
X010630Y015739D02*
X012760Y015739D01*
X012858Y015838D02*
X010630Y015838D01*
X010630Y015936D02*
X012957Y015936D01*
X013955Y016035D02*
X010630Y016035D01*
X010630Y016133D02*
X014054Y016133D01*
X014152Y016232D02*
X010630Y016232D01*
X010630Y016330D02*
X014251Y016330D01*
X015240Y016429D02*
X010630Y016429D01*
X010630Y016527D02*
X015240Y016527D01*
X015240Y016626D02*
X010630Y016626D01*
X010604Y016724D02*
X015240Y016724D01*
X015240Y016823D02*
X007965Y016823D01*
X007951Y016808D02*
X008551Y017408D01*
X008261Y017118D02*
X015240Y017118D01*
X015240Y017020D02*
X008162Y017020D01*
X008064Y016921D02*
X015240Y016921D01*
X016660Y018028D02*
X015560Y019128D01*
X015560Y021028D01*
X015660Y021128D01*
X015882Y021128D01*
X015927Y021083D01*
X016310Y021328D02*
X016310Y020756D01*
X015927Y020374D01*
X015340Y020369D02*
X014779Y020369D01*
X014779Y020467D02*
X015340Y020467D01*
X015340Y020566D02*
X014779Y020566D01*
X014755Y020664D02*
X015340Y020664D01*
X015340Y020763D02*
X014696Y020763D01*
X014746Y020728D02*
X015160Y020728D01*
X015160Y021078D01*
X015560Y021478D01*
X016160Y021478D01*
X016310Y021328D01*
X016175Y021452D02*
X015495Y021452D01*
X015545Y021354D02*
X015396Y021354D01*
X015476Y021255D02*
X014759Y021255D01*
X014759Y021157D02*
X015377Y021157D01*
X015340Y021058D02*
X014440Y021058D01*
X014392Y021083D02*
X014746Y020728D01*
X014757Y020861D02*
X015340Y020861D01*
X015340Y020960D02*
X014759Y020960D01*
X014779Y020270D02*
X015340Y020270D01*
X015340Y020172D02*
X014779Y020172D01*
X014745Y020073D02*
X015340Y020073D01*
X015340Y019975D02*
X012124Y019975D01*
X012223Y019876D02*
X015340Y019876D01*
X015340Y019778D02*
X012280Y019778D01*
X012280Y019679D02*
X015340Y019679D01*
X015340Y019581D02*
X012280Y019581D01*
X012317Y019482D02*
X015340Y019482D01*
X015340Y019384D02*
X012415Y019384D01*
X012514Y019285D02*
X015340Y019285D01*
X015340Y019187D02*
X012612Y019187D01*
X012711Y019088D02*
X015340Y019088D01*
X015387Y018990D02*
X012809Y018990D01*
X012908Y018891D02*
X015486Y018891D01*
X016660Y018028D02*
X016660Y015128D01*
X016460Y014928D01*
X016460Y014663D01*
X016806Y014557D02*
X016876Y014557D01*
X017388Y014754D02*
X017713Y014754D01*
X017713Y014656D02*
X017487Y014656D01*
X017540Y014557D02*
X017713Y014557D01*
X017713Y014459D02*
X017540Y014459D01*
X017540Y014360D02*
X017765Y014360D01*
X017711Y014262D02*
X017540Y014262D01*
X017540Y014163D02*
X017693Y014163D01*
X017693Y014065D02*
X017540Y014065D01*
X018640Y013671D02*
X019361Y013671D01*
X019344Y013572D02*
X018640Y013572D01*
X018640Y013474D02*
X019293Y013474D01*
X019295Y013769D02*
X018855Y013769D01*
X018954Y013868D02*
X019293Y013868D01*
X019293Y014065D02*
X019140Y014065D01*
X019140Y014163D02*
X019293Y014163D01*
X019311Y014262D02*
X019140Y014262D01*
X019140Y014360D02*
X019365Y014360D01*
X019313Y014459D02*
X019140Y014459D01*
X019140Y014557D02*
X019276Y014557D01*
X019708Y014042D02*
X020019Y014042D01*
X019985Y014008D01*
X019922Y013945D01*
X019708Y013945D01*
X019708Y014042D01*
X019708Y013966D02*
X019943Y013966D01*
X020026Y014065D02*
X020042Y014065D01*
X020026Y014163D02*
X020340Y014163D01*
X020554Y013868D02*
X020893Y013868D01*
X020893Y013945D02*
X020893Y013777D01*
X020903Y013739D01*
X020923Y013705D01*
X020951Y013677D01*
X020985Y013657D01*
X021023Y013647D01*
X021211Y013647D01*
X021211Y013945D01*
X021308Y013945D01*
X021308Y013647D01*
X021480Y013647D01*
X021480Y013610D01*
X021308Y013610D01*
X021308Y013312D01*
X021211Y013312D01*
X021211Y013610D01*
X021023Y013610D01*
X020985Y013600D01*
X020951Y013580D01*
X020923Y013552D01*
X020903Y013518D01*
X020893Y013480D01*
X020893Y013312D01*
X021211Y013312D01*
X021211Y013215D01*
X020893Y013215D01*
X020893Y013047D01*
X020903Y013008D01*
X020923Y012974D01*
X020951Y012946D01*
X020982Y012928D01*
X020240Y012928D01*
X020240Y013748D01*
X020434Y013748D01*
X020540Y013854D01*
X020740Y014054D01*
X020740Y014594D01*
X020785Y014548D01*
X020913Y014548D01*
X020913Y014412D01*
X020989Y014336D01*
X021007Y014336D01*
X020985Y014330D01*
X020951Y014311D01*
X020923Y014283D01*
X020903Y014249D01*
X020893Y014210D01*
X020893Y014042D01*
X021211Y014042D01*
X021211Y013945D01*
X020893Y013945D01*
X020893Y014065D02*
X020740Y014065D01*
X020740Y014163D02*
X020893Y014163D01*
X020911Y014262D02*
X020740Y014262D01*
X020740Y014360D02*
X020965Y014360D01*
X020913Y014459D02*
X020740Y014459D01*
X020740Y014557D02*
X020776Y014557D01*
X020860Y014728D02*
X021194Y014728D01*
X021260Y014663D01*
X021194Y014728D02*
X021160Y014763D01*
X020860Y014728D02*
X020760Y014828D01*
X020560Y014828D01*
X020160Y015228D01*
X019060Y015228D01*
X018460Y015828D01*
X017960Y015828D01*
X017860Y015928D01*
X017860Y017728D01*
X018460Y018328D01*
X023060Y018328D01*
X023760Y017628D01*
X028660Y017628D01*
X028760Y017728D01*
X028760Y018528D01*
X028860Y018628D01*
X029073Y018628D01*
X029127Y018683D01*
X029514Y018694D02*
X029540Y018694D01*
X029540Y018596D02*
X029514Y018596D01*
X029514Y018497D02*
X029540Y018497D01*
X029514Y018416D02*
X029514Y018950D01*
X029414Y019050D01*
X028841Y019050D01*
X028741Y018950D01*
X028741Y018821D01*
X028640Y018720D01*
X028540Y018620D01*
X028540Y017848D01*
X027979Y017848D01*
X027979Y018241D01*
X027879Y018341D01*
X027847Y018341D01*
X027866Y018346D01*
X027901Y018366D01*
X027929Y018394D01*
X027948Y018428D01*
X027959Y018466D01*
X027959Y018634D01*
X027640Y018634D01*
X027640Y018731D01*
X027959Y018731D01*
X027959Y018858D01*
X028601Y018858D01*
X028801Y019058D01*
X029419Y019058D01*
X029540Y018937D01*
X029540Y018370D01*
X029449Y018278D01*
X029436Y018291D01*
X029402Y018311D01*
X029383Y018316D01*
X029414Y018316D01*
X029514Y018416D01*
X029497Y018399D02*
X029540Y018399D01*
X029560Y018406D02*
X029560Y018928D01*
X029410Y019078D01*
X028810Y019078D01*
X028360Y018628D01*
X028360Y018328D01*
X027946Y018328D01*
X027592Y018683D01*
X027640Y018694D02*
X028615Y018694D01*
X028540Y018596D02*
X027959Y018596D01*
X027959Y018497D02*
X028540Y018497D01*
X028540Y018399D02*
X027932Y018399D01*
X027919Y018300D02*
X028540Y018300D01*
X028540Y018202D02*
X027979Y018202D01*
X027979Y018103D02*
X028540Y018103D01*
X028540Y018005D02*
X027979Y018005D01*
X027979Y017906D02*
X028540Y017906D01*
X029127Y017974D02*
X029560Y018406D01*
X029471Y018300D02*
X029420Y018300D01*
X029510Y018028D02*
X029510Y017678D01*
X029427Y017596D01*
X029127Y017596D01*
X028960Y017428D01*
X023660Y017428D01*
X022960Y018128D01*
X018560Y018128D01*
X018060Y017628D01*
X018060Y016128D01*
X018160Y016028D01*
X018560Y016028D01*
X019160Y015428D01*
X020260Y015428D01*
X020660Y015028D01*
X021660Y015028D01*
X022160Y014528D01*
X022160Y014128D01*
X021960Y013928D01*
X021760Y013928D01*
X021660Y013828D01*
X021660Y012728D01*
X021525Y012594D01*
X021260Y012594D01*
X021260Y012328D01*
X021160Y012228D01*
X019860Y012228D01*
X019560Y011928D01*
X018260Y011928D01*
X019845Y011602D02*
X022893Y011602D01*
X022992Y011701D02*
X019943Y011701D01*
X020042Y011799D02*
X023090Y011799D01*
X023189Y011898D02*
X021440Y011898D01*
X021539Y011996D02*
X023287Y011996D01*
X023386Y012095D02*
X022937Y012095D01*
X023036Y012193D02*
X023484Y012193D01*
X023583Y012292D02*
X023212Y012292D01*
X023246Y012390D02*
X023681Y012390D01*
X023780Y012489D02*
X023331Y012489D01*
X023430Y012587D02*
X023878Y012587D01*
X023977Y012686D02*
X023480Y012686D01*
X023480Y012784D02*
X024075Y012784D01*
X024174Y012883D02*
X023480Y012883D01*
X023480Y012981D02*
X024272Y012981D01*
X024290Y013080D02*
X023480Y013080D01*
X023480Y013178D02*
X024290Y013178D01*
X024290Y013277D02*
X023480Y013277D01*
X023480Y013375D02*
X024290Y013375D01*
X024290Y013474D02*
X023480Y013474D01*
X023480Y013572D02*
X024290Y013572D01*
X024290Y013671D02*
X023480Y013671D01*
X023712Y013769D02*
X024290Y013769D01*
X024290Y013868D02*
X023810Y013868D01*
X023909Y013966D02*
X024290Y013966D01*
X024290Y014065D02*
X023980Y014065D01*
X023980Y014163D02*
X024290Y014163D01*
X024290Y014262D02*
X023980Y014262D01*
X023980Y014360D02*
X024290Y014360D01*
X024290Y014459D02*
X023980Y014459D01*
X023980Y014557D02*
X024290Y014557D01*
X024290Y014656D02*
X023943Y014656D01*
X023845Y014754D02*
X024290Y014754D01*
X024290Y014853D02*
X023746Y014853D01*
X023480Y014951D02*
X024290Y014951D01*
X024290Y015050D02*
X023449Y015050D01*
X023351Y015148D02*
X024290Y015148D01*
X024290Y015247D02*
X023252Y015247D01*
X022860Y014663D02*
X022825Y014628D01*
X022360Y014628D01*
X021760Y015228D01*
X020760Y015228D01*
X020360Y015628D01*
X019260Y015628D01*
X018660Y016228D01*
X018360Y016228D01*
X018260Y016328D01*
X018260Y017528D01*
X018660Y017928D01*
X022860Y017928D01*
X023560Y017228D01*
X030660Y017228D01*
X030440Y016724D02*
X026004Y016724D01*
X026103Y016626D02*
X030440Y016626D01*
X030440Y016527D02*
X026201Y016527D01*
X026300Y016429D02*
X030440Y016429D01*
X030440Y016330D02*
X026398Y016330D01*
X026497Y016232D02*
X030440Y016232D01*
X031080Y016626D02*
X031506Y016626D01*
X031506Y016724D02*
X031080Y016724D01*
X031290Y017512D02*
X029655Y017512D01*
X029730Y017611D02*
X031290Y017611D01*
X031290Y017709D02*
X029730Y017709D01*
X029730Y017808D02*
X031290Y017808D01*
X031327Y017906D02*
X029730Y017906D01*
X029797Y018005D02*
X031425Y018005D01*
X032674Y018103D02*
X029896Y018103D01*
X029760Y018278D02*
X029510Y018028D01*
X029760Y018278D02*
X029760Y019028D01*
X029510Y019278D01*
X028710Y019278D01*
X028510Y019078D01*
X027310Y019078D01*
X027210Y018978D01*
X027210Y018356D01*
X027592Y017974D01*
X027959Y018793D02*
X028713Y018793D01*
X028741Y018891D02*
X028634Y018891D01*
X028732Y018990D02*
X028781Y018990D01*
X028504Y019384D02*
X025526Y019384D01*
X025530Y019482D02*
X028603Y019482D01*
X029474Y018990D02*
X029487Y018990D01*
X029514Y018891D02*
X029540Y018891D01*
X029540Y018793D02*
X029514Y018793D01*
X027206Y019285D02*
X025428Y019285D01*
X023985Y020664D02*
X021030Y020664D01*
X021030Y020566D02*
X023886Y020566D01*
X022806Y019088D02*
X020480Y019088D01*
X020432Y018990D02*
X022806Y018990D01*
X022763Y017414D02*
X018756Y017414D01*
X018680Y017315D02*
X022862Y017315D01*
X022960Y017217D02*
X018680Y017217D01*
X018680Y017118D02*
X023059Y017118D01*
X023157Y017020D02*
X018680Y017020D01*
X018680Y016921D02*
X023256Y016921D01*
X023354Y016823D02*
X018680Y016823D01*
X018680Y016724D02*
X024315Y016724D01*
X024290Y016626D02*
X018873Y016626D01*
X018972Y016527D02*
X024290Y016527D01*
X024290Y016429D02*
X019070Y016429D01*
X019169Y016330D02*
X024290Y016330D01*
X024290Y016232D02*
X019267Y016232D01*
X019366Y016133D02*
X024290Y016133D01*
X024290Y016035D02*
X020564Y016035D01*
X020663Y015936D02*
X024290Y015936D01*
X024290Y015838D02*
X020761Y015838D01*
X020860Y015739D02*
X024290Y015739D01*
X024290Y015641D02*
X021958Y015641D01*
X022057Y015542D02*
X024290Y015542D01*
X024290Y015444D02*
X022155Y015444D01*
X022254Y015345D02*
X024290Y015345D01*
X023360Y014328D02*
X023025Y013994D01*
X022860Y013994D01*
X022860Y013263D01*
X022811Y013277D02*
X021840Y013277D01*
X021840Y013375D02*
X022493Y013375D01*
X022493Y013312D02*
X022493Y013480D01*
X022503Y013518D01*
X022523Y013552D01*
X022551Y013580D01*
X022585Y013600D01*
X022623Y013610D01*
X022811Y013610D01*
X022811Y013312D01*
X022908Y013312D01*
X022908Y013610D01*
X023080Y013610D01*
X023080Y013647D01*
X022908Y013647D01*
X022908Y013945D01*
X022811Y013945D01*
X022811Y013647D01*
X022623Y013647D01*
X022585Y013657D01*
X022551Y013677D01*
X022523Y013705D01*
X022503Y013739D01*
X022493Y013777D01*
X022493Y013945D01*
X022811Y013945D01*
X022811Y014042D01*
X022493Y014042D01*
X022493Y014210D01*
X022503Y014249D01*
X022523Y014283D01*
X022551Y014311D01*
X022585Y014330D01*
X022607Y014336D01*
X022589Y014336D01*
X022513Y014412D01*
X022513Y014448D01*
X022340Y014448D01*
X022340Y014054D01*
X022234Y013948D01*
X022234Y013948D01*
X022140Y013854D01*
X022140Y013854D01*
X022034Y013748D01*
X021840Y013748D01*
X021840Y012928D01*
X022560Y012928D01*
X022568Y012937D01*
X022551Y012946D01*
X022523Y012974D01*
X022503Y013008D01*
X022493Y013047D01*
X022493Y013215D01*
X022811Y013215D01*
X022811Y013312D01*
X022493Y013312D01*
X022493Y013178D02*
X021840Y013178D01*
X021840Y013080D02*
X022493Y013080D01*
X022519Y012981D02*
X021840Y012981D01*
X021840Y013474D02*
X022493Y013474D01*
X022544Y013572D02*
X021840Y013572D01*
X021840Y013671D02*
X022561Y013671D01*
X022495Y013769D02*
X022055Y013769D01*
X022154Y013868D02*
X022493Y013868D01*
X022493Y014065D02*
X022340Y014065D01*
X022340Y014163D02*
X022493Y014163D01*
X022511Y014262D02*
X022340Y014262D01*
X022340Y014360D02*
X022565Y014360D01*
X022908Y014042D02*
X023160Y014042D01*
X023160Y013983D01*
X023122Y013945D01*
X022908Y013945D01*
X022908Y014042D01*
X022908Y013966D02*
X023143Y013966D01*
X022908Y013868D02*
X022811Y013868D01*
X022811Y013966D02*
X022252Y013966D01*
X021980Y014203D02*
X021885Y014108D01*
X021685Y014108D01*
X021626Y014050D01*
X021626Y014210D01*
X021616Y014249D01*
X021596Y014283D01*
X021568Y014311D01*
X021534Y014330D01*
X021512Y014336D01*
X021530Y014336D01*
X021606Y014412D01*
X021606Y014827D01*
X021980Y014454D01*
X021980Y014203D01*
X021940Y014163D02*
X021626Y014163D01*
X021626Y014065D02*
X021642Y014065D01*
X021619Y014042D02*
X021585Y014008D01*
X021522Y013945D01*
X021308Y013945D01*
X021308Y014042D01*
X021619Y014042D01*
X021585Y014008D02*
X021585Y014008D01*
X021543Y013966D02*
X021308Y013966D01*
X021260Y013994D02*
X021425Y013994D01*
X021760Y014328D01*
X021608Y014262D02*
X021980Y014262D01*
X021980Y014360D02*
X021554Y014360D01*
X021606Y014459D02*
X021975Y014459D01*
X021876Y014557D02*
X021606Y014557D01*
X021606Y014656D02*
X021778Y014656D01*
X021679Y014754D02*
X021606Y014754D01*
X021260Y013994D02*
X021260Y013263D01*
X021211Y013277D02*
X020240Y013277D01*
X020240Y013375D02*
X020893Y013375D01*
X020893Y013474D02*
X020240Y013474D01*
X020240Y013572D02*
X020944Y013572D01*
X020961Y013671D02*
X020240Y013671D01*
X020455Y013769D02*
X020895Y013769D01*
X020652Y013966D02*
X021211Y013966D01*
X021211Y013868D02*
X021308Y013868D01*
X021308Y013769D02*
X021211Y013769D01*
X021211Y013671D02*
X021308Y013671D01*
X021308Y013572D02*
X021211Y013572D01*
X021211Y013474D02*
X021308Y013474D01*
X021308Y013375D02*
X021211Y013375D01*
X020893Y013178D02*
X020240Y013178D01*
X020240Y013080D02*
X020893Y013080D01*
X020919Y012981D02*
X020240Y012981D01*
X019708Y013375D02*
X019611Y013375D01*
X019611Y013474D02*
X019708Y013474D01*
X019708Y013572D02*
X019611Y013572D01*
X019611Y013671D02*
X019708Y013671D01*
X019708Y013769D02*
X019611Y013769D01*
X019611Y013868D02*
X019708Y013868D01*
X019611Y013966D02*
X019052Y013966D01*
X015360Y014328D02*
X015025Y013994D01*
X012680Y013966D02*
X011708Y013966D01*
X011708Y013868D02*
X011611Y013868D01*
X011611Y013769D02*
X011708Y013769D01*
X011708Y013671D02*
X011611Y013671D01*
X011611Y013572D02*
X011708Y013572D01*
X011708Y013474D02*
X011611Y013474D01*
X011611Y013375D02*
X011708Y013375D01*
X011976Y013572D02*
X012680Y013572D01*
X012680Y013474D02*
X012026Y013474D01*
X011958Y013671D02*
X012680Y013671D01*
X012680Y013769D02*
X012024Y013769D01*
X012026Y013868D02*
X012680Y013868D01*
X012360Y014328D02*
X012060Y014028D01*
X008521Y016330D02*
X003573Y016330D01*
X003474Y016232D02*
X004692Y016232D01*
X004627Y016133D02*
X003376Y016133D01*
X003351Y016108D02*
X004051Y016808D01*
X007951Y016808D01*
X008423Y016232D02*
X007336Y016232D01*
X007401Y016133D02*
X008324Y016133D01*
X008226Y016035D02*
X007405Y016035D01*
X007405Y015936D02*
X008127Y015936D01*
X008029Y015838D02*
X007405Y015838D01*
X007405Y015739D02*
X007930Y015739D01*
X007832Y015641D02*
X007405Y015641D01*
X007405Y015542D02*
X007733Y015542D01*
X007635Y015444D02*
X007405Y015444D01*
X007405Y015345D02*
X007536Y015345D01*
X008620Y016429D02*
X003671Y016429D01*
X003770Y016527D02*
X008718Y016527D01*
X008817Y016626D02*
X003868Y016626D01*
X003967Y016724D02*
X008915Y016724D01*
X006977Y017709D02*
X006179Y017709D01*
X006179Y017808D02*
X006961Y017808D01*
X006961Y017906D02*
X006179Y017906D01*
X003560Y017228D02*
X003305Y017483D01*
X003027Y017483D01*
X008858Y022043D02*
X026061Y022043D01*
X025764Y022142D02*
X009155Y022142D01*
X009452Y022240D02*
X025468Y022240D01*
X025169Y022339D02*
X009751Y022339D01*
X010138Y022437D02*
X024782Y022437D01*
X024395Y022536D02*
X010525Y022536D01*
X010912Y022634D02*
X024008Y022634D01*
X023621Y022733D02*
X011299Y022733D01*
X011706Y022831D02*
X023214Y022831D01*
X022666Y022930D02*
X012253Y022930D01*
X012801Y023028D02*
X022119Y023028D01*
X021571Y023127D02*
X013348Y023127D01*
X014122Y023225D02*
X020797Y023225D01*
X019879Y023324D02*
X015041Y023324D01*
X016872Y023422D02*
X018048Y023422D01*
X019088Y021478D02*
X020510Y021478D01*
X019845Y021354D02*
X019039Y021354D01*
X019059Y020960D02*
X019640Y020960D01*
X019640Y020861D02*
X019057Y020861D01*
X018306Y020270D02*
X016730Y020270D01*
X016714Y020172D02*
X018306Y020172D01*
X018339Y020073D02*
X016616Y020073D01*
X018060Y019128D02*
X019960Y019128D01*
X020060Y019228D01*
X020060Y019828D01*
X018060Y019128D02*
X017060Y018128D01*
X012860Y018628D02*
X012060Y019428D01*
X012060Y019728D01*
X011960Y019828D01*
X011660Y019828D01*
X011627Y019861D01*
X011627Y019883D01*
X011676Y019223D02*
X011955Y019223D01*
X012171Y019006D01*
X011994Y019006D01*
X011994Y019126D01*
X011676Y019126D01*
X011676Y019223D01*
X011676Y019187D02*
X011990Y019187D01*
X011994Y019088D02*
X012089Y019088D01*
X011261Y019088D02*
X010489Y019088D01*
X022811Y013769D02*
X022908Y013769D01*
X022908Y013671D02*
X022811Y013671D01*
X022811Y013572D02*
X022908Y013572D01*
X022908Y013474D02*
X022811Y013474D01*
X022811Y013375D02*
X022908Y013375D01*
X026595Y016133D02*
X027572Y016133D01*
X027556Y016035D02*
X026694Y016035D01*
X026792Y015936D02*
X027556Y015936D01*
X027556Y015838D02*
X026891Y015838D01*
X026989Y015739D02*
X027556Y015739D01*
X027556Y015641D02*
X027088Y015641D01*
X027186Y015542D02*
X027556Y015542D01*
X027556Y015444D02*
X027285Y015444D01*
X027383Y015345D02*
X027564Y015345D01*
X020260Y002828D02*
X019660Y002828D01*
X020260Y002828D02*
X020460Y002628D01*
D16*
X020160Y014328D03*
X018560Y014328D03*
X016960Y014328D03*
X015360Y014328D03*
X013760Y014328D03*
X012360Y014328D03*
X006560Y018328D03*
X002260Y017128D03*
X010860Y019528D03*
X015160Y020728D03*
X019460Y020728D03*
X023960Y019528D03*
X028360Y018328D03*
X032660Y017128D03*
X023360Y014328D03*
X021760Y014328D03*
D17*
X013960Y011528D03*
M02*
