G75*
%MOIN*%
%OFA0B0*%
%FSLAX24Y24*%
%IPPOS*%
%LPD*%
%AMOC8*
5,1,8,0,0,1.08239X$1,22.5*
%
%ADD10C,0.0000*%
%ADD11C,0.0030*%
%ADD12C,0.0040*%
%ADD13C,0.0240*%
%ADD14R,0.0598X0.0028*%
%ADD15R,0.1366X0.0028*%
%ADD16R,0.1622X0.0028*%
%ADD17R,0.1764X0.0028*%
%ADD18R,0.1992X0.0028*%
%ADD19R,0.2106X0.0028*%
%ADD20R,0.0256X0.0028*%
%ADD21R,0.1736X0.0028*%
%ADD22R,0.0398X0.0028*%
%ADD23R,0.1679X0.0028*%
%ADD24R,0.0598X0.0028*%
%ADD25R,0.1650X0.0028*%
%ADD26R,0.0768X0.0028*%
%ADD27R,0.0882X0.0028*%
%ADD28R,0.1622X0.0028*%
%ADD29R,0.1024X0.0028*%
%ADD30R,0.1138X0.0028*%
%ADD31R,0.1309X0.0028*%
%ADD32R,0.1394X0.0028*%
%ADD33R,0.1508X0.0028*%
%ADD34R,0.1593X0.0028*%
%ADD35R,0.1053X0.0028*%
%ADD36R,0.0484X0.0028*%
%ADD37R,0.1224X0.0028*%
%ADD38R,0.0484X0.0028*%
%ADD39R,0.0512X0.0028*%
%ADD40R,0.0455X0.0028*%
%ADD41R,0.0541X0.0028*%
%ADD42R,0.0455X0.0028*%
%ADD43R,0.0313X0.0028*%
%ADD44R,0.0569X0.0028*%
%ADD45R,0.0427X0.0028*%
%ADD46R,0.0313X0.0028*%
%ADD47R,0.0285X0.0028*%
%ADD48R,0.0654X0.0028*%
%ADD49R,0.0370X0.0028*%
%ADD50R,0.0142X0.0028*%
%ADD51R,0.0626X0.0028*%
%ADD52R,0.1593X0.0028*%
%ADD53R,0.0370X0.0028*%
%ADD54R,0.0057X0.0028*%
%ADD55R,0.0085X0.0028*%
%ADD56R,0.0228X0.0028*%
%ADD57R,0.0341X0.0028*%
%ADD58R,0.0028X0.0028*%
%ADD59R,0.0256X0.0028*%
%ADD60R,0.0626X0.0028*%
%ADD61R,0.0057X0.0028*%
%ADD62R,0.1565X0.0028*%
%ADD63R,0.0683X0.0028*%
%ADD64R,0.0114X0.0028*%
%ADD65R,0.0085X0.0028*%
%ADD66R,0.0228X0.0028*%
%ADD67R,0.0711X0.0028*%
%ADD68R,0.0341X0.0028*%
%ADD69R,0.0711X0.0028*%
%ADD70R,0.1537X0.0028*%
%ADD71R,0.0199X0.0028*%
%ADD72R,0.0740X0.0028*%
%ADD73R,0.0171X0.0028*%
%ADD74R,0.1252X0.0028*%
%ADD75R,0.0285X0.0028*%
%ADD76R,0.1480X0.0028*%
%ADD77R,0.1366X0.0028*%
%ADD78R,0.0740X0.0028*%
%ADD79R,0.1850X0.0028*%
%ADD80R,0.2020X0.0028*%
%ADD81R,0.1451X0.0028*%
%ADD82R,0.2163X0.0028*%
%ADD83R,0.2305X0.0028*%
%ADD84R,0.0797X0.0028*%
%ADD85R,0.2504X0.0028*%
%ADD86R,0.0825X0.0028*%
%ADD87R,0.1451X0.0028*%
%ADD88R,0.1081X0.0028*%
%ADD89R,0.1110X0.0028*%
%ADD90R,0.3159X0.0028*%
%ADD91R,0.4126X0.0028*%
%ADD92R,0.4012X0.0028*%
%ADD93R,0.3870X0.0028*%
%ADD94R,0.0114X0.0028*%
%ADD95R,0.1963X0.0028*%
%ADD96R,0.1423X0.0028*%
%ADD97R,0.1907X0.0028*%
%ADD98R,0.1195X0.0028*%
%ADD99R,0.0569X0.0028*%
%ADD100R,0.1793X0.0028*%
%ADD101R,0.1280X0.0028*%
%ADD102R,0.1394X0.0028*%
%ADD103R,0.0142X0.0028*%
%ADD104R,0.0939X0.0028*%
%ADD105R,0.0398X0.0028*%
%ADD106R,0.1167X0.0028*%
%ADD107R,0.0199X0.0028*%
%ADD108R,0.1195X0.0028*%
%ADD109R,0.0996X0.0028*%
%ADD110R,0.1252X0.0028*%
%ADD111R,0.1508X0.0028*%
%ADD112R,0.2589X0.0028*%
%ADD113R,0.2646X0.0028*%
%ADD114R,0.2732X0.0028*%
%ADD115R,0.1337X0.0028*%
%ADD116R,0.1480X0.0028*%
%ADD117R,0.2618X0.0028*%
%ADD118R,0.3244X0.0028*%
%ADD119R,0.3187X0.0028*%
%ADD120R,0.3073X0.0028*%
%ADD121R,0.2902X0.0028*%
%ADD122R,0.1224X0.0028*%
%ADD123R,0.1053X0.0028*%
%ADD124R,0.0911X0.0028*%
%ADD125R,0.2504X0.0028*%
%ADD126R,0.2533X0.0028*%
%ADD127R,0.1138X0.0028*%
%ADD128R,0.0967X0.0028*%
%ADD129R,0.1081X0.0028*%
%ADD130R,0.1110X0.0028*%
%ADD131R,0.0854X0.0028*%
%ADD132R,0.0939X0.0028*%
%ADD133R,0.0996X0.0028*%
%ADD134R,0.1821X0.0028*%
%ADD135R,0.1850X0.0028*%
%ADD136R,0.0967X0.0028*%
%ADD137R,0.3102X0.0028*%
%ADD138R,0.2988X0.0028*%
%ADD139R,0.1280X0.0028*%
%ADD140R,0.2846X0.0028*%
%ADD141R,0.0028X0.0028*%
%ADD142R,0.3102X0.0028*%
%ADD143R,0.0427X0.0028*%
%ADD144R,0.1935X0.0028*%
%ADD145R,0.0768X0.0028*%
%ADD146R,0.1878X0.0028*%
%ADD147R,0.0683X0.0028*%
%ADD148R,0.2134X0.0028*%
%ADD149R,0.0854X0.0028*%
%ADD150R,0.0882X0.0028*%
%ADD151R,0.1337X0.0028*%
%ADD152R,0.0825X0.0028*%
%ADD153R,0.2191X0.0028*%
%ADD154R,0.2333X0.0028*%
%ADD155R,0.2419X0.0028*%
%ADD156R,0.2390X0.0028*%
%ADD157R,0.2760X0.0028*%
%ADD158R,0.2447X0.0028*%
%ADD159R,0.1736X0.0028*%
%ADD160R,0.1764X0.0028*%
%ADD161R,0.2077X0.0028*%
%ADD162C,0.0100*%
%ADD163C,0.0050*%
%ADD164R,0.0004X0.0004*%
%ADD165R,0.0216X0.0004*%
%ADD166R,0.1534X0.0004*%
%ADD167R,0.0212X0.0004*%
%ADD168R,0.1751X0.0004*%
%ADD169R,0.1746X0.0004*%
%ADD170R,0.0207X0.0004*%
%ADD171R,0.1530X0.0004*%
%ADD172R,0.0203X0.0004*%
%ADD173R,0.1526X0.0004*%
%ADD174R,0.0198X0.0004*%
%ADD175R,0.1521X0.0004*%
%ADD176R,0.0194X0.0004*%
%ADD177R,0.1517X0.0004*%
%ADD178R,0.0190X0.0004*%
%ADD179R,0.1512X0.0004*%
%ADD180R,0.0185X0.0004*%
%ADD181R,0.1508X0.0004*%
%ADD182R,0.0181X0.0004*%
%ADD183R,0.1504X0.0004*%
%ADD184R,0.0176X0.0004*%
%ADD185R,0.1499X0.0004*%
%ADD186R,0.0172X0.0004*%
%ADD187R,0.1495X0.0004*%
%ADD188R,0.0168X0.0004*%
%ADD189R,0.1490X0.0004*%
%ADD190R,0.0163X0.0004*%
%ADD191R,0.1486X0.0004*%
%ADD192R,0.1482X0.0004*%
%ADD193R,0.0154X0.0004*%
%ADD194R,0.1477X0.0004*%
%ADD195R,0.1473X0.0004*%
%ADD196R,0.0150X0.0004*%
%ADD197R,0.1468X0.0004*%
%ADD198R,0.0146X0.0004*%
%ADD199R,0.0141X0.0004*%
%ADD200R,0.1464X0.0004*%
%ADD201R,0.0137X0.0004*%
%ADD202R,0.1460X0.0004*%
%ADD203R,0.0132X0.0004*%
%ADD204R,0.1455X0.0004*%
%ADD205R,0.0128X0.0004*%
%ADD206R,0.1451X0.0004*%
%ADD207R,0.0123X0.0004*%
%ADD208R,0.1446X0.0004*%
%ADD209R,0.0119X0.0004*%
%ADD210R,0.1442X0.0004*%
%ADD211R,0.0115X0.0004*%
%ADD212R,0.1437X0.0004*%
%ADD213R,0.0110X0.0004*%
%ADD214R,0.1433X0.0004*%
%ADD215R,0.0106X0.0004*%
%ADD216R,0.1429X0.0004*%
%ADD217R,0.0101X0.0004*%
%ADD218R,0.1424X0.0004*%
%ADD219R,0.0097X0.0004*%
%ADD220R,0.1420X0.0004*%
%ADD221R,0.1415X0.0004*%
%ADD222R,0.0093X0.0004*%
%ADD223R,0.1411X0.0004*%
%ADD224R,0.0088X0.0004*%
%ADD225R,0.1407X0.0004*%
%ADD226R,0.0084X0.0004*%
%ADD227R,0.1402X0.0004*%
%ADD228R,0.0079X0.0004*%
%ADD229R,0.0075X0.0004*%
%ADD230R,0.1398X0.0004*%
%ADD231R,0.0071X0.0004*%
%ADD232R,0.1393X0.0004*%
%ADD233R,0.0066X0.0004*%
%ADD234R,0.1389X0.0004*%
%ADD235R,0.0062X0.0004*%
%ADD236R,0.1385X0.0004*%
%ADD237R,0.0057X0.0004*%
%ADD238R,0.1380X0.0004*%
%ADD239R,0.0053X0.0004*%
%ADD240R,0.1376X0.0004*%
%ADD241R,0.0049X0.0004*%
%ADD242R,0.1371X0.0004*%
%ADD243R,0.0044X0.0004*%
%ADD244R,0.1367X0.0004*%
%ADD245R,0.0040X0.0004*%
%ADD246R,0.1363X0.0004*%
%ADD247R,0.0035X0.0004*%
%ADD248R,0.1358X0.0004*%
%ADD249R,0.0031X0.0004*%
%ADD250R,0.1354X0.0004*%
%ADD251R,0.0026X0.0004*%
%ADD252R,0.1349X0.0004*%
%ADD253R,0.1345X0.0004*%
%ADD254R,0.0022X0.0004*%
%ADD255R,0.1340X0.0004*%
%ADD256R,0.0013X0.0004*%
%ADD257R,0.1336X0.0004*%
%ADD258R,0.0009X0.0004*%
%ADD259R,0.1332X0.0004*%
%ADD260R,0.1327X0.0004*%
%ADD261R,0.1323X0.0004*%
%ADD262R,0.1318X0.0004*%
%ADD263R,0.1314X0.0004*%
%ADD264R,0.1310X0.0004*%
%ADD265R,0.0018X0.0004*%
%ADD266R,0.1305X0.0004*%
%ADD267R,0.1301X0.0004*%
%ADD268R,0.1296X0.0004*%
%ADD269R,0.1292X0.0004*%
%ADD270R,0.1288X0.0004*%
%ADD271R,0.1283X0.0004*%
%ADD272R,0.1279X0.0004*%
%ADD273R,0.1274X0.0004*%
%ADD274R,0.1270X0.0004*%
%ADD275R,0.1266X0.0004*%
%ADD276R,0.1261X0.0004*%
%ADD277R,0.1257X0.0004*%
%ADD278R,0.1252X0.0004*%
%ADD279R,0.1248X0.0004*%
%ADD280R,0.1243X0.0004*%
%ADD281R,0.1239X0.0004*%
%ADD282R,0.1235X0.0004*%
%ADD283R,0.1230X0.0004*%
%ADD284R,0.1226X0.0004*%
%ADD285R,0.1221X0.0004*%
%ADD286R,0.1217X0.0004*%
%ADD287R,0.1213X0.0004*%
%ADD288R,0.1208X0.0004*%
%ADD289R,0.1204X0.0004*%
%ADD290R,0.1195X0.0004*%
%ADD291R,0.1191X0.0004*%
%ADD292R,0.1186X0.0004*%
%ADD293R,0.1182X0.0004*%
%ADD294R,0.1177X0.0004*%
%ADD295R,0.1173X0.0004*%
%ADD296R,0.1169X0.0004*%
%ADD297R,0.0159X0.0004*%
%ADD298R,0.1164X0.0004*%
%ADD299R,0.1160X0.0004*%
%ADD300R,0.1054X0.0004*%
%ADD301R,0.0370X0.0004*%
%ADD302R,0.0657X0.0004*%
%ADD303R,0.0842X0.0004*%
%ADD304R,0.0419X0.0004*%
%ADD305R,0.0273X0.0004*%
%ADD306R,0.0833X0.0004*%
%ADD307R,0.0459X0.0004*%
%ADD308R,0.0326X0.0004*%
%ADD309R,0.0661X0.0004*%
%ADD310R,0.0825X0.0004*%
%ADD311R,0.0485X0.0004*%
%ADD312R,0.0375X0.0004*%
%ADD313R,0.0666X0.0004*%
%ADD314R,0.0820X0.0004*%
%ADD315R,0.0498X0.0004*%
%ADD316R,0.0397X0.0004*%
%ADD317R,0.0670X0.0004*%
%ADD318R,0.0811X0.0004*%
%ADD319R,0.0525X0.0004*%
%ADD320R,0.0432X0.0004*%
%ADD321R,0.0675X0.0004*%
%ADD322R,0.0803X0.0004*%
%ADD323R,0.0538X0.0004*%
%ADD324R,0.0794X0.0004*%
%ADD325R,0.0551X0.0004*%
%ADD326R,0.0481X0.0004*%
%ADD327R,0.0683X0.0004*%
%ADD328R,0.0789X0.0004*%
%ADD329R,0.0564X0.0004*%
%ADD330R,0.0503X0.0004*%
%ADD331R,0.0780X0.0004*%
%ADD332R,0.0578X0.0004*%
%ADD333R,0.0520X0.0004*%
%ADD334R,0.0688X0.0004*%
%ADD335R,0.0772X0.0004*%
%ADD336R,0.0586X0.0004*%
%ADD337R,0.0692X0.0004*%
%ADD338R,0.0763X0.0004*%
%ADD339R,0.0595X0.0004*%
%ADD340R,0.0556X0.0004*%
%ADD341R,0.0697X0.0004*%
%ADD342R,0.0754X0.0004*%
%ADD343R,0.0604X0.0004*%
%ADD344R,0.0573X0.0004*%
%ADD345R,0.0701X0.0004*%
%ADD346R,0.0220X0.0004*%
%ADD347R,0.0745X0.0004*%
%ADD348R,0.0613X0.0004*%
%ADD349R,0.0706X0.0004*%
%ADD350R,0.0225X0.0004*%
%ADD351R,0.0736X0.0004*%
%ADD352R,0.0622X0.0004*%
%ADD353R,0.0600X0.0004*%
%ADD354R,0.0710X0.0004*%
%ADD355R,0.0229X0.0004*%
%ADD356R,0.0728X0.0004*%
%ADD357R,0.0631X0.0004*%
%ADD358R,0.0617X0.0004*%
%ADD359R,0.0234X0.0004*%
%ADD360R,0.0719X0.0004*%
%ADD361R,0.0635X0.0004*%
%ADD362R,0.0626X0.0004*%
%ADD363R,0.0714X0.0004*%
%ADD364R,0.0238X0.0004*%
%ADD365R,0.0644X0.0004*%
%ADD366R,0.0639X0.0004*%
%ADD367R,0.0243X0.0004*%
%ADD368R,0.0648X0.0004*%
%ADD369R,0.0653X0.0004*%
%ADD370R,0.0723X0.0004*%
%ADD371R,0.0247X0.0004*%
%ADD372R,0.0732X0.0004*%
%ADD373R,0.0251X0.0004*%
%ADD374R,0.0679X0.0004*%
%ADD375R,0.0256X0.0004*%
%ADD376R,0.0741X0.0004*%
%ADD377R,0.0260X0.0004*%
%ADD378R,0.0265X0.0004*%
%ADD379R,0.0269X0.0004*%
%ADD380R,0.0750X0.0004*%
%ADD381R,0.0278X0.0004*%
%ADD382R,0.0758X0.0004*%
%ADD383R,0.0282X0.0004*%
%ADD384R,0.0287X0.0004*%
%ADD385R,0.0291X0.0004*%
%ADD386R,0.0767X0.0004*%
%ADD387R,0.0295X0.0004*%
%ADD388R,0.0300X0.0004*%
%ADD389R,0.0428X0.0004*%
%ADD390R,0.0344X0.0004*%
%ADD391R,0.0340X0.0004*%
%ADD392R,0.0304X0.0004*%
%ADD393R,0.0335X0.0004*%
%ADD394R,0.0309X0.0004*%
%ADD395R,0.0569X0.0004*%
%ADD396R,0.0313X0.0004*%
%ADD397R,0.0560X0.0004*%
%ADD398R,0.0317X0.0004*%
%ADD399R,0.0547X0.0004*%
%ADD400R,0.0322X0.0004*%
%ADD401R,0.0529X0.0004*%
%ADD402R,0.0331X0.0004*%
%ADD403R,0.0516X0.0004*%
%ADD404R,0.0507X0.0004*%
%ADD405R,0.0348X0.0004*%
%ADD406R,0.0489X0.0004*%
%ADD407R,0.0353X0.0004*%
%ADD408R,0.0357X0.0004*%
%ADD409R,0.0472X0.0004*%
%ADD410R,0.0362X0.0004*%
%ADD411R,0.0463X0.0004*%
%ADD412R,0.0366X0.0004*%
%ADD413R,0.0454X0.0004*%
%ADD414R,0.0445X0.0004*%
%ADD415R,0.0437X0.0004*%
%ADD416R,0.0379X0.0004*%
%ADD417R,0.0384X0.0004*%
%ADD418R,0.0388X0.0004*%
%ADD419R,0.0414X0.0004*%
%ADD420R,0.0406X0.0004*%
%ADD421R,0.0392X0.0004*%
%ADD422R,0.0401X0.0004*%
%ADD423R,0.0410X0.0004*%
%ADD424R,0.0423X0.0004*%
%ADD425R,0.0441X0.0004*%
%ADD426R,0.0450X0.0004*%
%ADD427R,0.0467X0.0004*%
%ADD428R,0.0476X0.0004*%
%ADD429R,0.0511X0.0004*%
%ADD430R,0.0534X0.0004*%
%ADD431R,0.0542X0.0004*%
%ADD432R,0.0582X0.0004*%
%ADD433R,0.0591X0.0004*%
%ADD434R,0.0944X0.0004*%
%ADD435R,0.0609X0.0004*%
%ADD436R,0.0935X0.0004*%
%ADD437R,0.0930X0.0004*%
%ADD438R,0.0926X0.0004*%
%ADD439R,0.0785X0.0004*%
%ADD440R,0.0798X0.0004*%
%ADD441R,0.0807X0.0004*%
%ADD442R,0.0816X0.0004*%
%ADD443R,0.0829X0.0004*%
%ADD444R,0.0838X0.0004*%
%ADD445R,0.0847X0.0004*%
%ADD446R,0.0851X0.0004*%
%ADD447R,0.0855X0.0004*%
%ADD448R,0.0860X0.0004*%
%ADD449R,0.0864X0.0004*%
%ADD450R,0.0869X0.0004*%
%ADD451R,0.0873X0.0004*%
%ADD452R,0.0877X0.0004*%
%ADD453R,0.0882X0.0004*%
%ADD454R,0.0886X0.0004*%
%ADD455R,0.0891X0.0004*%
%ADD456R,0.0895X0.0004*%
%ADD457R,0.0900X0.0004*%
%ADD458R,0.0904X0.0004*%
%ADD459R,0.0908X0.0004*%
%ADD460R,0.0494X0.0004*%
%ADD461R,0.1900X0.0004*%
%ADD462R,0.1896X0.0004*%
%ADD463R,0.1892X0.0004*%
%ADD464R,0.1887X0.0004*%
%ADD465R,0.1883X0.0004*%
%ADD466R,0.1878X0.0004*%
%ADD467R,0.1874X0.0004*%
%ADD468R,0.1870X0.0004*%
%ADD469R,0.1865X0.0004*%
%ADD470R,0.1861X0.0004*%
%ADD471R,0.1856X0.0004*%
%ADD472R,0.1852X0.0004*%
%ADD473R,0.1848X0.0004*%
%ADD474R,0.1843X0.0004*%
%ADD475R,0.1839X0.0004*%
%ADD476R,0.1834X0.0004*%
%ADD477R,0.1830X0.0004*%
%ADD478R,0.1826X0.0004*%
%ADD479R,0.1821X0.0004*%
%ADD480R,0.1817X0.0004*%
%ADD481R,0.1812X0.0004*%
%ADD482R,0.1808X0.0004*%
%ADD483R,0.1799X0.0004*%
%ADD484R,0.1795X0.0004*%
%ADD485R,0.1790X0.0004*%
%ADD486R,0.1786X0.0004*%
%ADD487R,0.1781X0.0004*%
%ADD488R,0.1777X0.0004*%
%ADD489R,0.1768X0.0004*%
%ADD490R,0.0970X0.0004*%
%ADD491R,0.0974X0.0004*%
%ADD492R,0.0979X0.0004*%
%ADD493R,0.0983X0.0004*%
%ADD494R,0.0988X0.0004*%
%ADD495R,0.0992X0.0004*%
%ADD496R,0.0997X0.0004*%
%ADD497R,0.1001X0.0004*%
%ADD498R,0.1005X0.0004*%
%ADD499R,0.1010X0.0004*%
%ADD500R,0.1014X0.0004*%
%ADD501R,0.1019X0.0004*%
%ADD502R,0.1023X0.0004*%
%ADD503R,0.1027X0.0004*%
%ADD504R,0.1032X0.0004*%
%ADD505R,0.1036X0.0004*%
%ADD506R,0.1041X0.0004*%
%ADD507R,0.1045X0.0004*%
%ADD508R,0.1049X0.0004*%
%ADD509R,0.1058X0.0004*%
%ADD510R,0.1063X0.0004*%
%ADD511R,0.1067X0.0004*%
%ADD512R,0.1071X0.0004*%
%ADD513R,0.1076X0.0004*%
%ADD514R,0.1080X0.0004*%
%ADD515R,0.1085X0.0004*%
D10*
X012260Y000228D02*
X012260Y011128D01*
X010460Y012928D01*
X010460Y016628D01*
X009060Y016628D01*
X007560Y015128D01*
X000160Y015128D01*
X000160Y017528D01*
X014460Y007828D02*
X014460Y004828D01*
X014462Y004778D01*
X014468Y004727D01*
X014477Y004678D01*
X014490Y004629D01*
X014507Y004581D01*
X014527Y004535D01*
X014550Y004491D01*
X014577Y004448D01*
X014607Y004407D01*
X014640Y004369D01*
X014676Y004333D01*
X014714Y004300D01*
X014755Y004270D01*
X014798Y004243D01*
X014842Y004220D01*
X014888Y004200D01*
X014936Y004183D01*
X014985Y004170D01*
X015034Y004161D01*
X015085Y004155D01*
X015135Y004153D01*
X015185Y004155D01*
X015236Y004161D01*
X015285Y004170D01*
X015334Y004183D01*
X015382Y004200D01*
X015428Y004220D01*
X015473Y004243D01*
X015515Y004270D01*
X015556Y004300D01*
X015594Y004333D01*
X015630Y004369D01*
X015663Y004407D01*
X015693Y004448D01*
X015720Y004491D01*
X015743Y004535D01*
X015763Y004581D01*
X015780Y004629D01*
X015793Y004678D01*
X015802Y004727D01*
X015808Y004778D01*
X015810Y004828D01*
X015810Y007828D01*
X015808Y007878D01*
X015802Y007929D01*
X015793Y007978D01*
X015780Y008027D01*
X015763Y008075D01*
X015743Y008121D01*
X015720Y008166D01*
X015693Y008208D01*
X015663Y008249D01*
X015630Y008287D01*
X015594Y008323D01*
X015556Y008356D01*
X015515Y008386D01*
X015473Y008413D01*
X015428Y008436D01*
X015382Y008456D01*
X015334Y008473D01*
X015285Y008486D01*
X015236Y008495D01*
X015185Y008501D01*
X015135Y008503D01*
X015085Y008501D01*
X015034Y008495D01*
X014985Y008486D01*
X014936Y008473D01*
X014888Y008456D01*
X014842Y008436D01*
X014798Y008413D01*
X014755Y008386D01*
X014714Y008356D01*
X014676Y008323D01*
X014640Y008287D01*
X014607Y008249D01*
X014577Y008208D01*
X014550Y008166D01*
X014527Y008121D01*
X014507Y008075D01*
X014490Y008027D01*
X014477Y007978D01*
X014468Y007929D01*
X014462Y007878D01*
X014460Y007828D01*
X019110Y007828D02*
X019110Y004828D01*
X019112Y004778D01*
X019118Y004727D01*
X019127Y004678D01*
X019140Y004629D01*
X019157Y004581D01*
X019177Y004535D01*
X019200Y004491D01*
X019227Y004448D01*
X019257Y004407D01*
X019290Y004369D01*
X019326Y004333D01*
X019364Y004300D01*
X019405Y004270D01*
X019448Y004243D01*
X019492Y004220D01*
X019538Y004200D01*
X019586Y004183D01*
X019635Y004170D01*
X019684Y004161D01*
X019735Y004155D01*
X019785Y004153D01*
X019835Y004155D01*
X019886Y004161D01*
X019935Y004170D01*
X019984Y004183D01*
X020032Y004200D01*
X020078Y004220D01*
X020123Y004243D01*
X020165Y004270D01*
X020206Y004300D01*
X020244Y004333D01*
X020280Y004369D01*
X020313Y004407D01*
X020343Y004448D01*
X020370Y004491D01*
X020393Y004535D01*
X020413Y004581D01*
X020430Y004629D01*
X020443Y004678D01*
X020452Y004727D01*
X020458Y004778D01*
X020460Y004828D01*
X020460Y007828D01*
X020458Y007878D01*
X020452Y007929D01*
X020443Y007978D01*
X020430Y008027D01*
X020413Y008075D01*
X020393Y008121D01*
X020370Y008166D01*
X020343Y008208D01*
X020313Y008249D01*
X020280Y008287D01*
X020244Y008323D01*
X020206Y008356D01*
X020165Y008386D01*
X020123Y008413D01*
X020078Y008436D01*
X020032Y008456D01*
X019984Y008473D01*
X019935Y008486D01*
X019886Y008495D01*
X019835Y008501D01*
X019785Y008503D01*
X019735Y008501D01*
X019684Y008495D01*
X019635Y008486D01*
X019586Y008473D01*
X019538Y008456D01*
X019492Y008436D01*
X019448Y008413D01*
X019405Y008386D01*
X019364Y008356D01*
X019326Y008323D01*
X019290Y008287D01*
X019257Y008249D01*
X019227Y008208D01*
X019200Y008166D01*
X019177Y008121D01*
X019157Y008075D01*
X019140Y008027D01*
X019127Y007978D01*
X019118Y007929D01*
X019112Y007878D01*
X019110Y007828D01*
X022660Y011128D02*
X024460Y012928D01*
X024460Y016628D01*
X025860Y016628D01*
X027360Y015128D01*
X034760Y015128D01*
X034760Y017528D01*
X022660Y011128D02*
X022660Y000228D01*
X012260Y000228D01*
X000160Y017528D02*
X000686Y017940D01*
X001221Y018338D01*
X001766Y018724D01*
X002320Y019097D01*
X002883Y019456D01*
X003454Y019801D01*
X004034Y020132D01*
X004621Y020450D01*
X005216Y020753D01*
X005818Y021041D01*
X006427Y021315D01*
X007042Y021574D01*
X007663Y021818D01*
X008291Y022047D01*
X008923Y022261D01*
X009560Y022460D01*
X010202Y022643D01*
X010849Y022810D01*
X011499Y022962D01*
X012152Y023098D01*
X012809Y023219D01*
X013468Y023323D01*
X014130Y023412D01*
X014794Y023484D01*
X015459Y023540D01*
X016125Y023581D01*
X016792Y023605D01*
X017460Y023613D01*
X018128Y023605D01*
X018795Y023581D01*
X019461Y023540D01*
X020126Y023484D01*
X020790Y023412D01*
X021452Y023323D01*
X022111Y023219D01*
X022768Y023098D01*
X023421Y022962D01*
X024071Y022810D01*
X024718Y022643D01*
X025360Y022460D01*
X025997Y022261D01*
X026629Y022047D01*
X027257Y021818D01*
X027878Y021574D01*
X028493Y021315D01*
X029102Y021041D01*
X029704Y020753D01*
X030299Y020450D01*
X030886Y020132D01*
X031466Y019801D01*
X032037Y019456D01*
X032600Y019097D01*
X033154Y018724D01*
X033699Y018338D01*
X034234Y017940D01*
X034760Y017528D01*
D11*
X021193Y000693D02*
X021069Y000569D01*
X021069Y000322D01*
X020948Y000384D02*
X020948Y000446D01*
X020886Y000507D01*
X020763Y000507D01*
X020701Y000446D01*
X020701Y000384D01*
X020763Y000322D01*
X020886Y000322D01*
X020948Y000384D01*
X020886Y000507D02*
X020948Y000569D01*
X020948Y000631D01*
X020886Y000693D01*
X020763Y000693D01*
X020701Y000631D01*
X020701Y000569D01*
X020763Y000507D01*
X021069Y000507D02*
X021316Y000507D01*
X021316Y000569D02*
X021193Y000693D01*
X021316Y000569D02*
X021316Y000322D01*
X020216Y000322D02*
X020216Y000569D01*
X020093Y000693D01*
X019969Y000569D01*
X019969Y000322D01*
X019848Y000322D02*
X019848Y000384D01*
X019601Y000631D01*
X019601Y000693D01*
X019848Y000693D01*
X019969Y000507D02*
X020216Y000507D01*
X019316Y000507D02*
X019069Y000507D01*
X019069Y000569D02*
X019069Y000322D01*
X018948Y000384D02*
X018886Y000322D01*
X018763Y000322D01*
X018701Y000384D01*
X018701Y000446D01*
X018763Y000507D01*
X018948Y000507D01*
X018948Y000384D01*
X018948Y000507D02*
X018825Y000631D01*
X018701Y000693D01*
X019069Y000569D02*
X019193Y000693D01*
X019316Y000569D01*
X019316Y000322D01*
X018316Y000322D02*
X018316Y000569D01*
X018193Y000693D01*
X018069Y000569D01*
X018069Y000322D01*
X017948Y000384D02*
X017886Y000322D01*
X017763Y000322D01*
X017701Y000384D01*
X017701Y000507D01*
X017763Y000569D01*
X017825Y000569D01*
X017948Y000507D01*
X017948Y000693D01*
X017701Y000693D01*
X017316Y000569D02*
X017316Y000322D01*
X017316Y000507D02*
X017069Y000507D01*
X017069Y000569D02*
X017069Y000322D01*
X016948Y000507D02*
X016701Y000507D01*
X016763Y000322D02*
X016763Y000693D01*
X016948Y000507D01*
X017069Y000569D02*
X017193Y000693D01*
X017316Y000569D01*
X018069Y000507D02*
X018316Y000507D01*
X016316Y000507D02*
X016069Y000507D01*
X016069Y000569D02*
X016069Y000322D01*
X015948Y000384D02*
X015886Y000322D01*
X015763Y000322D01*
X015701Y000384D01*
X015701Y000446D01*
X015763Y000507D01*
X015825Y000507D01*
X015763Y000507D02*
X015701Y000569D01*
X015701Y000631D01*
X015763Y000693D01*
X015886Y000693D01*
X015948Y000631D01*
X016069Y000569D02*
X016193Y000693D01*
X016316Y000569D01*
X016316Y000322D01*
X015316Y000322D02*
X015316Y000569D01*
X015193Y000693D01*
X015069Y000569D01*
X015069Y000322D01*
X014948Y000322D02*
X014701Y000569D01*
X014701Y000631D01*
X014763Y000693D01*
X014886Y000693D01*
X014948Y000631D01*
X015069Y000507D02*
X015316Y000507D01*
X014948Y000322D02*
X014701Y000322D01*
X014284Y000315D02*
X014284Y000562D01*
X014160Y000685D01*
X014037Y000562D01*
X014037Y000315D01*
X013915Y000315D02*
X013669Y000315D01*
X013792Y000315D02*
X013792Y000685D01*
X013915Y000562D01*
X014037Y000500D02*
X014284Y000500D01*
X007296Y015543D02*
X007200Y015543D01*
X007151Y015592D01*
X007050Y015592D02*
X007002Y015543D01*
X006857Y015543D01*
X006857Y015737D01*
X006707Y015737D02*
X006610Y015737D01*
X006562Y015689D01*
X006562Y015543D01*
X006707Y015543D01*
X006755Y015592D01*
X006707Y015640D01*
X006562Y015640D01*
X006461Y015543D02*
X006461Y015737D01*
X006316Y015737D01*
X006267Y015689D01*
X006267Y015543D01*
X006118Y015592D02*
X006069Y015543D01*
X006118Y015592D02*
X006118Y015785D01*
X006166Y015737D02*
X006069Y015737D01*
X005970Y015689D02*
X005921Y015737D01*
X005825Y015737D01*
X005776Y015689D01*
X005776Y015640D01*
X005970Y015640D01*
X005970Y015592D02*
X005970Y015689D01*
X005970Y015592D02*
X005921Y015543D01*
X005825Y015543D01*
X005675Y015543D02*
X005482Y015737D01*
X005675Y015737D02*
X005482Y015543D01*
X007050Y015592D02*
X007050Y015737D01*
X007151Y015785D02*
X007200Y015834D01*
X007296Y015834D01*
X007345Y015785D01*
X007345Y015592D01*
X007296Y015543D01*
D12*
X002840Y018135D02*
X002753Y018048D01*
X002580Y018048D01*
X002493Y018135D01*
X002493Y018222D01*
X002580Y018309D01*
X002753Y018309D01*
X002840Y018395D01*
X002840Y018482D01*
X002753Y018569D01*
X002580Y018569D01*
X002493Y018482D01*
X002324Y018395D02*
X002151Y018569D01*
X002151Y018048D01*
X002324Y018048D02*
X001977Y018048D01*
X006277Y019248D02*
X006624Y019248D01*
X006277Y019595D01*
X006277Y019682D01*
X006364Y019769D01*
X006537Y019769D01*
X006624Y019682D01*
X006793Y019682D02*
X006880Y019769D01*
X007053Y019769D01*
X007140Y019682D01*
X007140Y019595D01*
X007053Y019509D01*
X006880Y019509D01*
X006793Y019422D01*
X006793Y019335D01*
X006880Y019248D01*
X007053Y019248D01*
X007140Y019335D01*
X010577Y021435D02*
X010664Y021348D01*
X010837Y021348D01*
X010924Y021435D01*
X011093Y021435D02*
X011180Y021348D01*
X011353Y021348D01*
X011440Y021435D01*
X011353Y021609D02*
X011180Y021609D01*
X011093Y021522D01*
X011093Y021435D01*
X011353Y021609D02*
X011440Y021695D01*
X011440Y021782D01*
X011353Y021869D01*
X011180Y021869D01*
X011093Y021782D01*
X010924Y021782D02*
X010837Y021869D01*
X010664Y021869D01*
X010577Y021782D01*
X010577Y021695D01*
X010664Y021609D01*
X010577Y021522D01*
X010577Y021435D01*
X010664Y021609D02*
X010751Y021609D01*
X014877Y022109D02*
X015224Y022109D01*
X014964Y022369D01*
X014964Y021848D01*
X015393Y021935D02*
X015480Y021848D01*
X015653Y021848D01*
X015740Y021935D01*
X015653Y022109D02*
X015740Y022195D01*
X015740Y022282D01*
X015653Y022369D01*
X015480Y022369D01*
X015393Y022282D01*
X015480Y022109D02*
X015393Y022022D01*
X015393Y021935D01*
X015480Y022109D02*
X015653Y022109D01*
X019077Y022169D02*
X019424Y022169D01*
X019424Y021909D01*
X019251Y021995D01*
X019164Y021995D01*
X019077Y021909D01*
X019077Y021735D01*
X019164Y021648D01*
X019337Y021648D01*
X019424Y021735D01*
X019593Y021735D02*
X019680Y021648D01*
X019853Y021648D01*
X019940Y021735D01*
X019853Y021909D02*
X019680Y021909D01*
X019593Y021822D01*
X019593Y021735D01*
X019853Y021909D02*
X019940Y021995D01*
X019940Y022082D01*
X019853Y022169D01*
X019680Y022169D01*
X019593Y022082D01*
X023677Y020969D02*
X023851Y020882D01*
X024024Y020709D01*
X023764Y020709D01*
X023677Y020622D01*
X023677Y020535D01*
X023764Y020448D01*
X023937Y020448D01*
X024024Y020535D01*
X024024Y020709D01*
X024193Y020622D02*
X024193Y020535D01*
X024280Y020448D01*
X024453Y020448D01*
X024540Y020535D01*
X024453Y020709D02*
X024280Y020709D01*
X024193Y020622D01*
X024193Y020882D02*
X024280Y020969D01*
X024453Y020969D01*
X024540Y020882D01*
X024540Y020795D01*
X024453Y020709D01*
X028077Y019769D02*
X028077Y019682D01*
X028424Y019335D01*
X028424Y019248D01*
X028593Y019335D02*
X028680Y019248D01*
X028853Y019248D01*
X028940Y019335D01*
X028853Y019509D02*
X028680Y019509D01*
X028593Y019422D01*
X028593Y019335D01*
X028853Y019509D02*
X028940Y019595D01*
X028940Y019682D01*
X028853Y019769D01*
X028680Y019769D01*
X028593Y019682D01*
X028424Y019769D02*
X028077Y019769D01*
X031977Y018482D02*
X031977Y018395D01*
X032064Y018309D01*
X032237Y018309D01*
X032324Y018395D01*
X032324Y018482D01*
X032237Y018569D01*
X032064Y018569D01*
X031977Y018482D01*
X032064Y018309D02*
X031977Y018222D01*
X031977Y018135D01*
X032064Y018048D01*
X032237Y018048D01*
X032324Y018135D01*
X032324Y018222D01*
X032237Y018309D01*
X032493Y018222D02*
X032493Y018135D01*
X032580Y018048D01*
X032753Y018048D01*
X032840Y018135D01*
X032753Y018309D02*
X032580Y018309D01*
X032493Y018222D01*
X032493Y018482D02*
X032580Y018569D01*
X032753Y018569D01*
X032840Y018482D01*
X032840Y018395D01*
X032753Y018309D01*
X031153Y016069D02*
X030980Y016069D01*
X030893Y015982D01*
X030724Y016069D02*
X030551Y015895D01*
X030377Y016069D01*
X030377Y015548D01*
X030208Y015635D02*
X030122Y015548D01*
X029948Y015548D01*
X029862Y015635D01*
X029862Y015722D01*
X029948Y015809D01*
X030122Y015809D01*
X030208Y015895D01*
X030208Y015982D01*
X030122Y016069D01*
X029948Y016069D01*
X029862Y015982D01*
X029693Y016069D02*
X029693Y015548D01*
X029346Y015548D01*
X029177Y015635D02*
X028830Y015982D01*
X028830Y015635D01*
X028917Y015548D01*
X029090Y015548D01*
X029177Y015635D01*
X029177Y015982D01*
X029090Y016069D01*
X028917Y016069D01*
X028830Y015982D01*
X028662Y015982D02*
X028575Y016069D01*
X028401Y016069D01*
X028315Y015982D01*
X028315Y015895D01*
X028662Y015548D01*
X028315Y015548D01*
X028146Y015635D02*
X027799Y015982D01*
X027799Y015635D01*
X027886Y015548D01*
X028059Y015548D01*
X028146Y015635D01*
X028146Y015982D01*
X028059Y016069D01*
X027886Y016069D01*
X027799Y015982D01*
X027630Y015982D02*
X027630Y015895D01*
X027544Y015809D01*
X027370Y015809D01*
X027283Y015722D01*
X027283Y015635D01*
X027370Y015548D01*
X027544Y015548D01*
X027630Y015635D01*
X027630Y015722D01*
X027544Y015809D01*
X027370Y015809D02*
X027283Y015895D01*
X027283Y015982D01*
X027370Y016069D01*
X027544Y016069D01*
X027630Y015982D01*
X030724Y016069D02*
X030724Y015548D01*
X030893Y015635D02*
X030893Y015722D01*
X030980Y015809D01*
X031153Y015809D01*
X031240Y015895D01*
X031240Y015982D01*
X031153Y016069D01*
X031240Y015635D02*
X031153Y015548D01*
X030980Y015548D01*
X030893Y015635D01*
D13*
X020760Y007857D02*
X020760Y004707D01*
X020760Y004657D01*
X020760Y004707D02*
X020758Y004649D01*
X020752Y004591D01*
X020743Y004533D01*
X020730Y004476D01*
X020713Y004420D01*
X020693Y004366D01*
X020669Y004312D01*
X020642Y004261D01*
X020612Y004211D01*
X020578Y004163D01*
X020542Y004118D01*
X020502Y004075D01*
X020460Y004034D01*
X020416Y003997D01*
X020369Y003962D01*
X020320Y003931D01*
X020269Y003902D01*
X020216Y003877D01*
X020162Y003856D01*
X020106Y003838D01*
X020050Y003823D01*
X019993Y003813D01*
X019935Y003806D01*
X019876Y003802D01*
X019818Y003803D01*
X019760Y003807D01*
X019660Y003807D02*
X019604Y003809D01*
X019549Y003814D01*
X019494Y003823D01*
X019440Y003836D01*
X019387Y003852D01*
X019335Y003872D01*
X019284Y003895D01*
X019235Y003921D01*
X019188Y003950D01*
X019143Y003983D01*
X019100Y004018D01*
X019059Y004056D01*
X019021Y004097D01*
X018986Y004140D01*
X018953Y004185D01*
X018924Y004232D01*
X018898Y004281D01*
X018875Y004332D01*
X018855Y004384D01*
X018839Y004437D01*
X018826Y004491D01*
X018817Y004546D01*
X018812Y004601D01*
X018810Y004657D01*
X018810Y004707D02*
X018810Y007907D01*
X018812Y007966D01*
X018818Y008024D01*
X018827Y008083D01*
X018841Y008140D01*
X018858Y008196D01*
X018879Y008251D01*
X018903Y008305D01*
X018931Y008357D01*
X018962Y008407D01*
X018996Y008455D01*
X019033Y008500D01*
X019074Y008543D01*
X019117Y008584D01*
X019162Y008621D01*
X019210Y008655D01*
X019260Y008686D01*
X019312Y008714D01*
X019366Y008738D01*
X019421Y008759D01*
X019477Y008776D01*
X019534Y008790D01*
X019593Y008799D01*
X019651Y008805D01*
X019710Y008807D01*
X019860Y008807D01*
X019919Y008805D01*
X019977Y008799D01*
X020036Y008790D01*
X020093Y008776D01*
X020149Y008759D01*
X020204Y008738D01*
X020258Y008714D01*
X020310Y008686D01*
X020360Y008655D01*
X020408Y008621D01*
X020453Y008584D01*
X020496Y008543D01*
X020537Y008500D01*
X020574Y008455D01*
X020608Y008407D01*
X020639Y008357D01*
X020667Y008305D01*
X020691Y008251D01*
X020712Y008196D01*
X020729Y008140D01*
X020743Y008083D01*
X020752Y008024D01*
X020758Y007966D01*
X020760Y007907D01*
X016110Y007936D02*
X016110Y004736D01*
X016108Y004678D01*
X016102Y004620D01*
X016093Y004562D01*
X016080Y004505D01*
X016063Y004449D01*
X016043Y004395D01*
X016019Y004341D01*
X015992Y004290D01*
X015962Y004240D01*
X015928Y004192D01*
X015892Y004147D01*
X015852Y004104D01*
X015810Y004063D01*
X015766Y004026D01*
X015719Y003991D01*
X015670Y003960D01*
X015619Y003931D01*
X015566Y003906D01*
X015512Y003885D01*
X015456Y003867D01*
X015400Y003852D01*
X015343Y003842D01*
X015285Y003835D01*
X015226Y003831D01*
X015168Y003832D01*
X015110Y003836D01*
X015010Y003836D01*
X014954Y003838D01*
X014899Y003843D01*
X014844Y003852D01*
X014790Y003865D01*
X014737Y003881D01*
X014685Y003901D01*
X014634Y003924D01*
X014585Y003950D01*
X014538Y003979D01*
X014493Y004012D01*
X014450Y004047D01*
X014409Y004085D01*
X014371Y004126D01*
X014336Y004169D01*
X014303Y004214D01*
X014274Y004261D01*
X014248Y004310D01*
X014225Y004361D01*
X014205Y004413D01*
X014189Y004466D01*
X014176Y004520D01*
X014167Y004575D01*
X014162Y004630D01*
X014160Y004686D01*
X014160Y004736D02*
X014160Y007936D01*
X014162Y007995D01*
X014168Y008053D01*
X014177Y008112D01*
X014191Y008169D01*
X014208Y008225D01*
X014229Y008280D01*
X014253Y008334D01*
X014281Y008386D01*
X014312Y008436D01*
X014346Y008484D01*
X014383Y008529D01*
X014424Y008572D01*
X014467Y008613D01*
X014512Y008650D01*
X014560Y008684D01*
X014610Y008715D01*
X014662Y008743D01*
X014716Y008767D01*
X014771Y008788D01*
X014827Y008805D01*
X014884Y008819D01*
X014943Y008828D01*
X015001Y008834D01*
X015060Y008836D01*
X015210Y008836D01*
X015269Y008834D01*
X015327Y008828D01*
X015386Y008819D01*
X015443Y008805D01*
X015499Y008788D01*
X015554Y008767D01*
X015608Y008743D01*
X015660Y008715D01*
X015710Y008684D01*
X015758Y008650D01*
X015803Y008613D01*
X015846Y008572D01*
X015887Y008529D01*
X015924Y008484D01*
X015958Y008436D01*
X015989Y008386D01*
X016017Y008334D01*
X016041Y008280D01*
X016062Y008225D01*
X016079Y008169D01*
X016093Y008112D01*
X016102Y008053D01*
X016108Y007995D01*
X016110Y007936D01*
D14*
X017821Y013579D03*
X017707Y014233D03*
X017735Y014262D03*
X019870Y016481D03*
X019841Y016510D03*
X018874Y016709D03*
X018390Y017050D03*
X018219Y017164D03*
X015687Y017420D03*
X016028Y020237D03*
X015374Y020693D03*
X014918Y020465D03*
X014918Y020437D03*
X014918Y020408D03*
X010735Y019270D03*
X010622Y019697D03*
X009227Y017335D03*
X021520Y018900D03*
X022345Y020266D03*
X022886Y017449D03*
X022829Y017392D03*
X023540Y017477D03*
X023170Y015286D03*
X023142Y015258D03*
D15*
X023725Y018103D03*
X021705Y019640D03*
X017408Y016254D03*
X016896Y016993D03*
X016839Y017022D03*
X017835Y013607D03*
D16*
X017792Y013636D03*
X018788Y014091D03*
X018930Y014205D03*
X018959Y014233D03*
D17*
X017806Y013664D03*
X018006Y017392D03*
X017693Y017506D03*
X014193Y019071D03*
X013595Y019754D03*
D18*
X013481Y020038D03*
X022274Y019924D03*
X017806Y013693D03*
D19*
X017835Y013721D03*
D20*
X017252Y014319D03*
X017223Y014290D03*
X017309Y014433D03*
X017337Y014489D03*
X017337Y014518D03*
X017337Y014603D03*
X017337Y014632D03*
X017365Y014660D03*
X017365Y014689D03*
X017365Y014717D03*
X017365Y014746D03*
X017365Y014774D03*
X017365Y014802D03*
X017365Y014831D03*
X017365Y014859D03*
X017365Y014888D03*
X016939Y014916D03*
X016683Y014660D03*
X016683Y014632D03*
X015487Y015059D03*
X015487Y015087D03*
X015430Y015201D03*
X015402Y015258D03*
X015345Y015457D03*
X015715Y016054D03*
X015715Y016083D03*
X016113Y016367D03*
X016199Y015770D03*
X016882Y015571D03*
X018333Y016140D03*
X018561Y015713D03*
X019784Y015514D03*
X020183Y015542D03*
X022174Y015087D03*
X022829Y015770D03*
X022487Y016766D03*
X021918Y017534D03*
X022374Y017648D03*
X022174Y018160D03*
X021776Y018416D03*
X021776Y018729D03*
X021463Y018644D03*
X021406Y018502D03*
X021349Y018388D03*
X021008Y018473D03*
X020894Y018758D03*
X020752Y018729D03*
X018817Y019725D03*
X018418Y020237D03*
X018390Y020266D03*
X018361Y020294D03*
X018333Y020323D03*
X018077Y020550D03*
X017622Y020807D03*
X018248Y021461D03*
X016540Y020920D03*
X015857Y020664D03*
X015857Y020380D03*
X015857Y019981D03*
X015516Y019611D03*
X014975Y020038D03*
X014207Y020607D03*
X014178Y020664D03*
X014890Y021347D03*
X015487Y021404D03*
X015544Y020721D03*
X014435Y022229D03*
X014406Y022286D03*
X014378Y022315D03*
X013552Y022315D03*
X013552Y022343D03*
X013552Y022372D03*
X013552Y022400D03*
X013552Y022428D03*
X013552Y022457D03*
X013552Y022485D03*
X013552Y022514D03*
X013552Y022542D03*
X013552Y022571D03*
X013012Y022059D03*
X013524Y021660D03*
X013552Y021689D03*
X012130Y020892D03*
X011617Y021575D03*
X010223Y021091D03*
X010451Y020095D03*
X008914Y019099D03*
X008487Y019640D03*
X011447Y018587D03*
X012386Y018132D03*
X012158Y017534D03*
X012272Y017449D03*
X013638Y017648D03*
X013752Y017221D03*
X014292Y016908D03*
X014605Y017676D03*
X015260Y017819D03*
X015516Y017250D03*
X017678Y017136D03*
X017735Y017079D03*
X017906Y016794D03*
X016825Y013750D03*
X009483Y017420D03*
X008914Y017477D03*
X008886Y017506D03*
D21*
X013410Y020124D03*
X014634Y018900D03*
X016483Y017136D03*
X017792Y017477D03*
X022288Y020010D03*
X018077Y013750D03*
D22*
X017095Y014176D03*
X016782Y013778D03*
X016099Y014262D03*
X016071Y014290D03*
X014790Y016197D03*
X014306Y016567D03*
X013965Y016766D03*
X013851Y017164D03*
X013823Y017193D03*
X013709Y017591D03*
X012713Y017563D03*
X012685Y017591D03*
X012685Y017620D03*
X012571Y017819D03*
X012514Y017933D03*
X010778Y018729D03*
X012656Y019981D03*
X013680Y020437D03*
X012969Y020949D03*
X013453Y021945D03*
X013595Y022030D03*
X014193Y022656D03*
X014164Y022685D03*
X013737Y023083D03*
X014961Y022002D03*
X015018Y021973D03*
X015445Y021376D03*
X015473Y020465D03*
X015473Y020095D03*
X014933Y020095D03*
X014847Y019725D03*
X014876Y019697D03*
X014961Y019640D03*
X014989Y019611D03*
X017266Y020351D03*
X017380Y020408D03*
X017636Y020522D03*
X018148Y020977D03*
X021079Y019298D03*
X021079Y019270D03*
X021107Y019327D03*
X021050Y019213D03*
X021022Y019128D03*
X020993Y019042D03*
X020993Y019014D03*
X020993Y018985D03*
X020993Y018957D03*
X020993Y018928D03*
X020965Y018587D03*
X021392Y018729D03*
X022274Y018274D03*
X022018Y017477D03*
X022729Y016709D03*
X023156Y017136D03*
X023640Y019213D03*
X023640Y019241D03*
X019628Y016709D03*
X020111Y015998D03*
X020254Y015428D03*
X018660Y016339D03*
X016583Y017420D03*
X015701Y017050D03*
X015559Y017307D03*
X015416Y016510D03*
X008445Y019355D03*
D23*
X013552Y019782D03*
X016597Y017876D03*
X016483Y017164D03*
X019243Y015059D03*
X018162Y013778D03*
D24*
X016796Y013807D03*
X016284Y014148D03*
X019272Y016311D03*
X019300Y016282D03*
X019243Y016367D03*
X019784Y016567D03*
X019813Y016538D03*
X018959Y016652D03*
X018930Y016680D03*
X021491Y018843D03*
X023085Y018985D03*
X017963Y020750D03*
X017593Y020465D03*
X013638Y020380D03*
X013183Y020493D03*
X014008Y017790D03*
X013865Y017506D03*
X009996Y017420D03*
X009483Y017193D03*
D25*
X014648Y018872D03*
X017437Y019640D03*
X017067Y016567D03*
X018717Y014034D03*
X018660Y014006D03*
X018632Y013977D03*
X018575Y013949D03*
X018518Y013920D03*
X018461Y013892D03*
X018347Y013835D03*
X018290Y013807D03*
X022274Y020038D03*
D26*
X021804Y019241D03*
X022374Y018786D03*
X022374Y018729D03*
X022061Y018473D03*
X022288Y017733D03*
X024536Y017876D03*
X022857Y015002D03*
X018703Y016794D03*
X017935Y014945D03*
X016825Y013835D03*
X010337Y017193D03*
X010707Y019526D03*
X013695Y022087D03*
X015630Y019782D03*
D27*
X015231Y020579D03*
X011020Y018217D03*
X009825Y018815D03*
X009199Y019924D03*
X015800Y016880D03*
X016512Y017363D03*
X018817Y015599D03*
X016825Y013863D03*
X022516Y017221D03*
X022687Y017022D03*
X023142Y016851D03*
X024565Y017762D03*
X022943Y019241D03*
X022203Y018615D03*
D28*
X017252Y017676D03*
X016483Y017193D03*
X013524Y019811D03*
X019044Y014347D03*
X019073Y014376D03*
X019016Y014290D03*
X018902Y014176D03*
X018874Y014148D03*
X018760Y014063D03*
X018418Y013863D03*
D29*
X016867Y013892D03*
X016498Y017335D03*
X017977Y017193D03*
X017465Y019469D03*
X015587Y019867D03*
X014022Y019128D03*
X013567Y019469D03*
X013453Y019924D03*
X013453Y019953D03*
X011091Y018046D03*
X010892Y017392D03*
X010067Y018388D03*
X010038Y018416D03*
X010038Y018445D03*
X009754Y019042D03*
X009754Y019071D03*
X009469Y019640D03*
X013766Y022884D03*
X021591Y019754D03*
X021762Y018928D03*
X022872Y019355D03*
X023554Y017961D03*
X023554Y017933D03*
X023526Y017819D03*
X023526Y017790D03*
X023498Y017762D03*
X023498Y017733D03*
X023469Y017676D03*
X023469Y017648D03*
X023441Y017620D03*
X023412Y017591D03*
X022530Y017278D03*
X024209Y017193D03*
X024294Y017250D03*
X024323Y017278D03*
X024351Y017307D03*
X024380Y017335D03*
X022359Y014746D03*
D30*
X019428Y015372D03*
X017750Y015428D03*
X017750Y015457D03*
X017721Y015514D03*
X017721Y015542D03*
X015900Y016794D03*
X016498Y017307D03*
X014876Y019384D03*
X013908Y019298D03*
X013538Y019896D03*
X011063Y017506D03*
X009697Y019156D03*
X016640Y014091D03*
X016867Y013920D03*
X023640Y018160D03*
X023498Y018701D03*
X023498Y018729D03*
X023469Y018758D03*
X022815Y019412D03*
X022815Y019782D03*
X023782Y016965D03*
X017636Y019924D03*
D31*
X016981Y016937D03*
X017465Y016168D03*
X017465Y016140D03*
X017493Y016111D03*
X019087Y015884D03*
X019628Y016026D03*
X019628Y016054D03*
X020111Y015229D03*
X016896Y013949D03*
X011205Y017620D03*
X011233Y017933D03*
X010124Y018615D03*
X009185Y019811D03*
X013339Y020237D03*
X022274Y020124D03*
X022701Y019867D03*
D32*
X016512Y017250D03*
X014691Y018815D03*
X016910Y013977D03*
D33*
X016910Y014006D03*
X019158Y014746D03*
X019158Y014774D03*
X020951Y015059D03*
X016483Y017221D03*
D34*
X017124Y016538D03*
X019457Y015855D03*
X019115Y014546D03*
X019115Y014518D03*
X019087Y014433D03*
X018973Y014262D03*
X018831Y014120D03*
X016924Y014034D03*
X013481Y019839D03*
D35*
X016626Y014063D03*
D36*
X017536Y014063D03*
X017565Y014091D03*
X014235Y016624D03*
X013894Y017136D03*
X015345Y019014D03*
X010963Y018985D03*
X014235Y022400D03*
X014235Y022428D03*
X014235Y022457D03*
X014235Y022485D03*
X014235Y022514D03*
X023370Y017278D03*
X023683Y019042D03*
X023683Y019071D03*
D37*
X022288Y020152D03*
X019613Y016197D03*
X019613Y016168D03*
X019613Y016140D03*
X019613Y016111D03*
X017593Y015912D03*
X016626Y014120D03*
X009626Y019270D03*
X013524Y022115D03*
D38*
X014463Y022115D03*
X012898Y020209D03*
X012642Y019896D03*
X013752Y017563D03*
X015174Y015912D03*
X017024Y014148D03*
X017622Y014120D03*
X018617Y015457D03*
X019386Y016908D03*
X019243Y016993D03*
X016398Y017989D03*
X016426Y019896D03*
X018617Y020124D03*
X021178Y019412D03*
X023142Y018815D03*
X023142Y018786D03*
X023284Y015628D03*
X023284Y015599D03*
X023284Y015571D03*
X009512Y017164D03*
D39*
X009867Y017335D03*
X011319Y018644D03*
X010579Y019754D03*
X013794Y020209D03*
X014306Y019981D03*
X015416Y020067D03*
X015985Y020266D03*
X016554Y020408D03*
X017607Y020493D03*
X017522Y019441D03*
X015644Y017392D03*
X015473Y016567D03*
X014107Y016709D03*
X014107Y017022D03*
X013937Y017107D03*
X014050Y017392D03*
X013652Y018018D03*
X018660Y015485D03*
X019912Y016311D03*
X019912Y016339D03*
X019912Y016367D03*
X019685Y016652D03*
X019201Y017022D03*
X019172Y017050D03*
X019115Y017079D03*
X021961Y018075D03*
X022644Y018046D03*
X022644Y018018D03*
X023412Y017307D03*
X023156Y015827D03*
X023270Y015542D03*
X023270Y015514D03*
X023270Y015485D03*
X023241Y015400D03*
X023128Y018843D03*
X023128Y018872D03*
X023697Y018985D03*
X023697Y019014D03*
X021819Y019327D03*
X021193Y019441D03*
X014250Y022372D03*
X017664Y014148D03*
D40*
X016213Y014176D03*
X015445Y016538D03*
X014136Y016993D03*
X011091Y018416D03*
X011148Y018900D03*
X010750Y019640D03*
X010607Y019782D03*
X013225Y020522D03*
X014335Y020294D03*
X014392Y019953D03*
X014449Y019924D03*
X015957Y020294D03*
X015957Y020607D03*
X017863Y019782D03*
X018063Y020778D03*
X021136Y019384D03*
X022246Y018388D03*
X022160Y017392D03*
X023327Y017250D03*
X024408Y018018D03*
X023668Y019099D03*
X023668Y019128D03*
X019315Y016937D03*
X019286Y016965D03*
X023270Y015656D03*
X013424Y021916D03*
X014221Y022542D03*
X014221Y022571D03*
X009839Y017307D03*
D41*
X009910Y017363D03*
X011304Y018672D03*
X011304Y018701D03*
X011276Y018729D03*
X011105Y018872D03*
X010906Y019441D03*
X010878Y019469D03*
X010735Y019611D03*
X010593Y019725D03*
X008601Y019583D03*
X013752Y023054D03*
X014292Y020323D03*
X015402Y020038D03*
X014093Y017762D03*
X014065Y017050D03*
X014178Y016680D03*
X014207Y016652D03*
X017678Y014176D03*
X018646Y015628D03*
X019926Y016254D03*
X019926Y016282D03*
X019898Y016396D03*
X019898Y016424D03*
X019727Y016624D03*
X019158Y016481D03*
X019130Y016510D03*
X022630Y017989D03*
X022658Y018075D03*
X022658Y018103D03*
X022886Y017420D03*
X023426Y017335D03*
X023455Y017363D03*
X024451Y017989D03*
X023711Y018900D03*
X023711Y018928D03*
X023711Y018957D03*
X023113Y018928D03*
X023113Y018900D03*
X023256Y015457D03*
X023256Y015428D03*
X023227Y015372D03*
D42*
X022388Y014689D03*
X019656Y016680D03*
X022217Y018445D03*
X023298Y017221D03*
X018632Y020095D03*
X016611Y020380D03*
X016811Y018132D03*
X015615Y017363D03*
X012628Y019924D03*
X012827Y020152D03*
X008473Y019384D03*
X016185Y014205D03*
D43*
X015914Y014433D03*
X015886Y014461D03*
X015829Y014518D03*
X015715Y014689D03*
X015687Y014717D03*
X015658Y014774D03*
X015601Y014859D03*
X015573Y014916D03*
X015516Y015002D03*
X015288Y015685D03*
X015288Y015713D03*
X015288Y015969D03*
X015288Y015998D03*
X015288Y016026D03*
X015288Y016054D03*
X015288Y016083D03*
X015288Y016111D03*
X015317Y016225D03*
X015715Y015998D03*
X016142Y016311D03*
X016199Y015741D03*
X016170Y015656D03*
X016170Y015628D03*
X016426Y015087D03*
X016910Y014973D03*
X016882Y015514D03*
X017138Y014205D03*
X019898Y015628D03*
X020069Y015457D03*
X020154Y015912D03*
X019528Y016766D03*
X019926Y016908D03*
X021008Y018502D03*
X020951Y018786D03*
X019414Y019697D03*
X018048Y020636D03*
X018134Y020835D03*
X018162Y020863D03*
X018162Y020892D03*
X017650Y020550D03*
X018248Y021433D03*
X015516Y020408D03*
X014947Y020067D03*
X014178Y020693D03*
X014178Y020721D03*
X014150Y020778D03*
X014150Y020807D03*
X014150Y020835D03*
X014150Y020863D03*
X014947Y021034D03*
X014947Y021063D03*
X014947Y021091D03*
X014947Y021120D03*
X014918Y021148D03*
X014918Y021176D03*
X014918Y021205D03*
X014918Y021233D03*
X013069Y022087D03*
X013183Y022428D03*
X013183Y022457D03*
X013211Y022542D03*
X013211Y022571D03*
X011504Y021546D03*
X011418Y021433D03*
X010935Y021433D03*
X012727Y020465D03*
X012756Y019412D03*
X012813Y019384D03*
X013268Y019156D03*
X013325Y019128D03*
X012443Y018075D03*
X012215Y017506D03*
X012784Y017449D03*
X012813Y017420D03*
X013524Y016652D03*
X013894Y016823D03*
X014349Y016538D03*
X015573Y016965D03*
X015601Y016993D03*
X015630Y017022D03*
X014890Y017620D03*
X014122Y017705D03*
X017650Y017164D03*
X022032Y017449D03*
X022061Y017420D03*
X022829Y016794D03*
X023170Y015912D03*
X022117Y015059D03*
X022772Y018132D03*
X022772Y018160D03*
X022800Y018217D03*
X022516Y018928D03*
X022516Y018957D03*
X022487Y018985D03*
X023597Y019384D03*
X010821Y019412D03*
X010479Y019099D03*
X010536Y019981D03*
X010508Y020010D03*
X008374Y019270D03*
D44*
X009241Y017307D03*
X014904Y020124D03*
X019201Y016424D03*
X019884Y016453D03*
X017693Y014205D03*
X023185Y015315D03*
X023498Y017420D03*
X021221Y019469D03*
D45*
X021122Y019355D03*
X021008Y019071D03*
X021833Y019355D03*
X021719Y019782D03*
X023654Y019185D03*
X023654Y019156D03*
X022231Y018416D03*
X022260Y018359D03*
X022260Y018331D03*
X022260Y018302D03*
X022288Y018246D03*
X022288Y018217D03*
X022288Y018189D03*
X022032Y018103D03*
X021890Y017620D03*
X022971Y017477D03*
X023256Y017193D03*
X024365Y018046D03*
X023170Y015855D03*
X023227Y015770D03*
X023227Y015741D03*
X023256Y015713D03*
X023256Y015685D03*
X019357Y015457D03*
X019471Y016851D03*
X016597Y018302D03*
X015573Y017335D03*
X015402Y016481D03*
X015203Y015884D03*
X014264Y016595D03*
X014008Y016737D03*
X014178Y016965D03*
X014122Y017363D03*
X014093Y017733D03*
X013638Y018046D03*
X012670Y017648D03*
X012613Y017733D03*
X012613Y017762D03*
X012585Y017790D03*
X012557Y017847D03*
X010764Y019668D03*
X009284Y020010D03*
X008943Y019384D03*
X013695Y020408D03*
X014349Y020380D03*
X014520Y019896D03*
X014577Y019867D03*
X014634Y019839D03*
X014691Y019811D03*
X014748Y019782D03*
X014804Y019754D03*
X015374Y019042D03*
X015943Y020323D03*
X016683Y020351D03*
X018162Y021006D03*
X018162Y021034D03*
X018589Y020152D03*
X014890Y022030D03*
X014207Y022599D03*
X014207Y022628D03*
X016142Y014233D03*
D46*
X015743Y014632D03*
X015544Y014973D03*
X017166Y014233D03*
X015544Y017278D03*
X017878Y020351D03*
X022146Y018872D03*
D47*
X022473Y019014D03*
X021819Y018445D03*
X022132Y018132D03*
X022786Y018189D03*
X022815Y018246D03*
X021904Y017563D03*
X022843Y016823D03*
X022815Y016766D03*
X022815Y016737D03*
X022729Y016652D03*
X023128Y015998D03*
X023128Y015969D03*
X023156Y015941D03*
X021705Y015144D03*
X020737Y015485D03*
X019400Y015685D03*
X018546Y015685D03*
X018518Y015798D03*
X018518Y015400D03*
X016924Y015059D03*
X016924Y014945D03*
X016867Y015542D03*
X016156Y016225D03*
X016156Y016254D03*
X016156Y016282D03*
X016128Y016339D03*
X015701Y016026D03*
X015786Y015741D03*
X015302Y015656D03*
X015302Y015628D03*
X015302Y015599D03*
X015302Y015571D03*
X015331Y015514D03*
X015331Y015485D03*
X015359Y015428D03*
X015359Y015400D03*
X015359Y015372D03*
X015388Y015343D03*
X015388Y015315D03*
X015388Y015286D03*
X015416Y015229D03*
X015445Y015172D03*
X015502Y015030D03*
X015559Y014945D03*
X015587Y014888D03*
X015615Y014831D03*
X015672Y014746D03*
X015274Y015741D03*
X015274Y015770D03*
X015274Y015798D03*
X015274Y015827D03*
X015274Y015855D03*
X015274Y015941D03*
X014193Y017307D03*
X013595Y018103D03*
X012855Y017363D03*
X012827Y017392D03*
X012229Y017477D03*
X012428Y018103D03*
X011433Y018615D03*
X011006Y019014D03*
X011006Y019042D03*
X010977Y019071D03*
X010949Y019099D03*
X010493Y020038D03*
X010180Y021063D03*
X011034Y021461D03*
X013225Y022599D03*
X013567Y022599D03*
X013538Y022002D03*
X013481Y021888D03*
X013567Y021717D03*
X014136Y021034D03*
X014136Y021006D03*
X014136Y020977D03*
X014136Y020949D03*
X014136Y020920D03*
X014136Y020892D03*
X014164Y020750D03*
X014193Y020636D03*
X014989Y020807D03*
X014989Y020835D03*
X014989Y020863D03*
X014989Y020892D03*
X014961Y020920D03*
X014961Y020949D03*
X014961Y020977D03*
X014961Y021006D03*
X014904Y021262D03*
X014904Y021290D03*
X014904Y021319D03*
X015872Y020636D03*
X016014Y019697D03*
X017806Y020408D03*
X017835Y020380D03*
X018120Y020522D03*
X018148Y020493D03*
X018176Y020465D03*
X018205Y020437D03*
X018233Y020408D03*
X018262Y020380D03*
X018461Y020209D03*
X018404Y019811D03*
X017209Y018103D03*
X017778Y017050D03*
X021050Y018644D03*
X021107Y018672D03*
X023583Y019412D03*
X023583Y019441D03*
X017209Y014262D03*
X012713Y019441D03*
X012656Y019469D03*
X012628Y019498D03*
X012599Y019526D03*
X012571Y019554D03*
X012542Y019583D03*
X012514Y019611D03*
X008957Y017449D03*
X008359Y019185D03*
X008359Y019213D03*
X008359Y019241D03*
X008473Y019611D03*
X008502Y019668D03*
X008530Y019697D03*
X014363Y022343D03*
D48*
X013524Y022798D03*
X013496Y022770D03*
X013410Y022656D03*
X013382Y021746D03*
X016056Y020579D03*
X015203Y019213D03*
X014776Y018729D03*
X013922Y017847D03*
X013894Y017876D03*
X013809Y017933D03*
X013752Y017961D03*
X013951Y017449D03*
X015544Y016595D03*
X018276Y016595D03*
X018987Y017164D03*
X021520Y018786D03*
X023056Y019071D03*
X022374Y017790D03*
X023597Y017563D03*
X023085Y015172D03*
X023056Y015144D03*
X017821Y014404D03*
X017792Y014347D03*
X017764Y014290D03*
X011048Y018843D03*
X010707Y019241D03*
X010166Y017733D03*
X010166Y017705D03*
X010138Y017648D03*
X010138Y017620D03*
X010109Y017591D03*
X010081Y017534D03*
X010052Y017506D03*
X010052Y017477D03*
X010024Y017449D03*
X009227Y017363D03*
X008630Y019526D03*
D49*
X008430Y019327D03*
X010508Y018900D03*
X010735Y018701D03*
X010821Y019355D03*
X010650Y019811D03*
X010593Y019896D03*
X010963Y021290D03*
X011048Y021319D03*
X011134Y021489D03*
X011361Y021404D03*
X012870Y021945D03*
X013154Y022315D03*
X015260Y021831D03*
X015288Y021802D03*
X015317Y021774D03*
X015345Y021746D03*
X015430Y021660D03*
X015459Y021632D03*
X015487Y021603D03*
X015516Y021575D03*
X015544Y021546D03*
X015544Y021518D03*
X015573Y021489D03*
X016683Y020323D03*
X016654Y020294D03*
X016626Y020266D03*
X016455Y019867D03*
X018105Y020807D03*
X018162Y020949D03*
X021292Y019782D03*
X021406Y019896D03*
X021036Y019185D03*
X021036Y019156D03*
X021008Y019099D03*
X021008Y018900D03*
X022117Y018900D03*
X022146Y018843D03*
X023056Y017563D03*
X020126Y015969D03*
X019471Y015713D03*
X018561Y015428D03*
X016939Y015030D03*
X016939Y015002D03*
X016227Y015685D03*
X015345Y016311D03*
X015345Y016339D03*
X015345Y016367D03*
X014833Y016168D03*
X014150Y017335D03*
X013695Y017620D03*
X012727Y017534D03*
X012500Y017961D03*
X012500Y017989D03*
X012471Y018018D03*
X013097Y019241D03*
X013211Y019185D03*
X012983Y019298D03*
X014918Y019668D03*
X019471Y016823D03*
X019500Y016794D03*
X019585Y016737D03*
X020496Y015372D03*
X016028Y014319D03*
D50*
X016256Y014774D03*
X016227Y014888D03*
X016227Y014916D03*
X016341Y015286D03*
X016256Y015428D03*
X016256Y015457D03*
X016199Y015571D03*
X015857Y015713D03*
X015687Y015599D03*
X015687Y015571D03*
X015829Y015428D03*
X015630Y015855D03*
X015630Y015884D03*
X015630Y015912D03*
X015630Y015941D03*
X015630Y015969D03*
X015829Y015969D03*
X016142Y015998D03*
X016483Y016197D03*
X016597Y016083D03*
X016569Y015798D03*
X016000Y016453D03*
X015487Y017136D03*
X015487Y017164D03*
X015317Y017904D03*
X016142Y018132D03*
X016170Y018217D03*
X018077Y017876D03*
X017849Y016851D03*
X018703Y016453D03*
X018731Y016424D03*
X018760Y016396D03*
X018760Y016367D03*
X018760Y016111D03*
X018760Y016083D03*
X018475Y015770D03*
X018504Y015741D03*
X019386Y015514D03*
X019471Y015542D03*
X019528Y015571D03*
X019585Y015599D03*
X019642Y015628D03*
X019841Y015884D03*
X020809Y015457D03*
X021378Y016282D03*
X021435Y016254D03*
X022317Y016424D03*
X022430Y016851D03*
X022772Y016510D03*
X022743Y016197D03*
X022772Y016140D03*
X023000Y016140D03*
X022544Y015571D03*
X022430Y015315D03*
X022117Y015514D03*
X019955Y016937D03*
X019727Y017022D03*
X021264Y018160D03*
X021491Y017904D03*
X021605Y017790D03*
X021719Y017876D03*
X021634Y018189D03*
X021662Y018246D03*
X022146Y017506D03*
X022715Y018274D03*
X022743Y018416D03*
X021833Y019384D03*
X020353Y019042D03*
X020325Y019071D03*
X020012Y019128D03*
X019926Y019185D03*
X019898Y019412D03*
X019813Y019469D03*
X019727Y019526D03*
X019585Y019640D03*
X019386Y019668D03*
X019414Y019754D03*
X019357Y019782D03*
X019300Y019811D03*
X019272Y019839D03*
X019215Y019867D03*
X019243Y019725D03*
X019272Y019583D03*
X019585Y019384D03*
X019642Y019355D03*
X018333Y019583D03*
X017451Y020636D03*
X016910Y020977D03*
X018048Y021120D03*
X018048Y021148D03*
X018048Y021176D03*
X018077Y021262D03*
X018077Y021290D03*
X018105Y021319D03*
X018276Y021518D03*
X015800Y021319D03*
X015800Y021290D03*
X015573Y020778D03*
X015288Y020750D03*
X015288Y020721D03*
X015288Y020807D03*
X015231Y021034D03*
X014947Y020750D03*
X015800Y020437D03*
X015516Y019640D03*
X016341Y019554D03*
X013609Y020493D03*
X013581Y020579D03*
X013609Y020750D03*
X013439Y021376D03*
X014008Y021603D03*
X014036Y021632D03*
X014235Y022002D03*
X014292Y022030D03*
X014036Y022144D03*
X014292Y022713D03*
X014264Y022798D03*
X012955Y021916D03*
X012955Y021888D03*
X012955Y021859D03*
X012642Y021034D03*
X012500Y021063D03*
X012443Y021091D03*
X012386Y021120D03*
X012016Y020949D03*
X011646Y021233D03*
X011817Y021404D03*
X010451Y021233D03*
X010422Y021205D03*
X010166Y020579D03*
X010052Y020636D03*
X010280Y020351D03*
X010309Y020323D03*
X010309Y020294D03*
X010394Y020209D03*
X011134Y019355D03*
X011304Y019128D03*
X011304Y019099D03*
X011219Y018530D03*
X011219Y018502D03*
X011589Y018331D03*
X011617Y018274D03*
X011788Y017961D03*
X011959Y017989D03*
X011959Y018018D03*
X011959Y017620D03*
X012813Y018331D03*
X012357Y018587D03*
X010394Y018843D03*
X009370Y018473D03*
X009398Y018331D03*
X009000Y018530D03*
X008971Y018587D03*
X009199Y018786D03*
X009199Y018815D03*
X008573Y018872D03*
X008573Y018900D03*
X008573Y018928D03*
X008345Y018644D03*
X008345Y018615D03*
X008345Y018559D03*
X008345Y018530D03*
X008345Y018502D03*
X008374Y018445D03*
X008374Y018416D03*
X008374Y018388D03*
X008402Y018359D03*
X008402Y018331D03*
X008516Y018046D03*
X008544Y017989D03*
X008573Y017961D03*
X008601Y017904D03*
X008601Y017876D03*
X008630Y017847D03*
X008630Y017819D03*
X008658Y017790D03*
X008687Y017762D03*
X008715Y017705D03*
X008743Y017676D03*
X009398Y017933D03*
X009398Y017961D03*
X009398Y017989D03*
X009683Y017847D03*
X009683Y017819D03*
X009683Y017790D03*
X009683Y017762D03*
X009654Y017705D03*
X009626Y017620D03*
X009597Y017563D03*
X013581Y016567D03*
X013695Y016510D03*
X013723Y016595D03*
X013780Y016567D03*
X014122Y016424D03*
X014178Y016396D03*
X014349Y016339D03*
X014406Y016311D03*
X015004Y016054D03*
X016996Y014802D03*
X016683Y014319D03*
D51*
X017778Y014319D03*
X023099Y015201D03*
X023583Y017534D03*
D52*
X019201Y015030D03*
X019030Y014319D03*
X017351Y016766D03*
X014221Y019042D03*
X015928Y019839D03*
D53*
X014378Y020266D03*
X014378Y020408D03*
X013040Y019270D03*
X010622Y019839D03*
X012756Y017506D03*
X015374Y016424D03*
X015374Y016396D03*
X015402Y017876D03*
X018532Y020180D03*
X018020Y020664D03*
X018219Y021347D03*
X018219Y021376D03*
X015402Y021689D03*
X015374Y021717D03*
X015174Y021888D03*
X015089Y021945D03*
X021065Y019241D03*
X020979Y018559D03*
X021890Y017591D03*
X023028Y017534D03*
X023626Y019270D03*
X023626Y019298D03*
X016000Y014347D03*
D54*
X016128Y014603D03*
X015985Y014746D03*
X015985Y014916D03*
X015815Y015087D03*
X016611Y014347D03*
X017124Y014746D03*
X017124Y014774D03*
X017124Y014802D03*
X017124Y014916D03*
X017124Y014945D03*
X017124Y014973D03*
X015985Y016111D03*
X015985Y016140D03*
X013652Y017278D03*
X013339Y018103D03*
X012315Y017591D03*
X012315Y017563D03*
X012144Y018672D03*
X012144Y018701D03*
X011319Y019441D03*
X012144Y020124D03*
X012315Y020124D03*
X012969Y020636D03*
X012656Y021120D03*
X012144Y020835D03*
X013140Y021859D03*
X013652Y021262D03*
X013652Y021233D03*
X013652Y021205D03*
X015302Y021148D03*
X015473Y020863D03*
X015985Y021176D03*
X015815Y019583D03*
X015473Y019526D03*
X016611Y019498D03*
X018120Y017847D03*
X019941Y016965D03*
X020282Y016823D03*
X020595Y016652D03*
X022274Y016367D03*
X022416Y016538D03*
X022416Y016624D03*
X022615Y015798D03*
X022786Y015827D03*
X022786Y015656D03*
X022615Y017477D03*
X022615Y017620D03*
X022615Y017648D03*
X021278Y018359D03*
X021107Y018274D03*
X020453Y018758D03*
X010493Y020380D03*
X010323Y020664D03*
X010323Y020693D03*
X009014Y020010D03*
X008502Y018729D03*
D55*
X009028Y018502D03*
X009170Y018872D03*
X010479Y020408D03*
X010337Y020721D03*
X010024Y021034D03*
X009996Y021006D03*
X011646Y021205D03*
X011845Y021376D03*
X011959Y021006D03*
X012272Y020750D03*
X012300Y020721D03*
X012329Y020693D03*
X012471Y020807D03*
X012329Y020351D03*
X012329Y020152D03*
X013126Y020579D03*
X013780Y020522D03*
X013780Y020493D03*
X014178Y020522D03*
X013638Y021148D03*
X013638Y021176D03*
X013951Y021546D03*
X014178Y021233D03*
X014776Y021802D03*
X015317Y021233D03*
X015317Y021176D03*
X015317Y021120D03*
X015430Y021034D03*
X015430Y021006D03*
X015317Y020949D03*
X015772Y020721D03*
X016825Y020778D03*
X016939Y020721D03*
X016996Y020693D03*
X016113Y019668D03*
X016000Y019526D03*
X015800Y019554D03*
X015772Y019526D03*
X015658Y019469D03*
X015601Y019583D03*
X015459Y019583D03*
X015459Y019554D03*
X017309Y018160D03*
X017792Y017961D03*
X018134Y016424D03*
X018134Y016396D03*
X016796Y015372D03*
X016597Y014859D03*
X016597Y014831D03*
X016796Y014603D03*
X016825Y014376D03*
X016796Y014347D03*
X016313Y014717D03*
X015971Y014888D03*
X015800Y015457D03*
X015800Y015485D03*
X016142Y015969D03*
X015004Y016111D03*
X015004Y016140D03*
X014947Y016225D03*
X014947Y016254D03*
X014804Y016225D03*
X014491Y016453D03*
X014178Y016254D03*
X013979Y016367D03*
X013325Y016709D03*
X012983Y016908D03*
X012841Y016993D03*
X012813Y017022D03*
X012642Y017136D03*
X012471Y017250D03*
X012329Y017335D03*
X012300Y017363D03*
X012272Y017392D03*
X012158Y017591D03*
X012158Y017620D03*
X012158Y017819D03*
X012130Y017847D03*
X011845Y018217D03*
X011845Y018246D03*
X011845Y018274D03*
X012016Y018786D03*
X011333Y018928D03*
X011333Y018957D03*
X011304Y019611D03*
X012670Y018388D03*
X013780Y016908D03*
X018817Y019981D03*
X018817Y020067D03*
X018959Y020038D03*
X019073Y019811D03*
X019443Y019611D03*
X019756Y019384D03*
X019784Y019355D03*
X020126Y019042D03*
X020154Y019014D03*
X020752Y018644D03*
X020780Y018615D03*
X021150Y018246D03*
X021292Y018103D03*
X021406Y017989D03*
X021605Y018075D03*
X021605Y018103D03*
X021406Y018359D03*
X022601Y017591D03*
X022601Y017563D03*
X022601Y017506D03*
X022402Y016595D03*
X022402Y016567D03*
X022402Y016510D03*
X022914Y016282D03*
X022914Y016254D03*
X022943Y016225D03*
X022971Y016168D03*
X022800Y015884D03*
X022800Y015855D03*
X022800Y015685D03*
X022772Y015628D03*
X022601Y015741D03*
X022601Y015770D03*
X022573Y015713D03*
X022117Y015485D03*
X022601Y015400D03*
X022630Y015428D03*
X022288Y015115D03*
X021975Y016054D03*
X022089Y016140D03*
X021463Y016225D03*
X020951Y016481D03*
X020780Y016567D03*
X020581Y015770D03*
X020581Y015741D03*
X019585Y017107D03*
X013837Y021945D03*
X012016Y021689D03*
D56*
X012998Y022030D03*
X014136Y021176D03*
X014136Y021148D03*
X014193Y020579D03*
X014449Y020465D03*
X014449Y020209D03*
X013624Y020607D03*
X013624Y020636D03*
X012514Y019867D03*
X012485Y019811D03*
X012485Y019782D03*
X011489Y018530D03*
X012372Y018160D03*
X012115Y017563D03*
X009526Y017449D03*
X008331Y018957D03*
X008331Y018985D03*
X008331Y019014D03*
X008331Y019042D03*
X008331Y019071D03*
X014449Y022144D03*
X014449Y022172D03*
X014449Y022201D03*
X015843Y021233D03*
X015957Y021205D03*
X016156Y021176D03*
X016469Y021091D03*
X016469Y020949D03*
X017465Y020835D03*
X018262Y021063D03*
X018262Y021091D03*
X018290Y021148D03*
X018290Y021176D03*
X018489Y019867D03*
X018461Y019839D03*
X018802Y019697D03*
X018120Y019526D03*
X019741Y019327D03*
X021449Y018615D03*
X021449Y018587D03*
X021420Y018530D03*
X021762Y018388D03*
X021819Y018672D03*
X022416Y019071D03*
X023554Y019498D03*
X023554Y019526D03*
X021933Y017506D03*
X022758Y016595D03*
X023071Y016054D03*
X020965Y015286D03*
X019315Y015656D03*
X019229Y015628D03*
X018319Y016083D03*
X018319Y016111D03*
X018603Y016510D03*
X016953Y015315D03*
X016441Y015059D03*
X016953Y014888D03*
X016668Y014689D03*
X017294Y014404D03*
X017266Y014347D03*
X016668Y015969D03*
X016156Y016197D03*
X014961Y016083D03*
X014620Y016225D03*
X015331Y017705D03*
D57*
X014534Y017705D03*
X014221Y016937D03*
X015331Y016282D03*
X015331Y016254D03*
X015302Y016197D03*
X015302Y016168D03*
X015302Y016140D03*
X015729Y014660D03*
X015758Y014603D03*
X015843Y014489D03*
X015957Y014404D03*
X015957Y014376D03*
X019798Y015656D03*
X020624Y015343D03*
X017380Y018075D03*
X018376Y019782D03*
X017294Y020380D03*
X018176Y020920D03*
X015559Y020124D03*
X012998Y020920D03*
X011262Y021518D03*
X013197Y022485D03*
X013197Y022514D03*
X015132Y021916D03*
X012912Y019327D03*
X013595Y018075D03*
X011148Y018445D03*
X010579Y019924D03*
X010550Y019953D03*
X021022Y018615D03*
X021335Y019839D03*
D58*
X023455Y019754D03*
X019699Y017136D03*
X019756Y017107D03*
X019756Y017079D03*
X020325Y016794D03*
X021861Y015798D03*
X021918Y015713D03*
X021975Y015628D03*
X022004Y015599D03*
X022004Y015571D03*
X022117Y015685D03*
X022117Y015713D03*
X022117Y015741D03*
X022032Y015798D03*
X022687Y015969D03*
X022231Y016311D03*
X022317Y016510D03*
X022402Y016680D03*
X023569Y016823D03*
X024252Y016937D03*
X022743Y015571D03*
X021378Y014831D03*
X020922Y015514D03*
X020894Y015542D03*
X020780Y015628D03*
X020780Y015656D03*
X020552Y015599D03*
X020524Y015571D03*
X020325Y015457D03*
X018475Y015827D03*
X018390Y015827D03*
X018504Y016083D03*
X017052Y015400D03*
X017052Y015372D03*
X017052Y015343D03*
X016967Y015087D03*
X017138Y014888D03*
X017138Y014859D03*
X017138Y014831D03*
X016882Y014404D03*
X016597Y014376D03*
X016569Y014489D03*
X016569Y014546D03*
X016398Y014546D03*
X016370Y014632D03*
X016370Y014660D03*
X016341Y014689D03*
X016170Y014546D03*
X016199Y014518D03*
X016142Y014575D03*
X016085Y014632D03*
X016056Y014660D03*
X016028Y014689D03*
X015857Y015115D03*
X015715Y015201D03*
X015715Y015229D03*
X015687Y015258D03*
X015687Y015286D03*
X015687Y015315D03*
X015658Y015372D03*
X015658Y015400D03*
X015630Y015485D03*
X015630Y015514D03*
X015658Y015656D03*
X015601Y015798D03*
X015601Y015827D03*
X015914Y015827D03*
X015914Y015855D03*
X016199Y016026D03*
X016426Y016054D03*
X016426Y016083D03*
X016426Y016111D03*
X016426Y016140D03*
X016426Y016168D03*
X016455Y016254D03*
X016540Y015770D03*
X016426Y015571D03*
X016426Y015542D03*
X016426Y015514D03*
X016199Y015485D03*
X016170Y015514D03*
X016113Y015315D03*
X016142Y015286D03*
X016199Y015201D03*
X016540Y015315D03*
X016597Y014888D03*
X015032Y016026D03*
X015886Y016339D03*
X015203Y017790D03*
X015601Y017989D03*
X016796Y017989D03*
X016996Y018274D03*
X017081Y018246D03*
X017365Y018132D03*
X017878Y017904D03*
X018077Y017933D03*
X016455Y019498D03*
X017024Y019526D03*
X015743Y020095D03*
X015459Y020892D03*
X015345Y020892D03*
X015345Y020863D03*
X015231Y020863D03*
X014605Y020664D03*
X014548Y020152D03*
X014207Y021262D03*
X013922Y021489D03*
X013752Y021575D03*
X013809Y021689D03*
X013837Y021717D03*
X013894Y021802D03*
X013922Y021831D03*
X013951Y021859D03*
X014036Y021689D03*
X014122Y021660D03*
X014150Y021689D03*
X014577Y021802D03*
X014890Y021404D03*
X015345Y021461D03*
X014776Y022115D03*
X013695Y021404D03*
X013666Y021347D03*
X013666Y021319D03*
X013666Y021290D03*
X013353Y021973D03*
X012727Y021888D03*
X011959Y021575D03*
X011646Y021603D03*
X011105Y021404D03*
X010935Y021404D03*
X010764Y021262D03*
X010223Y020863D03*
X010223Y020835D03*
X010223Y020664D03*
X010223Y020636D03*
X010337Y020636D03*
X010337Y020607D03*
X010365Y020550D03*
X010394Y020493D03*
X010451Y020550D03*
X010451Y020579D03*
X010422Y020607D03*
X010422Y020636D03*
X010394Y020664D03*
X010479Y020522D03*
X010479Y020493D03*
X010479Y020465D03*
X010536Y020266D03*
X011817Y020124D03*
X011845Y020152D03*
X011845Y020180D03*
X011874Y020209D03*
X011902Y020237D03*
X011930Y020294D03*
X011959Y020351D03*
X012073Y020294D03*
X012073Y020266D03*
X012044Y020237D03*
X012016Y020209D03*
X011987Y020152D03*
X011987Y020124D03*
X011959Y020038D03*
X011930Y019981D03*
X012044Y019981D03*
X012044Y019953D03*
X012073Y020010D03*
X012073Y020038D03*
X012101Y020067D03*
X012101Y020095D03*
X012158Y020152D03*
X012215Y020237D03*
X012243Y020266D03*
X012187Y020380D03*
X012130Y020351D03*
X012101Y020323D03*
X012386Y020209D03*
X012414Y020237D03*
X012443Y020294D03*
X012471Y020323D03*
X012528Y020522D03*
X012699Y020408D03*
X012272Y020067D03*
X012243Y020010D03*
X012243Y019981D03*
X012215Y019953D03*
X012215Y019924D03*
X011817Y020010D03*
X011817Y020038D03*
X011390Y019498D03*
X011390Y019469D03*
X011390Y019441D03*
X011361Y019355D03*
X011504Y019099D03*
X011447Y019014D03*
X011447Y018985D03*
X012187Y018587D03*
X012443Y018530D03*
X012471Y018502D03*
X012500Y018473D03*
X012585Y018445D03*
X012300Y018246D03*
X012044Y017961D03*
X011987Y017847D03*
X012044Y017733D03*
X012073Y017705D03*
X012101Y017676D03*
X012243Y017676D03*
X012329Y017534D03*
X012898Y017250D03*
X013524Y017733D03*
X013382Y018046D03*
X012983Y018274D03*
X011817Y018302D03*
X010565Y018815D03*
X010451Y018815D03*
X009341Y018559D03*
X009057Y018445D03*
X009057Y018416D03*
X009085Y018388D03*
X009085Y018189D03*
X009057Y018132D03*
X008914Y018246D03*
X008886Y018302D03*
X008886Y018331D03*
X008857Y018359D03*
X008857Y018388D03*
X008857Y018416D03*
X008630Y018302D03*
X008601Y018445D03*
X008601Y018473D03*
X008886Y018672D03*
X009142Y018928D03*
X009142Y018957D03*
X009142Y018985D03*
X008516Y018815D03*
X008516Y018786D03*
X009057Y017876D03*
X009085Y017847D03*
X009256Y017819D03*
X009256Y017876D03*
X009256Y017904D03*
X009256Y017933D03*
X009256Y017961D03*
X009256Y017989D03*
X009284Y017762D03*
X009341Y017705D03*
X009370Y017733D03*
X009370Y017762D03*
X009398Y017790D03*
X009455Y017107D03*
X012329Y020835D03*
X012613Y020750D03*
X012670Y020721D03*
X012756Y020721D03*
X012813Y020693D03*
X012784Y021063D03*
X012613Y021063D03*
X011902Y021063D03*
X011902Y021034D03*
X016569Y020863D03*
X016739Y020920D03*
X017622Y020835D03*
X017764Y020607D03*
X018845Y020038D03*
X018930Y020067D03*
X018930Y019811D03*
X018930Y019782D03*
X018731Y019640D03*
D59*
X018788Y019924D03*
X018788Y019953D03*
X018304Y020351D03*
X018276Y021120D03*
X021435Y018559D03*
X022459Y019042D03*
X023569Y019469D03*
X022459Y016908D03*
X022459Y016794D03*
X022743Y016624D03*
X023085Y016026D03*
X020609Y015514D03*
X017280Y014376D03*
X015459Y015115D03*
X015459Y015144D03*
X015317Y015542D03*
X011475Y018559D03*
X012471Y019697D03*
X012471Y019725D03*
X012471Y019754D03*
X012500Y019839D03*
X014122Y021063D03*
X014122Y021091D03*
X014122Y021120D03*
X013496Y021802D03*
X013496Y021831D03*
X013496Y021859D03*
X010479Y020067D03*
X008345Y019156D03*
X008345Y019128D03*
X008345Y019099D03*
D60*
X008615Y019554D03*
X009241Y019981D03*
X013396Y022628D03*
X013424Y022685D03*
X013453Y022713D03*
X013453Y022741D03*
X013766Y023026D03*
X013680Y022059D03*
X014250Y020351D03*
X014933Y020152D03*
X017806Y019811D03*
X021278Y019498D03*
X021790Y019298D03*
X023071Y019042D03*
X023071Y019014D03*
X021876Y018046D03*
X021876Y018018D03*
X021847Y017989D03*
X023554Y017506D03*
X024493Y017961D03*
X023128Y015229D03*
X020054Y015599D03*
X019315Y016254D03*
X018518Y016054D03*
X018689Y015514D03*
X018233Y016624D03*
X018945Y017193D03*
X019030Y017136D03*
X017806Y014376D03*
X013965Y017819D03*
D61*
X013510Y018160D03*
X013367Y018075D03*
X013026Y018246D03*
X012628Y018416D03*
X012172Y018644D03*
X011859Y018189D03*
X011945Y017961D03*
X011945Y017933D03*
X012059Y017933D03*
X012087Y017904D03*
X012115Y017876D03*
X012172Y017790D03*
X012201Y017762D03*
X012201Y017733D03*
X012229Y017705D03*
X012258Y017648D03*
X012286Y017620D03*
X012115Y017648D03*
X012002Y017819D03*
X012372Y017307D03*
X012514Y017221D03*
X013510Y016737D03*
X015672Y015827D03*
X015672Y015713D03*
X015758Y015514D03*
X015644Y015457D03*
X015644Y015428D03*
X015672Y015343D03*
X015872Y015144D03*
X015900Y015172D03*
X016099Y015343D03*
X016099Y015372D03*
X016071Y015400D03*
X016071Y015428D03*
X016042Y015514D03*
X016042Y015542D03*
X016042Y015571D03*
X016042Y015599D03*
X016185Y015542D03*
X016412Y015656D03*
X016441Y015628D03*
X016441Y015599D03*
X016498Y015827D03*
X016469Y015855D03*
X016469Y015884D03*
X016441Y015912D03*
X016441Y015941D03*
X016441Y015969D03*
X016441Y015998D03*
X016441Y016026D03*
X016213Y016054D03*
X016014Y016054D03*
X016014Y016083D03*
X015957Y016168D03*
X015957Y016197D03*
X015928Y016225D03*
X015928Y016254D03*
X015900Y016282D03*
X015900Y016311D03*
X015872Y016367D03*
X015900Y015884D03*
X016185Y015827D03*
X016640Y015827D03*
X016725Y015485D03*
X016725Y015428D03*
X016839Y015343D03*
X016554Y015286D03*
X016554Y015258D03*
X016241Y015144D03*
X016213Y015172D03*
X016185Y015229D03*
X016156Y015258D03*
X016042Y014945D03*
X015957Y014859D03*
X015957Y014831D03*
X015957Y014802D03*
X015957Y014774D03*
X016014Y014717D03*
X016241Y014489D03*
X016384Y014489D03*
X016384Y014518D03*
X016583Y014518D03*
X016583Y014575D03*
X016583Y014603D03*
X016583Y014433D03*
X016583Y014404D03*
X016839Y014575D03*
X016924Y014489D03*
X016924Y014461D03*
X016896Y014433D03*
X018660Y015741D03*
X018660Y015770D03*
X018916Y015798D03*
X018603Y016367D03*
X019599Y017079D03*
X019428Y017221D03*
X020083Y016766D03*
X020111Y016737D03*
X020367Y016766D03*
X020424Y016737D03*
X020652Y016624D03*
X021534Y016140D03*
X021534Y016111D03*
X021648Y016111D03*
X021648Y016140D03*
X021620Y016026D03*
X021733Y016026D03*
X021876Y015770D03*
X021904Y015741D03*
X021933Y015685D03*
X021961Y015656D03*
X022046Y015542D03*
X022132Y015599D03*
X022132Y015628D03*
X022132Y015656D03*
X022160Y015571D03*
X022160Y015542D03*
X022672Y015685D03*
X022701Y015713D03*
X022729Y015741D03*
X022644Y015827D03*
X022644Y015855D03*
X022672Y015884D03*
X022672Y015912D03*
X022672Y015941D03*
X022701Y015998D03*
X022701Y016026D03*
X022701Y016054D03*
X022815Y015912D03*
X022758Y015599D03*
X022701Y015514D03*
X022331Y015201D03*
X022331Y015172D03*
X022302Y015144D03*
X020937Y015485D03*
X020851Y015571D03*
X020823Y015599D03*
X020567Y015628D03*
X020567Y015656D03*
X020567Y015685D03*
X020567Y015798D03*
X020339Y015798D03*
X020339Y015770D03*
X020339Y015741D03*
X020339Y015713D03*
X020339Y015685D03*
X020339Y015656D03*
X020311Y015855D03*
X019855Y015457D03*
X022189Y016225D03*
X022217Y016254D03*
X022217Y016282D03*
X022246Y016339D03*
X022701Y016339D03*
X022388Y016652D03*
X022388Y016709D03*
X022359Y017420D03*
X022359Y017449D03*
X022359Y017477D03*
X022359Y017506D03*
X021363Y018018D03*
X021335Y018189D03*
X021335Y018217D03*
X021363Y018246D03*
X021363Y018274D03*
X021079Y018302D03*
X020424Y018786D03*
X020197Y018985D03*
X019115Y019697D03*
X018916Y019754D03*
X018916Y019839D03*
X018916Y019867D03*
X018774Y019782D03*
X018689Y019811D03*
X018689Y019839D03*
X018689Y019867D03*
X018660Y019782D03*
X018689Y019981D03*
X018689Y020010D03*
X018689Y020038D03*
X018489Y019668D03*
X017209Y020693D03*
X017237Y020750D03*
X016867Y020750D03*
X016782Y020807D03*
X016839Y020892D03*
X015758Y020465D03*
X015502Y020835D03*
X015445Y020920D03*
X015445Y020949D03*
X015445Y020977D03*
X015388Y021063D03*
X015331Y021205D03*
X015274Y021262D03*
X015246Y021290D03*
X015246Y021319D03*
X015189Y020949D03*
X015217Y020920D03*
X015217Y020892D03*
X015246Y020835D03*
X015331Y020835D03*
X015331Y020920D03*
X014933Y020721D03*
X014534Y020493D03*
X013737Y020579D03*
X013595Y020892D03*
X013595Y020920D03*
X013595Y020949D03*
X013595Y020977D03*
X013624Y021063D03*
X013624Y021091D03*
X013624Y021120D03*
X013680Y021376D03*
X013709Y021433D03*
X013709Y021461D03*
X013709Y021489D03*
X013737Y021518D03*
X013737Y021546D03*
X013766Y021603D03*
X013766Y021632D03*
X013794Y021660D03*
X013851Y021746D03*
X013880Y021774D03*
X013993Y021888D03*
X014050Y021916D03*
X014107Y021746D03*
X014022Y021660D03*
X013937Y021518D03*
X013766Y021888D03*
X013794Y021916D03*
X013851Y021973D03*
X013111Y021831D03*
X013083Y021802D03*
X013054Y021774D03*
X012912Y021632D03*
X012372Y021176D03*
X012571Y021148D03*
X012713Y021091D03*
X012941Y021034D03*
X013111Y020977D03*
X013054Y020607D03*
X012884Y020664D03*
X012542Y020493D03*
X012457Y020579D03*
X012428Y020607D03*
X012400Y020636D03*
X012372Y020664D03*
X012400Y020835D03*
X012201Y020807D03*
X012030Y020408D03*
X012002Y020380D03*
X011945Y020323D03*
X011916Y020266D03*
X012002Y020180D03*
X012172Y020180D03*
X012201Y020209D03*
X012258Y020294D03*
X012286Y020323D03*
X012343Y020180D03*
X012286Y020095D03*
X012258Y020038D03*
X011376Y019583D03*
X011290Y019469D03*
X011262Y019498D03*
X011233Y019526D03*
X011205Y019583D03*
X011205Y019611D03*
X011347Y019412D03*
X011347Y019384D03*
X011461Y019241D03*
X011461Y019213D03*
X011489Y019128D03*
X011461Y018957D03*
X011461Y018928D03*
X011461Y018900D03*
X010351Y019014D03*
X010351Y019042D03*
X010294Y019241D03*
X010294Y019270D03*
X010294Y019298D03*
X010294Y019583D03*
X010294Y019611D03*
X010294Y019640D03*
X010237Y019725D03*
X010266Y020266D03*
X010237Y020408D03*
X010237Y020437D03*
X010237Y020465D03*
X010237Y020493D03*
X010237Y020522D03*
X010351Y020579D03*
X010380Y020522D03*
X010408Y020465D03*
X010522Y020351D03*
X010209Y020693D03*
X010209Y020778D03*
X010209Y020807D03*
X010237Y020892D03*
X010237Y020920D03*
X010266Y021006D03*
X010266Y021034D03*
X009981Y020977D03*
X009953Y020920D03*
X009924Y020835D03*
X009924Y020807D03*
X009924Y020778D03*
X011603Y021262D03*
X011746Y021205D03*
X011774Y021176D03*
X011888Y021433D03*
X011888Y021461D03*
X011746Y021489D03*
X014591Y021774D03*
X014819Y021774D03*
X014876Y021746D03*
X015644Y021290D03*
X015701Y020180D03*
X015701Y020152D03*
X015872Y019668D03*
X015872Y019640D03*
X015843Y019611D03*
X015644Y019441D03*
X015559Y019526D03*
X015587Y019554D03*
X015502Y019469D03*
X016327Y019583D03*
X016384Y018189D03*
X016725Y017989D03*
X017237Y018189D03*
X016327Y017420D03*
X015587Y017933D03*
X015587Y017961D03*
X009441Y018302D03*
X009355Y018530D03*
X009213Y018729D03*
X009042Y018473D03*
X008843Y018473D03*
X008843Y018445D03*
X008843Y018502D03*
X008843Y018530D03*
X008843Y018559D03*
X008843Y018587D03*
X008843Y018615D03*
X008615Y018416D03*
X008615Y018388D03*
X008615Y018359D03*
X008615Y018331D03*
X008758Y018132D03*
X008758Y018103D03*
X008786Y018018D03*
X008786Y017989D03*
X008786Y017961D03*
X008815Y017933D03*
X009071Y017819D03*
X009099Y017790D03*
X009099Y017762D03*
X009270Y017790D03*
X009412Y017819D03*
X009412Y017847D03*
X008957Y018189D03*
X008928Y018217D03*
X008928Y018957D03*
X008615Y019071D03*
X008615Y019099D03*
X008530Y018843D03*
X023469Y019725D03*
D62*
X022288Y020067D03*
X017166Y016510D03*
X019130Y014632D03*
X019130Y014603D03*
X019130Y014575D03*
X019101Y014489D03*
X019101Y014461D03*
X019073Y014404D03*
X022231Y014831D03*
D63*
X019542Y016880D03*
X018802Y016737D03*
X018347Y016538D03*
X018319Y016567D03*
X018518Y016197D03*
X018518Y016168D03*
X017892Y014546D03*
X017863Y014489D03*
X017835Y014433D03*
X015758Y016937D03*
X013937Y017477D03*
X011006Y018388D03*
X010180Y017989D03*
X010180Y017961D03*
X010180Y017933D03*
X010180Y017904D03*
X010180Y017876D03*
X010180Y017847D03*
X010180Y017819D03*
X010180Y017790D03*
X010152Y017676D03*
X010095Y017563D03*
X009469Y017221D03*
X010693Y019213D03*
X010693Y019583D03*
X013282Y020351D03*
X014961Y020180D03*
X015331Y020664D03*
X017579Y020437D03*
X021534Y018758D03*
X022132Y018587D03*
X023042Y019099D03*
X022416Y017819D03*
X022644Y016937D03*
D64*
X022786Y016481D03*
X022815Y016453D03*
X022815Y016424D03*
X022729Y016254D03*
X022729Y016225D03*
X022957Y016197D03*
X022302Y016396D03*
X022160Y016197D03*
X022132Y016168D03*
X021819Y015998D03*
X021904Y015827D03*
X022388Y015286D03*
X022559Y015372D03*
X021989Y015030D03*
X020595Y015713D03*
X021107Y016396D03*
X021164Y016367D03*
X021306Y016311D03*
X020083Y016680D03*
X019969Y016737D03*
X019941Y016766D03*
X019969Y016823D03*
X021620Y017762D03*
X021534Y017847D03*
X021733Y017648D03*
X022217Y017563D03*
X022246Y017591D03*
X022388Y017591D03*
X022615Y017534D03*
X021648Y018217D03*
X021278Y018132D03*
X020737Y018672D03*
X020652Y018758D03*
X020624Y018786D03*
X020595Y018815D03*
X020567Y018843D03*
X020481Y018928D03*
X020453Y018957D03*
X020424Y018985D03*
X020396Y019014D03*
X020282Y019099D03*
X020254Y019128D03*
X020140Y019213D03*
X020111Y019241D03*
X020083Y019270D03*
X019969Y019355D03*
X019941Y019384D03*
X019770Y019498D03*
X019713Y019412D03*
X019628Y019469D03*
X019599Y019498D03*
X019571Y019412D03*
X019514Y019441D03*
X019457Y019469D03*
X019201Y019640D03*
X019115Y019924D03*
X018433Y019640D03*
X017408Y020607D03*
X017323Y020579D03*
X017237Y020550D03*
X017180Y020522D03*
X017124Y020493D03*
X017067Y020465D03*
X017010Y020437D03*
X017124Y020636D03*
X016554Y020892D03*
X015786Y021347D03*
X015786Y021376D03*
X015758Y021404D03*
X015615Y021319D03*
X015274Y021347D03*
X015302Y020778D03*
X015786Y020067D03*
X015928Y019754D03*
X015957Y019498D03*
X015815Y019441D03*
X015644Y019384D03*
X015502Y019498D03*
X014506Y020180D03*
X013595Y020522D03*
X013595Y020778D03*
X013339Y020550D03*
X013111Y020863D03*
X012286Y020863D03*
X012002Y020977D03*
X011888Y021546D03*
X011859Y021632D03*
X011945Y021660D03*
X012172Y021746D03*
X011262Y021376D03*
X010380Y021176D03*
X010351Y021148D03*
X010323Y021120D03*
X010209Y020977D03*
X010209Y020949D03*
X010067Y020835D03*
X010067Y020807D03*
X009981Y020693D03*
X010010Y020664D03*
X010465Y020437D03*
X010209Y019697D03*
X010209Y019498D03*
X010380Y019412D03*
X010380Y019384D03*
X010380Y019355D03*
X010380Y018957D03*
X011319Y018985D03*
X011319Y019014D03*
X011319Y019042D03*
X011319Y019071D03*
X011632Y018985D03*
X011689Y018957D03*
X011717Y018928D03*
X011774Y018900D03*
X011831Y018872D03*
X011888Y018843D03*
X011945Y018815D03*
X012087Y018758D03*
X012115Y018729D03*
X012315Y018217D03*
X011945Y018046D03*
X011888Y018132D03*
X011717Y018075D03*
X011689Y018103D03*
X011689Y018132D03*
X011660Y018160D03*
X011660Y018189D03*
X011632Y018217D03*
X011632Y018246D03*
X011774Y017989D03*
X012030Y017591D03*
X012685Y017107D03*
X012713Y017079D03*
X012770Y017050D03*
X013083Y016851D03*
X013140Y016823D03*
X013168Y016794D03*
X013282Y016737D03*
X013481Y016624D03*
X013538Y016595D03*
X013624Y016538D03*
X013680Y016624D03*
X013538Y016709D03*
X013794Y016880D03*
X013851Y016538D03*
X013908Y016510D03*
X013851Y016424D03*
X013794Y016453D03*
X013766Y016481D03*
X013908Y016396D03*
X014136Y016282D03*
X014335Y016197D03*
X014449Y016140D03*
X014591Y016083D03*
X014819Y016140D03*
X015672Y015628D03*
X015843Y015941D03*
X016099Y016424D03*
X016554Y016140D03*
X016583Y016111D03*
X016754Y015400D03*
X016355Y015258D03*
X016355Y015229D03*
X016298Y015343D03*
X016270Y015372D03*
X016270Y015400D03*
X016241Y014945D03*
X016298Y014746D03*
X016611Y014802D03*
X017010Y014774D03*
X016327Y014461D03*
X018120Y016453D03*
X018120Y016481D03*
X017437Y018103D03*
X016668Y018274D03*
X015473Y017989D03*
X015416Y017961D03*
X015359Y017933D03*
X014221Y017648D03*
X013538Y018132D03*
X013168Y018160D03*
X013111Y018189D03*
X012855Y018302D03*
X011489Y018786D03*
X009384Y018502D03*
X009213Y018758D03*
X009185Y018843D03*
X009156Y018900D03*
X008957Y018615D03*
X008985Y018559D03*
X009042Y018160D03*
X009327Y018046D03*
X008701Y017733D03*
X008530Y018018D03*
X008502Y018075D03*
X008502Y018103D03*
X008473Y018132D03*
X008473Y018160D03*
X008729Y019611D03*
X012941Y021802D03*
X012941Y021831D03*
X013908Y022030D03*
X014164Y021973D03*
X014107Y021717D03*
X013965Y021575D03*
X014022Y022770D03*
X013993Y022798D03*
X014278Y022770D03*
X014278Y022741D03*
X018063Y021233D03*
X018063Y021205D03*
X020083Y019071D03*
X020254Y018928D03*
X020282Y018900D03*
X022729Y018388D03*
X022815Y018502D03*
X014335Y016880D03*
D65*
X014235Y017250D03*
X013382Y016680D03*
X013040Y016880D03*
X012926Y016937D03*
X012898Y016965D03*
X012613Y017164D03*
X012556Y017193D03*
X012414Y017278D03*
X011731Y018046D03*
X011874Y018160D03*
X012414Y018559D03*
X012727Y018359D03*
X012898Y018274D03*
X013069Y018217D03*
X011589Y019014D03*
X011561Y019042D03*
X011532Y019071D03*
X011475Y019156D03*
X011475Y019185D03*
X011475Y018872D03*
X011475Y018843D03*
X011475Y018815D03*
X011219Y019554D03*
X010365Y019668D03*
X010223Y019526D03*
X010365Y018985D03*
X008914Y018985D03*
X008601Y019014D03*
X008601Y019042D03*
X008886Y018644D03*
X008772Y018075D03*
X008772Y018046D03*
X009426Y017876D03*
X010252Y020380D03*
X010223Y020550D03*
X010081Y020778D03*
X010081Y020863D03*
X009939Y020863D03*
X009939Y020892D03*
X009967Y020949D03*
X009939Y020750D03*
X009967Y020721D03*
X011077Y021376D03*
X011219Y021347D03*
X011674Y021176D03*
X011731Y021433D03*
X011731Y021461D03*
X011788Y021518D03*
X011902Y021518D03*
X011902Y021489D03*
X012386Y021233D03*
X012386Y021148D03*
X012500Y021176D03*
X012556Y020778D03*
X012243Y020778D03*
X012101Y020863D03*
X013211Y020550D03*
X013581Y020550D03*
X013752Y020550D03*
X013581Y020807D03*
X013581Y020835D03*
X013581Y020863D03*
X013609Y021006D03*
X013609Y021034D03*
X013439Y021347D03*
X013695Y021774D03*
X013723Y021802D03*
X013723Y021831D03*
X013752Y021859D03*
X013865Y022002D03*
X014093Y021945D03*
X014861Y021689D03*
X015345Y021091D03*
X016199Y021034D03*
X016739Y020835D03*
X016967Y020408D03*
X016910Y020380D03*
X017223Y020721D03*
X018703Y020067D03*
X018703Y019896D03*
X018788Y019867D03*
X018788Y019839D03*
X018788Y019811D03*
X019101Y019725D03*
X019158Y019668D03*
X019300Y019554D03*
X019357Y019526D03*
X019414Y019498D03*
X019500Y019583D03*
X019528Y019554D03*
X019556Y019526D03*
X019670Y019441D03*
X019414Y019640D03*
X020239Y018957D03*
X020325Y018872D03*
X020353Y018843D03*
X020382Y018815D03*
X021036Y018359D03*
X021065Y018331D03*
X021178Y018217D03*
X021207Y018189D03*
X021321Y018075D03*
X021349Y018046D03*
X021378Y018302D03*
X021378Y018331D03*
X021634Y018160D03*
X021634Y018132D03*
X021634Y017733D03*
X021662Y017705D03*
X022374Y017563D03*
X022374Y017534D03*
X022374Y016737D03*
X022829Y016396D03*
X022857Y016367D03*
X022886Y016339D03*
X022886Y016311D03*
X022829Y016111D03*
X022829Y016083D03*
X022829Y016054D03*
X022829Y016026D03*
X022829Y015998D03*
X022829Y015969D03*
X022829Y015941D03*
X022715Y016083D03*
X022715Y016111D03*
X022829Y015713D03*
X022658Y015656D03*
X022544Y015656D03*
X022544Y015685D03*
X022516Y015514D03*
X022658Y015457D03*
X022687Y015485D03*
X022715Y015542D03*
X022374Y015258D03*
X022345Y015229D03*
X021890Y016026D03*
X022061Y016111D03*
X021520Y016168D03*
X021491Y016197D03*
X021235Y016339D03*
X021065Y016424D03*
X021008Y016453D03*
X020894Y016510D03*
X020837Y016538D03*
X020695Y016595D03*
X020552Y016680D03*
X020496Y016709D03*
X020183Y016908D03*
X019556Y017136D03*
X018020Y016851D03*
X018162Y016367D03*
X017024Y015428D03*
X017024Y015258D03*
X016711Y015457D03*
X016540Y015229D03*
X016540Y015144D03*
X016540Y015115D03*
X016455Y015002D03*
X016256Y015115D03*
X015886Y015201D03*
X016056Y015457D03*
X016056Y015485D03*
X015886Y015685D03*
X015687Y015798D03*
X015715Y016254D03*
X015886Y016396D03*
X016199Y016083D03*
X016455Y016225D03*
X016540Y016168D03*
X016683Y015855D03*
X017024Y014746D03*
X017081Y014717D03*
X016910Y014518D03*
X016882Y014546D03*
X016569Y014461D03*
X014520Y016111D03*
X014264Y016225D03*
X014093Y016311D03*
X014036Y016339D03*
X017166Y018217D03*
X016028Y019554D03*
X016056Y019583D03*
X016085Y019611D03*
X016085Y019640D03*
X013183Y021888D03*
X012926Y021717D03*
X012898Y021689D03*
X012898Y021660D03*
X013723Y023111D03*
X021719Y019811D03*
X023483Y019697D03*
X022715Y018359D03*
X022715Y018331D03*
X020325Y015827D03*
X020325Y015628D03*
X020524Y015542D03*
D66*
X020851Y015315D03*
X021079Y015258D03*
X021193Y015229D03*
X021363Y015201D03*
X019770Y015685D03*
X019343Y015485D03*
X019969Y016794D03*
X021506Y017933D03*
X021363Y018416D03*
X021392Y018445D03*
X021392Y018473D03*
X021477Y018672D03*
X021477Y018701D03*
X021790Y018701D03*
X022331Y017620D03*
X018689Y019754D03*
X018518Y019953D03*
X018518Y019981D03*
X018518Y020010D03*
X018518Y020038D03*
X018063Y020607D03*
X016355Y021120D03*
X016241Y021148D03*
X014989Y020778D03*
X014876Y021376D03*
X014420Y022258D03*
X014079Y022713D03*
X013538Y021973D03*
X012770Y019867D03*
X011262Y019241D03*
X010437Y019071D03*
X010437Y019469D03*
X010437Y020124D03*
X008900Y019128D03*
X012258Y018615D03*
X014164Y017676D03*
X013851Y016851D03*
X014392Y016510D03*
X015502Y017221D03*
X015701Y016111D03*
X015872Y015315D03*
X016498Y015172D03*
X016896Y015599D03*
X016697Y015941D03*
X017351Y015030D03*
X017351Y015002D03*
X017351Y014973D03*
X017351Y014945D03*
X017351Y014916D03*
X017351Y014575D03*
X017351Y014546D03*
X017323Y014461D03*
X017693Y017107D03*
X015701Y019412D03*
X012855Y017335D03*
D67*
X013865Y017904D03*
X015203Y019185D03*
X015174Y019241D03*
X016398Y020465D03*
X017878Y020693D03*
X021804Y019270D03*
X023028Y019128D03*
X022317Y020237D03*
X024508Y017933D03*
X022317Y017762D03*
X023000Y015115D03*
X022971Y015087D03*
X018504Y016225D03*
X018504Y016254D03*
X017422Y017420D03*
X017365Y017449D03*
X016512Y017392D03*
X015743Y017449D03*
X017906Y014632D03*
X017906Y014603D03*
X017906Y014575D03*
X017878Y014518D03*
X017849Y014461D03*
X009967Y017107D03*
X009227Y017392D03*
D68*
X009014Y017420D03*
X011091Y018928D03*
X010835Y019384D03*
X010607Y019867D03*
X012855Y019355D03*
X013140Y019213D03*
X012457Y018046D03*
X012770Y017477D03*
X013937Y016794D03*
X015359Y017847D03*
X016213Y015713D03*
X015786Y014575D03*
X015815Y014546D03*
X018518Y015656D03*
X019884Y015485D03*
X020168Y015571D03*
X020168Y015884D03*
X020140Y015941D03*
X021620Y015172D03*
X023185Y015884D03*
X022729Y016680D03*
X022018Y017648D03*
X020993Y018530D03*
X020993Y018843D03*
X020993Y018872D03*
X021306Y019811D03*
X021363Y019867D03*
X022331Y020294D03*
X023611Y019355D03*
X023611Y019327D03*
X022530Y018900D03*
X022530Y018872D03*
X022530Y018843D03*
X018233Y021404D03*
X016583Y020237D03*
X015900Y020351D03*
X015502Y020437D03*
X014392Y020437D03*
X014392Y020237D03*
X013453Y021774D03*
X013168Y022343D03*
X013168Y022372D03*
X013168Y022400D03*
X015217Y021859D03*
X008388Y019298D03*
D69*
X010166Y017762D03*
X015317Y020636D03*
X016284Y020124D03*
X016626Y019526D03*
X013325Y022258D03*
X013325Y022286D03*
X018760Y016766D03*
X017935Y014831D03*
X017935Y014802D03*
X017935Y014774D03*
X017935Y014746D03*
X017935Y014717D03*
X017935Y014689D03*
X017935Y014660D03*
X023085Y015798D03*
X022089Y018530D03*
D70*
X021250Y015002D03*
X019172Y015002D03*
X019144Y014717D03*
X019144Y014689D03*
X019144Y014660D03*
X017209Y016481D03*
X016583Y017904D03*
X014676Y018843D03*
D71*
X013609Y017676D03*
X012870Y017307D03*
X012272Y017420D03*
X011532Y018445D03*
X011504Y018473D03*
X011504Y018502D03*
X011276Y019185D03*
X011276Y019213D03*
X010166Y019668D03*
X010138Y020607D03*
X010138Y020750D03*
X010536Y021290D03*
X010622Y021347D03*
X010707Y021376D03*
X010792Y021404D03*
X012329Y021802D03*
X012500Y021859D03*
X012955Y021973D03*
X012983Y022002D03*
X013496Y021632D03*
X013496Y021546D03*
X014150Y021205D03*
X014691Y021746D03*
X015573Y021347D03*
X015573Y020750D03*
X015829Y020693D03*
X015829Y020408D03*
X015829Y020010D03*
X016853Y020863D03*
X016967Y020835D03*
X017081Y020807D03*
X017280Y020892D03*
X016711Y021034D03*
X016569Y021063D03*
X018077Y020579D03*
X018504Y020067D03*
X018504Y019924D03*
X018504Y019896D03*
X019158Y019754D03*
X019784Y019298D03*
X020752Y018701D03*
X021008Y018445D03*
X021719Y018359D03*
X022374Y019099D03*
X023540Y019554D03*
X020154Y016880D03*
X019556Y017164D03*
X018674Y016481D03*
X018134Y016510D03*
X016654Y016026D03*
X016654Y015998D03*
X016170Y016168D03*
X016939Y015485D03*
X016341Y015315D03*
X015857Y015343D03*
X015857Y015372D03*
X015857Y015286D03*
X016654Y014717D03*
X016967Y014859D03*
X018475Y015372D03*
X014975Y015941D03*
X014804Y015998D03*
X014463Y016282D03*
X014861Y017591D03*
X016142Y018189D03*
X016341Y018274D03*
X014207Y020550D03*
X013609Y020664D03*
X012813Y020977D03*
X009711Y017989D03*
X009540Y017477D03*
X008857Y017534D03*
X008829Y017563D03*
X008800Y017591D03*
X008317Y018815D03*
X008317Y018843D03*
X008317Y018872D03*
X008317Y018900D03*
X008317Y018928D03*
X018304Y021205D03*
X018304Y021233D03*
X018304Y021262D03*
X018248Y021489D03*
X022772Y016567D03*
X022573Y015628D03*
D72*
X022388Y014717D03*
X022530Y017136D03*
X022502Y017164D03*
X022388Y018672D03*
X022388Y018701D03*
X024522Y017904D03*
X018859Y017221D03*
X013766Y022998D03*
X009213Y019953D03*
D73*
X008872Y019156D03*
X008587Y018957D03*
X008331Y018786D03*
X008331Y018758D03*
X008331Y018729D03*
X008331Y018701D03*
X008331Y018672D03*
X008331Y018587D03*
X008359Y018473D03*
X008587Y017933D03*
X008758Y017648D03*
X008786Y017620D03*
X009355Y018018D03*
X009697Y017961D03*
X009697Y017933D03*
X009697Y017904D03*
X009697Y017876D03*
X009668Y017733D03*
X009640Y017676D03*
X009640Y017648D03*
X009611Y017591D03*
X009583Y017534D03*
X009384Y018359D03*
X009384Y018388D03*
X009384Y018416D03*
X009384Y018445D03*
X010408Y019441D03*
X011091Y019412D03*
X011120Y019384D03*
X011290Y019156D03*
X011176Y018615D03*
X011205Y018587D03*
X011205Y018559D03*
X011205Y018473D03*
X011546Y018416D03*
X011546Y018388D03*
X011575Y018359D03*
X012343Y018189D03*
X013709Y017250D03*
X014221Y017278D03*
X013567Y016680D03*
X013993Y016481D03*
X014050Y016453D03*
X014278Y016367D03*
X014449Y016481D03*
X014648Y016054D03*
X014733Y016026D03*
X014904Y015969D03*
X015701Y016197D03*
X016128Y016396D03*
X016185Y016140D03*
X016185Y015798D03*
X016611Y016054D03*
X016697Y015912D03*
X016896Y015656D03*
X016896Y015628D03*
X016981Y015457D03*
X016981Y015286D03*
X016469Y015030D03*
X016241Y014859D03*
X016241Y014831D03*
X016241Y014802D03*
X016156Y014973D03*
X016640Y014774D03*
X016640Y014746D03*
X016981Y014831D03*
X015872Y015229D03*
X015872Y015258D03*
X015843Y015400D03*
X015701Y015542D03*
X015502Y017193D03*
X017522Y018046D03*
X017863Y017989D03*
X019514Y017193D03*
X020054Y016709D03*
X020197Y016851D03*
X019998Y015713D03*
X019827Y015571D03*
X019827Y015542D03*
X019770Y015713D03*
X018746Y016140D03*
X017892Y016823D03*
X021022Y018416D03*
X021676Y018274D03*
X021705Y018302D03*
X021705Y018331D03*
X022445Y018160D03*
X022445Y018132D03*
X022758Y018445D03*
X022786Y018473D03*
X021591Y017819D03*
X022445Y016880D03*
X022445Y016823D03*
X022559Y016737D03*
X022786Y016538D03*
X022758Y016168D03*
X023014Y016111D03*
X023042Y016083D03*
X022559Y015599D03*
X021762Y015115D03*
X021648Y016054D03*
X021620Y016083D03*
X022331Y016453D03*
X022359Y016481D03*
X019969Y019156D03*
X019912Y019213D03*
X019656Y019583D03*
X019628Y019611D03*
X019428Y019725D03*
X019115Y019782D03*
X019087Y019953D03*
X018859Y019896D03*
X018774Y019668D03*
X018233Y019554D03*
X017721Y020579D03*
X017550Y020664D03*
X017152Y020778D03*
X017124Y020664D03*
X017095Y020920D03*
X017010Y020949D03*
X016811Y021006D03*
X016355Y020977D03*
X016270Y021006D03*
X015815Y021262D03*
X015246Y021006D03*
X015246Y020977D03*
X014819Y021717D03*
X014676Y021831D03*
X013481Y021603D03*
X013481Y021575D03*
X013481Y021518D03*
X013481Y021489D03*
X013453Y021461D03*
X013453Y021433D03*
X013453Y021404D03*
X012599Y021888D03*
X012400Y021831D03*
X012258Y021774D03*
X012087Y021717D03*
X011774Y021603D03*
X011489Y021461D03*
X011034Y021347D03*
X010579Y021319D03*
X010493Y021262D03*
X010152Y020721D03*
X010408Y020180D03*
X011746Y021148D03*
X012059Y020920D03*
X012713Y020437D03*
X013083Y020892D03*
X013624Y020721D03*
X013624Y020693D03*
X015815Y020038D03*
X018034Y021063D03*
X018034Y021091D03*
X018319Y021290D03*
X018319Y021319D03*
X014221Y022827D03*
X014050Y022741D03*
X023526Y019583D03*
D74*
X018945Y015912D03*
X017721Y015685D03*
X015758Y017676D03*
X016526Y017933D03*
X022302Y014774D03*
X009697Y019213D03*
X009583Y019298D03*
D75*
X012485Y019640D03*
X012485Y019668D03*
X015644Y014802D03*
D76*
X017237Y016453D03*
X019144Y014973D03*
X019144Y014945D03*
X019144Y014888D03*
X019144Y014859D03*
X019144Y014831D03*
X019144Y014802D03*
X017408Y020124D03*
X009185Y019725D03*
D77*
X010152Y018644D03*
X011262Y017847D03*
X011262Y017819D03*
X011262Y017790D03*
X011262Y017762D03*
X011262Y017705D03*
X017437Y016197D03*
X019941Y015258D03*
X022274Y014802D03*
D78*
X022928Y015059D03*
X022644Y016965D03*
X022416Y017847D03*
X022075Y018502D03*
X022359Y018815D03*
X021733Y019128D03*
X018489Y016311D03*
X018489Y016282D03*
X018746Y015542D03*
X019400Y015428D03*
X017920Y014916D03*
X017920Y014888D03*
X017920Y014859D03*
X010863Y018957D03*
X010693Y019128D03*
X010693Y019156D03*
X010693Y019554D03*
X008644Y019498D03*
X013311Y022172D03*
X013311Y022201D03*
X013311Y022229D03*
X016270Y020152D03*
D79*
X013695Y019668D03*
X010479Y018302D03*
X018162Y015258D03*
X022146Y014859D03*
D80*
X022089Y014888D03*
X016455Y017079D03*
X017365Y019668D03*
D81*
X021719Y019611D03*
X023370Y016908D03*
X019130Y014916D03*
X011276Y017648D03*
X009540Y019355D03*
X009170Y019754D03*
D82*
X017067Y020095D03*
X017095Y020038D03*
X022046Y014916D03*
D83*
X022004Y014945D03*
X014093Y019554D03*
X014065Y019583D03*
D84*
X015132Y019270D03*
X016412Y019981D03*
X015274Y020607D03*
X014648Y022059D03*
X010721Y019498D03*
X008672Y019469D03*
X015786Y017477D03*
X015786Y016908D03*
X018632Y016823D03*
X018774Y015571D03*
X017920Y015002D03*
X017920Y014973D03*
X022246Y017676D03*
X022274Y017705D03*
X022502Y017193D03*
X022672Y016993D03*
X024550Y017847D03*
X022985Y019185D03*
X022388Y018758D03*
X021733Y019099D03*
X022900Y015030D03*
D85*
X021961Y014973D03*
D86*
X017906Y015030D03*
X015174Y019128D03*
X016142Y020550D03*
X014520Y022087D03*
X010650Y017278D03*
X010479Y017221D03*
X010223Y017164D03*
X009483Y017250D03*
X021748Y019071D03*
X021833Y019213D03*
X022971Y019213D03*
X024565Y017819D03*
D87*
X022288Y020095D03*
X017422Y019498D03*
X017309Y016367D03*
X021093Y015030D03*
D88*
X023668Y016937D03*
X024067Y017107D03*
X023583Y018217D03*
X023583Y018246D03*
X023583Y018274D03*
X023554Y018502D03*
X023554Y018530D03*
X023554Y018559D03*
X022843Y019384D03*
X022843Y019754D03*
X018233Y016993D03*
X017778Y015059D03*
X014876Y019412D03*
X015559Y019896D03*
X013510Y019498D03*
X011120Y017989D03*
X010067Y018502D03*
X009725Y019099D03*
X009725Y019412D03*
X009725Y019441D03*
X009213Y019867D03*
X013766Y022855D03*
D89*
X013353Y020294D03*
X013638Y020152D03*
X011020Y017477D03*
X009711Y019128D03*
X009711Y019469D03*
X017650Y019896D03*
X021605Y019725D03*
X023540Y018615D03*
X023540Y018587D03*
X022544Y017335D03*
X022743Y017107D03*
X019642Y015770D03*
X018248Y016965D03*
X017735Y015485D03*
X017764Y015400D03*
X017764Y015372D03*
X017792Y015087D03*
D90*
X019983Y015087D03*
D91*
X019300Y015115D03*
D92*
X019243Y015144D03*
D93*
X019172Y015172D03*
D94*
X018176Y016339D03*
X016896Y015685D03*
X016526Y015201D03*
X016384Y015201D03*
X015872Y015912D03*
X016071Y016026D03*
X016213Y016111D03*
X015900Y016424D03*
X014876Y016111D03*
X014392Y016168D03*
X013225Y016766D03*
X012884Y017278D03*
X013567Y017705D03*
X014392Y017733D03*
X014705Y017648D03*
X015559Y017904D03*
X016213Y018246D03*
X015872Y019469D03*
X015729Y019498D03*
X015530Y020807D03*
X015729Y021433D03*
X016725Y020892D03*
X019172Y019896D03*
X019229Y019611D03*
X019542Y019668D03*
X019685Y019554D03*
X019855Y019441D03*
X019998Y019327D03*
X020054Y019298D03*
X020197Y019185D03*
X020225Y019156D03*
X020054Y019099D03*
X020510Y018900D03*
X020538Y018872D03*
X021022Y018388D03*
X021506Y017876D03*
X021676Y017847D03*
X021705Y017676D03*
X022189Y017534D03*
X022701Y018302D03*
X023498Y019668D03*
X022701Y016311D03*
X022701Y016282D03*
X022843Y015741D03*
X022530Y015542D03*
X022018Y016083D03*
X017863Y017933D03*
X012912Y021746D03*
X012912Y021774D03*
X012400Y021205D03*
X011746Y021120D03*
X011233Y019640D03*
X011603Y018302D03*
X011746Y018018D03*
X011916Y018075D03*
X011916Y018103D03*
X009412Y017904D03*
X008445Y018189D03*
X008445Y018217D03*
X008445Y018246D03*
X008416Y018274D03*
X008416Y018302D03*
X008587Y018985D03*
X008900Y019014D03*
X014050Y022172D03*
X014050Y022201D03*
X014050Y022229D03*
X014050Y022258D03*
X014050Y022286D03*
D95*
X016426Y017107D03*
X018219Y015201D03*
D96*
X019798Y015286D03*
X020140Y015201D03*
X017294Y016396D03*
X016782Y017050D03*
X014250Y018985D03*
X011290Y017876D03*
X017437Y020152D03*
X017465Y020180D03*
X023754Y018075D03*
D97*
X018191Y015229D03*
X017878Y016026D03*
X013780Y019611D03*
X013723Y019640D03*
D98*
X013339Y020266D03*
X014876Y019355D03*
X017522Y020266D03*
X017607Y020010D03*
X017636Y019981D03*
X021648Y019697D03*
X022786Y019811D03*
X022786Y019441D03*
X018262Y016937D03*
X017152Y016794D03*
X017124Y016823D03*
X017607Y015884D03*
X017636Y015855D03*
X017636Y015827D03*
X017664Y015770D03*
X017664Y015741D03*
X017806Y015315D03*
X017806Y015286D03*
X010095Y018559D03*
X009640Y019241D03*
X009355Y019697D03*
X009185Y019839D03*
D99*
X010607Y018928D03*
X009953Y017392D03*
X013680Y017989D03*
X013823Y017534D03*
X013993Y017420D03*
X013993Y017079D03*
X015274Y018985D03*
X016498Y020437D03*
X017949Y020721D03*
X021477Y018872D03*
X023099Y018957D03*
X023725Y018872D03*
X023725Y018843D03*
X023526Y017449D03*
X023469Y017392D03*
X023213Y015343D03*
X019741Y016595D03*
X019258Y016339D03*
X019229Y016396D03*
X019172Y016453D03*
X019087Y016538D03*
X019059Y016567D03*
X019030Y016595D03*
X019002Y016624D03*
X019059Y017107D03*
X018347Y017079D03*
X018290Y017107D03*
X018262Y017136D03*
X018774Y015286D03*
D100*
X019471Y015315D03*
X016996Y016595D03*
X018077Y017363D03*
X018276Y017250D03*
X010451Y018359D03*
D101*
X016512Y017278D03*
X017109Y016851D03*
X017508Y016083D03*
X017536Y016054D03*
X017849Y015343D03*
X023341Y016880D03*
X021662Y019668D03*
X017508Y020237D03*
D102*
X017508Y019611D03*
X017337Y016339D03*
X017365Y016311D03*
X017365Y016282D03*
X019443Y015343D03*
X022630Y019896D03*
X011276Y017904D03*
X011276Y017676D03*
X010166Y018672D03*
X009569Y019327D03*
X009170Y019782D03*
D103*
X008914Y019042D03*
X013239Y018132D03*
X015715Y016225D03*
X015715Y015770D03*
X016711Y015884D03*
X018361Y019611D03*
X015715Y021461D03*
X014065Y022315D03*
X014065Y022343D03*
X023512Y019640D03*
X023512Y019611D03*
X022516Y015343D03*
D104*
X024536Y017591D03*
X024536Y017620D03*
X022914Y019298D03*
X022914Y019640D03*
X018333Y017420D03*
X019414Y015400D03*
X014748Y018758D03*
X013666Y019384D03*
X011048Y018132D03*
X009796Y018900D03*
X009796Y018928D03*
X009597Y019498D03*
X009569Y019526D03*
D105*
X012542Y017904D03*
X012542Y017876D03*
X015388Y019071D03*
X015388Y016453D03*
X020367Y015400D03*
X023213Y017164D03*
X023014Y017506D03*
D106*
X022544Y017363D03*
X023910Y017022D03*
X023967Y017050D03*
X019613Y016225D03*
X017707Y015628D03*
X017707Y015599D03*
X017707Y015571D03*
X017650Y015798D03*
X017422Y017705D03*
X017650Y019953D03*
X011105Y017534D03*
X009939Y017136D03*
X010081Y018530D03*
D107*
X010422Y018872D03*
X010109Y019640D03*
X010422Y020152D03*
X011219Y019270D03*
X012727Y021006D03*
X012727Y021916D03*
X008914Y019071D03*
X009569Y017506D03*
X014548Y016254D03*
X015715Y016168D03*
X015715Y016140D03*
X016227Y015599D03*
X018020Y017904D03*
X019699Y017050D03*
X021207Y018701D03*
X022345Y019128D03*
X019870Y019241D03*
X019841Y019270D03*
X017707Y020778D03*
X017365Y020863D03*
D108*
X014733Y018786D03*
X017693Y015713D03*
X017693Y015656D03*
D109*
X015857Y016851D03*
X016142Y017790D03*
X013951Y019213D03*
X013609Y019441D03*
X015174Y020550D03*
X016227Y020209D03*
X013410Y022144D03*
X009540Y019583D03*
X009768Y019014D03*
X011077Y018075D03*
X019670Y015741D03*
X022231Y018644D03*
X021748Y018957D03*
X021861Y019156D03*
X021321Y018815D03*
X022886Y019327D03*
X022886Y019697D03*
X024479Y017477D03*
X024451Y017449D03*
X024451Y017420D03*
X024422Y017392D03*
X024394Y017363D03*
D110*
X022274Y017904D03*
X022274Y017933D03*
X022758Y019469D03*
X022758Y019839D03*
X019628Y016083D03*
X019599Y015798D03*
X011148Y017563D03*
D111*
X019500Y015827D03*
X022146Y017961D03*
D112*
X018276Y015941D03*
D113*
X018276Y015969D03*
D114*
X018290Y015998D03*
D115*
X017422Y016225D03*
X016939Y016965D03*
X016739Y019782D03*
X011248Y017733D03*
X022715Y019498D03*
D116*
X017266Y016424D03*
X014221Y019014D03*
D117*
X016554Y016624D03*
D118*
X016867Y016652D03*
D119*
X016839Y016680D03*
D120*
X016811Y016709D03*
D121*
X016754Y016737D03*
X016896Y017591D03*
D122*
X015914Y016766D03*
X013552Y019867D03*
X010109Y018587D03*
X023654Y018132D03*
D123*
X023569Y018046D03*
X023569Y018018D03*
X023569Y017989D03*
X023540Y017904D03*
X023540Y017876D03*
X023540Y017847D03*
X023483Y017705D03*
X023569Y018302D03*
X023569Y018331D03*
X023569Y018359D03*
X023569Y018388D03*
X023569Y018416D03*
X023569Y018445D03*
X023569Y018473D03*
X024252Y017221D03*
X024166Y017164D03*
X022544Y017307D03*
X022857Y019725D03*
X018191Y017022D03*
X017935Y017221D03*
X016483Y017961D03*
X015857Y016823D03*
X013922Y019241D03*
X014776Y019498D03*
X014833Y019469D03*
X014861Y019441D03*
X015146Y020209D03*
X015146Y020237D03*
X015146Y020266D03*
X015146Y020294D03*
X015146Y020323D03*
X015146Y020351D03*
X015146Y020380D03*
X015146Y020493D03*
X015146Y020522D03*
X013410Y019981D03*
X011105Y018018D03*
X010963Y017420D03*
X010052Y018473D03*
X009967Y018729D03*
X009739Y019384D03*
X017536Y020323D03*
X017650Y019867D03*
X017650Y019839D03*
D124*
X017579Y019583D03*
X016185Y020522D03*
X013709Y019355D03*
X016071Y017762D03*
X015872Y017506D03*
X017266Y017790D03*
X018262Y017449D03*
X018546Y016851D03*
X021762Y019014D03*
X021847Y019185D03*
X022928Y019270D03*
X022928Y019611D03*
X022302Y020209D03*
X022388Y017876D03*
X024550Y017705D03*
X024550Y017676D03*
X024550Y017648D03*
X024579Y017733D03*
X013766Y022941D03*
X010778Y019327D03*
X010807Y019298D03*
X009811Y018872D03*
X009811Y018843D03*
X010067Y018132D03*
X010067Y018103D03*
X010067Y018075D03*
X010067Y018046D03*
X010067Y018018D03*
X011034Y018160D03*
X011034Y018189D03*
X010778Y017335D03*
X010750Y017307D03*
D125*
X017693Y016880D03*
D126*
X017650Y016908D03*
D127*
X023839Y016993D03*
D128*
X024522Y017563D03*
X022701Y017050D03*
X021762Y018985D03*
X022900Y019668D03*
X017437Y017733D03*
X013993Y019156D03*
X013965Y019185D03*
X013624Y020180D03*
X010835Y017363D03*
X009782Y018957D03*
X009782Y018985D03*
X009213Y019896D03*
X013766Y022912D03*
D129*
X009981Y018701D03*
X011148Y017961D03*
X011006Y017449D03*
X022302Y020180D03*
X023611Y018189D03*
X024124Y017136D03*
X022729Y017079D03*
D130*
X024024Y017079D03*
X023512Y018644D03*
X023512Y018672D03*
X017536Y020294D03*
X013922Y019270D03*
X009569Y019611D03*
X009426Y019668D03*
D131*
X008701Y019412D03*
X010607Y017250D03*
X015985Y017705D03*
X016014Y017733D03*
X013766Y022969D03*
X024550Y017790D03*
D132*
X022544Y017250D03*
X017365Y017762D03*
X010052Y018160D03*
X010052Y018189D03*
D133*
X009512Y017278D03*
X013638Y019412D03*
D134*
X013652Y019697D03*
X013624Y019725D03*
X013424Y020095D03*
X014620Y018928D03*
X016640Y017847D03*
X018148Y017335D03*
X018233Y017278D03*
X022274Y019981D03*
X010465Y018331D03*
D135*
X010508Y018246D03*
X018191Y017307D03*
D136*
X024493Y017506D03*
X024493Y017534D03*
X011063Y018103D03*
X010067Y018217D03*
X009554Y019554D03*
D137*
X016967Y017534D03*
D138*
X016939Y017563D03*
D139*
X011162Y017591D03*
D140*
X016867Y017620D03*
D141*
X014975Y017648D03*
D142*
X016597Y017648D03*
D143*
X012642Y017676D03*
X012642Y017705D03*
X012642Y019953D03*
X012841Y020180D03*
X013666Y020465D03*
D144*
X013453Y020067D03*
X014591Y018957D03*
X016668Y017819D03*
X022274Y019953D03*
X010067Y019185D03*
D145*
X015203Y019156D03*
X016398Y018160D03*
X023000Y019156D03*
D146*
X010493Y018274D03*
D147*
X022103Y018559D03*
D148*
X010479Y018758D03*
D149*
X009839Y018786D03*
X013282Y020323D03*
X015160Y019099D03*
X016270Y020180D03*
X016441Y020010D03*
X016270Y020493D03*
X013624Y022827D03*
D150*
X021748Y019042D03*
D151*
X017479Y020209D03*
X013922Y019099D03*
D152*
X015089Y019298D03*
X008687Y019441D03*
D153*
X014378Y019327D03*
X016284Y019811D03*
X017081Y020067D03*
D154*
X017408Y019697D03*
X014107Y019526D03*
D155*
X022174Y019526D03*
X022174Y019554D03*
D156*
X022189Y019583D03*
D157*
X017252Y019725D03*
D158*
X017294Y019754D03*
D159*
X015857Y019924D03*
D160*
X015872Y019953D03*
D161*
X013496Y020010D03*
D162*
X014634Y019953D02*
X014634Y021433D01*
X015658Y021433D01*
X015658Y019953D01*
X014634Y019953D01*
X011361Y020237D02*
X011361Y018758D01*
X010337Y018758D01*
X010337Y020237D01*
X011361Y020237D01*
X007065Y019014D02*
X007065Y017534D01*
X006040Y017534D01*
X006040Y019014D01*
X007065Y019014D01*
X002768Y017847D02*
X002768Y016367D01*
X001743Y016367D01*
X001743Y017847D01*
X002768Y017847D01*
X018930Y019953D02*
X018930Y021433D01*
X019955Y021433D01*
X019955Y019953D01*
X018930Y019953D01*
X023426Y020294D02*
X023426Y018815D01*
X024451Y018815D01*
X024451Y020294D01*
X023426Y020294D01*
X027809Y019042D02*
X027809Y017563D01*
X028833Y017563D01*
X028833Y019042D01*
X027809Y019042D01*
X032134Y017847D02*
X032134Y016367D01*
X033158Y016367D01*
X033158Y017847D01*
X032134Y017847D01*
D163*
X022203Y001827D02*
X021719Y001827D01*
X021463Y001571D01*
X021207Y001827D01*
X020723Y001827D01*
X020467Y001571D01*
X020211Y001827D01*
X019699Y001827D01*
X019443Y001571D01*
X019187Y001827D01*
X018703Y001827D01*
X018447Y001571D01*
X018191Y001827D01*
X017707Y001827D01*
X017451Y001571D01*
X017195Y001827D01*
X016711Y001827D01*
X016455Y001571D01*
X016199Y001827D01*
X015715Y001827D01*
X015459Y001571D01*
X015203Y001827D01*
X014719Y001827D01*
X014463Y001571D01*
X014207Y001827D01*
X013723Y001827D01*
X013467Y001571D01*
X013211Y001827D01*
X012699Y001827D01*
X012443Y001571D01*
X012443Y001087D01*
X012699Y000831D01*
X013211Y000831D01*
X013467Y001087D01*
X013723Y000831D01*
X014207Y000831D01*
X014463Y001087D01*
X014719Y000831D01*
X015203Y000831D01*
X015459Y001087D01*
X015715Y000831D01*
X016199Y000831D01*
X016455Y001087D01*
X016711Y000831D01*
X017195Y000831D01*
X017451Y001087D01*
X017707Y000831D01*
X018219Y000831D01*
X018475Y001087D01*
X018731Y000831D01*
X019215Y000831D01*
X019471Y001087D01*
X019727Y000831D01*
X020211Y000831D01*
X020467Y001087D01*
X020723Y000831D01*
X021207Y000831D01*
X021463Y001087D01*
X021719Y000831D01*
X022203Y000831D01*
X022459Y001087D01*
X022459Y001571D01*
X022203Y001827D01*
D164*
X015452Y009470D03*
X014972Y009991D03*
X014967Y010000D03*
X015624Y010714D03*
X016325Y010172D03*
X018980Y010172D03*
X020475Y010172D03*
X020475Y010317D03*
X020845Y010176D03*
D165*
X021087Y010348D03*
X020025Y010339D03*
X019460Y010339D03*
X017591Y011270D03*
X017207Y010322D03*
X015351Y009475D03*
X015346Y009479D03*
X015293Y009537D03*
X015289Y009541D03*
X015236Y009598D03*
X015223Y009612D03*
X015218Y009616D03*
X015214Y009620D03*
X015210Y009625D03*
X015170Y009669D03*
X015166Y009673D03*
X015157Y009682D03*
X015152Y009687D03*
X015135Y009704D03*
X015099Y009744D03*
X015095Y009748D03*
X015091Y009753D03*
X015086Y009757D03*
X015082Y009762D03*
X014861Y010224D03*
X014165Y010511D03*
X013543Y010304D03*
X014359Y011173D03*
X014861Y011252D03*
D166*
X014202Y011569D03*
X014202Y011574D03*
X014202Y011578D03*
X014202Y011583D03*
X014202Y011587D03*
X014202Y011591D03*
X014202Y011596D03*
X014202Y011600D03*
X014202Y011605D03*
X014202Y011609D03*
X014202Y011613D03*
X014202Y011618D03*
X014202Y011622D03*
X014202Y011627D03*
X014202Y011631D03*
X014202Y011636D03*
X014202Y011640D03*
X014202Y011644D03*
X014202Y011649D03*
X014202Y011653D03*
X014202Y011658D03*
X014202Y011662D03*
X014202Y011666D03*
X014202Y011671D03*
X014202Y011675D03*
X014202Y011680D03*
X014202Y011684D03*
X014202Y009762D03*
X014202Y009757D03*
X014202Y009753D03*
X014202Y009748D03*
X014202Y009744D03*
X014202Y009739D03*
X014202Y009735D03*
X014202Y009731D03*
X014202Y009726D03*
X014202Y009722D03*
X014202Y009717D03*
X014202Y009713D03*
X014202Y009709D03*
X014202Y009704D03*
X014202Y009700D03*
X014202Y009695D03*
X014202Y009691D03*
X014202Y009687D03*
X014202Y009682D03*
X014202Y009678D03*
X014202Y009673D03*
X014202Y009669D03*
X014202Y009664D03*
X014202Y009660D03*
X014202Y009656D03*
X014202Y009651D03*
X014202Y009647D03*
X014202Y009642D03*
X014202Y009638D03*
X014202Y009634D03*
X014202Y009629D03*
X014202Y009625D03*
X014202Y009620D03*
X014202Y009616D03*
X014202Y009612D03*
X014202Y009607D03*
X014202Y009603D03*
X014202Y009598D03*
X014202Y009594D03*
X014202Y009590D03*
X014202Y009585D03*
X014202Y009581D03*
X014202Y009576D03*
X014202Y009572D03*
X014202Y009567D03*
X014202Y009563D03*
X014202Y009559D03*
X014202Y009554D03*
X014202Y009550D03*
X014202Y009545D03*
X014202Y009541D03*
X014202Y009537D03*
X014202Y009532D03*
X014202Y009528D03*
X014202Y009523D03*
X014202Y009519D03*
X014202Y009515D03*
X014202Y009510D03*
X014202Y009506D03*
X014202Y009501D03*
X014202Y009497D03*
X014202Y009493D03*
X014202Y009488D03*
X014202Y009484D03*
X014202Y009479D03*
X014202Y009475D03*
D167*
X015102Y009739D03*
X015106Y009735D03*
X015110Y009731D03*
X015115Y009726D03*
X015119Y009722D03*
X015124Y009717D03*
X015128Y009713D03*
X015132Y009709D03*
X015141Y009700D03*
X015146Y009695D03*
X015150Y009691D03*
X015159Y009678D03*
X015172Y009664D03*
X015177Y009660D03*
X015181Y009656D03*
X015185Y009651D03*
X015190Y009647D03*
X015194Y009642D03*
X015199Y009638D03*
X015203Y009634D03*
X015207Y009629D03*
X015225Y009607D03*
X015229Y009603D03*
X015238Y009594D03*
X015243Y009590D03*
X015247Y009585D03*
X015252Y009581D03*
X015256Y009576D03*
X015260Y009572D03*
X015265Y009567D03*
X015269Y009563D03*
X015274Y009559D03*
X015278Y009554D03*
X015282Y009550D03*
X015287Y009545D03*
X015296Y009532D03*
X015300Y009528D03*
X015304Y009523D03*
X015309Y009519D03*
X015313Y009515D03*
X015318Y009510D03*
X015322Y009506D03*
X015326Y009501D03*
X015331Y009497D03*
X015335Y009493D03*
X015340Y009488D03*
X015344Y009484D03*
X014864Y010220D03*
X013541Y010299D03*
X014864Y011256D03*
X017205Y010317D03*
X017205Y010313D03*
X017205Y010308D03*
X017205Y010304D03*
X017584Y011265D03*
X018351Y011270D03*
X018925Y011270D03*
X021094Y011261D03*
X021094Y010352D03*
D168*
X014310Y009766D03*
D169*
X014308Y009770D03*
D170*
X014866Y010216D03*
X015073Y009775D03*
X014165Y010516D03*
X013538Y010295D03*
X014359Y011168D03*
X014866Y011261D03*
X017203Y010299D03*
X017203Y010295D03*
X017203Y010291D03*
X017203Y010286D03*
X017578Y011261D03*
X018931Y011265D03*
X019456Y010344D03*
X020034Y010344D03*
D171*
X014200Y009775D03*
D172*
X014868Y010211D03*
X015071Y009779D03*
X013536Y010291D03*
X014868Y011265D03*
X014868Y011270D03*
X017201Y010282D03*
X017201Y010277D03*
X017201Y010273D03*
X018347Y011265D03*
X019449Y010348D03*
X019740Y010176D03*
X020040Y010348D03*
X021098Y010357D03*
X021103Y011252D03*
X021098Y011256D03*
D173*
X014198Y009779D03*
D174*
X014870Y010207D03*
X015069Y009784D03*
X014165Y010520D03*
X014187Y010546D03*
X014253Y010617D03*
X014257Y010621D03*
X014262Y010626D03*
X014359Y011164D03*
X014870Y011274D03*
X013534Y010286D03*
X017198Y010269D03*
X017198Y010264D03*
X017198Y010260D03*
X017198Y010255D03*
X017573Y011256D03*
X018340Y011261D03*
X018936Y011261D03*
X018940Y011256D03*
X020042Y010352D03*
X021105Y010361D03*
D175*
X014195Y009784D03*
D176*
X014872Y010202D03*
X015066Y009788D03*
X014193Y010551D03*
X014193Y010555D03*
X014198Y010560D03*
X014202Y010564D03*
X014206Y010568D03*
X014211Y010573D03*
X014215Y010577D03*
X014220Y010582D03*
X014224Y010586D03*
X014229Y010590D03*
X014233Y010595D03*
X014237Y010599D03*
X014242Y010604D03*
X014246Y010608D03*
X014251Y010613D03*
X014264Y010630D03*
X014184Y010542D03*
X014180Y010538D03*
X014176Y010533D03*
X014171Y010529D03*
X014167Y010524D03*
X013532Y010282D03*
X017196Y010251D03*
X017196Y010247D03*
X017196Y010242D03*
X017566Y011247D03*
X017566Y011252D03*
X018338Y011256D03*
X019441Y010357D03*
X019445Y010352D03*
X020049Y010357D03*
X021107Y010366D03*
X021107Y011247D03*
D177*
X014193Y009788D03*
D178*
X014875Y010198D03*
X015064Y009792D03*
X014297Y011093D03*
X014301Y011098D03*
X014341Y011142D03*
X014359Y011159D03*
X014875Y011278D03*
X014875Y011283D03*
X013530Y010277D03*
X017194Y010238D03*
X017194Y010233D03*
X017194Y010229D03*
X017555Y011239D03*
X017560Y011243D03*
X018332Y011252D03*
X018944Y011252D03*
X019438Y010361D03*
X020051Y010361D03*
X021109Y011243D03*
X021114Y011239D03*
D179*
X014191Y009792D03*
D180*
X014877Y010189D03*
X014877Y010194D03*
X015062Y009797D03*
X014255Y011049D03*
X014259Y011053D03*
X014264Y011058D03*
X014268Y011062D03*
X014273Y011067D03*
X014277Y011071D03*
X014281Y011076D03*
X014286Y011080D03*
X014290Y011084D03*
X014295Y011089D03*
X014308Y011102D03*
X014312Y011106D03*
X014312Y011111D03*
X014317Y011115D03*
X014321Y011120D03*
X014326Y011124D03*
X014330Y011128D03*
X014334Y011133D03*
X014339Y011137D03*
X014348Y011146D03*
X014352Y011150D03*
X014356Y011155D03*
X014877Y011287D03*
X013527Y010273D03*
X017192Y010224D03*
X017192Y010220D03*
X017192Y010216D03*
X017192Y010211D03*
X017540Y011217D03*
X017544Y011225D03*
X017549Y011230D03*
X017553Y011234D03*
X018325Y011243D03*
X018329Y011247D03*
X018947Y011247D03*
X018951Y011243D03*
X019427Y010374D03*
X019432Y010370D03*
X019432Y010366D03*
X020053Y010366D03*
X020058Y010370D03*
X021112Y010370D03*
X021116Y010374D03*
X021121Y011230D03*
X021116Y011234D03*
D181*
X014189Y009797D03*
D182*
X014879Y010185D03*
X015060Y009801D03*
X013525Y010269D03*
X014879Y011292D03*
X017189Y010207D03*
X017189Y010202D03*
X017189Y010198D03*
X017529Y011203D03*
X017533Y011208D03*
X017538Y011212D03*
X017542Y011221D03*
X018318Y011230D03*
X018318Y011234D03*
X018323Y011239D03*
X018953Y011239D03*
X018958Y011234D03*
X018962Y011225D03*
X019425Y010379D03*
X020060Y010374D03*
X020064Y010379D03*
X020069Y010388D03*
X021118Y010379D03*
X021123Y010383D03*
X021123Y011225D03*
D183*
X014187Y009801D03*
D184*
X014881Y010180D03*
X015058Y009806D03*
X013523Y010264D03*
X014881Y011296D03*
X017187Y010194D03*
X017187Y010189D03*
X017187Y010185D03*
X017514Y011173D03*
X017514Y011177D03*
X017514Y011181D03*
X017518Y011186D03*
X017522Y011190D03*
X017522Y011195D03*
X017527Y011199D03*
X018312Y011217D03*
X018312Y011221D03*
X018316Y011225D03*
X018960Y011230D03*
X018964Y011221D03*
X018969Y011212D03*
X019410Y010410D03*
X019414Y010396D03*
X019418Y010392D03*
X019418Y010388D03*
X019423Y010383D03*
X020067Y010383D03*
X020071Y010392D03*
X020071Y010396D03*
X020075Y010401D03*
X021125Y010392D03*
X021125Y010388D03*
X021129Y010396D03*
X021129Y011212D03*
X021129Y011217D03*
X021125Y011221D03*
D185*
X014184Y009806D03*
D186*
X014883Y010176D03*
X015055Y009810D03*
X013521Y010260D03*
X014883Y011300D03*
X017185Y010180D03*
X017185Y010176D03*
X017467Y011084D03*
X017481Y011115D03*
X017489Y011133D03*
X017494Y011137D03*
X017494Y011142D03*
X017498Y011146D03*
X017498Y011150D03*
X017503Y011155D03*
X017503Y011159D03*
X017507Y011164D03*
X017507Y011168D03*
X018292Y011164D03*
X018296Y011181D03*
X018301Y011195D03*
X018305Y011203D03*
X018305Y011208D03*
X018309Y011212D03*
X018966Y011217D03*
X018971Y011208D03*
X018971Y011203D03*
X018975Y011199D03*
X018975Y011195D03*
X018980Y011186D03*
X018984Y011168D03*
X019403Y010423D03*
X019407Y010414D03*
X019412Y010405D03*
X019412Y010401D03*
X020078Y010405D03*
X020078Y010410D03*
X020078Y010414D03*
X020082Y010419D03*
X020086Y010432D03*
X021132Y010405D03*
X021132Y010401D03*
X021136Y010410D03*
X021136Y010414D03*
X021136Y010419D03*
X021136Y011195D03*
X021136Y011199D03*
X021136Y011203D03*
X021132Y011208D03*
D187*
X014182Y009810D03*
D188*
X014886Y010172D03*
X015053Y009814D03*
X013519Y010255D03*
X014886Y011305D03*
X017346Y010705D03*
X017355Y010736D03*
X017359Y010749D03*
X017364Y010767D03*
X017368Y010780D03*
X017372Y010798D03*
X017377Y010807D03*
X017377Y010811D03*
X017381Y010824D03*
X017381Y010829D03*
X017386Y010842D03*
X017390Y010855D03*
X017390Y010859D03*
X017395Y010873D03*
X017399Y010886D03*
X017403Y010904D03*
X017408Y010917D03*
X017417Y010948D03*
X017421Y010961D03*
X017425Y010979D03*
X017430Y010987D03*
X017434Y010996D03*
X017434Y011001D03*
X017439Y011014D03*
X017443Y011023D03*
X017443Y011027D03*
X017447Y011031D03*
X017447Y011036D03*
X017452Y011045D03*
X017456Y011058D03*
X017461Y011067D03*
X017461Y011071D03*
X017465Y011076D03*
X017465Y011080D03*
X017469Y011089D03*
X017474Y011093D03*
X017474Y011098D03*
X017474Y011102D03*
X017478Y011106D03*
X017478Y011111D03*
X017483Y011120D03*
X017487Y011124D03*
X017487Y011128D03*
X018272Y011062D03*
X018276Y011093D03*
X018276Y011098D03*
X018281Y011115D03*
X018281Y011120D03*
X018285Y011137D03*
X018285Y011142D03*
X018290Y011155D03*
X018290Y011159D03*
X018294Y011168D03*
X018294Y011173D03*
X018294Y011177D03*
X018298Y011186D03*
X018298Y011190D03*
X018303Y011199D03*
X018268Y011018D03*
X018268Y011014D03*
X018263Y010943D03*
X018259Y010877D03*
X018259Y010873D03*
X018259Y010868D03*
X018250Y010714D03*
X018241Y010577D03*
X018241Y010573D03*
X018241Y010568D03*
X018241Y010564D03*
X018241Y010560D03*
X018241Y010555D03*
X018237Y010463D03*
X018232Y010388D03*
X018228Y010304D03*
X018224Y010224D03*
X018224Y010220D03*
X019052Y010238D03*
X019057Y010176D03*
X019044Y010396D03*
X019044Y010401D03*
X019039Y010471D03*
X019035Y010560D03*
X019026Y010714D03*
X019017Y010868D03*
X019017Y010873D03*
X019017Y010877D03*
X019017Y010882D03*
X019017Y010886D03*
X019008Y011018D03*
X019008Y011023D03*
X019004Y011062D03*
X019004Y011067D03*
X019000Y011093D03*
X019000Y011098D03*
X019000Y011102D03*
X018995Y011120D03*
X018991Y011137D03*
X018991Y011142D03*
X018991Y011146D03*
X018986Y011155D03*
X018986Y011159D03*
X018986Y011164D03*
X018982Y011173D03*
X018982Y011177D03*
X018982Y011181D03*
X018978Y011190D03*
X019339Y011199D03*
X019339Y011203D03*
X019344Y011128D03*
X019344Y011124D03*
X019344Y011120D03*
X019344Y011115D03*
X019344Y011111D03*
X019352Y010979D03*
X019352Y010974D03*
X019352Y010970D03*
X019352Y010965D03*
X019352Y010961D03*
X019352Y010956D03*
X019352Y010952D03*
X019357Y010877D03*
X019357Y010873D03*
X019361Y010802D03*
X019361Y010798D03*
X019361Y010793D03*
X019370Y010639D03*
X019370Y010635D03*
X019370Y010630D03*
X019379Y010546D03*
X019379Y010542D03*
X019379Y010538D03*
X019383Y010511D03*
X019383Y010507D03*
X019388Y010489D03*
X019388Y010485D03*
X019392Y010467D03*
X019392Y010463D03*
X019396Y010454D03*
X019396Y010449D03*
X019396Y010445D03*
X019401Y010436D03*
X019401Y010432D03*
X019401Y010427D03*
X019405Y010419D03*
X020084Y010423D03*
X020084Y010427D03*
X020089Y010436D03*
X020089Y010441D03*
X020089Y010445D03*
X020093Y010449D03*
X020093Y010454D03*
X020093Y010458D03*
X020098Y010467D03*
X020098Y010471D03*
X020098Y010476D03*
X020102Y010489D03*
X020102Y010493D03*
X020102Y010498D03*
X020106Y010524D03*
X020106Y010529D03*
X020111Y010555D03*
X020111Y010560D03*
X020115Y010595D03*
X020115Y010599D03*
X020115Y010604D03*
X020120Y010643D03*
X020120Y010648D03*
X020120Y010652D03*
X020120Y010657D03*
X020120Y010661D03*
X020120Y010665D03*
X020120Y010670D03*
X020128Y010811D03*
X020128Y010815D03*
X020128Y010820D03*
X020128Y010824D03*
X020128Y010829D03*
X020128Y010833D03*
X020133Y010912D03*
X020146Y011146D03*
X020146Y011150D03*
X020146Y011155D03*
X020146Y011159D03*
X020146Y011164D03*
X020146Y011168D03*
X020155Y011309D03*
X020155Y011314D03*
X020155Y011318D03*
X020159Y011384D03*
X020159Y011389D03*
X020159Y011393D03*
X020159Y011397D03*
X020159Y011402D03*
X019335Y011283D03*
X019335Y011278D03*
X019326Y011433D03*
X021138Y011190D03*
X021143Y011186D03*
X021143Y011181D03*
X021143Y011177D03*
X021143Y011173D03*
X021147Y011168D03*
X021147Y011164D03*
X021147Y011159D03*
X021147Y011155D03*
X021151Y011142D03*
X021151Y011137D03*
X021156Y011115D03*
X021156Y011111D03*
X021156Y011106D03*
X021156Y011102D03*
X021160Y011058D03*
X021160Y011053D03*
X021160Y011049D03*
X021160Y011045D03*
X021160Y011040D03*
X021160Y010564D03*
X021160Y010560D03*
X021156Y010502D03*
X021156Y010498D03*
X021156Y010493D03*
X021151Y010476D03*
X021151Y010471D03*
X021147Y010458D03*
X021147Y010454D03*
X021147Y010449D03*
X021147Y010445D03*
X021147Y010441D03*
X021143Y010436D03*
X021143Y010432D03*
X021143Y010427D03*
X021138Y010423D03*
D189*
X014180Y009814D03*
D190*
X014888Y010167D03*
X015051Y009823D03*
X015051Y009819D03*
X015726Y010335D03*
X015726Y010339D03*
X015726Y010344D03*
X015726Y010348D03*
X015726Y010352D03*
X015726Y010357D03*
X015726Y010361D03*
X015726Y010366D03*
X015726Y010370D03*
X015726Y010374D03*
X015726Y010379D03*
X015726Y010383D03*
X015726Y010388D03*
X015726Y010392D03*
X015726Y010396D03*
X015726Y010401D03*
X015726Y010405D03*
X015726Y010410D03*
X015726Y010414D03*
X015726Y010419D03*
X015726Y010423D03*
X015726Y010427D03*
X015726Y010432D03*
X015726Y010436D03*
X015726Y010441D03*
X015726Y010445D03*
X015726Y010449D03*
X015726Y010454D03*
X015726Y010458D03*
X015726Y010463D03*
X015726Y010467D03*
X015726Y010471D03*
X015726Y010476D03*
X015726Y010480D03*
X015726Y010485D03*
X015726Y010489D03*
X015726Y010493D03*
X015726Y010498D03*
X015726Y010502D03*
X015726Y010507D03*
X015726Y010511D03*
X015726Y010516D03*
X015726Y010520D03*
X015726Y010524D03*
X015726Y010529D03*
X015726Y010533D03*
X015726Y010538D03*
X015726Y010542D03*
X015726Y010546D03*
X015726Y010551D03*
X015726Y010555D03*
X015726Y010560D03*
X015726Y010564D03*
X015726Y010568D03*
X015726Y010573D03*
X015726Y010577D03*
X015726Y010582D03*
X015726Y010586D03*
X015726Y010590D03*
X015726Y010595D03*
X015726Y010599D03*
X015726Y010604D03*
X015726Y010608D03*
X015726Y010613D03*
X015726Y010617D03*
X015726Y010621D03*
X015726Y010626D03*
X015726Y010630D03*
X015726Y010635D03*
X015726Y010639D03*
X015726Y010643D03*
X015726Y010648D03*
X015726Y010652D03*
X015726Y010657D03*
X015726Y010661D03*
X015726Y010665D03*
X015726Y010670D03*
X015726Y010674D03*
X015726Y010679D03*
X015726Y010683D03*
X015726Y010692D03*
X015726Y010696D03*
X015726Y010701D03*
X015726Y010705D03*
X015726Y010714D03*
X015726Y010868D03*
X015726Y010873D03*
X015726Y010877D03*
X015726Y010882D03*
X015726Y010899D03*
X015726Y010904D03*
X015726Y010908D03*
X015726Y010912D03*
X015726Y010917D03*
X015726Y010921D03*
X015726Y010926D03*
X015726Y010930D03*
X015726Y010934D03*
X015726Y010939D03*
X015726Y010943D03*
X015726Y010948D03*
X015726Y010952D03*
X015726Y010956D03*
X015726Y010961D03*
X015726Y010965D03*
X015726Y010970D03*
X015726Y010974D03*
X015726Y010979D03*
X015726Y010983D03*
X015726Y010987D03*
X015726Y010992D03*
X015726Y010996D03*
X015726Y011001D03*
X015726Y011005D03*
X015726Y011009D03*
X015726Y011014D03*
X015726Y011018D03*
X015726Y011023D03*
X015726Y011027D03*
X015726Y011031D03*
X015726Y011036D03*
X015726Y011040D03*
X015726Y011045D03*
X015726Y011049D03*
X015726Y011053D03*
X015726Y011058D03*
X015726Y011062D03*
X015726Y011067D03*
X015726Y011071D03*
X015726Y011076D03*
X015726Y011080D03*
X015726Y011084D03*
X015726Y011089D03*
X015726Y011093D03*
X015726Y011098D03*
X015726Y011102D03*
X015726Y011106D03*
X015726Y011111D03*
X015726Y011115D03*
X015726Y011120D03*
X015726Y011124D03*
X015726Y011128D03*
X015726Y011133D03*
X015726Y011137D03*
X015726Y011142D03*
X015726Y011146D03*
X015726Y011150D03*
X015726Y011155D03*
X015726Y011159D03*
X015726Y011164D03*
X015726Y011168D03*
X015726Y011173D03*
X015726Y011177D03*
X015726Y011190D03*
X015726Y011195D03*
X015726Y011199D03*
X015726Y011203D03*
X016400Y011203D03*
X016400Y011199D03*
X016400Y011195D03*
X016400Y011190D03*
X016400Y011186D03*
X016400Y011181D03*
X016400Y011177D03*
X016400Y011173D03*
X016400Y011168D03*
X016400Y011164D03*
X016400Y011159D03*
X016400Y011155D03*
X016400Y011150D03*
X016400Y011146D03*
X016400Y011142D03*
X016400Y011137D03*
X016400Y011133D03*
X016400Y011128D03*
X016400Y011124D03*
X016400Y011120D03*
X016400Y011115D03*
X016400Y011111D03*
X016400Y011106D03*
X016400Y011102D03*
X016400Y011098D03*
X016400Y011093D03*
X016400Y011089D03*
X016400Y011084D03*
X016400Y011080D03*
X016400Y011076D03*
X016400Y011071D03*
X016400Y011067D03*
X016400Y011062D03*
X016400Y011058D03*
X016400Y011053D03*
X016400Y011049D03*
X016400Y011045D03*
X016400Y011040D03*
X016400Y011036D03*
X016400Y011031D03*
X016400Y011027D03*
X016400Y011023D03*
X016400Y011018D03*
X016400Y011014D03*
X016400Y011009D03*
X016400Y011005D03*
X016400Y011001D03*
X016400Y010996D03*
X016400Y010992D03*
X016400Y010987D03*
X016400Y010983D03*
X016400Y010979D03*
X016400Y010974D03*
X016400Y010970D03*
X016400Y010965D03*
X016400Y010961D03*
X016400Y010956D03*
X016400Y010952D03*
X016400Y010948D03*
X016400Y010943D03*
X016400Y010939D03*
X016400Y010934D03*
X016400Y010930D03*
X016400Y010926D03*
X016400Y010921D03*
X016400Y010917D03*
X016400Y010912D03*
X016400Y010908D03*
X016400Y010904D03*
X016400Y010899D03*
X016400Y010895D03*
X016400Y010890D03*
X016400Y010886D03*
X016400Y010882D03*
X016400Y010877D03*
X016400Y010873D03*
X016400Y010868D03*
X016400Y010864D03*
X016400Y010859D03*
X016400Y010855D03*
X016400Y010851D03*
X016400Y010846D03*
X016400Y010842D03*
X016400Y010837D03*
X016400Y010833D03*
X016400Y010829D03*
X016400Y010824D03*
X016400Y010820D03*
X016400Y010815D03*
X016400Y010811D03*
X016400Y010807D03*
X016400Y010802D03*
X016400Y010798D03*
X016400Y010793D03*
X016400Y010789D03*
X016400Y010784D03*
X016400Y010780D03*
X016400Y010776D03*
X016400Y010771D03*
X016400Y010767D03*
X016400Y010762D03*
X016400Y010758D03*
X016400Y010754D03*
X016400Y010749D03*
X016400Y010745D03*
X016400Y010740D03*
X016400Y010736D03*
X016400Y010732D03*
X016400Y010727D03*
X016400Y010723D03*
X016400Y010718D03*
X016400Y010714D03*
X016400Y010710D03*
X016400Y010705D03*
X016400Y010701D03*
X016400Y010696D03*
X016400Y010692D03*
X016400Y010687D03*
X016400Y010683D03*
X016400Y010679D03*
X016400Y010674D03*
X016400Y010670D03*
X016400Y010665D03*
X016400Y010661D03*
X016400Y010657D03*
X016400Y010652D03*
X016400Y010648D03*
X016400Y010643D03*
X016400Y010639D03*
X016400Y010635D03*
X016400Y010630D03*
X016400Y010626D03*
X016400Y010621D03*
X016400Y010617D03*
X016400Y010613D03*
X016400Y010608D03*
X016400Y010604D03*
X016400Y010599D03*
X016400Y010595D03*
X016400Y010590D03*
X016400Y010586D03*
X016400Y010582D03*
X016400Y010577D03*
X016400Y010573D03*
X016400Y010568D03*
X016400Y010564D03*
X016400Y010560D03*
X016400Y010555D03*
X016400Y010551D03*
X016400Y010546D03*
X016400Y010542D03*
X016400Y010538D03*
X016400Y010533D03*
X016400Y010529D03*
X016400Y010524D03*
X016400Y010520D03*
X016400Y010516D03*
X016400Y010511D03*
X016400Y010507D03*
X016400Y010502D03*
X016400Y010498D03*
X016400Y010493D03*
X016400Y010489D03*
X016400Y010485D03*
X016400Y010480D03*
X016400Y010476D03*
X016400Y010471D03*
X016400Y010467D03*
X016400Y010463D03*
X016400Y010458D03*
X016400Y010454D03*
X016400Y010449D03*
X016400Y010445D03*
X016400Y010441D03*
X016400Y010436D03*
X016400Y010432D03*
X016400Y010427D03*
X016400Y010423D03*
X016400Y010419D03*
X016400Y010414D03*
X016400Y010410D03*
X016400Y010405D03*
X016400Y010401D03*
X016400Y010396D03*
X016400Y010392D03*
X016400Y010388D03*
X016400Y010383D03*
X016400Y010379D03*
X016400Y010374D03*
X016400Y010370D03*
X016400Y010366D03*
X016400Y010361D03*
X016400Y010357D03*
X016400Y010352D03*
X016400Y010348D03*
X016400Y010344D03*
X016400Y010339D03*
X016400Y010335D03*
X016400Y010330D03*
X016400Y010326D03*
X016400Y010322D03*
X016400Y010317D03*
X016400Y010313D03*
X016400Y010308D03*
X016400Y010304D03*
X016400Y010299D03*
X016400Y010295D03*
X016400Y010291D03*
X016400Y010286D03*
X016400Y010282D03*
X016400Y010277D03*
X016400Y010273D03*
X016400Y010269D03*
X016400Y010264D03*
X016400Y010260D03*
X016400Y010255D03*
X016400Y010251D03*
X016400Y010247D03*
X016400Y010242D03*
X016400Y010238D03*
X016400Y010233D03*
X016400Y010229D03*
X016400Y010224D03*
X016400Y010220D03*
X016400Y010216D03*
X016400Y010211D03*
X016400Y010207D03*
X016400Y010202D03*
X016400Y010198D03*
X016400Y010194D03*
X016400Y010189D03*
X016400Y010185D03*
X016400Y010180D03*
X016400Y010176D03*
X017339Y010687D03*
X017344Y010692D03*
X017344Y010696D03*
X017344Y010701D03*
X017348Y010710D03*
X017348Y010714D03*
X017348Y010718D03*
X017353Y010723D03*
X017353Y010727D03*
X017353Y010732D03*
X017357Y010740D03*
X017357Y010745D03*
X017361Y010754D03*
X017361Y010758D03*
X017361Y010762D03*
X017366Y010771D03*
X017366Y010776D03*
X017370Y010784D03*
X017370Y010789D03*
X017370Y010793D03*
X017375Y010802D03*
X017379Y010815D03*
X017379Y010820D03*
X017384Y010833D03*
X017384Y010837D03*
X017388Y010846D03*
X017388Y010851D03*
X017392Y010864D03*
X017392Y010868D03*
X017397Y010877D03*
X017397Y010882D03*
X017401Y010890D03*
X017401Y010895D03*
X017401Y010899D03*
X017406Y010908D03*
X017406Y010912D03*
X017410Y010921D03*
X017410Y010926D03*
X017410Y010930D03*
X017414Y010934D03*
X017414Y010939D03*
X017414Y010943D03*
X017419Y010952D03*
X017419Y010956D03*
X017423Y010965D03*
X017423Y010970D03*
X017423Y010974D03*
X017428Y010983D03*
X017432Y010992D03*
X017436Y011005D03*
X017436Y011009D03*
X017441Y011018D03*
X017450Y011040D03*
X017454Y011049D03*
X017454Y011053D03*
X017458Y011062D03*
X018265Y011009D03*
X018265Y011005D03*
X018265Y011001D03*
X018265Y010996D03*
X018265Y010992D03*
X018265Y010987D03*
X018265Y010983D03*
X018265Y010979D03*
X018265Y010974D03*
X018265Y010970D03*
X018265Y010965D03*
X018265Y010961D03*
X018265Y010956D03*
X018265Y010952D03*
X018265Y010948D03*
X018261Y010939D03*
X018261Y010934D03*
X018261Y010930D03*
X018261Y010926D03*
X018261Y010921D03*
X018261Y010917D03*
X018261Y010912D03*
X018261Y010908D03*
X018261Y010904D03*
X018261Y010899D03*
X018261Y010895D03*
X018261Y010890D03*
X018261Y010886D03*
X018261Y010882D03*
X018257Y010864D03*
X018257Y010859D03*
X018257Y010855D03*
X018248Y010710D03*
X018248Y010705D03*
X018248Y010701D03*
X018248Y010696D03*
X018248Y010692D03*
X018248Y010687D03*
X018248Y010683D03*
X018248Y010679D03*
X018248Y010674D03*
X018248Y010670D03*
X018248Y010665D03*
X018248Y010661D03*
X018248Y010657D03*
X018248Y010652D03*
X018248Y010648D03*
X018248Y010643D03*
X018248Y010639D03*
X018248Y010635D03*
X018243Y010621D03*
X018243Y010617D03*
X018243Y010613D03*
X018243Y010608D03*
X018243Y010604D03*
X018243Y010599D03*
X018243Y010595D03*
X018243Y010590D03*
X018243Y010586D03*
X018243Y010582D03*
X018239Y010551D03*
X018239Y010546D03*
X018239Y010542D03*
X018239Y010538D03*
X018239Y010533D03*
X018239Y010529D03*
X018239Y010524D03*
X018239Y010520D03*
X018239Y010516D03*
X018239Y010511D03*
X018239Y010507D03*
X018239Y010502D03*
X018239Y010498D03*
X018239Y010493D03*
X018239Y010489D03*
X018239Y010485D03*
X018239Y010480D03*
X018239Y010476D03*
X018239Y010471D03*
X018239Y010467D03*
X018235Y010458D03*
X018235Y010454D03*
X018235Y010449D03*
X018235Y010445D03*
X018235Y010441D03*
X018235Y010436D03*
X018235Y010432D03*
X018235Y010427D03*
X018235Y010423D03*
X018235Y010419D03*
X018235Y010414D03*
X018235Y010410D03*
X018235Y010405D03*
X018235Y010401D03*
X018235Y010396D03*
X018235Y010392D03*
X018230Y010383D03*
X018230Y010379D03*
X018230Y010374D03*
X018230Y010370D03*
X018230Y010366D03*
X018230Y010361D03*
X018230Y010357D03*
X018230Y010352D03*
X018230Y010348D03*
X018230Y010344D03*
X018230Y010339D03*
X018230Y010335D03*
X018230Y010330D03*
X018230Y010326D03*
X018230Y010322D03*
X018230Y010317D03*
X018230Y010313D03*
X018230Y010308D03*
X018226Y010299D03*
X018226Y010295D03*
X018226Y010291D03*
X018226Y010286D03*
X018226Y010282D03*
X018226Y010277D03*
X018226Y010273D03*
X018226Y010269D03*
X018226Y010264D03*
X018226Y010260D03*
X018226Y010255D03*
X018226Y010251D03*
X018226Y010247D03*
X018226Y010242D03*
X018226Y010238D03*
X018226Y010233D03*
X018226Y010229D03*
X018221Y010216D03*
X018221Y010211D03*
X018221Y010207D03*
X018221Y010202D03*
X018221Y010198D03*
X018221Y010194D03*
X018221Y010189D03*
X018221Y010185D03*
X018221Y010180D03*
X018221Y010176D03*
X019050Y010242D03*
X019050Y010247D03*
X019050Y010251D03*
X019050Y010255D03*
X019050Y010260D03*
X019050Y010264D03*
X019050Y010269D03*
X019050Y010273D03*
X019050Y010277D03*
X019050Y010282D03*
X019050Y010286D03*
X019050Y010291D03*
X019050Y010295D03*
X019050Y010299D03*
X019050Y010304D03*
X019050Y010308D03*
X019050Y010313D03*
X019046Y010317D03*
X019046Y010322D03*
X019046Y010326D03*
X019046Y010330D03*
X019046Y010335D03*
X019046Y010339D03*
X019046Y010344D03*
X019046Y010348D03*
X019046Y010352D03*
X019046Y010357D03*
X019046Y010361D03*
X019046Y010366D03*
X019046Y010370D03*
X019046Y010374D03*
X019046Y010379D03*
X019046Y010383D03*
X019046Y010388D03*
X019046Y010392D03*
X019041Y010405D03*
X019041Y010410D03*
X019041Y010414D03*
X019041Y010419D03*
X019041Y010423D03*
X019041Y010427D03*
X019041Y010432D03*
X019041Y010436D03*
X019041Y010441D03*
X019041Y010445D03*
X019041Y010449D03*
X019041Y010454D03*
X019041Y010458D03*
X019041Y010463D03*
X019041Y010467D03*
X019041Y010476D03*
X019037Y010485D03*
X019037Y010489D03*
X019037Y010493D03*
X019037Y010498D03*
X019037Y010502D03*
X019037Y010507D03*
X019037Y010511D03*
X019037Y010516D03*
X019037Y010520D03*
X019037Y010524D03*
X019037Y010529D03*
X019037Y010533D03*
X019037Y010538D03*
X019037Y010542D03*
X019037Y010546D03*
X019037Y010551D03*
X019037Y010555D03*
X019033Y010564D03*
X019033Y010568D03*
X019033Y010573D03*
X019033Y010577D03*
X019033Y010582D03*
X019033Y010586D03*
X019033Y010590D03*
X019033Y010595D03*
X019033Y010599D03*
X019033Y010604D03*
X019033Y010608D03*
X019033Y010613D03*
X019033Y010617D03*
X019033Y010621D03*
X019033Y010626D03*
X019033Y010630D03*
X019033Y010635D03*
X019028Y010639D03*
X019028Y010643D03*
X019028Y010648D03*
X019028Y010652D03*
X019028Y010657D03*
X019028Y010661D03*
X019028Y010665D03*
X019028Y010670D03*
X019028Y010674D03*
X019028Y010679D03*
X019028Y010683D03*
X019028Y010687D03*
X019028Y010692D03*
X019028Y010696D03*
X019028Y010701D03*
X019028Y010705D03*
X019028Y010710D03*
X019019Y010855D03*
X019019Y010859D03*
X019019Y010864D03*
X019015Y010890D03*
X019015Y010895D03*
X019015Y010899D03*
X019015Y010904D03*
X019015Y010908D03*
X019015Y010912D03*
X019015Y010917D03*
X019015Y010921D03*
X019015Y010926D03*
X019015Y010930D03*
X019015Y010934D03*
X019015Y010939D03*
X019015Y010943D03*
X019015Y010948D03*
X019015Y010952D03*
X019015Y010956D03*
X019015Y010961D03*
X019011Y010970D03*
X019011Y010974D03*
X019011Y010979D03*
X019011Y010983D03*
X019011Y010987D03*
X019011Y010992D03*
X019011Y010996D03*
X019011Y011001D03*
X019011Y011005D03*
X019011Y011009D03*
X019011Y011014D03*
X019006Y011027D03*
X019006Y011031D03*
X019006Y011036D03*
X019006Y011040D03*
X019006Y011045D03*
X019006Y011049D03*
X019006Y011053D03*
X019006Y011058D03*
X019002Y011071D03*
X019002Y011076D03*
X019002Y011080D03*
X019002Y011084D03*
X019002Y011089D03*
X018997Y011106D03*
X018997Y011111D03*
X018997Y011115D03*
X018993Y011124D03*
X018993Y011128D03*
X018993Y011133D03*
X018989Y011150D03*
X019341Y011150D03*
X019341Y011146D03*
X019341Y011142D03*
X019341Y011137D03*
X019341Y011133D03*
X019341Y011155D03*
X019341Y011159D03*
X019341Y011164D03*
X019341Y011168D03*
X019341Y011173D03*
X019341Y011177D03*
X019341Y011181D03*
X019341Y011186D03*
X019341Y011190D03*
X019341Y011195D03*
X019337Y011208D03*
X019337Y011212D03*
X019337Y011217D03*
X019337Y011221D03*
X019337Y011225D03*
X019337Y011230D03*
X019337Y011234D03*
X019337Y011239D03*
X019337Y011243D03*
X019337Y011247D03*
X019337Y011252D03*
X019337Y011256D03*
X019337Y011261D03*
X019337Y011265D03*
X019337Y011270D03*
X019337Y011274D03*
X019332Y011287D03*
X019332Y011292D03*
X019332Y011296D03*
X019332Y011300D03*
X019332Y011305D03*
X019332Y011309D03*
X019332Y011314D03*
X019332Y011318D03*
X019332Y011322D03*
X019332Y011327D03*
X019332Y011331D03*
X019332Y011336D03*
X019332Y011340D03*
X019332Y011344D03*
X019332Y011349D03*
X019332Y011353D03*
X019328Y011358D03*
X019328Y011362D03*
X019328Y011367D03*
X019328Y011371D03*
X019328Y011375D03*
X019328Y011380D03*
X019328Y011384D03*
X019328Y011389D03*
X019328Y011393D03*
X019328Y011397D03*
X019328Y011402D03*
X019328Y011406D03*
X019328Y011411D03*
X019328Y011415D03*
X019328Y011419D03*
X019328Y011424D03*
X019328Y011428D03*
X019328Y011437D03*
X019346Y011106D03*
X019346Y011102D03*
X019346Y011098D03*
X019346Y011093D03*
X019346Y011089D03*
X019346Y011084D03*
X019346Y011080D03*
X019346Y011076D03*
X019346Y011071D03*
X019346Y011067D03*
X019346Y011062D03*
X019346Y011058D03*
X019346Y011053D03*
X019346Y011049D03*
X019346Y011045D03*
X019346Y011036D03*
X019346Y011031D03*
X019350Y011023D03*
X019350Y011018D03*
X019350Y011014D03*
X019350Y011009D03*
X019350Y011005D03*
X019350Y011001D03*
X019350Y010996D03*
X019350Y010992D03*
X019350Y010987D03*
X019350Y010983D03*
X019355Y010948D03*
X019355Y010943D03*
X019355Y010939D03*
X019355Y010934D03*
X019355Y010930D03*
X019355Y010926D03*
X019355Y010921D03*
X019355Y010917D03*
X019355Y010912D03*
X019355Y010908D03*
X019355Y010904D03*
X019355Y010899D03*
X019355Y010895D03*
X019355Y010890D03*
X019355Y010886D03*
X019355Y010882D03*
X019359Y010868D03*
X019359Y010864D03*
X019359Y010859D03*
X019359Y010855D03*
X019359Y010851D03*
X019359Y010846D03*
X019359Y010842D03*
X019359Y010837D03*
X019359Y010833D03*
X019359Y010829D03*
X019359Y010824D03*
X019359Y010820D03*
X019359Y010815D03*
X019359Y010811D03*
X019359Y010807D03*
X019363Y010789D03*
X019363Y010784D03*
X019363Y010780D03*
X019363Y010776D03*
X019363Y010771D03*
X019363Y010767D03*
X019363Y010762D03*
X019363Y010758D03*
X019363Y010754D03*
X019363Y010749D03*
X019363Y010745D03*
X019363Y010740D03*
X019363Y010736D03*
X019363Y010732D03*
X019363Y010727D03*
X019363Y010723D03*
X019368Y010710D03*
X019368Y010705D03*
X019368Y010701D03*
X019368Y010696D03*
X019368Y010692D03*
X019368Y010687D03*
X019368Y010683D03*
X019368Y010679D03*
X019368Y010674D03*
X019368Y010670D03*
X019368Y010665D03*
X019368Y010661D03*
X019368Y010657D03*
X019368Y010652D03*
X019368Y010648D03*
X019368Y010643D03*
X019372Y010626D03*
X019372Y010621D03*
X019372Y010617D03*
X019372Y010613D03*
X019372Y010608D03*
X019372Y010604D03*
X019372Y010599D03*
X019372Y010595D03*
X019372Y010590D03*
X019377Y010577D03*
X019377Y010573D03*
X019377Y010568D03*
X019377Y010564D03*
X019377Y010560D03*
X019377Y010555D03*
X019377Y010551D03*
X019381Y010533D03*
X019381Y010529D03*
X019381Y010524D03*
X019381Y010520D03*
X019381Y010516D03*
X019385Y010502D03*
X019385Y010498D03*
X019385Y010493D03*
X019390Y010480D03*
X019390Y010476D03*
X019390Y010471D03*
X019394Y010458D03*
X019399Y010441D03*
X019055Y010233D03*
X019055Y010229D03*
X019055Y010224D03*
X019055Y010220D03*
X019055Y010216D03*
X019055Y010211D03*
X019055Y010207D03*
X019055Y010202D03*
X019055Y010198D03*
X019055Y010194D03*
X019055Y010189D03*
X019055Y010185D03*
X019055Y010180D03*
X020095Y010463D03*
X020100Y010480D03*
X020100Y010485D03*
X020104Y010502D03*
X020104Y010507D03*
X020104Y010511D03*
X020104Y010516D03*
X020104Y010520D03*
X020109Y010533D03*
X020109Y010538D03*
X020109Y010542D03*
X020109Y010546D03*
X020109Y010551D03*
X020113Y010564D03*
X020113Y010568D03*
X020113Y010573D03*
X020113Y010577D03*
X020113Y010582D03*
X020113Y010586D03*
X020113Y010590D03*
X020117Y010608D03*
X020117Y010613D03*
X020117Y010617D03*
X020117Y010621D03*
X020117Y010626D03*
X020117Y010630D03*
X020117Y010635D03*
X020117Y010639D03*
X020122Y010674D03*
X020122Y010679D03*
X020122Y010683D03*
X020122Y010687D03*
X020122Y010692D03*
X020122Y010696D03*
X020122Y010701D03*
X020122Y010705D03*
X020122Y010710D03*
X020122Y010714D03*
X020122Y010718D03*
X020122Y010723D03*
X020122Y010727D03*
X020122Y010732D03*
X020122Y010736D03*
X020122Y010740D03*
X020122Y010745D03*
X020126Y010754D03*
X020126Y010758D03*
X020126Y010762D03*
X020126Y010767D03*
X020126Y010771D03*
X020126Y010776D03*
X020126Y010780D03*
X020126Y010784D03*
X020126Y010789D03*
X020126Y010793D03*
X020126Y010798D03*
X020126Y010802D03*
X020126Y010807D03*
X020131Y010837D03*
X020131Y010842D03*
X020131Y010846D03*
X020131Y010851D03*
X020131Y010855D03*
X020131Y010859D03*
X020131Y010864D03*
X020131Y010868D03*
X020131Y010873D03*
X020131Y010877D03*
X020131Y010882D03*
X020131Y010886D03*
X020131Y010890D03*
X020131Y010895D03*
X020131Y010899D03*
X020131Y010904D03*
X020131Y010908D03*
X020135Y010917D03*
X020135Y010921D03*
X020135Y010926D03*
X020135Y010930D03*
X020135Y010934D03*
X020135Y010939D03*
X020135Y010943D03*
X020135Y010948D03*
X020135Y010952D03*
X020135Y010956D03*
X020135Y010961D03*
X020135Y010965D03*
X020135Y010970D03*
X020135Y010974D03*
X020135Y010979D03*
X020135Y010983D03*
X020135Y010987D03*
X020139Y010992D03*
X020139Y010996D03*
X020139Y011001D03*
X020139Y011005D03*
X020139Y011009D03*
X020139Y011014D03*
X020139Y011018D03*
X020139Y011023D03*
X020139Y011027D03*
X020139Y011031D03*
X020139Y011036D03*
X020139Y011040D03*
X020139Y011045D03*
X020139Y011049D03*
X020139Y011053D03*
X020139Y011058D03*
X020139Y011062D03*
X020139Y011067D03*
X020139Y011071D03*
X020144Y011076D03*
X020144Y011080D03*
X020144Y011084D03*
X020144Y011089D03*
X020144Y011093D03*
X020144Y011098D03*
X020144Y011102D03*
X020144Y011106D03*
X020144Y011111D03*
X020144Y011115D03*
X020144Y011120D03*
X020144Y011124D03*
X020144Y011128D03*
X020144Y011133D03*
X020144Y011137D03*
X020144Y011142D03*
X020148Y011173D03*
X020148Y011177D03*
X020148Y011181D03*
X020148Y011186D03*
X020148Y011190D03*
X020148Y011195D03*
X020148Y011199D03*
X020148Y011203D03*
X020148Y011208D03*
X020148Y011212D03*
X020148Y011217D03*
X020148Y011221D03*
X020153Y011225D03*
X020153Y011230D03*
X020153Y011234D03*
X020153Y011239D03*
X020153Y011243D03*
X020153Y011247D03*
X020153Y011252D03*
X020153Y011256D03*
X020153Y011261D03*
X020153Y011265D03*
X020153Y011270D03*
X020153Y011274D03*
X020153Y011278D03*
X020153Y011283D03*
X020153Y011287D03*
X020153Y011292D03*
X020153Y011296D03*
X020153Y011300D03*
X020153Y011305D03*
X020157Y011322D03*
X020157Y011327D03*
X020157Y011331D03*
X020157Y011336D03*
X020157Y011340D03*
X020157Y011344D03*
X020157Y011349D03*
X020157Y011353D03*
X020157Y011358D03*
X020157Y011362D03*
X020157Y011367D03*
X020157Y011371D03*
X020157Y011375D03*
X020157Y011380D03*
X020161Y011406D03*
X020161Y011411D03*
X020161Y011415D03*
X020161Y011419D03*
X020161Y011424D03*
X020161Y011428D03*
X020161Y011433D03*
X020161Y011437D03*
X021149Y011150D03*
X021149Y011146D03*
X021154Y011133D03*
X021154Y011128D03*
X021154Y011124D03*
X021154Y011120D03*
X021158Y011098D03*
X021158Y011093D03*
X021158Y011089D03*
X021158Y011084D03*
X021158Y011080D03*
X021158Y011076D03*
X021158Y011071D03*
X021158Y011067D03*
X021158Y011062D03*
X021162Y011036D03*
X021162Y011031D03*
X021162Y011027D03*
X021162Y011023D03*
X021162Y011018D03*
X021162Y011014D03*
X021162Y011009D03*
X021162Y011005D03*
X021162Y011001D03*
X021162Y010996D03*
X021162Y010992D03*
X021162Y010987D03*
X021162Y010983D03*
X021162Y010979D03*
X021162Y010974D03*
X021162Y010970D03*
X021162Y010965D03*
X021162Y010961D03*
X021162Y010956D03*
X021162Y010952D03*
X021162Y010948D03*
X021162Y010943D03*
X021162Y010939D03*
X021162Y010934D03*
X021162Y010930D03*
X021162Y010926D03*
X021162Y010921D03*
X021162Y010917D03*
X021162Y010912D03*
X021162Y010908D03*
X021162Y010904D03*
X021162Y010899D03*
X021162Y010895D03*
X021162Y010890D03*
X021162Y010886D03*
X021162Y010882D03*
X021162Y010877D03*
X021162Y010873D03*
X021162Y010868D03*
X021162Y010864D03*
X021162Y010859D03*
X021162Y010855D03*
X021162Y010851D03*
X021162Y010846D03*
X021162Y010842D03*
X021162Y010837D03*
X021162Y010833D03*
X021162Y010829D03*
X021162Y010824D03*
X021162Y010820D03*
X021162Y010815D03*
X021162Y010811D03*
X021162Y010807D03*
X021162Y010802D03*
X021162Y010798D03*
X021162Y010793D03*
X021162Y010789D03*
X021162Y010784D03*
X021162Y010780D03*
X021162Y010776D03*
X021162Y010771D03*
X021162Y010767D03*
X021162Y010762D03*
X021162Y010758D03*
X021162Y010754D03*
X021162Y010749D03*
X021162Y010745D03*
X021162Y010740D03*
X021162Y010736D03*
X021162Y010732D03*
X021162Y010727D03*
X021162Y010723D03*
X021162Y010718D03*
X021162Y010714D03*
X021162Y010710D03*
X021162Y010705D03*
X021162Y010701D03*
X021162Y010696D03*
X021162Y010692D03*
X021162Y010687D03*
X021162Y010683D03*
X021162Y010679D03*
X021162Y010674D03*
X021162Y010670D03*
X021162Y010665D03*
X021162Y010661D03*
X021162Y010657D03*
X021162Y010652D03*
X021162Y010648D03*
X021162Y010643D03*
X021162Y010639D03*
X021162Y010635D03*
X021162Y010630D03*
X021162Y010626D03*
X021162Y010621D03*
X021162Y010617D03*
X021162Y010613D03*
X021162Y010608D03*
X021162Y010604D03*
X021162Y010599D03*
X021162Y010595D03*
X021162Y010590D03*
X021162Y010586D03*
X021162Y010582D03*
X021162Y010577D03*
X021162Y010573D03*
X021162Y010568D03*
X021158Y010555D03*
X021158Y010551D03*
X021158Y010546D03*
X021158Y010542D03*
X021158Y010538D03*
X021158Y010533D03*
X021158Y010529D03*
X021158Y010524D03*
X021158Y010520D03*
X021158Y010516D03*
X021158Y010511D03*
X021158Y010507D03*
X021154Y010489D03*
X021154Y010485D03*
X021154Y010480D03*
X021149Y010467D03*
X021149Y010463D03*
X018270Y011023D03*
X018270Y011027D03*
X018270Y011031D03*
X018270Y011036D03*
X018270Y011040D03*
X018270Y011045D03*
X018270Y011049D03*
X018270Y011053D03*
X018270Y011058D03*
X018274Y011067D03*
X018274Y011071D03*
X018274Y011076D03*
X018274Y011080D03*
X018274Y011084D03*
X018274Y011089D03*
X018279Y011102D03*
X018279Y011106D03*
X018279Y011111D03*
X018283Y011124D03*
X018283Y011128D03*
X018283Y011133D03*
X018287Y011146D03*
X018287Y011150D03*
X016400Y011208D03*
X016400Y011212D03*
X016400Y011217D03*
X016400Y011221D03*
X016400Y011225D03*
X016400Y011230D03*
X016400Y011234D03*
X016400Y011239D03*
X016400Y011243D03*
X016400Y011247D03*
X016400Y011252D03*
X016400Y011256D03*
X016400Y011261D03*
X016400Y011278D03*
X016400Y011283D03*
X016400Y011287D03*
X014888Y011309D03*
X013516Y010251D03*
D191*
X014178Y009819D03*
D192*
X014176Y009823D03*
D193*
X013512Y010238D03*
X013512Y010242D03*
X014892Y010158D03*
X015046Y009832D03*
X015046Y009828D03*
X014892Y011318D03*
X017185Y011322D03*
X017185Y011327D03*
X017185Y011331D03*
X017185Y011336D03*
X017185Y011340D03*
X017185Y011344D03*
X017185Y011349D03*
X017185Y011353D03*
X017185Y011358D03*
X017185Y011362D03*
X017185Y011367D03*
X017185Y011371D03*
X017185Y011375D03*
X017185Y011380D03*
X017185Y011384D03*
X017185Y011389D03*
X017185Y011393D03*
X017185Y011397D03*
X017185Y011402D03*
X017185Y011406D03*
X017185Y011411D03*
X017185Y011415D03*
X017185Y011419D03*
X017185Y011424D03*
X017185Y011428D03*
X017181Y011142D03*
X017181Y011137D03*
X017181Y011133D03*
X017181Y011128D03*
X017181Y011124D03*
X017181Y011120D03*
X017181Y011115D03*
X017181Y011111D03*
X017181Y011106D03*
X017181Y011102D03*
X017181Y011098D03*
X017181Y011093D03*
X017181Y011089D03*
X017181Y011084D03*
X017181Y011080D03*
X017181Y011076D03*
X017181Y011071D03*
X017181Y011067D03*
X017181Y011062D03*
X017181Y011058D03*
X017181Y011053D03*
X017181Y011049D03*
X017181Y011045D03*
X017181Y011040D03*
X017181Y011036D03*
X017181Y011031D03*
X017181Y011027D03*
X017181Y011023D03*
X017181Y011018D03*
X017181Y011014D03*
X017181Y011009D03*
X017181Y011005D03*
X017181Y011001D03*
X017181Y010996D03*
X017181Y010992D03*
X017181Y010987D03*
X017181Y010983D03*
X017181Y010979D03*
X017181Y010974D03*
X017181Y010970D03*
X017181Y010965D03*
X017181Y010961D03*
X017181Y010956D03*
X017181Y010952D03*
X017181Y010948D03*
X017181Y010943D03*
X017181Y010939D03*
X017181Y010934D03*
X017181Y010930D03*
X017181Y010926D03*
X017181Y010921D03*
X017181Y010917D03*
X017181Y010912D03*
X017181Y010908D03*
X017181Y010904D03*
X017181Y010899D03*
X017181Y010895D03*
X017181Y010890D03*
X017181Y010886D03*
X017181Y010882D03*
X017181Y010877D03*
X017181Y010873D03*
X017181Y010868D03*
X017181Y010864D03*
X017181Y010859D03*
X017181Y010855D03*
X017181Y010851D03*
X017181Y010846D03*
X017181Y010842D03*
X017181Y010837D03*
X017181Y010833D03*
X017181Y010829D03*
X017181Y010824D03*
X017181Y010820D03*
X017181Y010815D03*
X017181Y010811D03*
X017181Y010807D03*
X017181Y010802D03*
X017181Y010798D03*
X017181Y010793D03*
X017181Y010789D03*
X017181Y010784D03*
X017181Y010780D03*
X017181Y010776D03*
X017181Y010771D03*
X017181Y010767D03*
X017181Y010762D03*
X017181Y010758D03*
X017181Y010754D03*
X017181Y010749D03*
X017181Y010745D03*
X017181Y010740D03*
X017181Y010736D03*
X017181Y010732D03*
X017181Y010727D03*
X017181Y010723D03*
X017181Y010718D03*
X017181Y010714D03*
X017181Y010710D03*
X017181Y010705D03*
X017181Y010701D03*
D194*
X014173Y009828D03*
D195*
X014171Y009832D03*
D196*
X013510Y010233D03*
X014894Y010154D03*
X015044Y009836D03*
X014894Y011322D03*
X017183Y011318D03*
X017183Y011314D03*
X017183Y011309D03*
X017183Y011305D03*
X017183Y011300D03*
X017183Y011296D03*
X017183Y011292D03*
X017183Y011287D03*
X017183Y011283D03*
X017183Y011278D03*
X017183Y011274D03*
X017183Y011270D03*
X017183Y011265D03*
X017183Y011261D03*
X017183Y011256D03*
X017183Y011252D03*
X017183Y011247D03*
X017183Y011243D03*
X017183Y011239D03*
X017183Y011234D03*
X017183Y011230D03*
X017183Y011225D03*
X017183Y011221D03*
X017183Y011217D03*
X017183Y011212D03*
X017183Y011208D03*
X017183Y011203D03*
X017183Y011199D03*
X017183Y011195D03*
X017183Y011190D03*
X017183Y011186D03*
X017183Y011181D03*
X017183Y011177D03*
X017183Y011173D03*
X017183Y011168D03*
X017183Y011164D03*
X017183Y011159D03*
X017183Y011155D03*
X017183Y011150D03*
X017183Y011146D03*
X017183Y011437D03*
X017178Y010696D03*
X017178Y010692D03*
X017178Y010687D03*
D197*
X014169Y009841D03*
X014169Y009836D03*
D198*
X013508Y010229D03*
X014897Y010150D03*
X015042Y009841D03*
X014897Y011327D03*
D199*
X014899Y011331D03*
X014899Y010145D03*
X015040Y009845D03*
X013505Y010224D03*
X018634Y011437D03*
D200*
X014167Y009845D03*
D201*
X013503Y010220D03*
X014901Y010141D03*
X015038Y009850D03*
X014901Y011336D03*
D202*
X014165Y009850D03*
D203*
X013501Y010216D03*
X014903Y010136D03*
X015035Y009854D03*
X014903Y011340D03*
D204*
X014162Y009854D03*
D205*
X013499Y010211D03*
X014905Y010132D03*
X015033Y009859D03*
X014905Y011076D03*
X014905Y011344D03*
X014905Y011349D03*
D206*
X014160Y009859D03*
D207*
X013497Y010207D03*
X014908Y010127D03*
X015031Y009863D03*
X014908Y010467D03*
X014908Y010471D03*
X014908Y010476D03*
X014908Y010480D03*
X014908Y010485D03*
X014908Y010489D03*
X014908Y010493D03*
X014908Y010498D03*
X014908Y010502D03*
X014908Y010507D03*
X014908Y010511D03*
X014908Y010516D03*
X014908Y010520D03*
X014908Y010524D03*
X014908Y010529D03*
X014908Y010533D03*
X014908Y010538D03*
X014908Y010542D03*
X014908Y010546D03*
X014908Y010551D03*
X014908Y010555D03*
X014908Y010560D03*
X014908Y010564D03*
X014908Y010568D03*
X014908Y010573D03*
X014908Y010577D03*
X014908Y010582D03*
X014908Y010586D03*
X014908Y010590D03*
X014908Y010595D03*
X014908Y010599D03*
X014908Y010604D03*
X014908Y010608D03*
X014908Y010613D03*
X014908Y010617D03*
X014908Y010621D03*
X014908Y010626D03*
X014908Y010630D03*
X014908Y010635D03*
X014908Y010639D03*
X014908Y010643D03*
X014908Y010648D03*
X014908Y010652D03*
X014908Y010657D03*
X014908Y010661D03*
X014908Y010665D03*
X014908Y010670D03*
X014908Y010674D03*
X014908Y010679D03*
X014908Y010683D03*
X014908Y010687D03*
X014908Y010692D03*
X014908Y010696D03*
X014908Y010701D03*
X014908Y010705D03*
X014908Y010710D03*
X014908Y010714D03*
X014908Y010718D03*
X014908Y010723D03*
X014908Y010727D03*
X014908Y010732D03*
X014908Y010736D03*
X014908Y010740D03*
X014908Y010745D03*
X014908Y010749D03*
X014908Y010754D03*
X014908Y010758D03*
X014908Y010762D03*
X014908Y010767D03*
X014908Y010771D03*
X014908Y010776D03*
X014908Y010780D03*
X014908Y010784D03*
X014908Y010789D03*
X014908Y010793D03*
X014908Y010798D03*
X014908Y010802D03*
X014908Y010807D03*
X014908Y010811D03*
X014908Y010815D03*
X014908Y010820D03*
X014908Y010824D03*
X014908Y010829D03*
X014908Y010833D03*
X014908Y010837D03*
X014908Y010842D03*
X014908Y010846D03*
X014908Y010851D03*
X014908Y010855D03*
X014908Y010859D03*
X014908Y010864D03*
X014908Y010868D03*
X014908Y010873D03*
X014908Y010877D03*
X014908Y010882D03*
X014908Y010886D03*
X014908Y010890D03*
X014908Y010895D03*
X014908Y010899D03*
X014908Y010904D03*
X014908Y010908D03*
X014908Y010912D03*
X014908Y010917D03*
X014908Y010921D03*
X014908Y010926D03*
X014908Y010930D03*
X014908Y010934D03*
X014908Y010939D03*
X014908Y010943D03*
X014908Y010948D03*
X014908Y010952D03*
X014908Y010956D03*
X014908Y010961D03*
X014908Y010965D03*
X014908Y010970D03*
X014908Y010974D03*
X014908Y010979D03*
X014908Y010983D03*
X014908Y010987D03*
X014908Y010992D03*
X014908Y010996D03*
X014908Y011001D03*
X014908Y011005D03*
X014908Y011009D03*
X014908Y011014D03*
X014908Y011018D03*
X014908Y011023D03*
X014908Y011027D03*
X014908Y011031D03*
X014908Y011036D03*
X014908Y011040D03*
X014908Y011045D03*
X014908Y011049D03*
X014908Y011053D03*
X014908Y011058D03*
X014908Y011062D03*
X014908Y011067D03*
X014908Y011071D03*
X014908Y011080D03*
X014908Y011084D03*
X014908Y011089D03*
X014908Y011353D03*
D208*
X014158Y009863D03*
D209*
X013494Y010202D03*
X014910Y010123D03*
X015029Y009867D03*
X014910Y011358D03*
D210*
X014156Y009867D03*
D211*
X013492Y010198D03*
X014912Y010119D03*
X015027Y009872D03*
X014912Y011362D03*
D212*
X014154Y009872D03*
D213*
X013490Y010194D03*
X014914Y010114D03*
X014914Y010110D03*
X015024Y009876D03*
X014914Y011367D03*
D214*
X014151Y009876D03*
D215*
X013488Y010189D03*
X014916Y010105D03*
X015022Y009881D03*
X014916Y011371D03*
D216*
X014149Y009881D03*
D217*
X013486Y010185D03*
X014919Y010101D03*
X015020Y009885D03*
X014919Y011375D03*
D218*
X014147Y009885D03*
D219*
X013483Y010172D03*
X013483Y010180D03*
X014921Y010097D03*
X015018Y009894D03*
X015018Y009889D03*
X014921Y011380D03*
D220*
X014145Y009889D03*
D221*
X014143Y009894D03*
D222*
X013481Y010176D03*
X014923Y010092D03*
X015016Y009898D03*
X014923Y011384D03*
D223*
X014140Y009898D03*
D224*
X014925Y010088D03*
X015013Y009903D03*
X014925Y011389D03*
D225*
X014138Y009903D03*
D226*
X014927Y010083D03*
X015011Y009907D03*
X014927Y011393D03*
D227*
X014136Y009911D03*
X014136Y009907D03*
D228*
X014930Y010079D03*
X015009Y009911D03*
X014930Y011397D03*
D229*
X014932Y011402D03*
X014932Y010075D03*
X015007Y009916D03*
D230*
X014134Y009916D03*
D231*
X014934Y010070D03*
X015005Y009920D03*
X014934Y011406D03*
D232*
X014132Y009920D03*
D233*
X014936Y010066D03*
X015002Y009925D03*
X014936Y011411D03*
D234*
X014129Y009925D03*
D235*
X014938Y010061D03*
X015000Y009929D03*
X014938Y011415D03*
X014938Y011419D03*
D236*
X014127Y009929D03*
D237*
X014941Y010057D03*
X014998Y009933D03*
X014941Y011424D03*
D238*
X014125Y009933D03*
D239*
X014943Y010053D03*
X014996Y009938D03*
D240*
X014123Y009938D03*
D241*
X014945Y010048D03*
X014994Y009942D03*
X014945Y011428D03*
D242*
X014121Y009942D03*
D243*
X014947Y010044D03*
X014991Y009947D03*
X014947Y011433D03*
X014947Y011437D03*
D244*
X014118Y009947D03*
D245*
X014949Y010039D03*
X014989Y009951D03*
D246*
X014116Y009951D03*
D247*
X014952Y010030D03*
X014952Y010035D03*
X014987Y009956D03*
D248*
X014114Y009956D03*
D249*
X014954Y010026D03*
X014985Y009960D03*
D250*
X014112Y009960D03*
D251*
X014956Y010022D03*
X014983Y009969D03*
X014983Y009964D03*
D252*
X014109Y009964D03*
D253*
X014107Y009969D03*
D254*
X014958Y010017D03*
X014980Y009973D03*
D255*
X014105Y009973D03*
D256*
X014963Y010008D03*
X014976Y009982D03*
X014976Y009978D03*
D257*
X014103Y009978D03*
X014103Y009982D03*
D258*
X014965Y010004D03*
X014974Y009986D03*
X017130Y010172D03*
D259*
X014101Y009986D03*
D260*
X014098Y009991D03*
D261*
X014096Y009995D03*
D262*
X014094Y010000D03*
D263*
X014092Y010004D03*
D264*
X014090Y010008D03*
D265*
X014961Y010013D03*
X018351Y010714D03*
D266*
X014087Y010013D03*
D267*
X014085Y010017D03*
D268*
X014083Y010022D03*
D269*
X014081Y010026D03*
D270*
X014079Y010030D03*
D271*
X014076Y010035D03*
D272*
X014074Y010039D03*
D273*
X014072Y010044D03*
D274*
X014070Y010048D03*
D275*
X014068Y010053D03*
D276*
X014065Y010057D03*
X014065Y010061D03*
D277*
X014063Y010066D03*
D278*
X014061Y010070D03*
D279*
X014059Y010075D03*
D280*
X014057Y010079D03*
D281*
X014054Y010083D03*
D282*
X014052Y010088D03*
D283*
X014050Y010092D03*
D284*
X014048Y010097D03*
D285*
X014046Y010101D03*
D286*
X014043Y010105D03*
D287*
X014041Y010110D03*
D288*
X014039Y010114D03*
D289*
X014037Y010119D03*
X014037Y010123D03*
D290*
X014032Y010127D03*
D291*
X014030Y010132D03*
X014030Y010136D03*
D292*
X014028Y010141D03*
D293*
X014026Y010145D03*
D294*
X014024Y010150D03*
D295*
X014021Y010154D03*
D296*
X014019Y010158D03*
D297*
X013514Y010247D03*
X014890Y010163D03*
X015728Y010317D03*
X015728Y010322D03*
X015728Y010326D03*
X015728Y010330D03*
X015728Y010687D03*
X015728Y010710D03*
X015728Y010859D03*
X015728Y010864D03*
X015728Y010886D03*
X015728Y010890D03*
X015728Y010895D03*
X015728Y011181D03*
X015728Y011186D03*
X016402Y011265D03*
X016402Y011270D03*
X016402Y011274D03*
X016402Y011292D03*
X017183Y011433D03*
X018246Y010630D03*
X018246Y010626D03*
X019039Y010480D03*
X019374Y010582D03*
X019374Y010586D03*
X019366Y010714D03*
X019366Y010718D03*
X019348Y011027D03*
X019348Y011040D03*
X019013Y010965D03*
X020124Y010749D03*
X014890Y011314D03*
D298*
X014017Y010163D03*
D299*
X014015Y010167D03*
D300*
X014063Y010172D03*
X014442Y011530D03*
D301*
X013620Y011424D03*
X013620Y011419D03*
X013620Y010471D03*
X014784Y010388D03*
X020653Y010176D03*
D302*
X020796Y010260D03*
X015479Y010180D03*
X015479Y010176D03*
X014359Y011406D03*
X014359Y011411D03*
X013763Y011115D03*
X013763Y010776D03*
D303*
X013856Y010974D03*
X014165Y010176D03*
D304*
X014165Y010401D03*
X014416Y010670D03*
X014760Y010441D03*
X013644Y010520D03*
X013644Y011371D03*
X014359Y011283D03*
X020677Y010180D03*
D305*
X019745Y010180D03*
X018391Y011287D03*
X017236Y010520D03*
X017236Y010516D03*
X017236Y010511D03*
X014833Y010286D03*
X014833Y011190D03*
X013572Y011525D03*
X013572Y010366D03*
D306*
X014165Y010180D03*
X013852Y010961D03*
D307*
X013664Y011327D03*
X013664Y010564D03*
X019745Y010202D03*
X020697Y010185D03*
D308*
X019745Y010185D03*
X014806Y010344D03*
X014806Y011137D03*
X013598Y011468D03*
X013598Y010423D03*
D309*
X013766Y010780D03*
X013766Y011111D03*
X015476Y010185D03*
X018638Y011349D03*
X019745Y010260D03*
X020799Y010264D03*
X020799Y011349D03*
D310*
X014165Y010185D03*
X013847Y010952D03*
D311*
X013677Y011300D03*
X013677Y010590D03*
X020710Y010189D03*
D312*
X019747Y010189D03*
X014782Y010392D03*
X014165Y010427D03*
X013622Y010476D03*
X014359Y011256D03*
X014359Y011261D03*
X013622Y011415D03*
D313*
X013768Y011106D03*
X013768Y010784D03*
X014165Y010273D03*
X015474Y010189D03*
X014359Y011415D03*
X019743Y010264D03*
X020801Y010269D03*
X020801Y011344D03*
D314*
X014162Y010189D03*
X013845Y010948D03*
D315*
X013684Y011287D03*
X014359Y011322D03*
X013684Y010608D03*
X013684Y010604D03*
X014165Y010361D03*
X017877Y011393D03*
X020717Y010194D03*
D316*
X019745Y010194D03*
X014771Y010419D03*
X014162Y010414D03*
X013633Y010498D03*
X013633Y011393D03*
D317*
X013770Y011102D03*
X013770Y010789D03*
X014162Y010269D03*
X015472Y010194D03*
X018638Y011344D03*
X020803Y011340D03*
X020803Y010273D03*
D318*
X014162Y010194D03*
X013841Y010939D03*
D319*
X013697Y011256D03*
X014359Y011336D03*
X014359Y011340D03*
X013697Y010635D03*
X014165Y010348D03*
X017864Y011380D03*
X020730Y010198D03*
D320*
X019745Y010198D03*
X014753Y010454D03*
X013651Y010538D03*
X013651Y011353D03*
D321*
X013772Y011098D03*
X013772Y010793D03*
X014359Y011419D03*
X015470Y010202D03*
X015470Y010198D03*
X020805Y010277D03*
X020805Y011336D03*
D322*
X014162Y010198D03*
X013836Y010930D03*
D323*
X013704Y010648D03*
X014162Y010339D03*
X013704Y011243D03*
X017853Y011367D03*
X019745Y010220D03*
X020737Y010202D03*
D324*
X014162Y010202D03*
X013832Y010921D03*
D325*
X013710Y010661D03*
X014165Y010330D03*
X013710Y011230D03*
X014359Y011353D03*
X017846Y011358D03*
X020744Y010207D03*
D326*
X019743Y010207D03*
X017891Y011402D03*
X014359Y011314D03*
X013675Y011305D03*
X013675Y010586D03*
X014165Y010370D03*
X014416Y010639D03*
D327*
X014165Y010260D03*
X013777Y010802D03*
X013777Y011089D03*
X014359Y011424D03*
X015465Y010211D03*
X015465Y010207D03*
X020810Y010286D03*
X020810Y011327D03*
D328*
X014165Y010207D03*
X013829Y010917D03*
D329*
X013717Y011217D03*
X017835Y011344D03*
X017840Y011349D03*
X018638Y011384D03*
X020750Y010211D03*
D330*
X019745Y010211D03*
X017875Y011389D03*
X013686Y011283D03*
X013686Y010613D03*
D331*
X013825Y010904D03*
X013825Y010908D03*
X014165Y010211D03*
D332*
X014165Y010317D03*
X013724Y010692D03*
X013724Y011199D03*
X014359Y011367D03*
X020757Y010216D03*
D333*
X019745Y010216D03*
X013695Y010630D03*
X013695Y011261D03*
D334*
X013779Y011084D03*
X013779Y010807D03*
X015463Y010216D03*
X018638Y011336D03*
X019745Y010273D03*
X020812Y010291D03*
X020812Y011322D03*
D335*
X015421Y010313D03*
X014165Y010216D03*
X013821Y010895D03*
X013821Y010899D03*
D336*
X013728Y010701D03*
X013728Y011190D03*
X014359Y011371D03*
X014165Y010313D03*
X017820Y011318D03*
X019743Y010233D03*
X020761Y010220D03*
X020761Y011393D03*
D337*
X020814Y011318D03*
X020814Y010295D03*
X015461Y010220D03*
X014165Y010255D03*
X013781Y010811D03*
X013781Y011080D03*
X014359Y011428D03*
D338*
X013816Y010886D03*
X014165Y010220D03*
X015426Y010299D03*
X015426Y010304D03*
D339*
X014165Y010308D03*
X013732Y010710D03*
X013732Y011181D03*
X014359Y011375D03*
X017811Y011305D03*
X017816Y011309D03*
X018636Y011375D03*
X020766Y010224D03*
D340*
X019745Y010224D03*
X013713Y010665D03*
X013713Y011225D03*
D341*
X013783Y011076D03*
X013783Y010815D03*
X015459Y010224D03*
X018638Y011331D03*
X019745Y010277D03*
X020816Y010299D03*
X020816Y011309D03*
X020816Y011314D03*
D342*
X018640Y011296D03*
X015430Y010291D03*
X014165Y010224D03*
X013812Y010877D03*
D343*
X013737Y010718D03*
X013737Y011173D03*
X014359Y011380D03*
X014165Y010304D03*
X017807Y011296D03*
X020770Y010229D03*
D344*
X019745Y010229D03*
X020755Y011397D03*
X017831Y011336D03*
X013721Y011208D03*
X013721Y011203D03*
X013721Y010687D03*
X013721Y010683D03*
D345*
X013785Y010820D03*
X013785Y010824D03*
X013785Y011067D03*
X013785Y011071D03*
X014359Y011433D03*
X014165Y010251D03*
X015457Y010229D03*
X020818Y010304D03*
X020818Y011305D03*
D346*
X021085Y011265D03*
X021081Y010344D03*
X018360Y011274D03*
X017209Y010344D03*
X017209Y010339D03*
X017209Y010335D03*
X017209Y010330D03*
X017209Y010326D03*
X014859Y010229D03*
X014859Y011247D03*
X013545Y010308D03*
D347*
X013807Y010868D03*
X014165Y010229D03*
X015435Y010277D03*
X015435Y010282D03*
X015435Y010718D03*
X015435Y010758D03*
X015435Y010762D03*
X015435Y010767D03*
X015435Y010771D03*
X015435Y010776D03*
X015435Y010780D03*
X015435Y010784D03*
X015435Y010789D03*
X015435Y010793D03*
X015435Y010798D03*
X015435Y010802D03*
X015435Y010807D03*
X015435Y010811D03*
X015435Y010815D03*
X015435Y010820D03*
X015435Y010824D03*
X015435Y010829D03*
X015435Y010833D03*
X015435Y010851D03*
X019743Y010308D03*
D348*
X020774Y010233D03*
X014359Y011384D03*
X013741Y011164D03*
X013741Y010727D03*
X014165Y010299D03*
D349*
X013788Y010829D03*
X015454Y010233D03*
X018638Y011327D03*
X019745Y010282D03*
X020821Y010308D03*
X020821Y010313D03*
X020821Y011300D03*
D350*
X018918Y011274D03*
X017600Y011274D03*
X017212Y010357D03*
X017212Y010352D03*
X017212Y010348D03*
X014857Y010233D03*
X014165Y010507D03*
X013547Y010313D03*
X014359Y011177D03*
X014359Y011181D03*
X014857Y011243D03*
D351*
X013803Y010859D03*
X014165Y010233D03*
X015439Y010269D03*
D352*
X014165Y010295D03*
X013746Y010736D03*
X013746Y011155D03*
X014359Y011389D03*
X020779Y010238D03*
D353*
X019745Y010238D03*
X020768Y011384D03*
X017809Y011300D03*
X013735Y011177D03*
X013735Y010714D03*
D354*
X013790Y010833D03*
X013790Y011058D03*
X013790Y011062D03*
X014359Y011437D03*
X014165Y010247D03*
X015452Y010242D03*
X015452Y010238D03*
X019743Y010286D03*
X020823Y011296D03*
D355*
X021076Y011270D03*
X020018Y010335D03*
X019471Y010335D03*
X017214Y010361D03*
X017214Y010366D03*
X017214Y010370D03*
X017214Y010374D03*
X014855Y010238D03*
X014414Y010767D03*
X014162Y010502D03*
X013549Y010322D03*
X013549Y010317D03*
X014855Y011239D03*
D356*
X013799Y010851D03*
X014165Y010238D03*
X015443Y010260D03*
D357*
X014165Y010291D03*
X013750Y010749D03*
X013750Y011146D03*
X014359Y011393D03*
X020783Y010242D03*
D358*
X019745Y010242D03*
X020777Y011375D03*
X018638Y011367D03*
X013744Y011159D03*
X013744Y010732D03*
D359*
X014412Y010762D03*
X014464Y010820D03*
X014473Y010829D03*
X014478Y010833D03*
X014482Y010837D03*
X014486Y010842D03*
X014852Y011234D03*
X014852Y010242D03*
X013552Y011565D03*
X017216Y010388D03*
X017216Y010383D03*
X017216Y010379D03*
X018367Y011278D03*
X018909Y011278D03*
X021074Y010339D03*
D360*
X019743Y010291D03*
X015448Y010251D03*
X014165Y010242D03*
X013794Y010842D03*
X013794Y011049D03*
D361*
X013752Y011142D03*
X018638Y011362D03*
X020785Y011367D03*
X020785Y010247D03*
D362*
X019745Y010247D03*
X020781Y011371D03*
X013748Y011150D03*
X013748Y010745D03*
X013748Y010740D03*
D363*
X013792Y010837D03*
X013792Y011053D03*
X015450Y010247D03*
X018638Y011322D03*
D364*
X017606Y011278D03*
X017218Y010405D03*
X017218Y010401D03*
X017218Y010396D03*
X017218Y010392D03*
X019476Y010330D03*
X014850Y010247D03*
X014418Y010771D03*
X014423Y010776D03*
X014427Y010780D03*
X014431Y010784D03*
X014436Y010789D03*
X014440Y010793D03*
X014445Y010798D03*
X014449Y010802D03*
X014453Y010807D03*
X014458Y010811D03*
X014462Y010815D03*
X014471Y010824D03*
X014489Y010846D03*
X014493Y010851D03*
X014498Y010855D03*
X014502Y010859D03*
X014506Y010864D03*
X014511Y010868D03*
X014515Y010873D03*
X014520Y010877D03*
X014524Y010882D03*
X014528Y010886D03*
X014533Y010890D03*
X014537Y010895D03*
X014546Y010904D03*
X014550Y010908D03*
X014550Y010912D03*
X014559Y010921D03*
X014568Y010930D03*
X014577Y010939D03*
X014581Y010943D03*
X014586Y010948D03*
X014595Y010956D03*
X014599Y010961D03*
X014603Y010965D03*
X014612Y010974D03*
X014617Y010979D03*
X014621Y010983D03*
X014625Y010987D03*
X014634Y011001D03*
X014669Y011036D03*
X014674Y011040D03*
X014678Y011045D03*
X014683Y011049D03*
X014687Y011053D03*
X014692Y011058D03*
X014850Y011230D03*
X014356Y011186D03*
X013554Y011561D03*
X013554Y010330D03*
X013554Y010326D03*
D365*
X013757Y010762D03*
X013757Y011128D03*
X013757Y011133D03*
X014356Y011402D03*
X014162Y010282D03*
X018638Y011358D03*
X020790Y010251D03*
D366*
X019743Y010251D03*
X020788Y011362D03*
X014359Y011397D03*
X013755Y011137D03*
X013755Y010758D03*
X013755Y010754D03*
X014165Y010286D03*
D367*
X014165Y010498D03*
X014407Y010758D03*
X014539Y010899D03*
X014557Y010917D03*
X014566Y010926D03*
X014575Y010934D03*
X014592Y010952D03*
X014606Y010970D03*
X014628Y010992D03*
X014632Y010996D03*
X014641Y011005D03*
X014645Y011009D03*
X014650Y011014D03*
X014654Y011018D03*
X014658Y011023D03*
X014663Y011027D03*
X014667Y011031D03*
X014694Y011062D03*
X014698Y011067D03*
X014703Y011071D03*
X014707Y011076D03*
X014711Y011080D03*
X014716Y011084D03*
X014720Y011089D03*
X014848Y011225D03*
X014359Y011190D03*
X013556Y011556D03*
X013556Y010335D03*
X014848Y010251D03*
X017220Y010410D03*
X017220Y010414D03*
X018640Y011433D03*
X018900Y011283D03*
X020012Y010330D03*
X021070Y011274D03*
D368*
X020792Y011358D03*
X020792Y010255D03*
X013759Y010767D03*
X013759Y011124D03*
D369*
X013761Y011120D03*
X013761Y010771D03*
X014162Y010277D03*
X018638Y011353D03*
X019745Y010255D03*
X020794Y011353D03*
D370*
X019745Y010295D03*
X018638Y011318D03*
X015446Y010255D03*
X013796Y010846D03*
D371*
X013558Y010339D03*
X014846Y010260D03*
X014846Y010255D03*
X014846Y011221D03*
X013558Y011552D03*
X017223Y010436D03*
X017223Y010432D03*
X017223Y010427D03*
X017223Y010423D03*
X017223Y010419D03*
X018378Y011283D03*
D372*
X018638Y011309D03*
X018638Y011314D03*
X019745Y010299D03*
X015441Y010264D03*
X013801Y010855D03*
D373*
X014165Y010493D03*
X014412Y010754D03*
X014359Y011195D03*
X014844Y011217D03*
X014844Y010264D03*
X013561Y010344D03*
X013561Y011547D03*
X017225Y010449D03*
X017225Y010445D03*
X017225Y010441D03*
X017617Y011283D03*
X021061Y010335D03*
D374*
X020807Y010282D03*
X019745Y010269D03*
X020807Y011331D03*
X018638Y011340D03*
X014162Y010264D03*
X013774Y010798D03*
X013774Y011093D03*
D375*
X013563Y011543D03*
X014162Y010489D03*
X013563Y010348D03*
X014841Y010269D03*
X014841Y011208D03*
X014841Y011212D03*
X017227Y010463D03*
X017227Y010458D03*
X017227Y010454D03*
X020001Y010326D03*
D376*
X019745Y010304D03*
X018638Y011305D03*
X015437Y010846D03*
X015437Y010842D03*
X015437Y010837D03*
X015437Y010754D03*
X015437Y010749D03*
X015437Y010745D03*
X015437Y010740D03*
X015437Y010736D03*
X015437Y010732D03*
X015437Y010727D03*
X015437Y010723D03*
X015437Y010273D03*
X013805Y010864D03*
D377*
X013565Y010352D03*
X014412Y010749D03*
X014359Y011199D03*
X014839Y011203D03*
X014839Y010273D03*
X013565Y011539D03*
X017229Y010480D03*
X017229Y010476D03*
X017229Y010471D03*
X017229Y010467D03*
X019487Y010326D03*
X021057Y011278D03*
D378*
X021054Y010330D03*
X017231Y010485D03*
X017231Y010489D03*
X017231Y010493D03*
X014837Y010277D03*
X014162Y010485D03*
X013567Y010357D03*
X013567Y011534D03*
D379*
X013569Y011530D03*
X014359Y011203D03*
X014835Y011199D03*
X014835Y011195D03*
X014412Y010745D03*
X014165Y010480D03*
X013569Y010361D03*
X014835Y010282D03*
X017234Y010498D03*
X017234Y010502D03*
X017234Y010507D03*
X017630Y011287D03*
X018887Y011287D03*
D380*
X018638Y011300D03*
X019745Y010313D03*
X015432Y010286D03*
X013810Y010873D03*
D381*
X013574Y010370D03*
X014412Y010740D03*
X014359Y011208D03*
X014830Y011186D03*
X014830Y010291D03*
X013574Y011521D03*
X017238Y010533D03*
X017238Y010529D03*
X017238Y010524D03*
D382*
X015428Y010295D03*
X013814Y010882D03*
D383*
X014162Y010476D03*
X013576Y010374D03*
X014828Y010295D03*
X014828Y011181D03*
X013576Y011516D03*
X017240Y010555D03*
X017240Y010551D03*
X017240Y010546D03*
X017240Y010542D03*
X017240Y010538D03*
X021046Y011283D03*
D384*
X019981Y010322D03*
X019504Y010322D03*
X017247Y010582D03*
X017242Y010564D03*
X017242Y010560D03*
X014826Y010299D03*
X014412Y010736D03*
X014165Y010471D03*
X013578Y010379D03*
X014359Y011212D03*
X014826Y011177D03*
X013578Y011512D03*
D385*
X013580Y011508D03*
X014520Y010630D03*
X014524Y010626D03*
X014824Y010304D03*
X014824Y011173D03*
X013580Y010383D03*
X017245Y010568D03*
X017245Y010573D03*
X017245Y010577D03*
X017249Y010586D03*
X017249Y010590D03*
X017249Y010595D03*
X017249Y010599D03*
X021037Y010326D03*
D386*
X015424Y010308D03*
X013818Y010890D03*
D387*
X014165Y010467D03*
X014412Y010732D03*
X014526Y010621D03*
X014531Y010617D03*
X014557Y010590D03*
X014822Y010308D03*
X014822Y011168D03*
X014359Y011217D03*
X013583Y011503D03*
X013583Y010392D03*
X013583Y010388D03*
X017251Y010604D03*
X017251Y010608D03*
X017251Y010613D03*
D388*
X017253Y010617D03*
X017253Y010621D03*
X017253Y010626D03*
X017650Y011292D03*
X018638Y011428D03*
X014819Y011164D03*
X014537Y010613D03*
X014542Y010608D03*
X014546Y010604D03*
X014550Y010599D03*
X014555Y010595D03*
X014564Y010586D03*
X014568Y010582D03*
X014572Y010577D03*
X014577Y010573D03*
X014581Y010568D03*
X014586Y010564D03*
X014590Y010560D03*
X014595Y010555D03*
X014819Y010313D03*
X013585Y010396D03*
X013585Y011499D03*
D389*
X013649Y011362D03*
X013649Y011358D03*
X014359Y011287D03*
X014416Y010665D03*
X014165Y010396D03*
X013649Y010529D03*
X013649Y010533D03*
X014755Y010449D03*
X017921Y011419D03*
X020964Y010317D03*
D390*
X019952Y010317D03*
X014797Y010361D03*
X014797Y011115D03*
X013607Y011450D03*
X013607Y010445D03*
X013607Y010441D03*
D391*
X013605Y010436D03*
X014165Y010445D03*
X014412Y010710D03*
X014800Y011120D03*
X014800Y011124D03*
X014359Y011239D03*
X013605Y011455D03*
X014800Y010357D03*
X019535Y010317D03*
X020638Y011437D03*
D392*
X021030Y011287D03*
X018865Y011292D03*
X018411Y011292D03*
X017256Y010639D03*
X017256Y010635D03*
X017256Y010630D03*
X014817Y010317D03*
X014623Y010524D03*
X014619Y010529D03*
X014614Y010533D03*
X014610Y010538D03*
X014606Y010542D03*
X014601Y010546D03*
X014597Y010551D03*
X014412Y010727D03*
X014165Y010463D03*
X013587Y010401D03*
X014359Y011221D03*
X014817Y011159D03*
X013587Y011490D03*
X013587Y011494D03*
D393*
X013602Y011459D03*
X013602Y010432D03*
X014802Y010352D03*
X021015Y010322D03*
D394*
X017981Y011437D03*
X017258Y010657D03*
X017258Y010652D03*
X017258Y010648D03*
X017258Y010643D03*
X014815Y010322D03*
X014674Y010476D03*
X014669Y010480D03*
X014665Y010485D03*
X014661Y010489D03*
X014656Y010493D03*
X014652Y010498D03*
X014647Y010502D03*
X014643Y010507D03*
X014639Y010511D03*
X014634Y010516D03*
X014630Y010520D03*
X014409Y010723D03*
X014815Y011155D03*
X013589Y011486D03*
X013589Y010405D03*
D395*
X013719Y010679D03*
X014165Y010322D03*
X013719Y011212D03*
X014359Y011362D03*
X017833Y011340D03*
D396*
X017260Y010670D03*
X017260Y010665D03*
X017260Y010661D03*
X014813Y010326D03*
X014681Y010467D03*
X014676Y010471D03*
X014165Y010458D03*
X013591Y010410D03*
X014359Y011225D03*
X014813Y011150D03*
X013591Y011481D03*
D397*
X013715Y011221D03*
X014359Y011358D03*
X013715Y010674D03*
X013715Y010670D03*
X014165Y010326D03*
X017842Y011353D03*
X020748Y011402D03*
D398*
X017262Y010683D03*
X017262Y010679D03*
X017262Y010674D03*
X014811Y010335D03*
X014811Y010330D03*
X014811Y011146D03*
X013594Y011477D03*
X013594Y010414D03*
D399*
X013708Y010657D03*
X014162Y010335D03*
X013708Y011234D03*
X017849Y011362D03*
X018638Y011389D03*
D400*
X014808Y011142D03*
X014359Y011230D03*
X014412Y010718D03*
X014165Y010454D03*
X013596Y010419D03*
X014808Y010339D03*
X013596Y011472D03*
D401*
X013699Y011252D03*
X013699Y010639D03*
X014162Y010344D03*
X017862Y011375D03*
X020732Y011411D03*
D402*
X014804Y011133D03*
X014804Y011128D03*
X014359Y011234D03*
X014412Y010714D03*
X014165Y010449D03*
X013600Y010427D03*
X014804Y010348D03*
X013600Y011464D03*
D403*
X013693Y011265D03*
X013693Y010626D03*
X014165Y010352D03*
X017869Y011384D03*
X018640Y011397D03*
D404*
X014359Y011331D03*
X014359Y011327D03*
X013688Y011278D03*
X013688Y010617D03*
X014165Y010357D03*
D405*
X014165Y010441D03*
X014412Y010705D03*
X014795Y011111D03*
X014359Y011243D03*
X013609Y011446D03*
X014795Y010366D03*
X018640Y011424D03*
D406*
X017886Y011397D03*
X014359Y011318D03*
X013680Y011296D03*
X013680Y010599D03*
X013680Y010595D03*
X014165Y010366D03*
X014416Y010635D03*
D407*
X014793Y010370D03*
X014793Y011106D03*
X013611Y011442D03*
X013611Y010449D03*
X017959Y011433D03*
D408*
X020999Y011292D03*
X014791Y011102D03*
X014359Y011247D03*
X013613Y011437D03*
X013613Y010454D03*
X014165Y010436D03*
X014791Y010374D03*
D409*
X014416Y010643D03*
X014165Y010374D03*
X013671Y010577D03*
X013671Y011314D03*
X014359Y011309D03*
D410*
X014789Y011098D03*
X014414Y010701D03*
X014162Y010432D03*
X013616Y010458D03*
X013616Y010463D03*
X013616Y011428D03*
X013616Y011433D03*
X014789Y010379D03*
D411*
X014416Y010648D03*
X014165Y010379D03*
X013666Y010568D03*
X013666Y011322D03*
X014359Y011305D03*
D412*
X014359Y011252D03*
X014786Y011093D03*
X014416Y010696D03*
X014786Y010383D03*
X013618Y010467D03*
D413*
X013662Y010560D03*
X014165Y010383D03*
X014416Y010652D03*
X014359Y011300D03*
X013662Y011331D03*
X017904Y011411D03*
D414*
X014359Y011296D03*
X013658Y011340D03*
X013658Y010551D03*
X014165Y010388D03*
X014416Y010657D03*
D415*
X014416Y010661D03*
X014165Y010392D03*
X013653Y010542D03*
X013653Y011349D03*
X014359Y011292D03*
X014751Y010458D03*
D416*
X014780Y010396D03*
X014414Y010692D03*
X013624Y010480D03*
X013624Y011411D03*
D417*
X013627Y011406D03*
X014359Y011265D03*
X014412Y010687D03*
X014165Y010423D03*
X013627Y010485D03*
X014778Y010401D03*
D418*
X014775Y010405D03*
X014775Y010410D03*
X014414Y010683D03*
X013629Y010489D03*
X013629Y011402D03*
X017941Y011428D03*
X018638Y011419D03*
D419*
X018638Y011415D03*
X014762Y010436D03*
X014162Y010405D03*
X013642Y010516D03*
X013642Y011375D03*
D420*
X013638Y011384D03*
X013638Y010507D03*
X014162Y010410D03*
X014766Y010427D03*
D421*
X014773Y010414D03*
X014165Y010419D03*
X013631Y010493D03*
X013631Y011397D03*
X014359Y011270D03*
D422*
X014359Y011274D03*
X013635Y011389D03*
X013635Y010502D03*
X014416Y010679D03*
X014769Y010423D03*
X020669Y011433D03*
D423*
X017930Y011424D03*
X014764Y010432D03*
X014416Y010674D03*
X013640Y010511D03*
X013640Y011380D03*
X014359Y011278D03*
D424*
X013646Y011367D03*
X013646Y010524D03*
X014758Y010445D03*
D425*
X014749Y010463D03*
X013655Y010546D03*
X013655Y011344D03*
X017910Y011415D03*
X018638Y011411D03*
X020688Y011428D03*
D426*
X013660Y011336D03*
X013660Y010555D03*
D427*
X013669Y010573D03*
X013669Y011318D03*
X015296Y010714D03*
X017897Y011406D03*
X020702Y011424D03*
D428*
X018638Y011406D03*
X013673Y011309D03*
X013673Y010582D03*
D429*
X013691Y010621D03*
X013691Y011270D03*
X013691Y011274D03*
X020724Y011415D03*
D430*
X018636Y011393D03*
X017855Y011371D03*
X014359Y011344D03*
X013702Y011247D03*
X013702Y010643D03*
D431*
X013706Y010652D03*
X013706Y011239D03*
X014359Y011349D03*
X020739Y011406D03*
D432*
X018638Y011380D03*
X017827Y011331D03*
X017827Y011327D03*
X017822Y011322D03*
X013726Y011195D03*
X013726Y010696D03*
D433*
X013730Y010705D03*
X013730Y011186D03*
X015512Y010855D03*
X017818Y011314D03*
X020763Y011389D03*
D434*
X018638Y010727D03*
X018638Y010723D03*
X018638Y010718D03*
D435*
X018638Y011371D03*
X020772Y011380D03*
X013739Y011168D03*
X013739Y010723D03*
D436*
X018638Y010732D03*
X018638Y010736D03*
X018638Y010740D03*
X018638Y010745D03*
X018638Y010749D03*
X018638Y010754D03*
X018638Y010758D03*
X018638Y010762D03*
X018638Y010767D03*
X018638Y010771D03*
X018638Y010776D03*
X018638Y010780D03*
X018638Y010784D03*
X018638Y010789D03*
D437*
X018640Y010793D03*
X018640Y010798D03*
X018640Y010802D03*
D438*
X018638Y010807D03*
X018638Y010811D03*
X018638Y010815D03*
X018638Y010820D03*
X018638Y010824D03*
X018638Y010829D03*
X018638Y010833D03*
X018638Y010837D03*
X018638Y010842D03*
X018638Y010846D03*
X018638Y010851D03*
D439*
X013827Y010912D03*
D440*
X013834Y010926D03*
D441*
X013838Y010934D03*
D442*
X013843Y010943D03*
D443*
X013849Y010956D03*
D444*
X013854Y010965D03*
X013854Y010970D03*
D445*
X013858Y010979D03*
D446*
X013860Y010983D03*
D447*
X013863Y010987D03*
D448*
X013865Y010992D03*
D449*
X013867Y010996D03*
D450*
X013869Y011001D03*
D451*
X013871Y011005D03*
D452*
X013874Y011009D03*
D453*
X013876Y011014D03*
D454*
X013878Y011018D03*
D455*
X013880Y011023D03*
D456*
X013882Y011027D03*
D457*
X013885Y011031D03*
D458*
X013887Y011036D03*
X013887Y011040D03*
D459*
X013889Y011045D03*
D460*
X013682Y011292D03*
X018638Y011402D03*
X020715Y011419D03*
D461*
X015981Y011296D03*
D462*
X015984Y011300D03*
D463*
X015986Y011305D03*
D464*
X015988Y011309D03*
D465*
X015990Y011314D03*
D466*
X015992Y011318D03*
D467*
X015995Y011322D03*
D468*
X015997Y011327D03*
D469*
X015999Y011331D03*
D470*
X016001Y011336D03*
D471*
X016003Y011340D03*
D472*
X016006Y011344D03*
X016006Y011349D03*
D473*
X016008Y011353D03*
D474*
X016010Y011358D03*
D475*
X016012Y011362D03*
D476*
X016014Y011367D03*
D477*
X016017Y011371D03*
D478*
X016019Y011375D03*
D479*
X016021Y011380D03*
D480*
X016023Y011384D03*
D481*
X016025Y011389D03*
X016025Y011393D03*
D482*
X016028Y011397D03*
D483*
X016032Y011402D03*
D484*
X016034Y011406D03*
D485*
X016036Y011411D03*
D486*
X016039Y011415D03*
X016039Y011419D03*
D487*
X016041Y011424D03*
D488*
X016043Y011428D03*
D489*
X016047Y011433D03*
X016047Y011437D03*
D490*
X014484Y011442D03*
D491*
X014482Y011446D03*
D492*
X014480Y011450D03*
D493*
X014478Y011455D03*
D494*
X014475Y011459D03*
D495*
X014473Y011464D03*
D496*
X014471Y011468D03*
D497*
X014469Y011472D03*
D498*
X014467Y011477D03*
D499*
X014464Y011481D03*
X014464Y011486D03*
D500*
X014462Y011490D03*
D501*
X014460Y011494D03*
D502*
X014458Y011499D03*
D503*
X014456Y011503D03*
D504*
X014453Y011508D03*
D505*
X014451Y011512D03*
D506*
X014449Y011516D03*
D507*
X014447Y011521D03*
D508*
X014445Y011525D03*
D509*
X014440Y011534D03*
D510*
X014438Y011539D03*
D511*
X014436Y011543D03*
D512*
X014434Y011547D03*
D513*
X014431Y011552D03*
X014431Y011556D03*
D514*
X014429Y011561D03*
D515*
X014427Y011565D03*
M02*
